<svg transform="scale(1)" version="1.1" id="nNzcAHDalM" xmlns="http://www.w3.org/2000/svg" xmlns:xlink="http://www.w3.org/1999/xlink" x="0px" y="0px" viewBox="0 0 500 500" xml:space="preserve" class="pbimage_pbimage__wrapper__image__0LEis false"><title>Approval 2</title><style type="text/css"> .st0{fill:#FEF1E0;} .st1{fill:#FFC2A7;} .st2{fill:#C64234;} .st3{fill:url(#SVGID_1_-nNzcAHDalM);} .st4{fill:#FED490;} .st5{fill:url(#SVGID_00000067950818862170651600000017933831690779736969_-nNzcAHDalM);} .st6{fill:url(#SVGID_00000091708525618946883500000012384075487721087621_-nNzcAHDalM);} .st7{fill:url(#SVGID_00000097478570697872266110000015479064409582964649_-nNzcAHDalM);} .st8{fill:url(#SVGID_00000084524639355807654360000012054570634497663894_-nNzcAHDalM);} .st9{fill:url(#SVGID_00000023280585838731363190000000664318965883289751_-nNzcAHDalM);} .st10{fill:url(#SVGID_00000070800260884890954860000005920123167098250397_-nNzcAHDalM);} .st11{fill:#000111;} .st12{fill:url(#SVGID_00000073679805511865659810000011099957212010569865_-nNzcAHDalM);} .st13{fill:#D88260;} .st14{fill:#FFFFFF;} .st15{fill:#005045;} .st16{fill:url(#SVGID_00000075162055959047247550000014140016482135297691_-nNzcAHDalM);} .st17{fill:url(#SVGID_00000124130598539973866810000014390956527871350195_-nNzcAHDalM);} .st18{fill:url(#SVGID_00000109001190536271300830000009941866705106668465_-nNzcAHDalM);} .st19{fill:url(#SVGID_00000179636585067783962680000000663350039499447437_-nNzcAHDalM);} .st20{fill:url(#SVGID_00000054239898817072027400000017477903289234465954_-nNzcAHDalM);} .st21{fill:url(#SVGID_00000101101465014509279120000003737824284844479145_-nNzcAHDalM);}
 .st15{fill:#005045;}
 .st14{fill:#FFFFFF;}
 .st13{fill:#D88260;}
 .st11{fill:#000111;}
 .st4{fill:#FED490;}
 .st2{fill:#C64234;}
 .st1{fill:#FFC2A7;}
 .st0{fill:#FEF1E0;}</style><g id="paper"><path class="st0" d="M196.9,80.2v243.4c0,6.8-5.5,12.4-12.3,12.4c0,0,0,0,0,0H22.4c-6.8,0-12.4-5.5-12.4-12.4c0,0,0,0,0,0V80.2
		c0-6.8,5.5-12.4,12.4-12.4h162.2C191.4,67.8,196.9,73.4,196.9,80.2z" fill="#FEF1E0"></path><path class="st1" d="M196.9,80.2v12.8C144.4,93.1,49.7,93.2,10,93.1V80.2c0-6.8,5.5-12.4,12.4-12.4h162.2
		C191.4,67.8,196.9,73.4,196.9,80.2z" fill="#FFC2A7"></path><path class="st2" d="M49.3,298.4c-5.3,0.1-10.5-1.7-14.6-5.1c-5.4-4.4-8.4-11-8.6-18.6c-0.3-15.4,11.6-30.1,26.5-32.8
		c6.8-1.4,14,0.3,19.4,4.6c5.4,4.4,8.4,11,8.6,18.6c0.3,15.4-11.6,30.1-26.5,32.8C52.5,298.2,50.9,298.4,49.3,298.4z M57.5,243.8
		c-1.5,0-2.9,0.1-4.4,0.4c-13.8,2.5-24.9,16.2-24.6,30.4c0.1,6.9,2.9,12.8,7.7,16.8c4.9,3.9,11.3,5.4,17.5,4.1
		c13.8-2.5,24.8-16.2,24.6-30.4l0,0c-0.1-6.9-2.9-12.8-7.7-16.8C66.9,245.4,62.2,243.8,57.5,243.8z" fill="#C64234"></path><linearGradient id="SVGID_1_-nNzcAHDalM" gradientUnits="userSpaceOnUse" x1="76.5918" y1="291.2144" x2="39.9718" y2="213.6644" gradientTransform="matrix(1 0 0 -1 0 502)"><stop offset="0" style="stop-color: rgb(243, 131, 116);"></stop><stop offset="1" style="stop-color: rgb(198, 66, 52);"></stop></linearGradient><path class="st3" d="M50.1,287.3l-0.4,0c-1.2,0.1-2.4-0.4-3.2-1.3l-13.2-15.8c-1.3-1.6-1.1-3.9,0.5-5.2s3.9-1.1,5.2,0.5l0,0
		l9.9,11.8l26.1-43.6c1.1-1.7,3.4-2.3,5.1-1.2c1.7,1.1,2.3,3.3,1.3,5l-28.8,48.1C52.1,286.5,51.2,287.1,50.1,287.3z"></path><circle class="st2" cx="29" cy="80.9" r="5.2" fill="#C64234"></circle><circle class="st2" cx="47.1" cy="80.9" r="5.2" fill="#C64234"></circle><circle class="st2" cx="65.2" cy="80.9" r="5.2" fill="#C64234"></circle><rect class="st4" x="24.4" y="113.8" width="157" height="13" fill="#FED490"></rect><rect class="st4" x="24.4" y="133.1" width="157" height="13" fill="#FED490"></rect><rect class="st4" x="24.4" y="152.4" width="157" height="13" fill="#FED490"></rect><rect class="st4" x="24.4" y="171.7" width="157" height="49.9" fill="#FED490"></rect><path class="st2" d="M69,223.3L69,223.3c-0.7,0-1.2-0.5-1.2-1.1c-1.4-21.6-7.8-51.1-30.3-69.1C24.1,142.5,11.3,141,11.1,141
		c-0.7,0-1.2-0.6-1.2-1.2c0-0.7,0.6-1.2,1.2-1.2c0.1,0,0.1,0,0.2,0c0.6,0.1,13.7,1.6,27.6,12.7c20.8,16.6,28.2,42.7,30.6,63.9
		c3.2-11.2,7.7-22.1,13.3-32.3c14.3-25.4,33.3-38,55.1-36.4c7,0.5,12.6,2.7,16.6,6.3c26.8-27.3,71.3-45.5,114.9-46.7l0,0
		c0.7,0,1.2,0.5,1.2,1.2c0,0.7-0.5,1.2-1.2,1.2c-43.1,1.1-86.9,19.1-113.3,46c3.9,4.5,5.9,10.8,5.7,18.6
		c-0.4,17.5-12.6,40.1-21.7,40.4H140c-2.9,0-6.5-2.2-7.3-12.5c-1.1-14.5,5.3-30,18.6-44.7c0.5-0.6,1.1-1.2,1.6-1.7
		c-3.3-3-8.2-5.1-15.1-5.6c-50.4-3.8-67.5,72.8-67.6,73.6C70,222.9,69.5,223.3,69,223.3z M154.6,156.2c-0.5,0.5-1,1.1-1.5,1.6
		c-12.8,14.3-19.1,29.1-18,42.9c0.3,3.9,1.4,10.4,5,10.3c3.3-0.1,8-4.9,12-12.3c4.4-8.1,7.2-17.7,7.4-25.7
		C159.7,167.4,158.7,161,154.6,156.2L154.6,156.2z" fill="#C64234"></path></g><g id="character-2"><linearGradient id="SVGID_00000111158332598305652420000013762574973500400268_-nNzcAHDalM" gradientUnits="userSpaceOnUse" x1="407.3838" y1="437.6085" x2="367.3738" y2="338.5884" gradientTransform="matrix(1 0 0 -1 -1.503952e-02 501.9928)"><stop offset="0" style="stop-color: rgb(243, 131, 116);"></stop><stop offset="1" style="stop-color: rgb(198, 66, 52);"></stop></linearGradient><path d="M349.2,139.8c9-7.4,24.6-3.2,34.8,9.3
		c10.3,12.5,11.3,28.6,2.4,36c-9,7.4-24.6,3.2-34.8-9.3C341.2,163.3,340.2,147.1,349.2,139.8z" style="fill: url(&quot;#SVGID_00000111158332598305652420000013762574973500400268_-nNzcAHDalM&quot;);"></path><linearGradient id="SVGID_00000101087685642428193680000007468218271854314628_-nNzcAHDalM" gradientUnits="userSpaceOnUse" x1="421.6885" y1="431.8306" x2="381.6785" y2="332.8006" gradientTransform="matrix(1 0 0 -1 5.094064e-03 502.0007)"><stop offset="0" style="stop-color: rgb(243, 131, 116);"></stop><stop offset="1" style="stop-color: rgb(198, 66, 52);"></stop></linearGradient><path d="M380.6,112.1c8.7-4.6,21.9,3.3,29.5,17.6
		s6.6,29.7-2.1,34.3c-8.7,4.6-21.9-3.3-29.5-17.6S371.9,116.7,380.6,112.1z" style="fill: url(&quot;#SVGID_00000101087685642428193680000007468218271854314628_-nNzcAHDalM&quot;);"></path><linearGradient id="SVGID_00000131345883880082950210000014656309781977707405_-nNzcAHDalM" gradientUnits="userSpaceOnUse" x1="441.6457" y1="423.7617" x2="401.6357" y2="324.7418" gradientTransform="matrix(1 0 0 -1 -2.625318e-03 502.0007)"><stop offset="0" style="stop-color: rgb(243, 131, 116);"></stop><stop offset="1" style="stop-color: rgb(198, 66, 52);"></stop></linearGradient><path d="M414.6,104.5c8-3.1,18.1,3.8,22.5,15.4
		s1.5,23.4-6.5,26.4c-8,3.1-18.1-3.8-22.5-15.4C403.7,119.4,406.6,107.6,414.6,104.5z" style="fill: url(&quot;#SVGID_00000131345883880082950210000014656309781977707405_-nNzcAHDalM&quot;);"></path><path class="st1" d="M186.2,244.6l63.2,86.1l23.6-36.4l50,26.5c0,0-48,120.4-94.5,86.9c-13.3-9.5-69.7-129-69.7-129L186.2,244.6z"></path><path class="st1" d="M178.8,225.1c0,0-14.5-25.3-24.6-22.1c-7.3,2.3-0.6,16.9-0.6,16.9s-33.4-10-37.8-10.7s-9.1,9.1-2.2,12.7
		s14.5,7.2,14.5,7.2s-6.9,8-0.7,15.6c0,0-5.8,8,0,14.5c0,0,5.8,15.6,13,20.6s13-2.2,13-2.2s9.5,4.8,15.2,6.1
		c7.7,1.9,18.4-1.1,21.4-8.7C191.6,271.2,196.4,249.2,178.8,225.1z"></path><linearGradient id="SVGID_00000132067043827153236150000008458820835052409785_-nNzcAHDalM" gradientUnits="userSpaceOnUse" x1="280.0229" y1="261.0816" x2="357.7729" y2="121.6616" gradientTransform="matrix(1 0 0 -1 0 502)"><stop offset="0" style="stop-color: rgb(10, 107, 91);"></stop><stop offset="0.78" style="stop-color: rgb(0, 81, 70);"></stop><stop offset="0.91" style="stop-color: rgb(0, 80, 69);"></stop></linearGradient><path d="M317.3,241.8c0,0-18.4,5.3-33.7,31.1
		c-8.9,14.9-10.5,21.4-10.5,21.4l23.5,17.6C296.5,311.9,314.1,247.4,317.3,241.8z" style="fill: url(&quot;#SVGID_00000132067043827153236150000008458820835052409785_-nNzcAHDalM&quot;);"></path><linearGradient id="SVGID_00000159433200927664739230000011033840710234621363_-nNzcAHDalM" gradientUnits="userSpaceOnUse" x1="255.85" y1="116.9039" x2="424" y2="116.9039" gradientTransform="matrix(1 0 0 -1 0 502)"><stop offset="0" style="stop-color: rgb(243, 131, 116);"></stop><stop offset="1" style="stop-color: rgb(198, 66, 52);"></stop></linearGradient><path d="M424,430.3c0,0-17.2-57.4-59.1-84.5
		c-20.5-13.2-109-13.6-109,84.9L424,430.3z" style="fill: url(&quot;#SVGID_00000159433200927664739230000011033840710234621363_-nNzcAHDalM&quot;);"></path><path class="st1" d="M452.8,252.6c0,0,75.2,138.8-9.7,146.6c-53.6,4.9-64-102.8-64-102.8l2.8-53.6
		C381.9,242.8,429.6,234.8,452.8,252.6z"></path><linearGradient id="SVGID_00000162327253881066796390000001591489808557976508_-nNzcAHDalM" gradientUnits="userSpaceOnUse" x1="301.6599" y1="275.1144" x2="381.3199" y2="132.2844" gradientTransform="matrix(1 0 0 -1 0 502)"><stop offset="0" style="stop-color: rgb(10, 107, 91);"></stop><stop offset="0.78" style="stop-color: rgb(0, 81, 70);"></stop><stop offset="0.91" style="stop-color: rgb(0, 80, 69);"></stop></linearGradient><path d="M311.4,244.7c0,0,10.1-8.6,51.9-9.7
		c34.9-1,18.8,60,11.9,86.1c-1.8,6.9-8.1,11.7-15.2,11.6l-67.2,2.9C292.8,335.6,276.7,269.1,311.4,244.7z" style="fill: url(&quot;#SVGID_00000162327253881066796390000001591489808557976508_-nNzcAHDalM&quot;);"></path><path class="st1" d="M368.4,194.9c1.7,7.6,0.1,15.6-4.3,22.1l0,0c-8.9,12.9-26.5,16.1-39.3,7.3s-16.1-26.5-7.3-39.3
		c8.9-12.9,26.5-16.1,39.3-7.3C362.8,181.7,366.9,187.9,368.4,194.9L368.4,194.9z"></path><path class="st11" d="M311.6,219.9c-1.4,0-2.8-1.3-4-3.8c-1.2-2.8-2.1-5.7-2.5-8.6c-1-6.4-0.6-13.4,2.7-13.9s5.8,6.1,6.9,12.4
		c0.5,3,0.6,6,0.3,9c-0.4,3-1.4,4.7-3,4.9L311.6,219.9z M308.2,195.9c-0.6,0.3-1.8,4.1-0.7,11.2s3.4,10.4,4.1,10.4
		c0.6-0.3,1.8-4.1,0.7-11.2S308.9,195.9,308.2,195.9L308.2,195.9z"></path><ellipse class="st1" transform="matrix(0.8852 -0.4653 0.4653 0.8852 -63.9987 170.7293)" cx="313.8" cy="215" rx="8.8" ry="3.9"></ellipse><linearGradient id="SVGID_00000015352870246679098680000007454529255014515375_-nNzcAHDalM" gradientUnits="userSpaceOnUse" x1="397.5728" y1="441.5688" x2="357.5628" y2="342.5489" gradientTransform="matrix(1 0 0 -1 0 502)"><stop offset="0" style="stop-color: rgb(243, 131, 116);"></stop><stop offset="1" style="stop-color: rgb(198, 66, 52);"></stop></linearGradient><path d="M368.4,194.9c1.7,7.6,0.1,15.6-4.3,22.1
		l0,0c-6.3-1.5-3.7-12.9-3.7-12.9c7.1-2.2,4-17.2-3.9-16.1S350,198,350,198c-21.6,12.2-36.3-4.3-36.5-4.4
		c4-15.1,19.5-24.1,34.6-20.1C358.4,176.3,366.2,184.5,368.4,194.9L368.4,194.9z" style="fill: url(&quot;#SVGID_00000015352870246679098680000007454529255014515375_-nNzcAHDalM&quot;);"></path><path class="st13" d="M357.3,202.2c2.4-0.6,3.9-3.1,3.3-5.5c-0.6-2.4-3.1-3.9-5.5-3.3c-0.4,0.1-0.7,0.2-1.1,0.4l1.8,0.7
		c0-0.2,0,0,0-0.2c0-0.1,0-0.3,0-0.4c0,0.2,0.1-0.2,0-0.2s0.1-0.3,0.1-0.2c0.2-0.4,0.5-0.7,0.8-0.8c-0.2,0.1,0.2-0.1,0.2-0.1
		c0.2-0.1,0,0,0.2,0c0.2,0,0.4,0,0.6,0c0.2,0,0.3,0.1,0.5,0.2c0.2,0.1,0.4,0.3,0.5,0.4c0.5,0.5,1.2,0.5,1.7,0c0.5-0.5,0.5-1.2,0-1.7
		c-1.5-1.6-4-1.7-5.7-0.3c-1,1-1.5,2.4-1.2,3.8c0.2,0.6,0.9,1,1.5,0.8c0.1,0,0.2-0.1,0.2-0.1c1.1-0.5,2.4-0.1,2.9,1
		c0,0.1,0.1,0.1,0.1,0.2c0.1,0.3,0.2,0.6,0.1,0.9c0,0.3-0.1,0.5-0.2,0.8c-0.3,0.6-0.8,1-1.5,1.1c-0.6,0.2-1,0.9-0.8,1.5
		C356.1,202,356.7,202.4,357.3,202.2L357.3,202.2z"></path><ellipse class="st14" transform="matrix(1 -2.792512e-03 2.792512e-03 1 -0.5738 0.903)" cx="323.1" cy="205.9" rx="3.5" ry="4.1"></ellipse><ellipse class="st15" transform="matrix(1 -2.792512e-03 2.792512e-03 1 -0.577 0.9033)" cx="323.2" cy="207.1" rx="2.3" ry="2.7"></ellipse><path class="st13" d="M338.5,223.3c-0.7,0-1.2-0.5-1.2-1.2c0-0.4,0.2-0.8,0.5-1c1.3-0.8,2.2-2.1,2.4-3.6c0.3-3-2.5-6.1-2.6-6.1
		c-0.5-0.4-0.5-1.2-0.1-1.7c0.4-0.5,1.2-0.5,1.7-0.1c0.1,0,0.1,0.1,0.1,0.2c0.1,0.2,3.6,3.8,3.2,8c-0.3,2.2-1.5,4.2-3.4,5.4
		C339,223.3,338.8,223.3,338.5,223.3z"></path><path class="st13" d="M336.6,212.1c-0.6,0-1.3-0.1-1.9-0.3c-0.6-0.2-1-0.9-0.8-1.5s0.9-1,1.5-0.8c0.9,0.3,1.8,0.2,2.7-0.2
		c0.7-0.5,1.1-1.2,1.2-2c0.1-0.6,0.7-1.1,1.4-0.9c0,0,0,0,0,0c0.6,0.1,1.1,0.8,1,1.4c-0.2,1.5-1.1,2.8-2.3,3.6
		C338.5,211.8,337.6,212.1,336.6,212.1z"></path><path class="st11" d="M325.3,220c-4.2,0-8.2-5.3-9.4-12.6c-1.2-7.7,1.3-14.3,5.8-15s9,4.8,10.2,12.5l0,0c1.2,7.7-1.3,14.3-5.8,15
		C325.9,220,325.6,220,325.3,220z M322.5,194.7c-0.1,0-0.3,0-0.4,0c-2.7,0.4-4.9,5.5-3.8,12.3s4.7,10.9,7.4,10.5s4.9-5.5,3.8-12.3
		C328.6,198.8,325.2,194.7,322.5,194.7z"></path><linearGradient id="SVGID_00000023994232829592077400000012077465103123830407_-nNzcAHDalM" gradientUnits="userSpaceOnUse" x1="348.2059" y1="301.0777" x2="427.8659" y2="158.2377" gradientTransform="matrix(1 0 0 -1 0 502)"><stop offset="0" style="stop-color: rgb(10, 107, 91);"></stop><stop offset="0.78" style="stop-color: rgb(0, 81, 70);"></stop><stop offset="0.91" style="stop-color: rgb(0, 80, 69);"></stop></linearGradient><path d="M363.3,234.9c0,0,29.6-2.6,38.6,2.8
		c9.9,5.9,19.3,33.2,22.3,48.9c0.6,4,0.4,8.1-0.7,12l-57.5-1.1L363.3,234.9z" style="fill: url(&quot;#SVGID_00000023994232829592077400000012077465103123830407_-nNzcAHDalM&quot;);"></path><path class="st1" d="M437.8,231.7c0,0-12.7-10.4-20-11.9s-17,8.5-19.5,14.2s3.8,8.9,3.8,8.9s-4.9,1.9-4.2,9.4
		c0.7,7.5,4.8,9.5,4.8,9.5s-2.3,9.8,2.7,14.7c-0.5,0.2,1.2,9.6,15.2,10.6c14.7,1,27,1.7,31.9-2.2S462.3,253.4,437.8,231.7z"></path><path class="st1" d="M445,241.8c1.1-6.9,1.9-13.8,2.4-20.8c0.7-11.5-5.3-14.3-9.9-14s-11.7,11.4-12.8,18.9S440.2,242.6,445,241.8z"></path><path class="st13" d="M444.1,239.4c-0.5,0-0.9-0.3-1.1-0.7c-3.9-8.3-18-15.2-18.2-15.3c-0.6-0.2-0.9-0.9-0.7-1.5
		c0.2-0.6,0.9-0.9,1.5-0.7c0.1,0,0.1,0.1,0.2,0.1c0.6,0.3,15,7.4,19.3,16.4c0.3,0.6,0,1.3-0.6,1.6
		C444.5,239.4,444.3,239.4,444.1,239.4z"></path><path class="st13" d="M405.4,277.7L405.4,277.7c-0.7,0-1.2-0.6-1.2-1.2c0-0.5,0.4-4.6,9-8.7s18.4-1.7,18.8-1.6
		c0.6,0.2,1,0.9,0.8,1.5c-0.2,0.6-0.8,0.9-1.4,0.8c-0.1,0-9.5-2.2-17.2,1.5c-7.3,3.4-7.6,6.6-7.6,6.6
		C406.5,277.2,406,277.7,405.4,277.7z"></path><path class="st13" d="M402.7,263c-0.1,0-0.2,0-0.4-0.1c-0.6-0.2-1-0.8-0.8-1.5c0,0,0,0,0,0c0-0.1,4.7-14.4,25.4-11
		c0.7,0.1,1.2,0.6,1.1,1.3s-0.6,1.2-1.3,1.1c-0.1,0-0.1,0-0.2,0c-18.5-3-22.6,8.9-22.7,9.4C403.7,262.7,403.2,263,402.7,263z"></path><path class="st13" d="M403.2,243.8c-0.3,0-0.7-0.1-0.9-0.4c-0.4-0.5-0.4-1.2,0.1-1.7c0.5-0.5,13.5-12.1,23.5-7.6
		c0.6,0.3,0.8,1,0.5,1.6c-0.3,0.6-1,0.8-1.5,0.6c-8.6-3.8-20.9,7.1-21,7.2C403.7,243.6,403.4,243.8,403.2,243.8z"></path><path class="st13" d="M433.5,289c-2.9-0.1-5.9-0.4-8.7-1c-0.6-0.1-1.1-0.8-0.9-1.4c0-0.2,0.1-0.3,0.2-0.4l3.3-5
		c0.4-0.5,1.1-0.6,1.7-0.2c0.5,0.4,0.6,1,0.3,1.6L427,286c4.4,0.8,10.5,1.1,12.1-0.7c0.5-0.5,1.2-0.5,1.7-0.1s0.5,1.2,0.1,1.7
		C439.4,288.5,436.5,289,433.5,289z"></path><path class="st13" d="M425.5,359.1c-0.6,0-1.1-0.4-1.2-1c-4.7-27.7-0.6-71-0.5-71.4c0-0.7,0.5-1.2,1.2-1.2c0.7,0,1.2,0.5,1.2,1.2
		c0,0.1,0,0.1,0,0.2c0,0.4-4.1,43.4,0.5,70.8c0.1,0.7-0.3,1.3-1,1.4c0,0,0,0,0,0L425.5,359.1z"></path><linearGradient id="SVGID_00000072985193558231497800000003547936559915197320_-nNzcAHDalM" gradientUnits="userSpaceOnUse" x1="412.8408" y1="209.1816" x2="386.3608" y2="223.2416" gradientTransform="matrix(1 0 0 -1 0 502)"><stop offset="0" style="stop-color: rgb(10, 107, 91);"></stop><stop offset="0.78" style="stop-color: rgb(0, 81, 70);"></stop><stop offset="0.91" style="stop-color: rgb(0, 80, 69);"></stop></linearGradient><polygon points="380.6,297.9 390.1,258.6 
		396.1,298.1 	" style="fill: url(&quot;#SVGID_00000072985193558231497800000003547936559915197320_-nNzcAHDalM&quot;);"></polygon><path class="st13" d="M152.4,263.5c-4.7,0-11.1-2.8-13.3-4.5c-2.5-2-11.1-12-11.5-12.4c-0.4-0.6-0.2-1.3,0.3-1.7
		c0.5-0.3,1.1-0.3,1.5,0.1c2.5,2.9,9.3,10.6,11.2,12.1c2.2,1.7,9,4.5,13,4c1.6-0.2,3-1.1,3.8-2.4c0.8-1.5,0.7-3.7-0.4-5.9
		c-2.3-4.9-11.8-6.7-11.9-6.7c-0.3-0.1-0.6-0.2-0.8-0.5l-6.7-9.9c-0.3-0.4-0.3-0.9,0-1.3c0.2-0.4,0.7-0.6,1.2-0.6l7.7,1
		c0.7,0,1.2,0.6,1.1,1.3c0,0.7-0.6,1.2-1.3,1.1c-0.1,0-0.1,0-0.2,0l-5-0.7l4.9,7.2c2.2,0.5,10.6,2.7,13.1,8c1.4,3,1.5,5.9,0.3,8.1
		c-1.2,2-3.2,3.4-5.5,3.6C153.5,263.5,152.9,263.5,152.4,263.5z"></path><path class="st13" d="M150.1,275.6c-1.9,0-3.7-0.6-5.3-1.7l-14-9.5c-0.6-0.4-0.7-1.1-0.3-1.7c0.4-0.6,1.1-0.7,1.7-0.3l14.1,9.5
		c2.7,1.9,6.3,1.6,8.6-0.6c2.1-2.1,1.9-5.2-0.6-8.5c-0.4-0.6-0.2-1.3,0.4-1.7c0.5-0.3,1.2-0.2,1.6,0.2c3.2,4.3,3.3,8.7,0.4,11.6
		C154.9,274.7,152.6,275.6,150.1,275.6z"></path><path class="st13" d="M153.5,278.8c-0.2,0-0.4-0.1-0.6-0.1c-0.6-0.3-0.8-1-0.5-1.6c0,0,0,0,0,0c0.5-0.8,0.5-1.9,0-2.7
		c-0.4-0.6-0.2-1.3,0.3-1.7c0.6-0.4,1.3-0.2,1.7,0.3c1,1.6,1,3.6,0.2,5.2C154.4,278.6,153.9,278.9,153.5,278.8z"></path><path class="st13" d="M155.8,250.2c-0.3,0-0.7-0.1-0.9-0.4c-5.6-6-2-14.4,0.9-18.5l-3.4-11.1c-0.2-0.6,0.2-1.3,0.8-1.5
		c0.6-0.2,1.3,0.2,1.5,0.8c0,0,0,0,0,0l3.6,11.7c0.1,0.4,0,0.8-0.2,1.1c-0.1,0.1-7.3,9.6-1.4,15.9c0.4,0.5,0.4,1.2-0.1,1.7
		C156.3,250.1,156.1,250.2,155.8,250.2z"></path><linearGradient id="SVGID_00000098207785529328786990000010176994565323738301_-nNzcAHDalM" gradientUnits="userSpaceOnUse" x1="302.9117" y1="241.4897" x2="294.0617" y2="195.9697" gradientTransform="matrix(1 0 0 -1 0 502)"><stop offset="0" style="stop-color: rgb(10, 107, 91);"></stop><stop offset="0.78" style="stop-color: rgb(0, 81, 70);"></stop><stop offset="0.91" style="stop-color: rgb(0, 80, 69);"></stop></linearGradient><path d="M287.9,305.2l17.5-40l-5.2,42.1
		C300.2,307.3,292.6,305,287.9,305.2z" style="fill: url(&quot;#SVGID_00000098207785529328786990000010176994565323738301_-nNzcAHDalM&quot;);"></path><path class="st13" d="M190.1,270.3c-0.2,0-0.4,0-0.6-0.1c-0.6-0.3-0.8-1-0.5-1.6c3.1-5.8,0.3-17.3,0.3-17.4
		c-0.2-0.6,0.2-1.3,0.9-1.5s1.3,0.2,1.5,0.9c0.1,0.5,3.1,12.6-0.5,19.2C191,270,190.6,270.3,190.1,270.3z"></path><path class="st13" d="M168.7,285h-0.3c-3-0.8-5.9-1.7-8.8-2.8c-0.6-0.3-0.9-1-0.7-1.6c0.2-0.6,0.9-0.9,1.5-0.7
		c2.8,1.1,5.6,2,8.5,2.7c0.6,0.2,1,0.8,0.9,1.5C169.7,284.7,169.2,285,168.7,285L168.7,285z"></path><path class="st11" d="M364.5,187.3c-0.5,0-0.9-0.3-1.1-0.7c-4.6-11.2-13.1-11.2-13.5-11.2l0,0c-0.7,0-1.2-0.5-1.2-1.2
		c0-0.7,0.5-1.2,1.2-1.2c0.5,0,10.4-0.1,15.7,12.7c0.3,0.6,0,1.3-0.6,1.6C364.8,187.3,364.7,187.3,364.5,187.3L364.5,187.3z"></path><path class="st11" d="M389.6,159c-0.5,0-0.9-0.3-1.1-0.7c-4.6-11.2-13.1-11.2-13.4-11.2l0,0c-0.7-0.1-1.1-0.6-1.1-1.3
		c0.1-0.6,0.5-1,1.1-1.1c0.5,0,10.4-0.1,15.7,12.7c0.3,0.6,0,1.3-0.6,1.6c0,0-0.1,0-0.2,0.1C389.9,159,389.7,159,389.6,159z"></path><path class="st11" d="M415.7,142.5c-0.6,0-1.2-0.5-1.2-1.2c-0.2-7.6-8.2-16.7-8.3-16.8c-0.5-0.4-0.6-1.2-0.1-1.7
		c0.4-0.5,1.2-0.6,1.7-0.1c0.1,0.1,0.2,0.2,0.3,0.3c0.4,0.4,8.7,9.8,8.9,18.3C417,141.9,416.4,142.5,415.7,142.5L415.7,142.5z"></path><path class="st11" d="M446.4,120.6c-0.4,0-0.8-0.2-1-0.6c-0.7-1.1-5.4-1.5-9.2-1.1c-0.5,0.1-0.9-0.2-1.1-0.6
		c-0.2-0.4-0.2-0.9,0-1.3c2.4-3.8,4.3-8,4.2-9.2h-0.1c-3.6,0.7-4.2,7.8-4.2,7.9c0,0.7-0.6,1.2-1.2,1.2c-0.7,0-1.2-0.6-1.2-1.2
		c0,0,0-0.1,0-0.1c0-0.4,0.7-9,6.1-10.1c0.9-0.3,1.9,0.1,2.5,0.8c1.3,1.9-0.9,6.5-3,10c3.1-0.1,7.7,0.1,9.1,2.3
		c0.4,0.6,0.2,1.3-0.4,1.7c0,0,0,0,0,0C446.8,120.5,446.6,120.6,446.4,120.6z"></path><path class="st4" d="M319.8,270.2c-2.9,0-5.2-0.7-6.6-2.4c-1.1-1.4-1.7-3.2-1.4-5c0.9-9.6,18.1-24,18.9-24.6
		c0.5-0.4,1.3-0.3,1.7,0.2c0,0,0,0,0,0c0.4,0.5,0.4,1.3-0.2,1.7c0,0,0,0,0,0c-0.2,0.1-17.2,14.3-18,22.9c-0.2,1.2,0.2,2.3,0.9,3.3
		c2,2.5,9.8,4.3,38.6-11.1c16.8-8.9,32.6-19.5,32.7-19.6c0.6-0.4,1.3-0.2,1.7,0.3c0.4,0.6,0.2,1.3-0.3,1.7l0,0
		C382,241.4,338.2,270.2,319.8,270.2z"></path><path class="st4" d="M374.2,257.4c-4.4,0-7.6-1.1-9.7-3.3c-5.6-6.1,0.1-17.7,0.3-18.2c0.3-0.6,1-0.9,1.6-0.6s0.9,1,0.6,1.6
		c0,0,0,0.1-0.1,0.1c0,0.1-5.2,10.6-0.7,15.5c2.8,3,10.4,4.9,31.1-3.3c0.6-0.2,1.3,0.1,1.5,0.7c0.2,0.6-0.1,1.3-0.7,1.6l0,0
		C388.1,255.4,380.1,257.4,374.2,257.4z"></path><path class="st4" d="M348.1,333.8c-0.7,0-1.2-0.5-1.2-1.2c0-0.4,0.2-0.8,0.5-1c0.1-0.1,9-6.3,8.9-12.6c0-2.5-1.6-4.8-4.7-6.7
		c-12.9-8.3-33.7,9.5-33.9,9.7c-0.5,0.4-1.3,0.3-1.7-0.2c-0.4-0.5-0.3-1.2,0.1-1.6c0.9-0.8,22.3-19.1,36.7-9.9
		c3.8,2.4,5.7,5.4,5.8,8.7c0.1,7.6-9.5,14.3-9.9,14.6C348.5,333.8,348.3,333.8,348.1,333.8z"></path><circle class="st4" cx="338.2" cy="263.3" r="5.9"></circle><polygon class="st13" points="423.5,298.6 380.8,309.9 379.7,302.4 380.6,297.9 	"></polygon></g><g id="character-1"><polygon class="st1" points="347.1,375 367.3,412.6 267.4,412.6 267.4,373.8 	"></polygon><path class="st11" d="M169.6,333.4c0,0,14.5-28.2,33.2-28.2h83.3c0,0,24.6-2,36.1,22.2l24.9,47.6h-97L169.6,333.4z"></path><path class="st1" d="M263.4,252.4c-2.7,3-6.1,5.2-9.9,6.4c-4.6,1.3-9.6,0.8-13.8-1.5c0.8,6.7-5.4,14.7-8.3,13.1c0,0-2-8.9-9.8-6.9
		c-6.7,1.8-5.4,13.3-0.1,15.9c0.8,0.4,1.8,0.6,2.7,0.5c0,0,6.7,9.5,1.5,13.4c13.1,8.5,30.6,4.8,39.1-8.3
		C271.3,275,270.8,261.9,263.4,252.4L263.4,252.4z"></path><path class="st1" d="M263.4,252.4c-2.7,3-6.1,5.2-9.9,6.4c-4.6,1.3-9.6,0.8-13.8-1.5c0.8,6.7-5.4,14.7-8.3,13.1c0,0-2-8.9-9.8-6.9
		c-6.7,1.8-5.4,13.3-0.1,15.9c0.8,0.4,1.8,0.6,2.7,0.5c0,0,6.7,9.5,1.5,13.4l0,0c-4-2.6-7.3-6.2-9.5-10.4c-1.4-2.6-2.4-5.4-2.9-8.4
		c-2.7-15.4,7.5-30.1,22.9-32.8C246.5,240,257,244.1,263.4,252.4L263.4,252.4z"></path><ellipse class="st1" transform="matrix(9.098022e-02 -0.9959 0.9959 9.098022e-02 -24.6437 517.7129)" cx="271.3" cy="272.4" rx="3.9" ry="8.8"></ellipse><linearGradient id="SVGID_00000161617035436103775670000017604552396246063234_-nNzcAHDalM" gradientUnits="userSpaceOnUse" x1="-54.907" y1="-120.6238" x2="-27.257" y2="-193.1838" gradientTransform="matrix(0.84 -0.54 -0.54 -0.84 194.09 106.44)"><stop offset="0" style="stop-color: rgb(10, 107, 91);"></stop><stop offset="0.78" style="stop-color: rgb(0, 81, 70);"></stop><stop offset="0.91" style="stop-color: rgb(0, 80, 69);"></stop></linearGradient><path d="M268.4,235.8
		c-13.1-17.8-36.6-7.3-30.7-0.8c0,0-18.1,4-27.8,16.2c-11.8,15-7.7,36.2,15.6,42.1l0,0c5.3-3.8-1.5-13.4-1.5-13.4
		c-0.9,0.1-1.9-0.1-2.7-0.5c-5.3-2.6-6.5-14.1,0.1-15.9c7.8-2.1,9.8,6.9,9.8,6.9c2.9,1.5,9.1-6.4,8.3-13.1
		C292.3,263,278.2,219.7,268.4,235.8z" style="fill: url(&quot;#SVGID_00000161617035436103775670000017604552396246063234_-nNzcAHDalM&quot;);"></path><path class="st13" d="M225.8,274.8c0.1,0-0.1,0-0.1,0h-0.3c-0.1,0-0.1,0,0,0h-0.1l-0.3-0.1c-0.1,0-0.3-0.1-0.4-0.1l-0.3-0.2l-0.1,0
		c-0.5-0.4-0.8-1-0.8-1.7c0-0.6,0.2-1.2,0.7-1.6c0.2-0.1-0.1,0.1,0.1-0.1l0.3-0.2c0.1-0.1,0.2-0.1,0.4-0.2l0.2-0.1
		c0.1,0,0.3-0.1,0.1,0c0.2,0,0.4,0,0.6,0c0.7,0,1.2-0.6,1.2-1.2c0-0.1,0-0.2,0-0.3c-0.5-2.2-2.7-3.5-4.8-3c-1.4,0.3-2.5,1.3-2.9,2.7
		c-0.1,0.6,0.3,1.3,0.9,1.4c0.6,0.1,1.2-0.2,1.4-0.8c0.1-0.3,0.3-0.6,0.6-0.8c0.1-0.1,0.2-0.2,0.4-0.2c-0.2,0.1,0.2-0.1,0.2-0.1
		s0.4-0.1,0.2,0c0.1,0,0.2,0,0.4,0c0.3,0,0.6,0.2,0.8,0.4c0.1,0.1,0.2,0.2,0.3,0.3c-0.1-0.1,0.1,0.1,0.1,0.2
		c0.1,0.2,0.2,0.4,0.2,0.6l1.1-1.5c-2.5-0.2-4.7,1.8-4.8,4.3c0,0.1,0,0.3,0,0.4c0,1.3,0.6,2.5,1.6,3.3c1.1,0.8,2.4,1.2,3.8,1
		c0.6-0.2,1-0.8,0.8-1.5c-0.2-0.6-0.8-1-1.5-0.8L225.8,274.8z"></path><path class="st13" d="M254.7,285.3l-0.3,0c-0.2,0,0.3,0-0.1,0c-0.2,0-0.3,0-0.5,0c-0.2,0-0.4,0-0.6,0h-0.1h-0.2
		c-0.2,0-0.4-0.1-0.5-0.1l-0.3-0.1c0,0-0.3-0.1-0.1,0c-0.3-0.1-0.6-0.3-0.9-0.5l-0.2-0.1c-0.1-0.1,0.1,0.1,0,0l-0.4-0.4
		c-0.1-0.1-0.2-0.2-0.3-0.3s-0.1-0.2,0,0l-0.1-0.2c-0.2-0.3-0.3-0.6-0.5-0.9c0.1,0.1,0,0,0,0l-0.1-0.2c-0.1-0.2-0.1-0.3-0.1-0.5
		c-0.1-0.6-0.8-1.1-1.4-0.9s-1.1,0.8-0.9,1.4c0,0.1,0,0.1,0,0.2c0.8,3.7,4.5,6,8.2,5.1c0.6-0.2,1-0.8,0.8-1.5
		c-0.2-0.6-0.8-1-1.5-0.8L254.7,285.3z"></path><path class="st13" d="M243.9,283.4c2.8,0.5,5.7-0.5,7.6-2.5c0.5-0.4,0.6-1.2,0.2-1.7s-1.2-0.6-1.7-0.2c-0.1,0-0.1,0.1-0.2,0.2
		c-0.2,0.2-0.4,0.4-0.6,0.6l-0.2,0.1c-0.1,0.1,0.2-0.1,0,0l-0.4,0.2c-0.2,0.1-0.5,0.3-0.7,0.4l-0.2,0.1h-0.1c0.1-0.1-0.1,0-0.1,0
		l-0.2,0.1c-0.2,0.1-0.5,0.2-0.8,0.2l-0.4,0.1c0,0-0.2,0-0.1,0H246h-0.8c-0.1,0-0.3,0-0.4,0h-0.2c-0.2,0,0.3,0,0,0
		c-0.6-0.2-1.3,0.2-1.5,0.8C242.9,282.5,243.2,283.2,243.9,283.4L243.9,283.4z"></path><ellipse class="st14" transform="matrix(0.9249 -0.3801 0.3801 0.9249 -82.2147 118.6262)" cx="259.3" cy="267.5" rx="3.5" ry="4.1"></ellipse><ellipse class="st15" transform="matrix(0.9249 -0.3801 0.3801 0.9249 -82.1349 118.9005)" cx="260" cy="267.4" rx="2.3" ry="2.7"></ellipse><path class="st13" d="M267.9,275.2c-0.4-0.1-0.8-0.2-1.1-0.4l0.3,0.1c-0.5-0.2-1-0.5-1.4-0.8l0.2,0.2c-0.4-0.3-0.8-0.7-1.2-1.2
		l0.2,0.2l0,0c-0.2-0.3-0.4-0.5-0.7-0.5c-0.3-0.1-0.6,0-0.9,0.1c-0.3,0.2-0.5,0.4-0.5,0.7c-0.1,0.3,0,0.7,0.1,0.9
		c0.6,0.8,1.3,1.4,2.1,1.9c0.7,0.5,1.5,0.8,2.4,1c0.6,0.1,1.3-0.3,1.4-0.9C268.8,276.1,268.5,275.5,267.9,275.2L267.9,275.2z"></path><path class="st1" d="M154.5,430.3c0,0-12.6-35.7-25.3-40.1s-17.4,4.7-17.4,4.7s-6-9.8-15.5-7.9c-10.5,2.1-13.3,9.6-13.3,9.6
		s-18.3-10.7-28.3-2.8c-26.1,20.7,1,36.5,1,36.5L154.5,430.3z"></path><path class="st13" d="M124.2,432.2c-3.3,0.1-6.6-0.9-9.4-2.6c-6.3-4.2-11.1-13.3-11.3-13.7s-2.4-5.5-0.6-10
		c1.3-3.1,2.9-6.1,4.6-8.9c0.3-0.6,1-0.8,1.6-0.6s0.8,1,0.6,1.6c0,0.1-0.1,0.2-0.1,0.2c-1.7,2.7-3.2,5.6-4.4,8.6
		c-1.4,3.6,0.5,8,0.5,8.1s4.7,8.9,10.5,12.8c3.9,2.6,9.6,2.7,13,1.4c1.8-0.7,3-1.7,3.4-2.9c0.9-3.1-4.8-10.7-8.6-14.7
		c-0.3-0.3-0.4-0.8-0.3-1.2l3.4-10.5c0.2-0.6,0.9-0.9,1.6-0.7c0.6,0.2,0.9,0.8,0.7,1.4l-3.2,9.9c2.2,2.5,10.1,11.5,8.7,16.5
		c-0.6,2-2.3,3.6-4.9,4.5C128.1,431.9,126.1,432.2,124.2,432.2z"></path><path class="st13" d="M99.6,431.6c-3.1,0.1-6.1-0.8-8.7-2.4c-6.3-4.2-11.1-13.3-11.3-13.7s-2.4-5.5-0.6-10c1-2.5,2.2-5,3.5-7.4
		c0.3-0.6,1.1-0.8,1.6-0.5c0.6,0.3,0.8,1.1,0.5,1.6c-1.3,2.3-2.4,4.7-3.3,7.1c-1.4,3.6,0.5,8,0.5,8.1s4.7,8.9,10.5,12.8
		c3.3,2,7.2,2.6,10.9,1.7c3.2-0.7,5.8-2.3,7.1-4.4c0.4-0.5,1.2-0.5,1.7-0.1c0.4,0.3,0.5,0.9,0.3,1.3c-1.6,2.6-4.8,4.6-8.6,5.5
		C102.3,431.4,100.9,431.6,99.6,431.6z"></path><path class="st13" d="M76,431.8c-3.1,0.1-6.1-0.8-8.7-2.5c-6.3-4.2-11.1-13.3-11.3-13.7s-2.4-5.5-0.6-10c1-2.5,2.2-5,3.5-7.4
		c0.3-0.6,1.1-0.8,1.6-0.5c0.6,0.3,0.8,1.1,0.5,1.6l0,0c-1.3,2.3-2.4,4.7-3.3,7.1c-1.4,3.6,0.5,8.1,0.5,8.1s4.7,8.9,10.5,12.8
		c3.3,2,7.2,2.5,10.9,1.6c3.2-0.7,5.8-2.3,7.1-4.4c0.3-0.6,1-0.9,1.6-0.7c0.6,0.3,0.9,1,0.7,1.6c-0.1,0.1-0.1,0.2-0.2,0.4
		c-1.6,2.6-4.8,4.6-8.6,5.5C78.7,431.6,77.3,431.8,76,431.8z"></path><path class="st1" d="M408,430.3c0,0-12.6-35.7-25.3-40.1s-17.4,4.7-17.4,4.7s-6-9.8-15.5-7.9c-10.5,2.1-13.3,9.6-13.3,9.6
		s-8.3-11-19-4c-11.5,7.6,2.9,37.8,2.9,37.8L408,430.3z"></path><path class="st13" d="M377.7,432.2c-3.3,0.1-6.6-0.9-9.4-2.6c-6.3-4.2-11.1-13.3-11.3-13.7s-2.4-5.5-0.6-10
		c1.3-3.1,2.9-6.1,4.6-8.9c0.3-0.6,1-0.9,1.6-0.7c0.6,0.3,0.9,1,0.7,1.6c-0.1,0.1-0.1,0.2-0.2,0.4c-1.7,2.7-3.2,5.6-4.4,8.6
		c-1.4,3.6,0.5,8,0.5,8.1s4.7,8.9,10.5,12.8c3.9,2.6,9.6,2.7,13,1.4c1.8-0.7,3-1.7,3.4-2.9c0.9-3.1-4.8-10.7-8.6-14.7
		c-0.3-0.3-0.4-0.8-0.3-1.2l3.4-10.5c0.2-0.6,0.9-0.9,1.6-0.7c0.6,0.2,0.9,0.8,0.7,1.4l-3.2,9.9c2.2,2.5,10.1,11.5,8.7,16.5
		c-0.5,2-2.3,3.6-4.8,4.5C381.6,431.9,379.7,432.2,377.7,432.2z"></path><path class="st13" d="M353.1,431.6c-3.1,0.1-6.1-0.8-8.7-2.4c-6.3-4.2-11.1-13.3-11.3-13.7s-2.4-5.5-0.6-10c1.6-4,3-9.1,3-9.1
		c0.2-0.6,0.9-1,1.5-0.7c0.6,0.2,0.9,0.8,0.8,1.4c-0.9,3.2-1.9,6.3-3.1,9.4c-1.4,3.6,0.5,8,0.5,8.1s4.7,8.9,10.5,12.8
		c3.3,2,7.2,2.6,10.9,1.7c3.2-0.7,5.8-2.3,7.1-4.4c0.4-0.5,1.2-0.5,1.7-0.1c0.4,0.3,0.5,0.9,0.3,1.3c-1.6,2.6-4.8,4.6-8.6,5.5
		C355.8,431.5,354.5,431.6,353.1,431.6z"></path><path class="st13" d="M329.5,431.8c-3.1,0.1-6.1-0.8-8.7-2.5c-6.3-4.2-11.1-13.3-11.3-13.7s-2.4-5.5-0.6-10c1-2.5,2.2-5,3.5-7.4
		c0.4-0.5,1.1-0.7,1.7-0.3c0.5,0.3,0.7,1,0.4,1.5c-1.3,2.3-2.4,4.7-3.4,7.1c-1.4,3.6,0.5,8.1,0.5,8.1s4.7,8.9,10.5,12.8
		c3.3,1.9,7.2,2.5,10.9,1.6c3.2-0.7,5.8-2.3,7.1-4.4c0.3-0.6,1.1-0.7,1.6-0.4c0,0,0,0,0,0c0.6,0.3,0.7,1.1,0.4,1.6c0,0,0,0,0,0
		c-1.6,2.6-4.8,4.6-8.6,5.5C332.2,431.6,330.8,431.8,329.5,431.8z"></path><path class="st13" d="M336.6,397.8c-0.4,0-0.7-0.2-1-0.5c0-0.1-4.4-5.6-10.4-5.8H325c-3.6,0-7.1,1.9-10.4,5.8
		c-0.5,0.5-1.2,0.5-1.7,0c-0.4-0.4-0.5-1.1-0.1-1.6c3.9-4.5,8.1-6.7,12.6-6.6c5.2,0.2,9.2,3.6,11.1,5.5c3.7-5.8,10.1-9.3,17-9.3
		c0.7,0,1.2,0.6,1.1,1.3c0,0.7-0.6,1.2-1.3,1.1c0,0,0,0,0,0l0,0c-6.6,0-12.6,3.7-15.7,9.5C337.4,397.5,337.1,397.8,336.6,397.8
		L336.6,397.8z"></path><linearGradient id="SVGID_00000137118186391865975460000014548505693837321878_-nNzcAHDalM" gradientUnits="userSpaceOnUse" x1="189.6493" y1="221.6498" x2="227.7393" y2="102.4098" gradientTransform="matrix(1 0 0 -1 0 502)"><stop offset="0" style="stop-color: rgb(243, 131, 116);"></stop><stop offset="1" style="stop-color: rgb(198, 66, 52);"></stop></linearGradient><path d="M320.9,430.3H139.3l-17.9-100.8
		c-1-5.9,2.9-11.5,8.8-12.6c0.6-0.1,1.3-0.2,1.9-0.2h159.5c5.3,0,9.8,3.8,10.7,9L320.9,430.3z" style="fill: url(&quot;#SVGID_00000137118186391865975460000014548505693837321878_-nNzcAHDalM&quot;);"></path><linearGradient id="SVGID_00000092452140789608256970000017234492760294378931_-nNzcAHDalM" gradientUnits="userSpaceOnUse" x1="108.2905" y1="128.435" x2="308" y2="128.435" gradientTransform="matrix(1 0 0 -1 0 502)"><stop offset="0" style="stop-color: rgb(243, 131, 116);"></stop><stop offset="1" style="stop-color: rgb(198, 66, 52);"></stop></linearGradient><path d="M308,430.3H126.4l-17.9-100.8
		c-1-5.9,2.9-11.5,8.8-12.6c0.6-0.1,1.3-0.2,1.9-0.2h159.5c5.3,0,9.8,3.8,10.7,9L308,430.3z" style="fill: url(&quot;#SVGID_00000092452140789608256970000017234492760294378931_-nNzcAHDalM&quot;);"></path><ellipse class="st0" transform="matrix(0.9856 -0.1692 0.1692 0.9856 -60.3728 39.2414)" cx="200" cy="373.8" rx="15.1" ry="18"></ellipse><path class="st11" d="M304.7,430.2l-15.4-98.6c-2.5-14.8-10.1-13.8-10.4-13.7l-0.4-2.4c2.2-0.2,4.4,0.4,6.2,1.7
		c3.5,2.5,5.9,7.2,7,14l15.4,98.6L304.7,430.2z"></path><path class="st14" d="M340.2,363.1L340.2,363.1l-31.5-0.8c-0.7,0-1.2-0.6-1.2-1.2c0-0.7,0.6-1.2,1.2-1.2l31.5,0.8
		c0.7,0,1.2,0.5,1.2,1.2C341.5,362.5,340.9,363.1,340.2,363.1L340.2,363.1z"></path></g><g id="line"><path class="st11" d="M55.8,431.5H21.2c-0.7,0-1.2-0.5-1.2-1.2c0-0.7,0.5-1.2,1.2-1.2h34.6c0.7,0,1.2,0.5,1.2,1.2
		C57,431,56.5,431.5,55.8,431.5C55.8,431.5,55.8,431.5,55.8,431.5z"></path><path class="st11" d="M488.8,431.5H408c-0.7,0-1.2-0.5-1.2-1.2c0-0.7,0.5-1.2,1.2-1.2h80.8c0.7,0,1.2,0.5,1.2,1.2
		C490,430.9,489.5,431.5,488.8,431.5z"></path></g><g id="light"><path class="st4" d="M462.2,181.8c-11.6,0.9-20.9,9.9-22.1,21.5c-1.2-11.6-10.5-20.6-22.1-21.5c11.6-0.9,20.9-9.9,22.1-21.5
		C441.3,171.9,450.6,180.9,462.2,181.8z"></path><path class="st4" d="M468.8,154.3c-5.3,0.4-9.5,4.5-10.1,9.8c-0.6-5.3-4.8-9.4-10.1-9.8c5.3-0.4,9.5-4.5,10.1-9.8
		C459.3,149.8,463.5,153.9,468.8,154.3L468.8,154.3z"></path><path class="st4" d="M297,107.3c-5.3,0.4-9.5,4.6-10,9.8c-0.6-5.3-4.8-9.4-10.1-9.8c5.3-0.4,9.5-4.5,10.1-9.8
		C287.5,102.7,291.7,106.8,297,107.3z"></path></g></svg>