<svg transform="scale(1)" id="ejHgIQRqJV" data-name="0240_Data_Cloud_1" xmlns="http://www.w3.org/2000/svg" xmlns:xlink="http://www.w3.org/1999/xlink" viewBox="0 0 500 500" class="pbimage_pbimage__wrapper__image__0LEis false"><title>Data Cloud 1</title><defs><style> .cls-1{fill:#000111;} .cls-2{fill:#fff;} .cls-3{fill:#fed490;} .cls-4{fill:url(#linear-gradient-ejHgIQRqJV);} .cls-5{fill:url(#linear-gradient-2-ejHgIQRqJV);} .cls-6{fill:#fef1e0;}
 .cls-6{fill:#FEF1E0;}
 .cls-3{fill:#FED490;}
 .cls-2{fill:#FFFFFF;}
 .cls-1{fill:#000111;}</style><linearGradient id="linear-gradient-ejHgIQRqJV" x1="432.57" y1="269.19" x2="364.74" y2="351.68" gradientUnits="userSpaceOnUse"><stop offset="0" stop-color="#f38374" style="stop-color: rgb(243, 131, 116);"></stop><stop offset="1" stop-color="#c64234" style="stop-color: rgb(198, 66, 52);"></stop></linearGradient><linearGradient id="linear-gradient-2-ejHgIQRqJV" x1="236.76" y1="326.75" x2="168.92" y2="409.24" gradientTransform="matrix(-0.65, -0.47, 0.65, -0.78, -67.15, 685.53)" xlink:href="#linear-gradient-ejHgIQRqJV"></linearGradient></defs><g id="file_3"><path class="cls-1" d="M149.55,461s-24-1.32-52.53-50.39l45.46-31S188.52,419.36,149.55,461Z" fill="#000111"></path><path class="cls-1" d="M149.55,462.21h-.06c-1,0-24.94-1.93-53.48-51a1.18,1.18,0,0,1,.35-1.56l45.46-31a1.16,1.16,0,0,1,1.42.08c.89.76,21.72,19,23.07,44.07.74,13.77-4.61,26.89-15.9,39A1.16,1.16,0,0,1,149.55,462.21ZM98.58,411c25.28,43,46.94,48.23,50.52,48.81C159.67,448.33,164.67,436,164,423c-1.16-21.63-18-38.5-21.61-41.84Z" fill="#000111"></path><path class="cls-2" d="M208.85,320.42,94.23,393.51s66.56,27,55.32,67.53l113.9-77.58S239.26,322.35,208.85,320.42Z" fill="#FFFFFF"></path><path class="cls-1" d="M149.55,462.21a1.16,1.16,0,0,1-1.12-1.48c10.83-39.09-54-65.87-54.64-66.14a1.17,1.17,0,0,1-.72-1,1.19,1.19,0,0,1,.53-1.09l114.62-73.08a1.16,1.16,0,0,1,.71-.18c13,.82,26.33,11.85,39.61,32.78a209.82,209.82,0,0,1,16,31,1.18,1.18,0,0,1-.43,1.4L150.21,462A1.22,1.22,0,0,1,149.55,462.21Zm-52.83-68.9a155.08,155.08,0,0,1,30.11,17.84C146,426,154.42,442.28,151.37,458.39L262,383a210.33,210.33,0,0,0-15.46-29.77c-8.76-13.8-22.34-30.43-37.4-31.64Z" fill="#000111"></path><path class="cls-3" d="M149.55,461,269.8,384c-6.31-42.33-40-64.15-40-64.15l-44.3,26.52a8.83,8.83,0,0,1-7.77.65l-12.51-4.87a8.83,8.83,0,0,0-7.93.76L110,372.58s22.41,4.93,38.2,32.95C168.38,441.27,149.55,461,149.55,461Z" fill="#FED490"></path><path class="cls-1" d="M149.56,462.21a1.2,1.2,0,0,1-.91-.42,1.18,1.18,0,0,1,0-1.55c.19-.19,18-19.64-1.48-54.13-8-14.22-17.75-22.26-24.52-26.51a46.19,46.19,0,0,0-12.91-5.88,1.19,1.19,0,0,1-.9-1,1.16,1.16,0,0,1,.53-1.18l47.3-29.71a10.07,10.07,0,0,1,9-.86l12.5,4.87a7.75,7.75,0,0,0,6.75-.56l44.3-26.52a1.18,1.18,0,0,1,1.24,0c.34.23,34.15,22.6,40.47,65a1.18,1.18,0,0,1-.53,1.15L150.18,462A1.17,1.17,0,0,1,149.56,462.21Zm-36.7-90c6.43,2.19,23.49,9.88,36.4,32.78,10.59,18.79,10.37,33.21,8.33,42a38.73,38.73,0,0,1-3.79,10l114.73-73.54c-6-37.79-34.25-59-38.72-62.19l-43.66,26.13a10.1,10.1,0,0,1-8.8.74l-12.5-4.87a7.7,7.7,0,0,0-6.89.66Z" fill="#000111"></path><path class="cls-1" d="M166.64,445.05a1.1,1.1,0,0,1-.31,0,1.18,1.18,0,0,1-.82-1.44c.1-.37,9.82-37.55-25.75-66.68a6.38,6.38,0,0,1-2.34-5.28,6.48,6.48,0,0,1,2.88-5.14l19.83-13.38a6.49,6.49,0,0,1,5.56-.83l15.25,4.65a4.22,4.22,0,0,0,3.43-.44l45.09-27.9a1.17,1.17,0,1,1,1.23,2L185.6,358.45a6.56,6.56,0,0,1-5.34.7L165,354.49a4.22,4.22,0,0,0-3.57.54l-19.83,13.38a4.17,4.17,0,0,0-1.86,3.31,4,4,0,0,0,1.49,3.36c36.78,30.13,26.63,68.73,26.53,69.11A1.18,1.18,0,0,1,166.64,445.05Z" fill="#000111"></path><path class="cls-1" d="M235.68,307.56a1.17,1.17,0,0,1-.44-2.25h0l.27-.19c.23-.16.55-.4.92-.7.83-.64,1.9-1.53,3.1-2.55a1.19,1.19,0,0,1,1.65.13,1.17,1.17,0,0,1-.13,1.65c-1.24,1.06-2.34,2-3.18,2.62l-.34.25a7.2,7.2,0,0,1-1.4,1h0A1.06,1.06,0,0,1,235.68,307.56Zm9.87-8.31a1.22,1.22,0,0,1-.87-.37,1.14,1.14,0,0,1-.3-.78,1.22,1.22,0,0,1,.37-.88c1.46-1.33,2.89-2.68,4.24-4a1.2,1.2,0,0,1,1.66,0,1.15,1.15,0,0,1,0,1.64c-1.42,1.37-2.85,2.73-4.29,4.05A1.12,1.12,0,0,1,245.55,299.25Zm9.24-9A1.23,1.23,0,0,1,254,290a1.18,1.18,0,0,1-.35-.82,1.21,1.21,0,0,1,.33-.83c1.32-1.34,2.68-2.77,4-4.22a1.21,1.21,0,0,1,1.65-.07,1.14,1.14,0,0,1,.37.82,1.18,1.18,0,0,1-.3.84c-1.39,1.49-2.76,2.92-4.07,4.25A1.11,1.11,0,0,1,254.79,290.29Zm8.72-9.48a1.17,1.17,0,0,1-.76-.28,1.16,1.16,0,0,1-.12-1.65c1.31-1.52,2.56-3,3.72-4.46a1.2,1.2,0,0,1,1.65-.18,1.18,1.18,0,0,1,.17,1.65c-1.19,1.47-2.46,3-3.77,4.52A1.16,1.16,0,0,1,263.51,280.81Zm10.81-4.22a16.93,16.93,0,0,1-2.13-.14A19.42,19.42,0,0,1,270,276h0a1.18,1.18,0,0,1-.86-1.13,2.18,2.18,0,0,1,.05-.29,1.18,1.18,0,0,1,1.44-.83,15.24,15.24,0,0,0,1.9.39,12.63,12.63,0,0,0,3.42,0,1.17,1.17,0,0,1,.29,2.32A14.72,14.72,0,0,1,274.32,276.59Zm8.27-2.51a1.19,1.19,0,0,1-1-.55,1.22,1.22,0,0,1-.17-.61,1.17,1.17,0,0,1,.55-1,23.77,23.77,0,0,0,4.3-3.51,1.17,1.17,0,1,1,1.66,1.64,26.08,26.08,0,0,1-4.72,3.85A1.16,1.16,0,0,1,282.59,274.08Zm-18.38-1.36a1.18,1.18,0,0,1-.78-.29,20.09,20.09,0,0,1-3.87-4.83,1.26,1.26,0,0,1-.16-.61,1.17,1.17,0,0,1,2.18-.56,17.76,17.76,0,0,0,3.4,4.26,1.11,1.11,0,0,1,.4.79,1.2,1.2,0,0,1-.29.84A1.17,1.17,0,0,1,264.21,272.72Zm7.32-2a1.16,1.16,0,0,1-.95-1.84v0s0,0,.05-.06c1.17-1.6,2.26-3.19,3.24-4.71a1.18,1.18,0,0,1,1.61-.35,1.16,1.16,0,0,1,.35,1.61q-1.57,2.44-3.35,4.89A1.2,1.2,0,0,1,271.53,270.75Zm20-5.8a1.12,1.12,0,0,1-.65-.21,1.15,1.15,0,0,1-.51-1,1,1,0,0,1,.21-.65c1-1.49,2-3.14,3-4.89a1.21,1.21,0,0,1,1.59-.48,1.18,1.18,0,0,1,.47,1.59,57.76,57.76,0,0,1-3.1,5.09A1.17,1.17,0,0,1,291.5,265Zm-33.59-3.24a1.16,1.16,0,0,1-1.12-.85,38.24,38.24,0,0,1-1.12-5.93v-.11a1.16,1.16,0,0,1,2.32-.15,41.34,41.34,0,0,0,1,5.57,1.16,1.16,0,0,1-.8,1.44A1.73,1.73,0,0,1,257.91,261.71Zm20.51-1.83a1.23,1.23,0,0,1-.54-.13,1.15,1.15,0,0,1-.62-1,1.08,1.08,0,0,1,.14-.56c.94-1.78,1.77-3.52,2.45-5.18a1.17,1.17,0,0,1,2.16.89,56.25,56.25,0,0,1-2.56,5.39A1.16,1.16,0,0,1,278.42,259.88Zm19.17-6.25a1.06,1.06,0,0,1-.46-.1,1.14,1.14,0,0,1-.71-1.08,1.07,1.07,0,0,1,.09-.43s0,0,0,0l0-.08c.73-1.69,1.43-3.47,2.08-5.29a1.21,1.21,0,0,1,1.5-.71,1.18,1.18,0,0,1,.71,1.5c-.7,1.92-1.44,3.77-2.17,5.5A1.18,1.18,0,0,1,297.59,253.63Zm-41-4.66h-.06a1.17,1.17,0,0,1-1.11-1.23,45.47,45.47,0,0,1,.68-6,1.16,1.16,0,0,1,2.31.24,1,1,0,0,1,0,.17,41.88,41.88,0,0,0-.64,5.66A1.17,1.17,0,0,1,256.63,249ZM283,247.92a1,1,0,0,1-.24,0,1.16,1.16,0,0,1-.93-1.15.72.72,0,0,1,0-.24,24,24,0,0,0,.55-4.9c0-.17,0-.33,0-.5V241a1.2,1.2,0,0,1,1.14-1.21h0a1.18,1.18,0,0,1,1.17,1.14c0,.22,0,.45,0,.68a27.58,27.58,0,0,1-.59,5.4A1.19,1.19,0,0,1,283,247.92Zm18.87-6.39a1.14,1.14,0,0,1-.33-.05,1.19,1.19,0,0,1-.84-1.11,1.22,1.22,0,0,1,0-.34c.54-1.84,1-3.73,1.5-5.6a1.17,1.17,0,0,1,2.27.55c-.46,1.92-1,3.83-1.52,5.7,0,0,0,0,0,0A1.19,1.19,0,0,1,301.91,241.53Zm-42.78-5.12a1,1,0,0,1-.41-.09,1.15,1.15,0,0,1-.66-.6,1.27,1.27,0,0,1,0-.9,25.13,25.13,0,0,1,2.81-5.43h0a1.18,1.18,0,0,1,1.61-.28,1.17,1.17,0,0,1,.29,1.63,22.5,22.5,0,0,0-2.53,4.93A1.18,1.18,0,0,1,259.13,236.41ZM282,235.35a1.17,1.17,0,0,1-1.06-.66,14.75,14.75,0,0,0-2.92-4.08l-.14-.14a1.79,1.79,0,0,1-.14-.13,1.16,1.16,0,0,1-.35-.83,1.13,1.13,0,0,1,.32-.83,1.22,1.22,0,0,1,1.66,0,1,1,0,0,1,.14.15l.17.15a17.61,17.61,0,0,1,3.38,4.71,1.27,1.27,0,0,1,.1.5,1.17,1.17,0,0,1-.65,1.07A1.3,1.3,0,0,1,282,235.35ZM304.89,229h-.21a1.18,1.18,0,0,1-1-1.14,1.69,1.69,0,0,1,0-.23c.35-1.88.67-3.81.93-5.73a1.2,1.2,0,0,1,1.32-1,1.15,1.15,0,0,1,1,1.32c-.28,2-.6,4-1,5.82A1.16,1.16,0,0,1,304.89,229Zm-32.11-2.21a1.1,1.1,0,0,1-.37-.06h0l-.06,0a6.86,6.86,0,0,0-4.83,0A1.19,1.19,0,0,1,266,226a1.15,1.15,0,0,1,.68-1.5,9.32,9.32,0,0,1,6.52,0h0a1.17,1.17,0,0,1,.76,1.08,1.17,1.17,0,0,1-1.17,1.18Zm33.81-10.54h-.09a1.18,1.18,0,0,1-1.08-1.15V215c.17-1.93.26-3.87.31-5.77a1.15,1.15,0,0,1,1.17-1.13h0a1.18,1.18,0,0,1,1.15,1.19c-.05,1.93-.16,3.91-.31,5.9A1.18,1.18,0,0,1,306.59,216.26Zm.18-12.85a1.16,1.16,0,0,1-1.17-1.1,54.27,54.27,0,0,0-.67-5.67,1.2,1.2,0,0,1,.19-.87,1.16,1.16,0,0,1,2.1.46,56.38,56.38,0,0,1,.71,5.93v.06a1.18,1.18,0,0,1-1.09,1.19Zm-2.62-12.53a1.14,1.14,0,0,1-1.06-.7,17.09,17.09,0,0,0-1.07-2,1.16,1.16,0,0,1,.35-1.61,1.2,1.2,0,0,1,1.62.35,17.25,17.25,0,0,1,1.22,2.31h0a1.56,1.56,0,0,1,.09.46,1.16,1.16,0,0,1-.69,1.09A1.15,1.15,0,0,1,304.15,190.88Z" fill="#000111"></path></g><g id="file_2"><path class="cls-4" d="M358.58,282.22l66.61,24s-35,38.94-32.28,88.19l-73.24-12.67S331.08,313.6,358.58,282.22Z"></path><path class="cls-2" d="M339.73,271.34l69.34,14.29s-29.14,43.54-19.4,91.88l-74.31-2.12S317,306.32,339.73,271.34Z"></path><path class="cls-1" d="M389.67,378.68h0l-74.3-2.12a1.16,1.16,0,0,1-1.13-1.19,349.88,349.88,0,0,1,3.66-39.06c3-19.86,9-47.36,20.89-65.6a1.16,1.16,0,0,1,1.21-.51l69.35,14.29a1.17,1.17,0,0,1,.84.7,1.14,1.14,0,0,1-.11,1.09c-.29.44-28.75,43.71-19.23,91a1.19,1.19,0,0,1-.25,1A1.17,1.17,0,0,1,389.67,378.68Zm-73.1-4.42,71.67,2c-7.95-42.78,14.1-81.93,18.94-89.86l-66.9-13.79c-11.36,17.89-17.2,44.6-20.11,64A359.58,359.58,0,0,0,316.57,374.26Z"></path><path class="cls-1" d="M387.57,300.14h-.16L339,293.47a1.16,1.16,0,0,1-1-1.31,1.14,1.14,0,0,1,1.31-1l48.38,6.65a1.17,1.17,0,0,1-.16,2.33Z"></path><path class="cls-1" d="M383.44,311.11h-.13L334,305.71a1.17,1.17,0,0,1-1-1.29,1.15,1.15,0,0,1,1.28-1l49.28,5.4a1.17,1.17,0,0,1-.12,2.33Z"></path><path class="cls-1" d="M376.14,327.17h-.09l-45.27-3.43a1.17,1.17,0,0,1-1.08-1.26A1.15,1.15,0,0,1,331,321.4l45.28,3.43a1.17,1.17,0,0,1-.09,2.34Z"></path><path class="cls-1" d="M335.7,360.37a5,5,0,0,1-2.2-.43c-.74-.36-2.31-1.52-1.14-4.43,1.89-4.72,9.34-6.94,17.75-7.65a3.6,3.6,0,0,0-1.5-1.87c-9.28-6.66-21.14-.6-21.26-.54a1.17,1.17,0,0,1-1.09-2.07c.54-.28,13.25-6.8,23.71.71a5.71,5.71,0,0,1,2.49,3.62c9.47-.48,19.57.77,24.09,2.44a1.17,1.17,0,1,1-.8,2.19c-4.58-1.68-14.49-2.75-23.49-2.26a6.52,6.52,0,0,1-.69,1.51C348.89,356,340.56,360.37,335.7,360.37Zm13.93-10.1c-7.38.68-13.67,2.53-15.1,6.1-.49,1.23-.13,1.41,0,1.48,2.34,1.17,12.27-2.9,15-7.47Z"></path><path class="cls-1" d="M380,268.28a.84.84,0,0,1-.27,0,1.15,1.15,0,0,1-.86-1.4c.43-1.86.83-3.75,1.17-5.66a1.16,1.16,0,0,1,2.31.24.88.88,0,0,1,0,.17c-.34,1.94-.75,3.9-1.19,5.79A1.19,1.19,0,0,1,380,268.28Zm2.16-12.66H382a1.22,1.22,0,0,1-.79-.43,1.14,1.14,0,0,1-.25-.86c.19-1.88.35-3.81.44-5.75a1.17,1.17,0,0,1,1.23-1.12,1.19,1.19,0,0,1,1.11,1.17v.06c-.1,2-.25,3.94-.46,5.89A1.16,1.16,0,0,1,382.14,255.62Zm.53-12.84h0a1.16,1.16,0,0,1-1.16-1.14c0-1.89-.14-3.83-.29-5.76h0v-.06a1.15,1.15,0,0,1,1.08-1.19,1.17,1.17,0,0,1,1.25,1.06c.16,2,.25,4,.3,5.92a1.26,1.26,0,0,1-.33.83,1.15,1.15,0,0,1-.81.35ZM381.61,230a1.17,1.17,0,0,1-1.16-1c-.27-1.86-.61-3.77-1-5.69a1,1,0,0,1,0-.23,1.19,1.19,0,0,1,.95-1.15,1.17,1.17,0,0,1,1.37.91h0s0,0,0,0c.38,1.89.71,3.84,1,5.8a1.18,1.18,0,0,1-1,1.32ZM379,217.39a1.16,1.16,0,0,1-1.13-.87c-.49-1.81-1-3.68-1.65-5.53a1.13,1.13,0,0,1-.06-.36,1.17,1.17,0,0,1,2.28-.38h0a.07.07,0,0,1,0,.05c.6,1.8,1.16,3.68,1.67,5.61a1.2,1.2,0,0,1-.1.89,1.23,1.23,0,0,1-.72.54A1.08,1.08,0,0,1,379,217.39Zm-4.06-12.2a1.17,1.17,0,0,1-1.08-.74c-.7-1.78-1.47-3.56-2.27-5.32a1,1,0,0,1-.11-.5,1.17,1.17,0,0,1,.68-1,1.21,1.21,0,0,1,1.55.56s0,0,0,0a.24.24,0,0,1,0,.08c.81,1.75,1.58,3.55,2.29,5.35a1.13,1.13,0,0,1,0,.9,1.18,1.18,0,0,1-.64.62A1.27,1.27,0,0,1,374.94,205.19Zm-5.44-11.64a1.19,1.19,0,0,1-1-.61c-1.37-2.5-2.41-4.13-2.91-4.86l0,0h0a1.17,1.17,0,1,1,1.92-1.34s1.26,1.81,3.09,5.13a1.12,1.12,0,0,1,.09.88,1.05,1.05,0,0,1-.56.69A1,1,0,0,1,369.5,193.55Z"></path></g><g id="file_1"><path class="cls-3" d="M66.49,359,30.72,314.71s44.91-22.17,67.83-66.53l46.27,36.58S102.14,340.86,66.49,359Z"></path><path class="cls-5" d="M48.51,344.42,21,294.62S69,280.56,99.28,240.84l39.24,44S86.76,332.75,48.51,344.42Z"></path><path class="cls-2" d="M57,335.86l-45.82-54s49.77-16.34,71.88-60.42l57.23,47.44S96.46,322.33,57,335.86Z"></path><path class="cls-1" d="M57,337a1.17,1.17,0,0,1-.89-.41l-45.82-54a1.2,1.2,0,0,1-.24-1.08,1.18,1.18,0,0,1,.76-.79c.5-.16,49.58-16.71,71.21-59.84a1.17,1.17,0,0,1,.8-.62,1.19,1.19,0,0,1,1,.25L141,268a1.16,1.16,0,0,1,.16,1.64c-.44.54-44.48,53.83-83.81,67.32A1.21,1.21,0,0,1,57,337ZM13.15,282.42,57.37,334.5c35.73-12.7,75.36-58.46,81.26-65.44L83.43,223.3C63.34,261.9,21.85,279.15,13.15,282.42Z"></path><path class="cls-1" d="M109.24,272.85a1.17,1.17,0,0,1-.72-.25L76.86,248a1.17,1.17,0,1,1,1.44-1.84L110,270.75a1.18,1.18,0,0,1-.72,2.1Z"></path><path class="cls-1" d="M97.28,280.59a1.16,1.16,0,0,1-.7-.24l-29.2-21.81a1.17,1.17,0,0,1,1.4-1.87L98,278.48a1.18,1.18,0,0,1,.24,1.64A1.2,1.2,0,0,1,97.28,280.59Z"></path><path class="cls-1" d="M81.45,283.05a1.19,1.19,0,0,1-.75-.27L62.06,267.3a1.17,1.17,0,0,1,1.49-1.8L82.2,281a1.18,1.18,0,0,1,.15,1.65A1.2,1.2,0,0,1,81.45,283.05Z"></path><path class="cls-1" d="M62.1,306.27h0c-11.21-.19-14.38-3.91-15.06-7a6.35,6.35,0,0,1-.14-1,18.83,18.83,0,0,1-3.69-.52c-4.2-1-6.72-3-7.5-5.82-1.89-7,8-16.51,8.37-16.91a1.16,1.16,0,1,1,1.61,1.68c-2.58,2.48-9,9.94-7.72,14.62.53,2,2.48,3.37,5.78,4.16a16.19,16.19,0,0,0,3.36.45c1.08-4.53,5.87-9.15,11-11.63,2.64-1.27,4.52-1.33,5.6-.16s.89,3.12-.46,5.42a18.81,18.81,0,0,1-14,8.64,4.51,4.51,0,0,0,.08.53c.71,3.2,5.26,5,12.82,5.16a1.17,1.17,0,0,1,0,2.34Zm-.53-20.58a6.1,6.1,0,0,0-2.48.76c-4.67,2.26-8.38,6.08-9.52,9.41a16.35,16.35,0,0,0,11.62-7.44c.94-1.6.89-2.52.76-2.65S61.8,285.69,61.57,285.69Z"></path><path class="cls-1" d="M115.89,234.24a1.16,1.16,0,0,1-1.06-.69,1.13,1.13,0,0,1,0-.9,1.08,1.08,0,0,1,.6-.64s2-.89,5.19-2.58a1.21,1.21,0,0,1,1.59.49,1.19,1.19,0,0,1-.49,1.58c-2.56,1.35-4.39,2.22-5.27,2.61l-.05,0a0,0,0,0,0,0,0A1.32,1.32,0,0,1,115.89,234.24Zm11.39-6.06a1.19,1.19,0,0,1-1-.57,1.32,1.32,0,0,1-.16-.61,1.18,1.18,0,0,1,.57-1c1.72-1,3.33-2,4.92-3.07a1.16,1.16,0,0,1,1.27,1.95c-1.64,1.08-3.33,2.14-5,3.13A1.1,1.1,0,0,1,127.28,228.18ZM138,221.07a1.15,1.15,0,0,1-.94-.47,1.2,1.2,0,0,1-.23-.71,1.15,1.15,0,0,1,.46-.91h0a.2.2,0,0,1,.07-.06c1.59-1.16,3.1-2.34,4.52-3.48a1.17,1.17,0,1,1,1.47,1.82c-1.47,1.19-3,2.41-4.67,3.6h0A1.1,1.1,0,0,1,138,221.07Zm9.94-8.16a1.19,1.19,0,0,1-.85-.37,1.14,1.14,0,0,1-.32-.78,1.16,1.16,0,0,1,.37-.86s0,0,0,0,0,0,.06,0c1.39-1.28,2.75-2.64,4.05-4a1.19,1.19,0,0,1,1.65-.05,1.11,1.11,0,0,1,.36.82,1.19,1.19,0,0,1-.31.84c-1.34,1.39-2.76,2.79-4.22,4.15A1.22,1.22,0,0,1,148,212.91Zm8.78-9.39a1.18,1.18,0,0,1-.92-1.9c1.22-1.54,2.36-3.09,3.37-4.64a1.2,1.2,0,0,1,1.63-.33,1.16,1.16,0,0,1,.33,1.62c-1.06,1.59-2.23,3.21-3.5,4.81A1.16,1.16,0,0,1,156.73,203.52Zm6.94-10.79a1.21,1.21,0,0,1-.52-.13,1.16,1.16,0,0,1-.65-1,1.36,1.36,0,0,1,.12-.52,47.54,47.54,0,0,0,2.24-5.23,1.17,1.17,0,1,1,2.2.78,50.1,50.1,0,0,1-2.34,5.5A1.16,1.16,0,0,1,163.67,192.73Z"></path></g><g id="cloud"><path class="cls-2" d="M430.42,168.12s.36-54.66-55-46.13c0,0-6.65-19.38-28.8-16.61,0,0-10.52-45.29-57.05-45.56-57.11-.33-60.91,45.56-60.91,45.56S173.88,93.2,160,144.7c0,0-30.89,1-28.24,24.53Z"></path><path class="cls-1" d="M131.79,170.4a1.16,1.16,0,0,1-1.16-1c-.7-6.23.78-11.51,4.42-15.72,7.21-8.33,20.53-9.81,24.08-10.06,13.12-46.73,60.27-41,68.58-39.57,1.18-7.5,9.73-45.36,61.29-45.36h.61c43,.25,56,38.69,57.92,45.46,19.22-1.87,27,12.74,28.66,16.59,16.48-2.36,29.68.63,39.25,8.9,16.12,13.92,16.15,37.53,16.14,38.53a1.16,1.16,0,0,1-1.16,1.16L131.79,170.4Zm298.63-2.28h0ZM214.87,105.3a70.61,70.61,0,0,0-15.14,1.59c-20,4.41-33,17.24-38.57,38.11a1.17,1.17,0,0,1-1.09.87c-.16,0-15.75.62-23.26,9.31a17.16,17.16,0,0,0-4,12.87L429.21,167c-.22-4.89-2-24.09-15.31-35.6-9.21-7.94-22.08-10.71-38.27-8.21a1.17,1.17,0,0,1-1.28-.78c-.26-.75-6.63-18.44-27.55-15.83a1.17,1.17,0,0,1-1.28-.89c-.1-.45-10.88-44.4-55.92-44.66H289c-22.67,0-40.06,7.66-50.33,22.16a50.47,50.47,0,0,0-8.83,22.33,1.15,1.15,0,0,1-.47.84,1.16,1.16,0,0,1-.94.2A70.25,70.25,0,0,0,214.87,105.3Z"></path><path class="cls-1" d="M363.12,142.87a1.15,1.15,0,0,1-1-.64c-6.68-13.16-19.93-7.89-20.49-7.66a1.17,1.17,0,0,1-.89-2.16c.16-.06,15.8-6.35,23.46,8.77a1.17,1.17,0,0,1-.51,1.57A1.24,1.24,0,0,1,363.12,142.87Z"></path><path class="cls-1" d="M227.05,130.71a1.17,1.17,0,0,1-1.05-.64c-4.09-8.21-3.39-14.68-2.08-18.67a18,18,0,0,1,4-6.86c.38-.38,9.79-9.7,22.06-8.93,7.56.46,14.47,4.66,20.54,12.48a1.17,1.17,0,0,1-1.85,1.44c-5.63-7.26-12-11.16-18.82-11.59-11.17-.7-20.2,8.18-20.29,8.27-.36.35-8.51,8.62-1.44,22.81a1.17,1.17,0,0,1-.52,1.57A1.23,1.23,0,0,1,227.05,130.71Z"></path><path class="cls-1" d="M216.33,137.59a1.17,1.17,0,0,1-.89-1.92c.09-.12,9.8-11.29,23.95-6a1.17,1.17,0,0,1,.68,1.51,1.16,1.16,0,0,1-1.5.68c-12.59-4.7-21,4.92-21.35,5.33A1.17,1.17,0,0,1,216.33,137.59Z"></path><path class="cls-1" d="M181.12,157.62a1.18,1.18,0,0,1-1.06-.67c-6.13-13.21-19.28-11.19-19.83-11.1a1.17,1.17,0,0,1-.4-2.3c.16,0,15.46-2.44,22.35,12.41a1.18,1.18,0,0,1-.57,1.56A1.19,1.19,0,0,1,181.12,157.62Z"></path><path class="cls-1" d="M353.26,133.26a1.17,1.17,0,0,1-.57-.14,1.19,1.19,0,0,1-.45-1.6c6.55-11.63,22.61-10.74,23.29-10.69a1.17,1.17,0,0,1-.15,2.33c-.16,0-15.28-.84-21.1,9.51A1.16,1.16,0,0,1,353.26,133.26Z"></path><path class="cls-6" d="M488.5,154.58l-102,0c0-19.88,16.81-20.06,16.81-20.06s6.14-32.88,29.81-30a26.21,26.21,0,0,1,10.77,3.59,22.12,22.12,0,0,1,4.2,3.36c.22.23.44.46.65.7s.49.56.72.85h0q.64.8,1.2,1.62c.32.46.61.92.88,1.39a30.12,30.12,0,0,1,3.29,8.51s0,0,0,.07a33.29,33.29,0,0,1,.86,7.92,36.27,36.27,0,0,1,3.74-3,38.83,38.83,0,0,1,4.35-2.7c3.61-1.92,8-3.45,12.4-2.88a13.55,13.55,0,0,1,6.62,2.8C494.39,135.77,488.5,154.58,488.5,154.58Z"></path><path class="cls-6" d="M214.8,88.05l-102,0c0-19.87,16.81-20.06,16.81-20.06s6.14-32.88,29.81-30a26.21,26.21,0,0,1,10.77,3.59,22.44,22.44,0,0,1,4.2,3.36c.22.23.44.46.65.7s.49.56.72.85h0q.64.8,1.2,1.62c.32.46.61.92.88,1.39A30.12,30.12,0,0,1,181.14,58s0,0,0,.07A33.29,33.29,0,0,1,182,66a36.27,36.27,0,0,1,3.74-3,38.83,38.83,0,0,1,4.35-2.7c3.61-1.92,8-3.45,12.4-2.87a13.4,13.4,0,0,1,6.61,2.79C220.69,69.23,214.8,88.05,214.8,88.05Z"></path></g><g id="light"><path class="cls-3" d="M383.3,79.68a19.12,19.12,0,0,0-17.58,17.15,19.1,19.1,0,0,0-17.61-17.12,19.1,19.1,0,0,0,17.58-17.14A19.1,19.1,0,0,0,383.3,79.68Z"></path><path class="cls-3" d="M395.59,58.54a10.21,10.21,0,0,0-9.41,9.16,10.23,10.23,0,0,0-9.42-9.16,10.25,10.25,0,0,0,9.42-9.17,10.23,10.23,0,0,0,9.41,9.17Z"></path><path class="cls-3" d="M159.71,129.82a10.2,10.2,0,0,0-9.42,9.16,10.2,10.2,0,0,0-9.42-9.16,10.22,10.22,0,0,0,9.42-9.17,10.22,10.22,0,0,0,9.42,9.17Z"></path></g></svg>