<svg transform="scale(1)" id="_0850_Product_Manager" xmlns="http://www.w3.org/2000/svg" viewBox="0 0 500 500" class="show_show__wrapper__graphic__5Waiy "><title>React</title><g id="gear"><path d="M359.55,308c-1.01-1.72-1.03-3.88.04-5.66.43-.79.84-1.64,1.18-2.47l4.42-10.85c.36-.88.71-1.75.99-2.72.62-1.79,2.04-3.2,3.84-3.71l46.48-12.39c2.75-.75,4.5-3.39,4.1-6.16l-11.75-84.82c-.4-2.77-2.8-4.83-5.6-4.78l-48.05.51c-1.93,0-3.72-.89-4.72-2.49-1.6-2.47-3.3-4.86-5.01-7.21-1.71-2.34-3.65-4.55-5.68-6.68-1.36-1.41-1.89-3.44-1.37-5.27l12.4-46.31c.76-2.7-.64-5.54-3.27-6.61l-79.44-32.38c-2.63-1.07-5.61-.02-6.95,2.44l-23.52,41.84c-.91,1.67-2.59,2.75-4.52,2.87-2.82.1-5.72.39-8.66.78-2.96.44-5.91,1-8.83,1.62-1.81.4-3.72-.21-5.05-1.55l-34.06-33.97c-1.97-1.99-5.12-2.2-7.35-.5l-67.69,52.44c-2.23,1.7-2.81,4.81-1.38,7.27l24.56,41.4c1,1.6,1.03,3.6.17,5.29-.42.91-.83,1.76-1.19,2.64l-4.42,10.85c-.36.88-.66,1.77-.99,2.72-.57,1.81-1.99,3.22-3.82,3.66l-46.5,12.44c-2.75.75-4.5,3.39-4.1,6.16l11.75,84.82c.4,2.77,2.8,4.83,5.6,4.78l48.1-.49c1.88-.03,3.68.87,4.72,2.49,1.6,2.47,3.25,4.84,5.01,7.21,1.73,2.3,3.6,4.53,5.63,6.66,1.42,1.37,1.91,3.39,1.42,5.29l-12.45,46.29c-.76,2.7.64,5.54,3.27,6.61l79.44,32.38c2.63,1.07,5.61.02,6.95-2.44l23.52-41.84c.93-1.72,2.66-2.77,4.57-2.85,2.84-.15,5.67-.41,8.61-.8,2.96-.44,5.96-.98,8.83-1.62,1.86-.38,3.77.23,5.1,1.57l33.62,33.79c1.97,1.99,5.12,2.2,7.37.45l67.67-52.4c2.23-1.7,2.81-4.81,1.37-7.27l-24.37-41.04Z" fill="#fff" stroke-width="0"></path><path d="M218.41,423.36c-.77,0-1.55-.15-2.3-.45l-79.44-32.38c-2.86-1.16-4.39-4.26-3.56-7.21l12.45-46.29c.46-1.78-.02-3.58-1.28-4.8-1.95-2.05-3.86-4.31-5.68-6.72-1.73-2.33-3.38-4.69-5.03-7.24-.92-1.42-2.49-2.26-4.22-2.26-.03,0-.05,0-.08,0l-48.11.49s-.07,0-.11,0c-2.99,0-5.56-2.22-5.99-5.21l-11.75-84.82c-.44-3.01,1.48-5.89,4.46-6.71l46.51-12.44c1.65-.4,2.95-1.65,3.47-3.33l.09-.27c.3-.86.58-1.68.91-2.48l4.42-10.85c.33-.82.71-1.61,1.1-2.45l.1-.21c.81-1.58.75-3.38-.14-4.81l-24.57-41.41c-1.56-2.67-.92-6.08,1.5-7.92l67.69-52.44c2.43-1.86,5.87-1.62,8.01.54l34.06,33.97c1.22,1.23,2.98,1.77,4.58,1.41,3.21-.68,6.1-1.22,8.87-1.63,3.32-.44,6.17-.7,8.72-.79,1.74-.11,3.27-1.09,4.1-2.61l23.53-41.84c1.46-2.68,4.72-3.83,7.58-2.66l79.44,32.38c2.86,1.16,4.39,4.26,3.56,7.21l-12.4,46.31c-.47,1.67,0,3.51,1.25,4.79,2.36,2.48,4.17,4.62,5.72,6.74,2.04,2.79,3.63,5.09,5.02,7.23.89,1.42,2.48,2.26,4.28,2.26h.02l48.05-.51s.07,0,.11,0c2.99,0,5.56,2.22,5.99,5.21l11.75,84.82c.43,3.01-1.49,5.9-4.47,6.71l-46.49,12.39c-1.61.46-2.92,1.73-3.5,3.39-.28.97-.65,1.87-1,2.74l-4.42,10.85c-.34.84-.76,1.72-1.2,2.52-.96,1.61-.98,3.58-.04,5.17l24.37,41.04c1.56,2.67.92,6.08-1.5,7.93l-67.67,52.39c-2.43,1.89-5.88,1.68-8.03-.49l-33.62-33.79c-1.23-1.24-2.96-1.77-4.64-1.43-2.7.61-5.68,1.15-8.86,1.62-2.97.4-5.81.66-8.66.81-1.77.07-3.32,1.04-4.15,2.59l-23.53,41.85c-1.08,1.97-3.13,3.12-5.28,3.12ZM129.35,315.02c2.07,0,3.95,1.01,5.06,2.72,1.64,2.52,3.27,4.87,4.99,7.18,1.8,2.38,3.68,4.61,5.59,6.62,1.51,1.46,2.1,3.62,1.54,5.76l-12.46,46.3c-.69,2.46.59,5.04,2.97,6.02l79.44,32.38c2.39.97,5.11.02,6.33-2.22l23.53-41.84c1-1.86,2.87-3.02,4.98-3.1,2.82-.15,5.63-.41,8.57-.8,3.15-.47,6.11-1.01,8.79-1.61,2.02-.41,4.09.23,5.56,1.7l33.62,33.79c1.79,1.82,4.67,1.99,6.7.41l67.67-52.4c2.02-1.54,2.55-4.39,1.25-6.63l-24.37-41.03s0,0,0,0c-1.12-1.9-1.1-4.27.04-6.17.41-.76.81-1.59,1.14-2.4l4.42-10.85c.35-.85.71-1.73.98-2.67.69-1.99,2.25-3.5,4.18-4.05l46.49-12.39c2.49-.68,4.1-3.09,3.74-5.61l-11.75-84.82c-.36-2.49-2.5-4.35-5.01-4.35-.03,0-.06,0-.09,0l-48.06.51h-.02c-2.15,0-4.06-1.02-5.12-2.73-1.37-2.12-2.96-4.4-4.99-7.18-1.52-2.08-3.31-4.19-5.63-6.63-1.49-1.54-2.06-3.74-1.49-5.75l12.4-46.3c.69-2.46-.58-5.05-2.97-6.02l-79.44-32.38c-2.39-.97-5.11-.02-6.33,2.22l-23.53,41.84c-.98,1.82-2.83,2.99-4.92,3.12-2.53.09-5.35.34-8.63.78-2.74.41-5.62.94-8.79,1.61-1.94.42-4.05-.22-5.5-1.68l-34.06-33.97c-1.79-1.81-4.66-2-6.69-.45l-67.69,52.44c-2.02,1.54-2.56,4.39-1.25,6.62l24.56,41.4c1.08,1.73,1.15,3.89.19,5.77l-.09.19c-.39.83-.76,1.61-1.08,2.41l-4.42,10.85c-.32.78-.6,1.59-.89,2.44l-.09.26c-.63,2-2.19,3.5-4.17,3.99l-46.49,12.43c-2.49.68-4.1,3.09-3.73,5.61l11.75,84.82c.36,2.49,2.5,4.35,5.01,4.35.03,0,.06,0,.09,0l48.11-.49s.06,0,.09,0Z" fill="#732a09" stroke-width="0"></path><circle cx="242.21" cy="245.22" r="93.76" fill="#732a09" stroke-width="0"></circle><path d="M242.21,339.48c-51.98,0-94.26-42.29-94.26-94.26s42.29-94.26,94.26-94.26,94.26,42.29,94.26,94.26-42.29,94.26-94.26,94.26ZM242.21,151.96c-51.42,0-93.26,41.84-93.26,93.26s41.84,93.26,93.26,93.26,93.26-41.84,93.26-93.26-41.84-93.26-93.26-93.26Z" fill="#732a09" stroke-width="0"></path></g><g id="character"><path d="M272.77,277.19c.4,26.96.13,42.66-24.69,46.68s-34.33,4.02-34.33,4.02l-5.81,74.45s-20.08,6.84-36.58-2.01c0,0,0-76.86,4.43-90.95s50.26-24.55,50.26-24.55l46.72-7.65Z" fill="#fff" stroke-width="0"></path><path d="M191,405.33c-6.23,0-13.35-1.06-19.88-4.56-.16-.09-.26-.26-.26-.44,0-3.14.05-77.1,4.45-91.1,1.88-6,11-12.01,27.1-17.88,11.9-4.34,23.41-6.98,23.53-7.01l46.75-7.65c.15-.03.29.02.4.11.11.09.18.23.18.38.39,25.9.64,43.01-25.11,47.18-21.61,3.51-31.75,3.96-33.95,4.02l-5.77,74c-.01.2-.15.37-.34.43-.12.04-7.58,2.52-17.1,2.52ZM171.86,400.02c14.95,7.85,33.03,2.74,35.61,1.94l5.78-74.11c.02-.26.24-.46.5-.46.09,0,9.79-.05,34.25-4.02,24.71-4.01,24.66-19.67,24.28-45.6l-46.15,7.55c-.43.1-45.57,10.55-49.86,24.21-4.21,13.41-4.4,85.22-4.4,90.5Z" fill="#732a09" stroke-width="0"></path><path d="M207.65,405.69l.36,25.28c.02,1.77-1.38,3.23-3.15,3.26l-46.65.99c-1.95.04-3.49-1.65-3.26-3.59l.13-1.09s2.19-21.98,25.33-23.9c0,0,11.53,2.94,27.25-.94Z" fill="#f75454" stroke-width="0"></path><path d="M155.7,430.53c-.27,0-.49-.22-.5-.49,0-.28.21-.5.49-.51l51.73-1.1h.01c.27,0,.49.22.5.49,0,.28-.21.5-.49.51l-51.73,1.1h-.01Z" fill="#732a09" stroke-width="0"></path><path d="M194.94,429.7s-.02,0-.03,0c-.28-.01-.49-.25-.47-.53,0-.12.75-11.62,13.33-12.53.28-.02.51.19.54.46.02.28-.19.51-.46.54-11.69.84-12.38,11.14-12.41,11.58-.01.27-.24.47-.5.47Z" fill="#732a09" stroke-width="0"></path><path d="M175.89,416.64c-.11,0-.23-.04-.32-.12l-10.94-9.14c-.21-.18-.24-.49-.06-.7.18-.21.5-.24.7-.06l10.94,9.14c.21.18.24.49.06.7-.1.12-.24.18-.38.18Z" fill="#732a09" stroke-width="0"></path><path d="M181.17,414.5c-.11,0-.23-.04-.32-.12l-10.94-9.15c-.21-.18-.24-.49-.06-.7.18-.21.5-.24.7-.06l10.94,9.15c.21.18.24.49.06.7-.1.12-.24.18-.38.18Z" fill="#732a09" stroke-width="0"></path><path d="M296.54,284.93c.4,26.96.13,42.66-24.69,46.68s-34.33,4.02-34.33,4.02l-5.81,74.45s-20.08,6.84-36.58-2.01c0,0,0-76.86,4.43-90.95s50.26-24.55,50.26-24.55l46.72-7.65Z" fill="#fff" stroke-width="0"></path><path d="M214.78,413.08c-6.23,0-13.35-1.06-19.88-4.56-.16-.09-.26-.26-.26-.44,0-3.14.05-77.1,4.45-91.1,1.88-6,11-12.01,27.1-17.87,11.9-4.34,23.42-6.98,23.53-7.01l46.75-7.65c.15-.02.29.02.4.11.11.09.18.23.18.38.39,25.9.64,43.01-25.11,47.18-21.61,3.51-31.75,3.96-33.95,4.02l-5.77,74c-.01.2-.15.37-.34.43-.12.04-7.58,2.52-17.1,2.52ZM195.63,407.77c14.96,7.85,33.03,2.74,35.61,1.94l5.78-74.11c.02-.26.24-.46.5-.46.09,0,9.79-.05,34.25-4.02,24.71-4.01,24.66-19.67,24.28-45.6l-46.15,7.55c-.43.1-45.57,10.55-49.87,24.2-4.21,13.41-4.4,85.22-4.4,90.5Z" fill="#732a09" stroke-width="0"></path><path d="M219.66,271.19l-.49,21.39s33.97,7.55,59.14,3.3c25.17-4.25,28.5-11.03,26.61-19.76-1.89-8.73-73.2-15.02-73.2-15.02l-12.06,10.09Z" fill="#f75454" stroke-width="0"></path><path d="M231.43,413.44l.36,25.28c.02,1.77-1.38,3.23-3.15,3.26l-46.65.99c-1.95.04-3.49-1.65-3.26-3.59l.13-1.09s2.19-21.98,25.33-23.9c0,0,11.53,2.94,27.25-.94Z" fill="#f75454" stroke-width="0"></path><path d="M179.47,438.28c-.27,0-.49-.22-.5-.49,0-.28.21-.5.49-.51l51.73-1.1h.01c.27,0,.49.22.5.49,0,.28-.21.5-.49.51l-51.73,1.1h-.01Z" fill="#732a09" stroke-width="0"></path><path d="M218.71,437.45s-.02,0-.03,0c-.28-.01-.49-.25-.47-.53,0-.12.75-11.62,13.33-12.53.27-.02.51.19.54.46.02.28-.19.51-.46.54-11.69.84-12.38,11.14-12.41,11.58-.01.27-.24.47-.5.47Z" fill="#732a09" stroke-width="0"></path><path d="M199.67,424.39c-.11,0-.23-.04-.32-.12l-10.94-9.14c-.21-.18-.24-.49-.06-.7.18-.21.5-.24.7-.06l10.94,9.14c.21.18.24.49.06.7-.1.12-.24.18-.38.18Z" fill="#732a09" stroke-width="0"></path><path d="M204.95,422.25c-.11,0-.23-.04-.32-.12l-10.94-9.15c-.21-.18-.24-.49-.06-.7.18-.21.5-.24.7-.06l10.94,9.15c.21.18.24.49.06.7-.1.12-.24.18-.38.18Z" fill="#732a09" stroke-width="0"></path><path d="M178.69,238.07c2.66-1.55,8.24-1.7,9.36-.81s13.34,14.38,13.34,14.38c0,0,15.31-33.64,21.7-41.04,6.39-7.4,16.98-12.44,37.04-14.69,20.06-2.26,38.06,12.31,42.07,24.72,4.01,12.41,10.16,40.47,9.65,49.7-.5,9.23-11.79,14.75-25.2,11.49-13.42-3.26-19.71-5.44-22.11-6.06-2.41-.63-4.14-1.63-4.69-6.13l-11.33,1.56h-28.87l-.16-6.89s-7.16,13.15-20.46,11.72c-13.3-1.42-22.16-11.4-27.07-18.52-4.91-7.12-4.21-9.81-1.55-12.35s8.27-7.08,8.27-7.08Z" fill="#f75454" stroke-width="0"></path><path d="M171.95,249.79c-.57,0-1.12-.06-1.65-.18-.27-.06-.43-.33-.37-.6.06-.27.33-.44.6-.37,5.2,1.23,13.75-5.28,14.75-6.4.72-.8,1.37-2.09,1.14-2.9-.11-.38-.4-.63-.91-.78-.26-.08-.42-.36-.33-.62.08-.26.36-.41.62-.33,1.06.32,1.45.97,1.58,1.47.39,1.4-.67,3.07-1.36,3.84-1.04,1.16-8.39,6.89-14.08,6.89Z" fill="#732a09" stroke-width="0"></path><path d="M263.61,274.33c-.21,0-.4-.13-.47-.33-.09-.26.04-.55.3-.64,2.04-.73,2.93-6.78,2.43-10.35-.42-2.99-1.68-3.27-3.3-3.33-.28,0-.49-.24-.48-.52.01-.27.26-.48.52-.48,1.79.06,3.73.44,4.26,4.19.46,3.34-.21,10.4-3.09,11.43-.06.02-.11.03-.17.03Z" fill="#732a09" stroke-width="0"></path><path d="M185.66,242.57c-2.9-1.83-7.62-6.7-8.69-8.91s-.69-7.69-2.29-7.92c-1.6-.23-1.14,9.07-1.14,9.07,0,0-2.59-3.05-4.57-6.02-1.98-2.97-2.74-5.1-4.04-4.8s3.28,10.21,3.28,10.21c0,0-5.87-5.03-7.24-7.24s-2.06-3.64-3.12-3,.46,4.68,2.06,7.72c1.6,3.05,2.67,4.49,2.67,4.49,0,0-4.19-2.97-7.01-6.25-2.82-3.28-4.65-6.08-5.64-6.12s.15,6.35,3.43,10.24c3.28,3.89,9.52,7.77,11.5,9.22,1.98,1.45,7.77,5.87,7.77,5.87,0,0,8.46-.76,13.03-6.55Z" fill="#fff" stroke-width="0"></path><path d="M172.63,249.62c-.11,0-.22-.04-.3-.1-.06-.04-5.81-4.43-7.76-5.86-.38-.28-.91-.64-1.55-1.08-2.75-1.88-7.35-5.03-10.04-8.22-3.04-3.6-4.36-9.33-3.73-10.61.14-.29.4-.48.7-.45.87.04,1.81,1.16,3.68,3.49.68.85,1.45,1.8,2.31,2.81,1.45,1.69,3.29,3.3,4.7,4.46-.35-.6-.74-1.31-1.18-2.15-.89-1.7-3.66-7.31-1.87-8.38,1.37-.82,2.25.62,3.37,2.45l.44.72c.85,1.38,3.58,3.95,5.41,5.59-1.34-3.07-3-7.32-2.49-8.38.1-.21.28-.36.5-.41,1.31-.31,2.08.97,3.24,2.89.38.63.81,1.34,1.33,2.12,1.21,1.82,2.67,3.69,3.6,4.84-.07-2.61,0-6.93,1.01-7.86.21-.2.48-.28.75-.24,1.32.19,1.58,2.21,1.89,4.54.18,1.39.37,2.82.78,3.66,1.04,2.15,5.73,6.96,8.5,8.71.12.08.2.2.23.34.02.14-.01.28-.1.39-4.65,5.89-13.02,6.71-13.38,6.74-.01,0-.03,0-.04,0ZM150.09,224.36c-.17,1.14.83,6.01,3.64,9.35,2.6,3.09,7.13,6.19,9.84,8.04.65.44,1.19.82,1.57,1.1,1.78,1.3,6.67,5.03,7.62,5.75,1.22-.15,8.08-1.2,12.15-5.92-2.96-2.05-7.34-6.61-8.4-8.81-.48-.98-.67-2.5-.87-3.96-.19-1.44-.47-3.6-1.04-3.68-.49.37-.78,4.29-.57,8.55.01.21-.12.41-.32.49-.2.08-.43.02-.56-.14-.03-.03-2.63-3.1-4.61-6.07-.52-.79-.96-1.51-1.35-2.15-.94-1.55-1.48-2.42-2.01-2.45-.1,1.04,1.68,5.64,3.47,9.53.1.21.04.47-.15.61-.19.14-.45.13-.63-.02-.24-.21-5.94-5.1-7.34-7.35l-.44-.72c-1.15-1.88-1.55-2.38-2-2.11-.39.23.04,2.86,2.24,7.06,1.56,2.97,2.62,4.42,2.63,4.43.15.2.13.47-.05.65-.17.17-.45.2-.65.06-.17-.12-4.27-3.04-7.1-6.33-.87-1.01-1.65-1.98-2.33-2.83-1.03-1.29-2.19-2.73-2.76-3.05Z" fill="#732a09" stroke-width="0"></path><path d="M218.83,260.03h-.02c-.28,0-.49-.24-.48-.52,0-.24.82-23.89,3.18-35.81.05-.27.32-.45.59-.39.27.05.45.32.39.59-2.34,11.84-3.15,35.42-3.16,35.65,0,.27-.23.48-.5.48Z" fill="#732a09" stroke-width="0"></path><path d="M289.43,260.03c-.26,0-.48-.2-.5-.46-.01-.17-1.3-17.15-4.73-28.52-.08-.26.07-.54.33-.62.27-.08.54.07.62.33,3.46,11.48,4.76,28.56,4.77,28.73.02.28-.19.52-.46.54-.01,0-.03,0-.04,0Z" fill="#732a09" stroke-width="0"></path><path d="M260.13,260.03c-.08,0-.17-.02-.24-.06-.24-.13-.33-.44-.19-.68,1.2-2.16,4.98-2.79,11.57-1.92,4.85.64,20.97,1.66,21.13,1.67.28.02.49.25.47.53-.02.27-.23.48-.53.47-.16-.01-16.31-1.03-21.2-1.67-7.53-.99-9.9.22-10.56,1.42-.09.16-.26.26-.44.26Z" fill="#732a09" stroke-width="0"></path><path d="M255.19,262.08c-2.72-.35-9.3-1.23-11.7-2.12s-5.66-.38-4.17,1.36,6.01,3.73,6.01,3.73l9.86-2.97Z" fill="#fff" stroke-width="0"></path><path d="M245.33,265.55c-.07,0-.14-.01-.2-.04-.19-.08-4.64-2.06-6.19-3.86-.73-.86-.49-1.48-.29-1.77.73-1.04,3.23-1.04,5.01-.38,1.64.6,5.75,1.34,11.59,2.09.23.03.42.22.43.46s-.13.45-.35.52l-9.87,2.97s-.1.02-.14.02ZM241.08,260.03c-.81,0-1.43.17-1.61.41-.1.15.15.46.23.55,1.24,1.45,4.84,3.15,5.66,3.52l7.47-2.25c-3.7-.51-7.71-1.18-9.51-1.84-.77-.28-1.57-.4-2.24-.4Z" fill="#732a09" stroke-width="0"></path><path d="M265.99,261.48c-6.98-1.24-18.6.76-23.02,3.11s-9.89,8.43-9.26,10.02,4.98-2.35,6.98-3.94c2-1.59,6.5-3.18,6.5-3.18,0,0-3.66,3.73-4.84,6.43-1.18,2.7-.9,4.84.9,4.42s4.03-6.01,6.58-7.74c0,0-2.36,4.67-1.67,7.79.69,3.13,1.94,3.2,3.11,2.09s.76-5.12,1.94-7.05c0,0,.07,4.08,1.94,6.57,1.87,2.49,2.83,1.04,2.63-1.18s.28-5.25,1.31-6.29c1.04-1.04,5.12-.07,6.91-2.35,0,0,1.18-3.66,0-8.71Z" fill="#fff" stroke-width="0"></path><path d="M256.82,281.82c-.63,0-1.33-.5-2.09-1.51-1.01-1.35-1.52-3.11-1.78-4.51-.08.46-.15.95-.21,1.42-.22,1.58-.4,2.94-1.14,3.63-.9.84-1.62.86-2.07.72-.86-.27-1.48-1.27-1.87-3.07-.4-1.81.14-4.06.72-5.74-.57.74-1.13,1.58-1.65,2.37-1.22,1.84-2.27,3.43-3.38,3.69-.99.23-1.52-.2-1.75-.48-.71-.86-.61-2.59.28-4.63.72-1.64,2.29-3.62,3.47-4.98-1.43.6-3.29,1.47-4.36,2.32-.29.23-.62.51-.99.81-2.69,2.22-4.84,3.88-6.05,3.57-.33-.09-.59-.32-.72-.65-.8-2.05,5.2-8.37,9.5-10.65,4.65-2.47,16.33-4.41,23.34-3.16.2.04.35.18.4.38,1.19,5.12.04,8.82-.01,8.98-.02.06-.05.11-.08.16-1.21,1.54-3.25,1.75-4.89,1.92-.87.09-1.77.19-2.06.47-.84.84-1.38,3.59-1.17,5.89.15,1.55-.23,2.65-1.01,2.95-.14.05-.28.08-.43.08ZM253.2,272.94s.09,0,.13.02c.22.06.37.25.37.47,0,.04.09,3.95,1.84,6.28.74.99,1.21,1.16,1.35,1.09.22-.08.48-.75.37-1.92-.21-2.3.28-5.51,1.46-6.69.54-.54,1.52-.64,2.66-.76,1.5-.16,3.19-.33,4.15-1.47.16-.56.95-3.77.04-8.04-6.76-1.08-18.03.81-22.37,3.12-4.67,2.48-9.44,8.35-9.03,9.4.62.42,4.07-2.4,5.2-3.33.37-.31.71-.59,1.01-.82,2.05-1.62,6.46-3.19,6.64-3.26.22-.08.46,0,.59.2s.1.45-.07.62c-.04.04-3.61,3.7-4.74,6.28-.81,1.85-.79,3.16-.43,3.59.06.07.22.27.76.15.72-.17,1.81-1.81,2.77-3.27,1.14-1.72,2.31-3.5,3.64-4.4.19-.13.44-.11.61.04.17.15.22.4.12.6-.02.04-2.27,4.54-1.63,7.46.42,1.9.97,2.26,1.19,2.33.35.11.79-.21,1.09-.49.48-.45.66-1.77.83-3.04.19-1.42.39-2.88,1.02-3.91.09-.15.26-.24.43-.24Z" fill="#732a09" stroke-width="0"></path><path d="M247.18,268c-.16,0-.32-.08-.41-.22-.16-.23-.1-.54.13-.69,1.82-1.24,3.3-1.33,3.37-1.33.3-.04.51.2.52.47s-.2.51-.47.52c0,0-1.28.09-2.86,1.16-.09.06-.18.09-.28.09Z" fill="#732a09" stroke-width="0"></path><path d="M249.82,271.11c-.13,0-.26-.05-.35-.15-.19-.2-.19-.51,0-.71,1.32-1.32,3-2.33,3.07-2.38.24-.14.54-.07.69.17.14.24.07.54-.17.69-.02,0-1.64,1-2.88,2.23-.1.1-.22.15-.35.15Z" fill="#732a09" stroke-width="0"></path><path d="M253.2,273.94s-.06,0-.09,0c-.27-.05-.45-.31-.4-.58.32-1.78,1.75-3.07,1.81-3.12.21-.18.52-.16.71.04.18.21.17.52-.04.71-.01.01-1.24,1.12-1.49,2.55-.04.24-.25.41-.49.41Z" fill="#732a09" stroke-width="0"></path><polygon points="231.51 310.15 213.98 261.35 157.39 250.95 175.19 299.01 231.51 310.15" fill="#fff" stroke-width="0"></polygon><path d="M231.51,310.65s-.06,0-.1,0l-56.32-11.14c-.17-.03-.31-.15-.37-.32l-17.8-48.06c-.06-.17-.03-.36.09-.5.12-.14.29-.2.47-.17l56.59,10.41c.17.03.32.16.38.32l17.53,48.79c.06.17.03.36-.09.5-.1.11-.23.17-.38.17ZM175.56,298.57l55.18,10.92-17.14-47.69-55.44-10.2,17.4,46.97Z" fill="#732a09" stroke-width="0"></path><polygon points="231.51 310.15 268.98 299.59 268.98 294.36 229.65 304.96 231.51 310.15" fill="#fff" stroke-width="0"></polygon><path d="M231.51,310.65c-.21,0-.4-.13-.47-.33l-1.86-5.18c-.05-.13-.04-.28.03-.4s.18-.21.31-.25l39.33-10.6c.15-.04.31,0,.43.09.12.09.2.24.2.4v5.23c0,.22-.15.42-.36.48l-37.47,10.55s-.09.02-.14.02ZM230.31,305.31l1.52,4.23,36.66-10.33v-4.2l-38.18,10.29Z" fill="#732a09" stroke-width="0"></path><polygon points="268.98 294.36 224 289.23 229.65 304.96 268.98 294.36" fill="#fff" stroke-width="0"></polygon><path d="M229.65,305.46c-.21,0-.4-.13-.47-.33l-5.65-15.73c-.06-.16-.03-.34.08-.48.11-.13.28-.2.45-.19l44.99,5.13c.24.03.42.22.44.46.02.24-.14.46-.37.52l-39.33,10.6s-.09.02-.13.02ZM224.74,289.82l5.23,14.54,36.36-9.8-41.58-4.74Z" fill="#732a09" stroke-width="0"></path><path d="M293.57,282.83c-7.94,0-17.26-1.59-24.69-3.21-5.02-1.09-8.01-2.75-8.9-4.91-.67-1.63.15-2.91.19-2.97.15-.23.46-.29.69-.14.23.15.29.46.15.69-.03.05-.57.92-.09,2.06.53,1.26,2.38,3.03,8.18,4.29,15.15,3.3,26.75,4.05,33.56,2.18.27-.07.54.08.62.35.07.27-.08.54-.35.62-2.67.74-5.88,1.04-9.34,1.04Z" fill="#732a09" stroke-width="0"></path><path d="M179.45,435.72s-.05,0-.08,0c-.27-.04-.46-.3-.42-.57.03-.2,3.23-19.52,25.18-21.26.25-.01.52.18.54.46.02.27-.18.52-.46.54-8.87.7-15.65,4.34-20.15,10.82-3.36,4.84-4.12,9.55-4.13,9.6-.04.25-.25.42-.49.42Z" fill="#732a09" stroke-width="0"></path><path d="M263.21,183.34c.88,8.69.9,15.12.82,18.36-.04,1.48-1.08,2.74-2.53,3.04-2.38.5-6.13.8-9.52-.97-1.13-.59-1.82-1.79-1.74-3.06l.47-7.15,12.5-10.21Z" fill="#fff" stroke-width="0"></path><path d="M257.88,205.62c-1.95,0-4.1-.35-6.14-1.42-1.31-.69-2.1-2.08-2-3.54l.47-7.15c0-.14.08-.27.18-.36l12.5-10.21c.14-.12.34-.14.51-.07s.29.23.31.41c.9,8.8.9,15.32.82,18.42-.04,1.72-1.25,3.17-2.93,3.52-1.07.22-2.34.4-3.72.4ZM251.2,193.8l-.45,6.94c-.07,1.07.51,2.08,1.47,2.59,3.21,1.68,6.77,1.43,9.19.93,1.22-.25,2.1-1.31,2.13-2.56.07-2.97.07-9.1-.73-17.37l-11.61,9.48Z" fill="#732a09" stroke-width="0"></path><path d="M239.23,164.85c-1.33-4.61-2.07-8.49-1.79-9.69s9.99-13.69,20.17-13.69,17.86,2.59,21.56,7.03c0,0,10.62,2.97,9,18.54-1.61,15.56-6.65,23.25-9.69,24.32s-17.06,0-17.06,0l-22.19-26.5Z" fill="#fff" stroke-width="0"></path><path d="M272.64,192.32c-4.94,0-10.88-.45-11.25-.48-.13-.01-.26-.08-.35-.18l-22.19-26.5c-.04-.05-.08-.12-.1-.18-1.1-3.81-2.15-8.42-1.8-9.95.27-1.19,10.17-14.08,20.66-14.08s17.94,2.52,21.85,7.1c1.34.46,10.74,4.26,9.21,19.02-1.67,16.14-6.91,23.64-10.02,24.74-1.07.38-3.4.5-6.01.5ZM261.67,190.86c1.75.13,13.93.97,16.64.01,2.76-.98,7.75-8.33,9.36-23.9,1.55-14.97-8.54-17.97-8.64-18-.1-.03-.18-.08-.25-.16-3.63-4.35-11.35-6.85-21.17-6.85s-19.34,12.14-19.68,13.31c-.21.89.26,4.12,1.76,9.34l21.99,26.26Z" fill="#732a09" stroke-width="0"></path><path d="M243.64,156.45s-13.42,20.42-7.41,31.52c5.23,9.66,22.09,13,34.65-.62,0,0,3.09,2.41,6.47,1.45s5.22-10.53,0-10.72l-4.64,5.56-2.61-1.99s3.19-7.75,3.19-11.65c0,0-4.31-7.96-13.11-11.43l5-6.76-9.75,5.5-5.06-.87,3.61-6.47-7.33,6.57-3-.1Z" fill="#fff" stroke-width="0"></path><path d="M251.94,196.92c-.9,0-1.79-.05-2.68-.17-5.94-.74-10.97-3.94-13.47-8.55-2.57-4.74-2.08-11.58,1.43-20.34,2.59-6.46,5.97-11.64,6-11.69.1-.15.26-.24.43-.23l2.8.09,7.18-6.43c.18-.16.46-.17.65-.02.19.15.24.42.12.63l-3.27,5.85,4.19.72,9.6-5.42c.21-.11.46-.07.62.1.16.18.17.44.03.63l-4.62,6.24c8.47,3.61,12.59,11.09,12.77,11.42.04.07.06.16.06.24,0,3.52-2.45,9.89-3.08,11.48l1.92,1.47,4.33-5.19c.1-.12.26-.17.4-.18,2.06.08,3.4,1.48,3.69,3.84.36,2.99-1.15,7.17-3.57,7.86-2.92.84-5.58-.64-6.54-1.27-5.44,5.75-12.23,8.91-19,8.91ZM243.91,156.95c-1.45,2.29-12.69,20.7-7.24,30.77,2.34,4.33,7.09,7.33,12.71,8.03,7.43.92,15.14-2.26,21.12-8.75.18-.19.47-.21.67-.06.03.02,2.94,2.25,6.02,1.36,1.72-.49,3.19-3.98,2.85-6.78-.15-1.26-.71-2.76-2.49-2.95l-4.47,5.37c-.17.21-.48.24-.69.08l-2.61-1.99c-.18-.14-.25-.38-.16-.59.03-.08,3.08-7.53,3.15-11.33-.55-.96-4.82-7.95-12.8-11.1-.14-.06-.25-.18-.3-.33s-.01-.31.08-.44l3.61-4.87-7.71,4.35c-.1.06-.22.08-.33.06l-5.06-.87c-.16-.03-.3-.13-.37-.28s-.06-.32.01-.46l2.15-3.86-5.1,4.57c-.09.09-.21.12-.35.13l-2.72-.09Z" fill="#732a09" stroke-width="0"></path><path d="M256.53,168.56c2.64-1.56,7.56-1.01,7.63,2.77.01.28-.2.51-.48.53-.23.01-.42-.13-.5-.33-.57-1.14-1.29-1.74-2.51-1.98-1.15-.25-2.54-.13-3.87-.04-.53.05-.74-.73-.27-.95h0Z" fill="#732a09" stroke-width="0"></path><path d="M241.73,161.15c2.29-1.23,5.37-.12,6.4,2.24.16.49.69,1.34-.03,1.59-.19.05-.39-.02-.51-.16-.74-.87-1.44-1.68-2.43-2.17-.95-.5-2.11-.6-3.18-.55-.52.04-.71-.73-.24-.95h0Z" fill="#732a09" stroke-width="0"></path><path d="M243.99,176.31c-.28,0-.55-.03-.81-.1-1.39-.35-2.13-1.51-1.89-2.97.12-.75.49-1.31,1.07-1.66,1.03-.62,2.49-.4,3.23-.23.37-.98,1.29-3.6,1.92-6.87.05-.27.32-.45.58-.4.27.05.45.31.4.58-.81,4.25-2.08,7.34-2.13,7.47-.1.24-.37.37-.62.28-.51-.17-2.03-.5-2.86,0-.33.2-.53.52-.6.97-.22,1.35.73,1.74,1.14,1.84,1.03.25,2.38-.22,2.76-1.35.09-.26.37-.4.63-.31.26.09.4.37.31.63-.47,1.4-1.86,2.09-3.14,2.09Z" fill="#732a09" stroke-width="0"></path><path d="M259.47,173.95c-.55,1.15-1.65,1.76-2.44,1.38s-.99-1.62-.43-2.76c.16-.34.39-.64.63-.88l1.01,1.39.16-1.99c.22-.03.43,0,.62.1.79.38.99,1.62.44,2.76Z" fill="#732a09" stroke-width="0"></path><path d="M243.33,167.71c-.55,1.15-1.65,1.76-2.44,1.38s-.99-1.62-.43-2.76c.16-.34.39-.64.63-.88l1.01,1.39.16-1.99c.22-.03.43,0,.62.1.79.38.99,1.62.44,2.76Z" fill="#732a09" stroke-width="0"></path><path d="M247.6,184.14c-.1,0-.2,0-.3-.01-1.41-.13-2.69-1.16-3.61-2.9-.13-.24-.03-.55.21-.67.24-.13.55-.03.67.21.75,1.43,1.75,2.27,2.81,2.37.9.09,1.86-.39,2.59-1.31.17-.22.49-.25.7-.08.22.17.25.49.08.7-.87,1.09-2,1.7-3.16,1.7Z" fill="#732a09" stroke-width="0"></path><path d="M277.55,186.48c-.09,0-.18-.02-.26-.07-.24-.14-.31-.45-.17-.69.72-1.19,1.52-3.49-.06-4.61-.23-.16-.28-.47-.12-.7.16-.23.47-.28.7-.12,2.17,1.54,1.23,4.46.33,5.95-.09.15-.26.24-.43.24Z" fill="#732a09" stroke-width="0"></path><path d="M243.64,156.45c-2.16.05-2.87.37-2.87.37" fill="#fff" stroke-width="0"></path><path d="M240.78,157.31c-.19,0-.38-.11-.46-.3-.11-.25,0-.54.25-.65.08-.04.86-.37,3.06-.41.32,0,.5.21.51.49s-.21.5-.49.51c-1.98.04-2.67.32-2.68.33-.06.03-.13.04-.19.04Z" fill="#732a09" stroke-width="0"></path><path d="M273.29,170c1.87,2.39,3.08,5.44,3.08,5.44" fill="#fff" stroke-width="0"></path><path d="M276.37,175.95c-.2,0-.39-.12-.46-.32-.01-.03-1.2-3.02-3-5.32-.17-.22-.13-.53.08-.7.22-.17.53-.13.7.08,1.89,2.42,3.1,5.44,3.15,5.57.1.26-.02.55-.28.65-.06.02-.12.04-.18.04Z" fill="#732a09" stroke-width="0"></path></g><g id="lamp"><rect x="41.69" y="256.13" width="82.48" height="90.65" rx="10.2" ry="10.2" fill="#fff" stroke-width="0"></rect><path d="M113.98,347.28h-62.09c-5.9,0-10.7-4.8-10.7-10.7v-70.26c0-5.9,4.8-10.7,10.7-10.7h62.09c5.9,0,10.7,4.8,10.7,10.7v70.26c0,5.9-4.8,10.7-10.7,10.7ZM51.89,256.63c-5.35,0-9.7,4.35-9.7,9.7v70.26c0,5.35,4.35,9.7,9.7,9.7h62.09c5.35,0,9.7-4.35,9.7-9.7v-70.26c0-5.35-4.35-9.7-9.7-9.7h-62.09Z" fill="#732a09" stroke-width="0"></path><circle cx="83.97" cy="333.54" r="1.59" fill="#732a09" stroke-width="0"></circle><path d="M91.02,325.17c0,4.01.26,8.39-7.06,8.39s-7.05-4.38-7.05-8.39c0-1.07.01-2.04-.03-2.97,2.2.26,4.59.4,7.09.4s4.88-.14,7.08-.4c-.05.94-.03,1.91-.03,2.97Z" fill="#f75454" stroke-width="0"></path><path d="M96.85,310.09c-.96,1.07-1.87,1.95-2.57,2.7-2.54,2.68-3.11,4.89-3.23,7.48-2.2.26-4.59.4-7.08.4s-4.89-.14-7.09-.4c-.12-2.58-.69-4.8-3.23-7.48-.7-.74-1.61-1.63-2.57-2.7-3.78-4.16-8.46-10.91-5.26-21.05,1.33-4.24,3.8-7.17,6.49-9.18,6.86-5.14,16.44-5.14,23.31,0,2.69,2.02,5.15,4.94,6.49,9.19,3.2,10.14-1.48,16.89-5.25,21.05Z" fill="#fff" stroke-width="0"></path><path d="M83.97,321.16c-2.5,0-4.91-.13-7.15-.4-.24-.03-.43-.23-.44-.47-.12-2.53-.68-4.61-3.09-7.16-.24-.25-.5-.52-.78-.8-.55-.56-1.16-1.19-1.8-1.9-3.87-4.26-8.65-11.13-5.37-21.54,1.21-3.85,3.45-7.03,6.66-9.43,7.03-5.28,16.86-5.28,23.91,0,3.21,2.4,5.45,5.58,6.66,9.44,3.28,10.4-1.49,17.27-5.36,21.54-.63.7-1.23,1.32-1.77,1.87-.29.3-.56.58-.81.83-2.42,2.54-2.97,4.62-3.09,7.15-.01.24-.2.45-.44.47-2.24.27-4.65.4-7.14.4ZM91.06,320.26h0,0ZM77.36,319.81c4.16.46,9.05.46,13.22,0,.17-2.51.85-4.76,3.34-7.37.25-.26.52-.54.82-.84.53-.55,1.13-1.16,1.75-1.84h0c3.71-4.08,8.27-10.66,5.15-20.57-1.15-3.66-3.27-6.66-6.31-8.94-6.69-5.01-16.03-5-22.71,0-3.04,2.28-5.16,5.28-6.31,8.93-3.12,9.91,1.44,16.48,5.15,20.56.63.7,1.23,1.32,1.77,1.87.28.29.55.56.79.82,2.47,2.61,3.16,4.86,3.34,7.37Z" fill="#732a09" stroke-width="0"></path><path d="M99.04,295.85c-.27,0-.5-.22-.5-.49-.02-1.58-.31-3.23-.84-4.93-.89-2.81-2.52-5.13-4.85-6.87-2.03-1.52-4.47-2.5-7.05-2.82-.27-.03-.47-.28-.43-.56.03-.27.28-.48.56-.43,2.75.34,5.35,1.38,7.52,3.01,2.5,1.88,4.25,4.36,5.21,7.37.56,1.79.86,3.54.89,5.21,0,.28-.22.5-.49.51h0Z" fill="#f75454" stroke-width="0"></path><path d="M83.95,326.08c-1.83,0-3.95-.13-6.2-.53-.27-.05-.45-.31-.41-.58.05-.27.31-.46.58-.41,6.4,1.13,11.95.01,12.01,0,.27-.06.54.12.59.39.06.27-.12.54-.39.59-.15.03-2.63.53-6.19.53Z" fill="#732a09" stroke-width="0"></path><path d="M83.95,329.71c-1.83,0-3.95-.13-6.2-.53-.27-.05-.45-.31-.41-.58.05-.27.31-.46.58-.41,6.4,1.13,11.95.01,12.01,0,.27-.06.54.12.59.39.06.27-.12.54-.39.59-.15.03-2.63.53-6.19.53Z" fill="#732a09" stroke-width="0"></path><path d="M83.47,273.36c-.79-2.54-.96-5.24,0-7.73,1.03-1.25,1.43,1.29,1.53,1.93.25.75.11,7.77-1.53,5.8h0Z" fill="#f75454" stroke-width="0"></path><path d="M96.29,276.27c.55-1.95,1.55-3.59,2.84-5.09.45-.48,2.2-2.35,2.35-.74-.26,1.34-.9,2.47-1.66,3.55-.38.55-3.37,4.46-3.52,2.28h0Z" fill="#f75454" stroke-width="0"></path><path d="M70.82,276.83c-2.08-1.66-3.74-3.79-4.36-6.39.14-1.61,1.91.26,2.35.74.62.47,4.47,6.36,2.01,5.65h0Z" fill="#f75454" stroke-width="0"></path></g><g id="graphic"><rect x="322.59" y="233.09" width="120.77" height="99.34" rx="10.2" ry="10.2" fill="#fff" stroke-width="0"></rect><path d="M433.16,332.94h-100.37c-5.9,0-10.7-4.8-10.7-10.7v-78.95c0-5.9,4.8-10.7,10.7-10.7h100.37c5.9,0,10.7,4.8,10.7,10.7v78.95c0,5.9-4.8,10.7-10.7,10.7ZM332.78,233.59c-5.35,0-9.7,4.35-9.7,9.7v78.95c0,5.35,4.35,9.7,9.7,9.7h100.37c5.35,0,9.7-4.35,9.7-9.7v-78.95c0-5.35-4.35-9.7-9.7-9.7h-100.37Z" fill="#732a09" stroke-width="0"></path><rect x="335.5" y="287.11" width="15.25" height="31.14" fill="#ed5454" stroke-width="0"></rect><path d="M350.75,318.75h-15.25c-.28,0-.5-.22-.5-.5v-31.14c0-.28.22-.5.5-.5h15.25c.28,0,.5.22.5.5v31.14c0,.28-.22.5-.5.5ZM336,317.75h14.25v-30.14h-14.25v30.14Z" fill="#732a09" stroke-width="0"></path><rect x="361.96" y="294.95" width="15.25" height="23.3" fill="#ed5454" stroke-width="0"></rect><path d="M377.21,318.75h-15.25c-.28,0-.5-.22-.5-.5v-23.3c0-.28.22-.5.5-.5h15.25c.28,0,.5.22.5.5v23.3c0,.28-.22.5-.5.5ZM362.46,317.75h14.25v-22.3h-14.25v22.3Z" fill="#732a09" stroke-width="0"></path><rect x="388.42" y="279.33" width="15.25" height="38.92" fill="#ed5454" stroke-width="0"></rect><path d="M403.67,318.75h-15.25c-.28,0-.5-.22-.5-.5v-38.92c0-.28.22-.5.5-.5h15.25c.28,0,.5.22.5.5v38.92c0,.28-.22.5-.5.5ZM388.92,317.75h14.25v-37.92h-14.25v37.92Z" fill="#732a09" stroke-width="0"></path><rect x="414.89" y="262.69" width="15.25" height="55.56" fill="#ed5454" stroke-width="0"></rect><path d="M430.14,318.75h-15.25c-.28,0-.5-.22-.5-.5v-55.56c0-.28.22-.5.5-.5h15.25c.28,0,.5.22.5.5v55.56c0,.28-.22.5-.5.5ZM415.39,317.75h14.25v-54.56h-14.25v54.56Z" fill="#732a09" stroke-width="0"></path></g><g id="clock"><circle cx="99.03" cy="135.24" r="33.74" fill="#fff" stroke-width="0"></circle><path d="M99.04,169.48c-18.88,0-34.24-15.36-34.24-34.24s15.36-34.24,34.24-34.24,34.24,15.36,34.24,34.24-15.36,34.24-34.24,34.24ZM99.04,102c-18.33,0-33.24,14.91-33.24,33.24s14.91,33.24,33.24,33.24,33.24-14.91,33.24-33.24-14.91-33.24-33.24-33.24Z" fill="#732a09" stroke-width="0"></path><circle cx="99.03" cy="135.24" r="29.02" fill="#fff" stroke-width="0"></circle><path d="M99.04,164.76c-16.28,0-29.52-13.24-29.52-29.52s13.24-29.52,29.52-29.52,29.52,13.24,29.52,29.52-13.24,29.52-29.52,29.52ZM99.04,106.72c-15.73,0-28.52,12.79-28.52,28.52s12.79,28.52,28.52,28.52,28.52-12.79,28.52-28.52-12.79-28.52-28.52-28.52Z" fill="#732a09" stroke-width="0"></path><path d="M120.77,135.74h-21.74c-.28,0-.5-.22-.5-.5v-18.48c0-.28.22-.5.5-.5s.5.22.5.5v17.98h21.24c.28,0,.5.22.5.5s-.22.5-.5.5Z" fill="#732a09" stroke-width="0"></path><circle cx="99.03" cy="135.24" r="2.81" fill="#ed5454" stroke-width="0"></circle><path d="M99.04,138.55c-1.82,0-3.31-1.48-3.31-3.31s1.48-3.31,3.31-3.31,3.31,1.48,3.31,3.31-1.48,3.31-3.31,3.31ZM99.04,132.93c-1.27,0-2.31,1.03-2.31,2.31s1.03,2.31,2.31,2.31,2.31-1.03,2.31-2.31-1.03-2.31-2.31-2.31Z" fill="#732a09" stroke-width="0"></path></g></svg>