<svg transform="scale(1)" version="1.1" id="d0nxaU1UuP" xmlns="http://www.w3.org/2000/svg" xmlns:xlink="http://www.w3.org/1999/xlink" x="0px" y="0px" viewBox="0 0 500 500" xml:space="preserve" class="pbimage_pbimage__wrapper__image__0LEis false"><title>CPU</title><style type="text/css"> .st0{fill:url(#SVGID_1_-d0nxaU1UuP);} .st1{fill:url(#SVGID_00000111908713376408264810000004617128581135824304_-d0nxaU1UuP);} .st2{fill:url(#SVGID_00000102532414646192676930000009692474120010996659_-d0nxaU1UuP);} .st3{fill:url(#SVGID_00000054981337921115772250000017632420281661150612_-d0nxaU1UuP);} .st4{fill:url(#SVGID_00000065772149372576967680000010612398239072059323_-d0nxaU1UuP);} .st5{fill:#000111;} .st6{fill:url(#SVGID_00000009549213983934552740000010694750008137324204_-d0nxaU1UuP);} .st7{fill:url(#SVGID_00000170978634804517308770000005081646879787764400_-d0nxaU1UuP);} .st8{fill:url(#SVGID_00000091714488313929400120000000688381582335541653_-d0nxaU1UuP);} .st9{fill:url(#SVGID_00000107588346034741875780000008161642949640022200_-d0nxaU1UuP);} .st10{fill:url(#SVGID_00000152982437694080993130000008388717267964514968_-d0nxaU1UuP);} .st11{fill:url(#SVGID_00000129925179699100569900000006474156467133170566_-d0nxaU1UuP);} .st12{fill:url(#SVGID_00000033355982812879321960000010088947757327540655_-d0nxaU1UuP);} .st13{fill:url(#SVGID_00000023255458059582617470000008862139608918376067_-d0nxaU1UuP);} .st14{fill:url(#SVGID_00000095331806164432529460000003092313846915293109_-d0nxaU1UuP);} .st15{fill:url(#SVGID_00000019637386052810239440000002974932320991845785_-d0nxaU1UuP);} .st16{fill:url(#SVGID_00000090279841176869561480000012968544052146950066_-d0nxaU1UuP);} .st17{fill:url(#SVGID_00000147203041505073846990000013860973279460299154_-d0nxaU1UuP);} .st18{fill:url(#SVGID_00000137116301062006816100000006784104025950715561_-d0nxaU1UuP);} .st19{fill:url(#SVGID_00000150823894803150346610000014330956376767276187_-d0nxaU1UuP);} .st20{fill:url(#SVGID_00000173854966763666246330000011216870596856923314_-d0nxaU1UuP);} .st21{fill:#FFFFFF;} .st22{fill:url(#SVGID_00000111869448169897453340000011821790629415568831_-d0nxaU1UuP);} .st23{fill:#FED490;}
 .st23{fill:#FED490;}
 .st21{fill:#FFFFFF;}
 .st5{fill:#000111;}</style><g id="cpu"><linearGradient id="SVGID_1_-d0nxaU1UuP" gradientUnits="userSpaceOnUse" x1="174.8343" y1="1159.7109" x2="197.2643" y2="1055.2209" gradientTransform="matrix(1 0 0 1 0 -719.06)"><stop offset="0" style="stop-color: rgb(243, 131, 116);"></stop><stop offset="1" style="stop-color: rgb(198, 66, 52);"></stop></linearGradient><rect class="st0" x="182.9" y="353" width="15.5" height="28.1"></rect><linearGradient id="SVGID_00000145736715557796911080000007183433155360461228_-d0nxaU1UuP" gradientUnits="userSpaceOnUse" x1="203.0439" y1="1165.7687" x2="225.4739" y2="1061.2787" gradientTransform="matrix(1 0 0 1 0 -719.06)"><stop offset="0" style="stop-color: rgb(243, 131, 116);"></stop><stop offset="1" style="stop-color: rgb(198, 66, 52);"></stop></linearGradient><rect x="212.4" y="353" width="15.5" height="28.1" style="fill: url(&quot;#SVGID_00000145736715557796911080000007183433155360461228_-d0nxaU1UuP&quot;);"></rect><linearGradient id="SVGID_00000175289531769657279080000007145400539393773479_-d0nxaU1UuP" gradientUnits="userSpaceOnUse" x1="231.2626" y1="1171.8306" x2="253.6926" y2="1067.3406" gradientTransform="matrix(1 0 0 1 0 -719.06)"><stop offset="0" style="stop-color: rgb(243, 131, 116);"></stop><stop offset="1" style="stop-color: rgb(198, 66, 52);"></stop></linearGradient><rect x="241.9" y="353" width="15.5" height="28.1" style="fill: url(&quot;#SVGID_00000175289531769657279080000007145400539393773479_-d0nxaU1UuP&quot;);"></rect><linearGradient id="SVGID_00000085235425229652223000000011041202912980064138_-d0nxaU1UuP" gradientUnits="userSpaceOnUse" x1="259.4743" y1="1177.8788" x2="281.9043" y2="1073.3888" gradientTransform="matrix(1 0 0 1 0 -719.06)"><stop offset="0" style="stop-color: rgb(243, 131, 116);"></stop><stop offset="1" style="stop-color: rgb(198, 66, 52);"></stop></linearGradient><rect x="271.4" y="353" width="15.5" height="28.1" style="fill: url(&quot;#SVGID_00000085235425229652223000000011041202912980064138_-d0nxaU1UuP&quot;);"></rect><linearGradient id="SVGID_00000177457342132284421280000010339749799814091655_-d0nxaU1UuP" gradientUnits="userSpaceOnUse" x1="287.6931" y1="1183.9407" x2="310.1231" y2="1079.4507" gradientTransform="matrix(1 0 0 1 0 -719.06)"><stop offset="0" style="stop-color: rgb(243, 131, 116);"></stop><stop offset="1" style="stop-color: rgb(198, 66, 52);"></stop></linearGradient><rect x="301" y="353" width="15.5" height="28.1" style="fill: url(&quot;#SVGID_00000177457342132284421280000010339749799814091655_-d0nxaU1UuP&quot;);"></rect><path class="st5" d="M175.6,451.5c-1,0-1.8-0.8-1.8-1.8c0,0,0,0,0,0v-31.6c0-0.6,0.3-1.2,0.8-1.5l13.9-8.9v-26.9
		c0-1,0.8-1.8,1.8-1.8s1.8,0.8,1.8,1.8v27.9c0,0.6-0.3,1.2-0.8,1.5l-13.9,8.9v30.6C177.4,450.7,176.6,451.5,175.6,451.5
		C175.6,451.5,175.6,451.5,175.6,451.5z" fill="#000111"></path><path class="st5" d="M211.1,475.1c-1,0-1.8-0.8-1.8-1.8c0,0,0,0,0,0v-46.6c0-0.5,0.2-1,0.6-1.3l8.9-8.4v-35.4c0-1,0.8-1.8,1.8-1.8
		s1.8,0.8,1.8,1.8v36.1c0,0.5-0.2,1-0.6,1.3l-8.9,8.4v45.8C212.9,474.3,212.1,475.1,211.1,475.1
		C211.1,475.1,211.1,475.1,211.1,475.1z" fill="#000111"></path><path class="st5" d="M324.5,451.5c-1,0-1.8-0.8-1.8-1.8c0,0,0,0,0,0v-30.6l-13.9-8.9c-0.5-0.3-0.8-0.9-0.8-1.5v-27.9
		c0-1,0.8-1.8,1.8-1.8c1,0,1.8,0.8,1.8,1.8v26.9l13.9,8.9c0.5,0.3,0.8,0.9,0.8,1.5v31.6C326.4,450.7,325.5,451.5,324.5,451.5
		C324.5,451.5,324.5,451.5,324.5,451.5z" fill="#000111"></path><path class="st5" d="M289,475.1c-1,0-1.8-0.8-1.8-1.8v-45.8l-8.9-8.4c-0.4-0.3-0.6-0.8-0.6-1.3v-36.1c0-1,0.8-1.8,1.8-1.8
		c1,0,1.8,0.8,1.8,1.8V417l8.9,8.4c0.4,0.3,0.6,0.8,0.6,1.3v46.6C290.8,474.3,290,475.1,289,475.1C289,475.1,289,475.1,289,475.1z" fill="#000111"></path><path class="st5" d="M245.1,478.3c-1,0-1.8-0.8-1.8-1.8l-0.1-74.8c0-0.5,0.2-1,0.5-1.3l4.8-4.8v-13c0-1,0.8-1.8,1.8-1.8
		s1.8,0.8,1.8,1.8l0,0v13.8c0,0.5-0.2,1-0.5,1.3l-4.8,4.8l0.1,74.1C246.9,477.5,246.1,478.3,245.1,478.3L245.1,478.3z" fill="#000111"></path><path class="st5" d="M175.6,463.1c-3.8,0-6.9-3.1-6.9-6.9c0-3.8,3.1-6.9,6.9-6.9s6.9,3.1,6.9,6.9
		C182.5,460,179.4,463.1,175.6,463.1z M175.6,453c-1.8,0-3.2,1.4-3.2,3.2c0,1.8,1.4,3.2,3.2,3.2c1.8,0,3.2-1.4,3.2-3.2c0,0,0,0,0,0
		C178.8,454.4,177.4,453,175.6,453z" fill="#000111"></path><path class="st5" d="M211.1,486.3c-3.8,0-6.9-3.1-6.9-6.9c0-3.8,3.1-6.9,6.9-6.9s6.9,3.1,6.9,6.9
		C218,483.2,214.9,486.3,211.1,486.3z M211.1,476.1c-1.8,0-3.2,1.4-3.2,3.2s1.4,3.2,3.2,3.2c1.8,0,3.2-1.4,3.2-3.2c0,0,0,0,0,0
		C214.4,477.6,212.9,476.1,211.1,476.1L211.1,476.1z" fill="#000111"></path><path class="st5" d="M324.4,463.1c-3.8,0-6.9-3.1-6.9-6.9s3.1-6.9,6.9-6.9s6.9,3.1,6.9,6.9C331.3,460,328.2,463.1,324.4,463.1z
		 M324.4,453c-1.8,0-3.2,1.5-3.2,3.2c0,1.8,1.5,3.2,3.2,3.2c1.8,0,3.2-1.5,3.2-3.2c0,0,0,0,0,0C327.6,454.4,326.2,453,324.4,453
		C324.4,453,324.4,453,324.4,453z" fill="#000111"></path><path class="st5" d="M288.9,486.3c-3.8,0-6.9-3.1-6.9-6.9s3.1-6.9,6.9-6.9c3.8,0,6.9,3.1,6.9,6.9
		C295.8,483.2,292.7,486.3,288.9,486.3z M288.9,476.1c-1.8,0-3.2,1.5-3.2,3.2c0,1.8,1.5,3.2,3.2,3.2c1.8,0,3.2-1.5,3.2-3.2
		c0,0,0,0,0,0C292.1,477.6,290.6,476.1,288.9,476.1L288.9,476.1z" fill="#000111"></path><path class="st5" d="M245.1,490c-3.8,0-6.9-3.1-6.9-6.9s3.1-6.9,6.9-6.9s6.9,3.1,6.9,6.9c0,0,0,0,0,0
		C252,486.9,248.9,490,245.1,490z M245.1,479.9c-1.8,0-3.2,1.5-3.2,3.2c0,1.8,1.5,3.2,3.2,3.2c1.8,0,3.2-1.5,3.2-3.2l0,0
		C248.3,481.3,246.9,479.9,245.1,479.9z" fill="#000111"></path><linearGradient id="SVGID_00000064330501674425953980000016743561149456128930_-d0nxaU1UuP" gradientUnits="userSpaceOnUse" x1="174.8343" y1="442.6509" x2="197.2643" y2="338.1609" gradientTransform="matrix(1 0 0 -1 0 502)"><stop offset="0" style="stop-color: rgb(243, 131, 116);"></stop><stop offset="1" style="stop-color: rgb(198, 66, 52);"></stop></linearGradient><rect x="182.9" y="118.9" width="15.5" height="28.1" style="fill: url(&quot;#SVGID_00000064330501674425953980000016743561149456128930_-d0nxaU1UuP&quot;);"></rect><linearGradient id="SVGID_00000142145133584751045790000002336931691813699754_-d0nxaU1UuP" gradientUnits="userSpaceOnUse" x1="203.0439" y1="448.7087" x2="225.4739" y2="344.2187" gradientTransform="matrix(1 0 0 -1 0 502)"><stop offset="0" style="stop-color: rgb(243, 131, 116);"></stop><stop offset="1" style="stop-color: rgb(198, 66, 52);"></stop></linearGradient><rect x="212.4" y="118.9" width="15.5" height="28.1" style="fill: url(&quot;#SVGID_00000142145133584751045790000002336931691813699754_-d0nxaU1UuP&quot;);"></rect><linearGradient id="SVGID_00000138550753983456459340000001225068714169871268_-d0nxaU1UuP" gradientUnits="userSpaceOnUse" x1="231.2626" y1="454.7706" x2="253.6926" y2="350.2805" gradientTransform="matrix(1 0 0 -1 0 502)"><stop offset="0" style="stop-color: rgb(243, 131, 116);"></stop><stop offset="1" style="stop-color: rgb(198, 66, 52);"></stop></linearGradient><rect x="241.9" y="118.9" width="15.5" height="28.1" style="fill: url(&quot;#SVGID_00000138550753983456459340000001225068714169871268_-d0nxaU1UuP&quot;);"></rect><linearGradient id="SVGID_00000090996819168809369380000015135226826271798183_-d0nxaU1UuP" gradientUnits="userSpaceOnUse" x1="259.4743" y1="460.8188" x2="281.9043" y2="356.3288" gradientTransform="matrix(1 0 0 -1 0 502)"><stop offset="0" style="stop-color: rgb(243, 131, 116);"></stop><stop offset="1" style="stop-color: rgb(198, 66, 52);"></stop></linearGradient><rect x="271.4" y="118.9" width="15.5" height="28.1" style="fill: url(&quot;#SVGID_00000090996819168809369380000015135226826271798183_-d0nxaU1UuP&quot;);"></rect><linearGradient id="SVGID_00000075872661628758200390000001223396844873825967_-d0nxaU1UuP" gradientUnits="userSpaceOnUse" x1="287.6931" y1="466.8806" x2="310.1231" y2="362.3907" gradientTransform="matrix(1 0 0 -1 0 502)"><stop offset="0" style="stop-color: rgb(243, 131, 116);"></stop><stop offset="1" style="stop-color: rgb(198, 66, 52);"></stop></linearGradient><rect x="301" y="118.9" width="15.5" height="28.1" style="fill: url(&quot;#SVGID_00000075872661628758200390000001223396844873825967_-d0nxaU1UuP&quot;);"></rect><path class="st5" d="M190.3,121.1c-1,0-1.8-0.8-1.8-1.8l0,0V92.4l-13.9-8.9c-0.5-0.3-0.8-0.9-0.8-1.5V50.3c0-1,0.8-1.8,1.8-1.8
		s1.8,0.8,1.8,1.8l0,0v30.6l13.9,8.9c0.5,0.3,0.8,0.9,0.8,1.5v27.9C192.1,120.3,191.3,121.1,190.3,121.1z" fill="#000111"></path><path class="st5" d="M220.5,120.2c-1,0-1.8-0.8-1.8-1.8c0,0,0,0,0,0V83l-8.9-8.4c-0.4-0.3-0.6-0.8-0.6-1.3V26.7
		c-0.1-1,0.7-1.9,1.7-2c1-0.1,1.9,0.7,2,1.7c0,0.1,0,0.2,0,0.3v45.8l8.9,8.4c0.4,0.3,0.6,0.8,0.6,1.3v36.1
		C222.4,119.3,221.6,120.2,220.5,120.2C220.5,120.2,220.5,120.2,220.5,120.2z" fill="#000111"></path><path class="st5" d="M309.8,121.1c-1,0-1.8-0.8-1.8-1.8V91.4c0-0.6,0.3-1.2,0.8-1.5l13.9-8.9V50.3c0.1-1,1-1.8,2-1.7
		c0.9,0.1,1.6,0.8,1.7,1.7v31.6c0,0.6-0.3,1.2-0.8,1.5l-13.9,8.9v26.9C311.6,120.3,310.8,121.1,309.8,121.1L309.8,121.1z" fill="#000111"></path><path class="st5" d="M279.5,120.2c-1,0-1.8-0.8-1.8-1.8c0,0,0,0,0,0V82.2c0-0.5,0.2-1,0.6-1.3l8.9-8.4V26.7c0-1,0.8-1.8,1.8-1.8
		c1,0,1.8,0.8,1.8,1.8v46.6c0,0.5-0.2,1-0.6,1.3l-8.9,8.4v35.3C281.4,119.4,280.6,120.2,279.5,120.2
		C279.6,120.2,279.6,120.2,279.5,120.2z" fill="#000111"></path><path class="st5" d="M250.3,119.3c-1,0-1.8-0.8-1.8-1.8c0,0,0,0,0,0v-13l-4.8-4.8c-0.3-0.3-0.5-0.8-0.5-1.3l0.1-74.8
		c0-1,0.8-1.8,1.8-1.8l0,0c1,0,1.8,0.8,1.8,1.8v0l-0.1,74.1l4.8,4.8c0.3,0.3,0.5,0.8,0.5,1.3v13.8
		C252.2,118.5,251.4,119.3,250.3,119.3C250.3,119.3,250.3,119.3,250.3,119.3z" fill="#000111"></path><path class="st5" d="M175.6,50.7c-3.8,0-6.9-3.1-6.9-6.9s3.1-6.9,6.9-6.9s6.9,3.1,6.9,6.9l0,0C182.5,47.6,179.4,50.7,175.6,50.7z
		 M175.6,40.5c-1.8,0-3.2,1.4-3.2,3.2s1.4,3.2,3.2,3.2c1.8,0,3.2-1.4,3.2-3.2c0,0,0,0,0,0C178.8,42,177.4,40.5,175.6,40.5z" fill="#000111"></path><path class="st5" d="M211.1,27.5c-3.8,0-6.9-3.1-6.9-6.9s3.1-6.9,6.9-6.9s6.9,3.1,6.9,6.9c0,0,0,0,0,0
		C218,24.4,214.9,27.5,211.1,27.5z M211.1,17.4c-1.8,0-3.2,1.4-3.2,3.2c0,1.8,1.4,3.2,3.2,3.2c1.8,0,3.2-1.4,3.2-3.2c0,0,0,0,0,0
		C214.4,18.8,212.9,17.4,211.1,17.4z" fill="#000111"></path><path class="st5" d="M324.4,50.7c-3.8,0-6.9-3.1-6.9-6.9s3.1-6.9,6.9-6.9s6.9,3.1,6.9,6.9C331.3,47.6,328.2,50.7,324.4,50.7z
		 M324.4,40.5c-1.8,0-3.2,1.5-3.2,3.2c0,1.8,1.5,3.2,3.2,3.2c1.8,0,3.2-1.5,3.2-3.2c0,0,0,0,0,0C327.6,42,326.2,40.5,324.4,40.5z" fill="#000111"></path><path class="st5" d="M288.9,27.5c-3.8,0-6.9-3.1-6.9-6.9s3.1-6.9,6.9-6.9c3.8,0,6.9,3.1,6.9,6.9C295.8,24.4,292.7,27.5,288.9,27.5z
		 M288.9,17.4c-1.8,0-3.2,1.5-3.2,3.2s1.5,3.2,3.2,3.2c1.8,0,3.2-1.5,3.2-3.2c0,0,0,0,0,0C292.1,18.8,290.7,17.4,288.9,17.4
		C288.9,17.4,288.9,17.4,288.9,17.4z" fill="#000111"></path><path class="st5" d="M245.1,23.8c-3.8,0-6.9-3.1-6.9-6.9s3.1-6.9,6.9-6.9s6.9,3.1,6.9,6.9c0,0,0,0,0,0
		C252,20.7,248.9,23.8,245.1,23.8z M245.1,13.7c-1.8,0-3.2,1.5-3.2,3.2c0,1.8,1.5,3.2,3.2,3.2c1.8,0,3.2-1.5,3.2-3.2c0,0,0,0,0,0
		C248.3,15.1,246.9,13.7,245.1,13.7C245.1,13.7,245.1,13.7,245.1,13.7z" fill="#000111"></path><linearGradient id="SVGID_00000129901258845808773290000010904934046571275672_-d0nxaU1UuP" gradientUnits="userSpaceOnUse" x1="175.5614" y1="629.9203" x2="197.9814" y2="525.4303" gradientTransform="matrix(6.123234e-17 1 -1 6.123234e-17 689.27 -0.72)"><stop offset="0" style="stop-color: rgb(243, 131, 116);"></stop><stop offset="1" style="stop-color: rgb(198, 66, 52);"></stop></linearGradient><rect x="118.9" y="182.9" width="28.1" height="15.5" style="fill: url(&quot;#SVGID_00000129901258845808773290000010904934046571275672_-d0nxaU1UuP&quot;);"></rect><linearGradient id="SVGID_00000146495952822950148790000013088593297882697098_-d0nxaU1UuP" gradientUnits="userSpaceOnUse" x1="203.7714" y1="635.9803" x2="226.2014" y2="531.4903" gradientTransform="matrix(6.123234e-17 1 -1 6.123234e-17 689.26 -0.73)"><stop offset="0" style="stop-color: rgb(243, 131, 116);"></stop><stop offset="1" style="stop-color: rgb(198, 66, 52);"></stop></linearGradient><rect x="118.9" y="212.4" width="28.1" height="15.5" style="fill: url(&quot;#SVGID_00000146495952822950148790000013088593297882697098_-d0nxaU1UuP&quot;);"></rect><linearGradient id="SVGID_00000002366522142167456830000000252859772442004879_-d0nxaU1UuP" gradientUnits="userSpaceOnUse" x1="231.9835" y1="642.0286" x2="254.4135" y2="537.5486" gradientTransform="matrix(6.123234e-17 1 -1 6.123234e-17 689.27 -0.72)"><stop offset="0" style="stop-color: rgb(243, 131, 116);"></stop><stop offset="1" style="stop-color: rgb(198, 66, 52);"></stop></linearGradient><rect x="118.9" y="241.9" width="28.1" height="15.5" style="fill: url(&quot;#SVGID_00000002366522142167456830000000252859772442004879_-d0nxaU1UuP&quot;);"></rect><linearGradient id="SVGID_00000157300735714932359240000009577836083952242610_-d0nxaU1UuP" gradientUnits="userSpaceOnUse" x1="260.2018" y1="648.0904" x2="282.6318" y2="543.6004" gradientTransform="matrix(6.123234e-17 1 -1 6.123234e-17 689.26 -0.73)"><stop offset="0" style="stop-color: rgb(243, 131, 116);"></stop><stop offset="1" style="stop-color: rgb(198, 66, 52);"></stop></linearGradient><rect x="118.9" y="271.4" width="28.1" height="15.5" style="fill: url(&quot;#SVGID_00000157300735714932359240000009577836083952242610_-d0nxaU1UuP&quot;);"></rect><linearGradient id="SVGID_00000153681102099239645160000003661569716283808400_-d0nxaU1UuP" gradientUnits="userSpaceOnUse" x1="288.4135" y1="654.1486" x2="310.8435" y2="549.6586" gradientTransform="matrix(6.123234e-17 1 -1 6.123234e-17 689.27 -0.72)"><stop offset="0" style="stop-color: rgb(243, 131, 116);"></stop><stop offset="1" style="stop-color: rgb(198, 66, 52);"></stop></linearGradient><rect x="118.9" y="301" width="28.1" height="15.5" style="fill: url(&quot;#SVGID_00000153681102099239645160000003661569716283808400_-d0nxaU1UuP&quot;);"></rect><path class="st5" d="M119.3,192.1H91.4c-0.6,0-1.2-0.3-1.5-0.8l-8.9-13.9H50.3c-1,0-1.8-0.8-1.8-1.8s0.8-1.8,1.8-1.8l0,0h31.6
		c0.6,0,1.2,0.3,1.5,0.8l8.9,13.9h26.9c1,0,1.8,0.8,1.8,1.8S120.3,192.1,119.3,192.1C119.3,192.1,119.3,192.1,119.3,192.1z" fill="#000111"></path><path class="st5" d="M118.3,222.4H82.2c-0.5,0-1-0.2-1.3-0.6l-8.4-8.9H26.7c-1,0.1-1.9-0.7-2-1.7c-0.1-1,0.7-1.9,1.7-2
		c0.1,0,0.2,0,0.3,0h46.6c0.5,0,1,0.2,1.3,0.6l8.4,8.9h35.3c1,0,1.8,0.8,1.8,1.8S119.4,222.4,118.3,222.4L118.3,222.4z" fill="#000111"></path><path class="st5" d="M81.9,326.4H50.3c-1-0.1-1.8-1-1.7-2c0.1-0.9,0.8-1.6,1.7-1.7h30.6l8.9-13.9c0.3-0.5,0.9-0.8,1.5-0.8h27.9
		c1,0,1.8,0.8,1.8,1.8c0,1-0.8,1.8-1.8,1.8H92.4l-8.9,13.9C83.1,326,82.5,326.4,81.9,326.4z" fill="#000111"></path><path class="st5" d="M73.3,290.8H26.7c-1,0-1.8-0.8-1.8-1.8c0-1,0.8-1.8,1.8-1.8h45.8l8.4-8.9c0.3-0.4,0.8-0.6,1.3-0.6h36.1
		c1,0,1.8,0.8,1.8,1.8c0,1-0.8,1.8-1.8,1.8l0,0H83l-8.4,8.9C74.3,290.6,73.8,290.8,73.3,290.8z" fill="#000111"></path><path class="st5" d="M117.5,252.2h-13.8c-0.5,0-1-0.2-1.3-0.5l-4.8-4.8l-74.1,0.1l0,0c-1,0-1.8-0.8-1.8-1.8s0.8-1.8,1.8-1.8
		l74.8-0.1l0,0c0.5,0,1,0.2,1.3,0.5l4.8,4.8h13c1,0,1.8,0.8,1.8,1.8S118.5,252.2,117.5,252.2z" fill="#000111"></path><path class="st5" d="M43.8,182.5c-3.8,0-6.9-3.1-6.9-6.9s3.1-6.9,6.9-6.9c3.8,0,6.9,3.1,6.9,6.9l0,0
		C50.7,179.4,47.6,182.5,43.8,182.5z M43.8,172.3c-1.8,0-3.2,1.4-3.2,3.2c0,1.8,1.4,3.2,3.2,3.2s3.2-1.4,3.2-3.2c0,0,0,0,0,0
		C47,173.8,45.6,172.4,43.8,172.3L43.8,172.3z" fill="#000111"></path><path class="st5" d="M20.6,218c-3.8,0-6.9-3.1-6.9-6.9c0-3.8,3.1-6.9,6.9-6.9s6.9,3.1,6.9,6.9c0,0,0,0,0,0
		C27.5,214.9,24.4,218,20.6,218z M20.6,207.9c-1.8,0-3.2,1.5-3.2,3.2c0,1.8,1.5,3.2,3.2,3.2c1.8,0,3.2-1.5,3.2-3.2
		C23.8,209.3,22.4,207.9,20.6,207.9L20.6,207.9z" fill="#000111"></path><path class="st5" d="M43.8,331.3c-3.8,0-6.9-3.1-6.9-6.9c0-3.8,3.1-6.9,6.9-6.9c3.8,0,6.9,3.1,6.9,6.9
		C50.7,328.2,47.6,331.3,43.8,331.3z M43.8,321.2c-1.8,0-3.2,1.4-3.2,3.2c0,1.8,1.4,3.2,3.2,3.2c1.8,0,3.2-1.4,3.2-3.2c0,0,0,0,0,0
		C47,322.6,45.6,321.2,43.8,321.2z" fill="#000111"></path><path class="st5" d="M20.6,295.8c-3.8,0-6.9-3.1-6.9-6.9c0-3.8,3.1-6.9,6.9-6.9s6.9,3.1,6.9,6.9c0,0,0,0,0,0
		C27.5,292.7,24.4,295.7,20.6,295.8z M20.6,285.6c-1.8,0-3.2,1.5-3.2,3.2c0,1.8,1.5,3.2,3.2,3.2c1.8,0,3.2-1.5,3.2-3.2c0,0,0,0,0,0
		C23.9,287.1,22.4,285.6,20.6,285.6C20.6,285.6,20.6,285.6,20.6,285.6z" fill="#000111"></path><path class="st5" d="M16.9,252c-3.8,0-6.9-3.1-6.9-6.9s3.1-6.9,6.9-6.9s6.9,3.1,6.9,6.9l0,0C23.8,248.9,20.7,252,16.9,252z
		 M16.9,241.9c-1.8,0-3.2,1.5-3.2,3.2c0,1.8,1.5,3.2,3.2,3.2c1.8,0,3.2-1.5,3.2-3.2c0,0,0,0,0,0C20.1,243.3,18.7,241.9,16.9,241.9
		C16.9,241.9,16.9,241.9,16.9,241.9L16.9,241.9z" fill="#000111"></path><linearGradient id="SVGID_00000160871859448603209340000008305002448265078660_-d0nxaU1UuP" gradientUnits="userSpaceOnUse" x1="175.5594" y1="972.4499" x2="197.9794" y2="867.9599" gradientTransform="matrix(6.123234e-17 1 1 -6.123234e-17 -531.79 -0.72)"><stop offset="0" style="stop-color: rgb(243, 131, 116);"></stop><stop offset="1" style="stop-color: rgb(198, 66, 52);"></stop></linearGradient><rect x="352.9" y="182.9" width="28.1" height="15.5" style="fill: url(&quot;#SVGID_00000160871859448603209340000008305002448265078660_-d0nxaU1UuP&quot;);"></rect><linearGradient id="SVGID_00000093170340871297598390000017616991760929042340_-d0nxaU1UuP" gradientUnits="userSpaceOnUse" x1="203.7735" y1="978.5007" x2="226.2035" y2="874.0107" gradientTransform="matrix(6.123234e-17 1 1 -6.123234e-17 -531.79 -0.73)"><stop offset="0" style="stop-color: rgb(243, 131, 116);"></stop><stop offset="1" style="stop-color: rgb(198, 66, 52);"></stop></linearGradient><rect x="352.9" y="212.4" width="28.1" height="15.5" style="fill: url(&quot;#SVGID_00000093170340871297598390000017616991760929042340_-d0nxaU1UuP&quot;);"></rect><linearGradient id="SVGID_00000169546254167113786460000012216137047085198230_-d0nxaU1UuP" gradientUnits="userSpaceOnUse" x1="231.9831" y1="984.5585" x2="254.4131" y2="880.0685" gradientTransform="matrix(6.123234e-17 1 1 -6.123234e-17 -531.79 -0.72)"><stop offset="0" style="stop-color: rgb(243, 131, 116);"></stop><stop offset="1" style="stop-color: rgb(198, 66, 52);"></stop></linearGradient><rect x="353" y="241.9" width="28.1" height="15.5" style="fill: url(&quot;#SVGID_00000169546254167113786460000012216137047085198230_-d0nxaU1UuP&quot;);"></rect><linearGradient id="SVGID_00000031920122537038087480000004755843599421714867_-d0nxaU1UuP" gradientUnits="userSpaceOnUse" x1="260.2039" y1="990.6208" x2="282.6339" y2="886.1308" gradientTransform="matrix(6.123234e-17 1 1 -6.123234e-17 -531.8 -0.73)"><stop offset="0" style="stop-color: rgb(243, 131, 116);"></stop><stop offset="1" style="stop-color: rgb(198, 66, 52);"></stop></linearGradient><rect x="353" y="271.4" width="28.1" height="15.5" style="fill: url(&quot;#SVGID_00000031920122537038087480000004755843599421714867_-d0nxaU1UuP&quot;);"></rect><linearGradient id="SVGID_00000094581400102349900160000001459547603533476737_-d0nxaU1UuP" gradientUnits="userSpaceOnUse" x1="288.4135" y1="996.6686" x2="310.8435" y2="892.1786" gradientTransform="matrix(6.123234e-17 1 1 -6.123234e-17 -531.79 -0.72)"><stop offset="0" style="stop-color: rgb(243, 131, 116);"></stop><stop offset="1" style="stop-color: rgb(198, 66, 52);"></stop></linearGradient><rect x="352.9" y="301" width="28.1" height="15.5" style="fill: url(&quot;#SVGID_00000094581400102349900160000001459547603533476737_-d0nxaU1UuP&quot;);"></rect><path class="st5" d="M408.6,192.1h-27.9c-1,0-1.8-0.8-1.8-1.8s0.8-1.8,1.8-1.8h26.9l8.9-13.9c0.3-0.5,0.9-0.8,1.5-0.8h31.6
		c1,0,1.8,0.8,1.8,1.8s-0.8,1.8-1.8,1.8h-30.6l-8.9,13.9C409.8,191.8,409.2,192.1,408.6,192.1z" fill="#000111"></path><path class="st5" d="M417.8,222.4h-36.1c-1,0-1.8-0.8-1.8-1.8s0.8-1.8,1.8-1.8H417l8.4-8.9c0.3-0.4,0.8-0.6,1.3-0.6h46.6
		c1-0.1,1.9,0.7,2,1.7c0.1,1-0.7,1.9-1.7,2c-0.1,0-0.2,0-0.3,0h-45.8l-8.4,8.9C418.8,222.2,418.3,222.4,417.8,222.4z" fill="#000111"></path><path class="st5" d="M449.7,326.4h-31.6c-0.6,0-1.2-0.3-1.5-0.8l-8.9-13.9h-26.9c-1,0-1.8-0.8-1.8-1.8c0-1,0.8-1.8,1.8-1.8h27.9
		c0.6,0,1.2,0.3,1.5,0.8l8.9,13.9h30.6c1,0.1,1.8,1,1.7,2C451.3,325.6,450.6,326.3,449.7,326.4z" fill="#000111"></path><path class="st5" d="M473.3,290.8h-46.6c-0.5,0-1-0.2-1.3-0.6l-8.4-8.9h-35.3c-1,0-1.8-0.8-1.8-1.8c0-1,0.8-1.8,1.8-1.8h36.1
		c0.5,0,1,0.2,1.3,0.6l8.4,8.9h45.8c1,0,1.8,0.8,1.8,1.8C475.1,290,474.3,290.8,473.3,290.8L473.3,290.8L473.3,290.8z" fill="#000111"></path><path class="st5" d="M396.3,252.2h-13.8c-1,0-1.8-0.8-1.8-1.8s0.8-1.8,1.8-1.8l0,0h13l4.8-4.8c0.3-0.3,0.8-0.5,1.3-0.5l0,0
		l74.8,0.1c1,0,1.8,0.8,1.8,1.8s-0.8,1.8-1.8,1.8l0,0l-74.1-0.1l-4.8,4.8C397.2,252,396.8,252.2,396.3,252.2z" fill="#000111"></path><path class="st5" d="M456.2,182.5c-3.8,0-6.9-3.1-6.9-6.9s3.1-6.9,6.9-6.9c3.8,0,6.9,3.1,6.9,6.9
		C463.1,179.4,460,182.5,456.2,182.5z M456.2,172.3c-1.8,0-3.2,1.5-3.2,3.2c0,1.8,1.5,3.2,3.2,3.2c1.8,0,3.2-1.5,3.2-3.2l0,0
		C459.5,173.8,458,172.4,456.2,172.3L456.2,172.3z" fill="#000111"></path><path class="st5" d="M479.4,218c-3.8,0-6.9-3.1-6.9-6.9s3.1-6.9,6.9-6.9s6.9,3.1,6.9,6.9c0,0,0,0,0,0
		C486.3,214.9,483.2,218,479.4,218z M479.4,207.9c-1.8,0-3.2,1.4-3.2,3.2s1.4,3.2,3.2,3.2c1.8,0,3.2-1.4,3.2-3.2c0,0,0,0,0,0
		C482.6,209.3,481.2,207.9,479.4,207.9L479.4,207.9z" fill="#000111"></path><path class="st5" d="M456.2,331.3c-3.8,0-6.9-3.1-6.9-6.9s3.1-6.9,6.9-6.9s6.9,3.1,6.9,6.9C463.1,328.2,460,331.3,456.2,331.3z
		 M456.2,321.2c-1.8,0-3.2,1.5-3.2,3.2c0,1.8,1.5,3.2,3.2,3.2c1.8,0,3.2-1.5,3.2-3.2c0,0,0,0,0,0C459.5,322.6,458,321.2,456.2,321.2
		C456.2,321.2,456.2,321.2,456.2,321.2z" fill="#000111"></path><path class="st5" d="M479.4,295.8c-3.8,0-6.9-3.1-6.9-6.9s3.1-6.9,6.9-6.9s6.9,3.1,6.9,6.9c0,0,0,0,0,0
		C486.3,292.7,483.2,295.7,479.4,295.8z M479.4,285.6c-1.8,0-3.2,1.4-3.2,3.2c0,1.8,1.4,3.2,3.2,3.2c1.8,0,3.2-1.4,3.2-3.2
		c0,0,0,0,0,0C482.6,287.1,481.2,285.6,479.4,285.6z" fill="#000111"></path><path class="st5" d="M483.1,252c-3.8,0-6.9-3.1-6.9-6.9s3.1-6.9,6.9-6.9c3.8,0,6.9,3.1,6.9,6.9C490,248.9,486.9,252,483.1,252z
		 M483.1,241.9c-1.8,0-3.2,1.4-3.2,3.2c0,1.8,1.4,3.2,3.2,3.2c1.8,0,3.2-1.4,3.2-3.2c0,0,0,0,0,0
		C486.3,243.3,484.9,241.9,483.1,241.9L483.1,241.9L483.1,241.9z" fill="#000111"></path><polygon class="st21" points="181.3,351.9 149.4,320 149.4,179.7 181.3,147.8 321.6,147.8 353.5,179.7 353.5,320 321.6,351.9 	" fill="#FFFFFF"></polygon><path class="st5" d="M321.6,353.7H181.3c-0.5,0-1-0.2-1.3-0.5l-31.9-31.9c-0.3-0.3-0.5-0.8-0.5-1.3V179.7c0-0.5,0.2-1,0.5-1.3
		l31.9-31.9c0.3-0.3,0.8-0.5,1.3-0.5h140.3c0.5,0,0.9,0.2,1.3,0.5l31.9,31.9c0.3,0.3,0.5,0.8,0.5,1.3V320c0,0.5-0.2,0.9-0.5,1.3
		l-31.9,31.9C322.5,353.5,322,353.7,321.6,353.7z M182.1,350.1h138.7l30.9-30.9V180.5l-30.9-30.9H182.1l-30.9,30.9v138.7
		L182.1,350.1z" fill="#000111"></path><polygon class="st5" points="344.3,183.5 344.3,316.2 317.8,342.7 185.1,342.7 158.5,316.2 158.5,183.5 185.1,156.9 317.8,156.9 	
		" fill="#000111"></polygon><linearGradient id="SVGID_00000009567670219865851670000002839461132772222655_-d0nxaU1UuP" gradientUnits="userSpaceOnUse" x1="151.85" y1="351.74" x2="269.53" y2="234.06" gradientTransform="matrix(1 0 0 -1 0 502)"><stop offset="0" style="stop-color: rgb(243, 131, 116);"></stop><stop offset="1" style="stop-color: rgb(198, 66, 52);"></stop></linearGradient><polygon points="191.1,328.1 173.1,310.1 
		173.1,189.6 191.1,171.6 311.7,171.6 329.7,189.6 329.7,310.1 311.7,328.1 	" style="fill: url(&quot;#SVGID_00000009567670219865851670000002839461132772222655_-d0nxaU1UuP&quot;);"></polygon><circle class="st21" cx="195.9" cy="193.2" r="6.7" fill="#FFFFFF"></circle><circle class="st21" cx="307" cy="193.2" r="6.7" fill="#FFFFFF"></circle><circle class="st21" cx="195.9" cy="306.5" r="6.7" fill="#FFFFFF"></circle><circle class="st21" cx="307" cy="306.5" r="6.7" fill="#FFFFFF"></circle><path class="st21" d="M219,266.3l-2.5-1.5c-1.7-1-3-2.4-3.9-4.2c-1-1.9-1.4-4.1-1.4-6.2v-8.8c0-2.2,0.4-4.3,1.4-6.2
		c0.9-1.7,2.2-3.2,3.9-4.2c1.8-1,3.8-1.5,5.8-1.5c1.7,0,3.4,0.4,5,1.2c1.5,0.8,2.9,1.9,3.9,3.3c1.1,1.5,1.8,3.2,2.1,5h-4.6
		c-0.3-1-0.7-1.9-1.4-2.7c-0.6-0.8-1.4-1.4-2.3-1.8c-2-1-4.3-0.8-6.1,0.3c-1,0.6-1.8,1.6-2.3,2.6c-0.6,1.3-0.8,2.6-0.8,4v8.8
		c0,1.4,0.2,2.7,0.8,3.9c1,2.2,3.2,3.7,5.7,3.6c0.9,0,1.9-0.2,2.7-0.6c0.9-0.4,1.7-1,2.3-1.8c0.7-0.8,1.1-1.7,1.4-2.8h4.6
		c-0.3,1.8-1,3.5-2.1,5c-1,1.4-2.3,2.5-3.9,3.3c-1.5,0.8-3.3,1.2-5,1.2L219,266.3z" fill="#FFFFFF"></path><path class="st21" d="M239.3,234.1h4.5v31.9h-4.5V234.1z M241.6,249.3h10.2c0.9,0,1.8-0.2,2.6-0.7c0.7-0.5,1.3-1.1,1.7-1.9
		c0.4-0.9,0.6-1.9,0.6-2.9c0-1-0.2-2-0.6-2.9c-0.4-0.8-1-1.5-1.7-1.9c-0.8-0.5-1.7-0.7-2.6-0.7h-10.2v-4.2h10c1.7,0,3.5,0.4,5,1.2
		c1.4,0.8,2.6,2,3.4,3.4c1.6,3.2,1.6,7,0.1,10.3c-0.8,1.4-1.9,2.6-3.4,3.4c-1.5,0.8-3.3,1.2-5,1.2h-10L241.6,249.3z" fill="#FFFFFF"></path><path class="st21" d="M271.5,264.9c-1.7-0.9-3-2.3-3.8-4.1c-0.9-2-1.4-4.2-1.3-6.4v-20.4h4.5v20.5c-0.1,2,0.5,3.9,1.8,5.4
		c2.8,2.5,7.1,2.5,10,0c1.3-1.5,1.9-3.4,1.8-5.4v-20.5h4.5v20.4c0.1,2.2-0.4,4.4-1.3,6.4c-0.8,1.7-2.2,3.1-3.8,4.1
		C279.8,266.7,275.3,266.7,271.5,264.9L271.5,264.9z" fill="#FFFFFF"></path></g><g id="light"><path class="st23" d="M392.8,136.5c-14.5,1.1-26.1,12.4-27.5,26.8c-1.5-14.4-13.1-25.7-27.5-26.8c14.5-1.1,26.1-12.4,27.5-26.8
		C366.7,124.2,378.3,135.4,392.8,136.5z"></path><path class="st23" d="M412,103.4c-7.7,0.6-14,6.6-14.7,14.3c-0.8-7.7-7-13.8-14.7-14.3c7.7-0.6,14-6.6,14.7-14.3
		C398,96.8,404.3,102.8,412,103.4z"></path><path class="st23" d="M162.5,351.3c-7.7,0.6-14,6.6-14.7,14.4c-0.8-7.7-7-13.8-14.8-14.4c7.7-0.6,14-6.6,14.8-14.3
		C148.5,344.7,154.7,350.8,162.5,351.3L162.5,351.3z"></path></g></svg>