<svg transform="scale(1)" version="1.1" id="iaK8yoguuT" xmlns="http://www.w3.org/2000/svg" xmlns:xlink="http://www.w3.org/1999/xlink" x="0px" y="0px" viewBox="0 0 500 500" xml:space="preserve" class="pbimage_pbimage__wrapper__image__0LEis false"><title>Asynchronous Work 1</title><style type="text/css"> .st0{fill:#000111;} .st1{fill:url(#SVGID_1_-iaK8yoguuT);} .st2{fill:#FFFFFF;} .st3{fill:url(#SVGID_00000096756196038230100750000008392460554588231581_-iaK8yoguuT);} .st4{fill:#FEF1E0;} .st5{fill:url(#SVGID_00000029767189502805133850000008413224620144205496_-iaK8yoguuT);} .st6{fill:url(#SVGID_00000011750684997965607830000013185115048174632116_-iaK8yoguuT);} .st7{fill:url(#SVGID_00000017488350667309336000000005849657119893037734_-iaK8yoguuT);} .st8{fill:#FED490;} .st9{fill:url(#SVGID_00000005953722635240925110000000545066539870691515_-iaK8yoguuT);} .st10{fill:url(#SVGID_00000000201194877844232560000003379433648158793879_-iaK8yoguuT);} .st11{fill:url(#SVGID_00000013912687718342927500000008929738446641313202_-iaK8yoguuT);} .st12{fill:url(#SVGID_00000054965752130043362010000004188890553349660345_-iaK8yoguuT);} .st13{fill:url(#SVGID_00000008867905852121150990000013721124670922073515_-iaK8yoguuT);}
 .st8{fill:#FED490;}
 .st4{fill:#FEF1E0;}
 .st2{fill:#FFFFFF;}
 .st0{fill:#000111;}</style><g id="shape_2"><polygon class="st0" points="416.9,60.6 416.9,466.1 81.7,60.6 	" fill="#000111"></polygon><path class="st0" d="M416.9,467.3c-0.3,0-0.7-0.1-0.9-0.4L80.8,61.3c-0.3-0.3-0.3-0.8-0.2-1.2c0.2-0.4,0.6-0.6,1-0.7h335.2
		c0.6,0,1.1,0.5,1.1,1.1c0,0,0,0,0,0v405.6c0,0.5-0.3,0.9-0.7,1.1C417.1,467.3,417,467.3,416.9,467.3z M84.1,61.7L415.7,463V61.7
		H84.1z" fill="#000111"></path></g><g id="laptop_2"><path class="st0" d="M480.1,259.6L297.7,215c-1.2-0.4-2.6-0.1-3.7,0.6l-74.5,43.8c-3.8,2.4-1.3,12.3,2.2,13.5l174,55.2
		c1.3,0.4,2.7,0.2,3.8-0.5L479,274C482.1,271.9,484.9,261.1,480.1,259.6z"></path><path class="st0" d="M302.5,204.1l176.1,54.6c4.6,1.4,9.6-1.2,11-5.8c0.3-0.9,0.4-1.7,0.4-2.6l-0.3-101c0-4.6-3-8.6-7.4-9.8
		L310,90.6c-3.8-1.1-14-4.3-14.4,5.8L302.5,204.1z"></path><path class="st0" d="M295.8,205.4l185.7,52.7c2.2,0.6,4.6-0.6,5.2-2.9c0.1-0.4,0.2-0.8,0.2-1.2V149.4c0-4.7-3.1-8.7-7.6-10
		L303.5,89.5c-3.2-0.9-6.6,1-7.5,4.2c-0.2,0.5-0.2,1.1-0.2,1.7V205.4z"></path><linearGradient id="SVGID_1_-iaK8yoguuT" gradientUnits="userSpaceOnUse" x1="-610.8222" y1="436.3881" x2="-486.8022" y2="291.3881" gradientTransform="matrix(-1 0 0 -1 -126.69 502)"><stop offset="0" style="stop-color: rgb(243, 131, 116);"></stop><stop offset="1" style="stop-color: rgb(198, 66, 52);"></stop></linearGradient><path class="st1" d="M300.6,95.4v106.4l181.5,51.5V149.4c0-2.5-1.7-4.7-4.1-5.4L302.2,94.2c-0.1,0-0.2-0.1-0.4-0.1
		C301.1,94.1,300.6,94.7,300.6,95.4z"></path><path class="st2" d="M477.8,256.9l-180-51.1c-1.2-0.4-2.6-0.1-3.7,0.6l-73.4,49.4c-2,1.4-2.5,4.1-1.2,6.1c0.6,0.8,1.4,1.4,2.3,1.7
		l174,55.2c1.3,0.4,2.7,0.2,3.8-0.5l79.4-53.5c2-1.4,2.6-4.1,1.2-6.1C479.6,257.8,478.8,257.1,477.8,256.9z"></path><path class="st0" d="M397.1,320.1c-0.6,0-1.1-0.1-1.7-0.3l-174-55.1c-2.9-0.9-4.5-4-3.6-6.9c0.4-1.2,1.1-2.2,2.2-2.9l73.4-49.4
		c1.4-0.9,3-1.2,4.6-0.7l180,51.1c2.9,0.8,4.6,3.9,3.8,6.8c-0.4,1.3-1.1,2.3-2.2,3.1l-79.4,53.5
		C399.3,319.8,398.2,320.1,397.1,320.1z M296.5,206.7c-0.7,0-1.3,0.2-1.8,0.6l-73.4,49.5c-1.5,1-1.9,3-0.9,4.5
		c0.4,0.6,1,1.1,1.7,1.3l174,55.2c1,0.3,2,0.2,2.8-0.4l79.4-53.5c1.5-1,1.9-3,0.9-4.5c-0.4-0.6-1.1-1.1-1.8-1.3l0,0l-180-51.1
		C297.2,206.8,296.8,206.7,296.5,206.7z"></path><path class="st0" d="M437.9,267.7l11.5,3.5c0.6,0.2,1.2,0.1,1.6-0.2l10.4-6.9c0.9-0.7,1.1-1.9,0.4-2.8c-0.2-0.3-0.6-0.5-0.9-0.7
		l-11.6-3.4c-0.6-0.2-1.2-0.1-1.6,0.2l-10.3,6.9c-0.9,0.6-1.1,1.8-0.5,2.7C437.1,267.3,437.5,267.6,437.9,267.7z"></path><path class="st0" d="M415.8,261l11.2,3.4c0.6,0.2,1.2,0.1,1.6-0.2l10.2-6.9c0.9-0.6,1.1-1.8,0.5-2.7c-0.3-0.4-0.6-0.6-1.1-0.8
		l-11.3-3.4c-0.6-0.2-1.2-0.1-1.6,0.2l-10.1,6.8c-0.9,0.6-1.1,1.8-0.5,2.7C415,260.6,415.4,260.9,415.8,261z"></path><path class="st0" d="M394.1,254.5l11,3.3c0.6,0.2,1.2,0.1,1.6-0.2l10-6.8c0.9-0.6,1.1-1.8,0.5-2.7c-0.3-0.4-0.6-0.6-1.1-0.8
		l-11.1-3.3c-0.6-0.2-1.2-0.1-1.6,0.3l-9.9,6.7c-0.9,0.6-1.1,1.8-0.5,2.7C393.3,254.1,393.6,254.3,394.1,254.5z"></path><path class="st0" d="M372.7,248l10.7,3.2c0.6,0.2,1.2,0.1,1.7-0.2l9.9-6.7c0.9-0.6,1.1-1.8,0.5-2.7c-0.3-0.4-0.6-0.6-1.1-0.8
		l-10.8-3.2c-0.6-0.2-1.2-0.1-1.6,0.3l-9.8,6.7c-0.9,0.6-1.1,1.8-0.5,2.7C371.9,247.6,372.3,247.9,372.7,248z"></path><path class="st0" d="M351.7,241.7l10.5,3.2c0.6,0.2,1.2,0.1,1.7-0.3l9.7-6.7c0.9-0.6,1.1-1.8,0.5-2.7c-0.3-0.4-0.6-0.6-1.1-0.8
		l-10.6-3.1c-0.6-0.2-1.2-0.1-1.6,0.3l-9.6,6.6c-0.9,0.7-1,1.9-0.4,2.8C351,241.3,351.3,241.6,351.7,241.7z"></path><path class="st0" d="M331,235.4l10.3,3.1c0.6,0.2,1.2,0.1,1.7-0.3l9.5-6.6c0.9-0.6,1.1-1.8,0.5-2.7c-0.3-0.4-0.6-0.6-1.1-0.8
		l-10.4-3.1c-0.6-0.2-1.2-0.1-1.7,0.3l-9.4,6.6c-0.9,0.6-1.1,1.8-0.5,2.7C330.2,235.1,330.6,235.3,331,235.4z"></path><path class="st0" d="M290.1,223.1l18.1,5.4c0.6,0.2,1.2,0.1,1.7-0.3l9.3-6.5c0.9-0.6,1.1-1.8,0.5-2.7c-0.3-0.4-0.6-0.6-1-0.7
		l-18.2-5.4c-0.6-0.2-1.2-0.1-1.7,0.3l-9.1,6.4c-0.9,0.6-1.1,1.8-0.4,2.7C289.4,222.8,289.8,223,290.1,223.1z"></path><path class="st0" d="M421.2,278.8l11.4,3.5c0.6,0.2,1.2,0.1,1.6-0.2l10.3-6.9c0.9-0.6,1.1-1.8,0.5-2.7c-0.3-0.4-0.6-0.6-1.1-0.8
		l-11.5-3.5c-0.6-0.2-1.2-0.1-1.6,0.2l-10.2,6.8c-0.9,0.6-1.1,1.8-0.5,2.7C420.5,278.4,420.8,278.7,421.2,278.8z"></path><path class="st0" d="M399.4,272.1l11.1,3.4c0.6,0.2,1.2,0.1,1.6-0.2l10.1-6.8c0.9-0.6,1.1-1.8,0.5-2.7c-0.3-0.4-0.6-0.6-1.1-0.8
		l-11.2-3.4c-0.6-0.2-1.2-0.1-1.6,0.2l-10,6.8c-0.9,0.6-1.1,1.8-0.5,2.7C398.6,271.7,399,272,399.4,272.1z"></path><path class="st0" d="M377.9,265.5l10.9,3.3c0.6,0.2,1.2,0.1,1.7-0.2l9.9-6.7c0.9-0.7,1.1-1.9,0.4-2.8c-0.2-0.3-0.5-0.5-0.9-0.7
		l-11-3.3c-0.6-0.2-1.2-0.1-1.6,0.3l-9.8,6.7c-0.9,0.6-1.1,1.8-0.6,2.7C377.1,265.1,377.4,265.4,377.9,265.5z"></path><path class="st0" d="M356.7,259l10.6,3.3c0.6,0.2,1.2,0.1,1.7-0.3l9.8-6.7c0.9-0.6,1.1-1.8,0.5-2.7c-0.2-0.4-0.6-0.6-1-0.8
		l-10.7-3.2c-0.6-0.2-1.2-0.1-1.7,0.2l-9.7,6.6c-0.9,0.6-1.1,1.8-0.5,2.7C355.9,258.6,356.3,258.9,356.7,259z"></path><path class="st0" d="M335.9,252.6l10.4,3.2c0.6,0.2,1.2,0.1,1.7-0.2l9.6-6.6c0.9-0.6,1.1-1.8,0.5-2.7c-0.2-0.4-0.6-0.6-1-0.8
		l-10.5-3.2c-0.6-0.2-1.2-0.1-1.7,0.3l-9.5,6.6c-0.9,0.6-1.1,1.8-0.5,2.7C335.1,252.2,335.5,252.4,335.9,252.6z"></path><path class="st0" d="M315.4,246.3l10.1,3.1c0.6,0.2,1.2,0.1,1.7-0.3l9.5-6.5c0.9-0.6,1.1-1.8,0.5-2.7c-0.2-0.4-0.6-0.6-1-0.8
		l-10.2-3.1c-0.6-0.2-1.2-0.1-1.7,0.3l-9.4,6.5c-0.9,0.6-1.1,1.8-0.5,2.7C314.6,245.9,315,246.1,315.4,246.3z"></path><path class="st0" d="M275,233.8l32.6,10c0.6,0.2,1.2,0.1,1.7-0.3l9.3-6.5c0.9-0.6,1.1-1.8,0.5-2.7c-0.3-0.4-0.6-0.6-1-0.7
		l-32.8-9.9c-0.6-0.2-1.2-0.1-1.7,0.3l-9,6.4c-0.9,0.6-1.1,1.8-0.5,2.7C274.2,233.4,274.6,233.7,275,233.8z"></path><path class="st0" d="M404.4,290.1l11.2,3.5c0.6,0.2,1.2,0.1,1.7-0.2l10.2-6.8c0.9-0.6,1.1-1.8,0.5-2.7c-0.2-0.4-0.6-0.6-1-0.8
		l-11.3-3.5c-0.6-0.2-1.2-0.1-1.6,0.2l-10.1,6.8c-0.9,0.6-1.1,1.8-0.6,2.7C403.6,289.7,404,290,404.4,290.1z"></path><path class="st0" d="M382.8,283.3l11,3.5c0.6,0.2,1.2,0.1,1.7-0.2l10-6.7c0.9-0.6,1.1-1.8,0.5-2.7c-0.2-0.4-0.6-0.7-1.1-0.8
		l-11.1-3.4c-0.6-0.2-1.2-0.1-1.7,0.2l-9.9,6.7c-0.9,0.6-1.1,1.8-0.5,2.7C382,282.9,382.4,283.2,382.8,283.3z"></path><path class="st0" d="M299.1,257l73.1,23c0.6,0.2,1.2,0.1,1.7-0.2l9.8-6.7c0.9-0.6,1.1-1.8,0.5-2.7c-0.2-0.4-0.6-0.6-1-0.8
		l-73.7-22.7c-0.6-0.2-1.2-0.1-1.7,0.3l-9.3,6.4c-0.9,0.6-1.1,1.8-0.4,2.7C298.4,256.6,298.7,256.9,299.1,257z"></path><path class="st0" d="M259.6,244.6l31.9,10c0.6,0.2,1.2,0.1,1.7-0.3l9.2-6.4c0.9-0.6,1.1-1.8,0.5-2.7c-0.2-0.4-0.6-0.6-1-0.8
		l-32.1-9.9c-0.6-0.2-1.2-0.1-1.7,0.3l-9,6.3c-0.9,0.6-1.1,1.8-0.5,2.7C258.9,244.3,259.2,244.5,259.6,244.6z"></path><linearGradient id="SVGID_00000156587842551691464050000002622785899840425345_-iaK8yoguuT" gradientUnits="userSpaceOnUse" x1="-493.5595" y1="223.1689" x2="-396.1899" y2="223.1689" gradientTransform="matrix(-1 0 0 -1 -126.69 502)"><stop offset="0" style="stop-color: rgb(243, 131, 116);"></stop><stop offset="1" style="stop-color: rgb(198, 66, 52);"></stop></linearGradient><path d="M366.3,285.5L349,297.9
		c-0.3,0.2-0.8,0.3-1.1,0.2l-77.5-25.4c-0.7-0.2-1-0.9-0.8-1.6c0.1-0.3,0.3-0.6,0.6-0.8l20.2-10.5c0.3-0.2,0.7-0.2,1-0.1l74.6,23.5
		c0.7,0.2,1,1,0.8,1.6C366.7,285.1,366.5,285.3,366.3,285.5z" style="fill: url(&quot;#SVGID_00000156587842551691464050000002622785899840425345_-iaK8yoguuT&quot;);"></path><path class="st4" d="M300.6,95.4v17.4l181.5,51v-14.4c0-2.5-1.7-4.7-4.1-5.4L302.2,94.2c-0.1,0-0.2-0.1-0.4-0.1
		C301.1,94.1,300.6,94.7,300.6,95.4z"></path><linearGradient id="SVGID_00000105399046447282067190000002999875026976828295_-iaK8yoguuT" gradientUnits="userSpaceOnUse" x1="286.2184" y1="445.8188" x2="341.0584" y2="377.2788" gradientTransform="matrix(1 0 0 -1 0 502)"><stop offset="0" style="stop-color: rgb(243, 131, 116);"></stop><stop offset="1" style="stop-color: rgb(198, 66, 52);"></stop></linearGradient><circle cx="331" cy="112.2" r="3.2" style="fill: url(&quot;#SVGID_00000105399046447282067190000002999875026976828295_-iaK8yoguuT&quot;);"></circle><linearGradient id="SVGID_00000112613407231333732260000008784054084713349052_-iaK8yoguuT" gradientUnits="userSpaceOnUse" x1="281.6497" y1="442.1597" x2="336.4797" y2="373.6197" gradientTransform="matrix(1 0 0 -1 0 502)"><stop offset="0" style="stop-color: rgb(243, 131, 116);"></stop><stop offset="1" style="stop-color: rgb(198, 66, 52);"></stop></linearGradient><circle cx="321.2" cy="109.2" r="3.2" style="fill: url(&quot;#SVGID_00000112613407231333732260000008784054084713349052_-iaK8yoguuT&quot;);"></circle><linearGradient id="SVGID_00000058569979945735354800000013615922804792480386_-iaK8yoguuT" gradientUnits="userSpaceOnUse" x1="277.072" y1="438.5016" x2="331.902" y2="369.9616" gradientTransform="matrix(1 0 0 -1 0 502)"><stop offset="0" style="stop-color: rgb(243, 131, 116);"></stop><stop offset="1" style="stop-color: rgb(198, 66, 52);"></stop></linearGradient><circle cx="311.3" cy="106.3" r="3.2" style="fill: url(&quot;#SVGID_00000058569979945735354800000013615922804792480386_-iaK8yoguuT&quot;);"></circle><path class="st2" d="M396.1,329.3c-0.6,0-1.2,0-1.7-0.2h-0.1l-126.7-40.6c-0.6-0.2-0.9-0.8-0.7-1.4c0.2-0.6,0.8-0.9,1.4-0.7
		c0,0,0,0,0,0l126.6,40.6c2,0.3,4.1-0.1,5.8-1.2l16.3-10.4c0.5-0.3,1.2-0.2,1.6,0.4s0.2,1.2-0.4,1.6l0,0l-16.3,10.4
		C400.2,328.7,398.2,329.3,396.1,329.3z"></path><path class="st2" d="M229.9,245.6c-0.6,0-1.1-0.5-1.1-1.1c0-0.4,0.2-0.7,0.5-0.9l63.9-42.2l1.4-105.9c-0.2-2,0.4-3.9,1.8-5.4
		c1.8-1.9,4.6-2.7,8.5-2.3c0.1,0,0.1,0,0.2,0l111.7,30.6c0.6,0.2,1,0.8,0.8,1.4c-0.2,0.6-0.8,1-1.4,0.8L304.6,90
		c-3.1-0.2-5.3,0.3-6.6,1.6c-0.9,1-1.3,2.3-1.2,3.6c0,0.1,0,0.1,0,0.2L295.5,202c0,0.4-0.2,0.7-0.5,0.9l-64.4,42.5
		C230.4,245.6,230.2,245.6,229.9,245.6z"></path><polygon class="st4" points="310.3,127.2 371,143.3 370.2,154.3 309.8,137.9 	"></polygon><polygon class="st4" points="308.9,145.1 369.5,161.2 368.7,172.2 308.3,155.8 	"></polygon><polygon class="st8" points="307.5,163 368.1,179.1 367.3,190.1 306.9,173.7 	"></polygon><polygon class="st8" points="376.8,145.4 373.3,214.4 471.2,241.3 473.7,171.9 	"></polygon><path class="st0" d="M411.8,206c-0.5,0-1-0.2-1.4-0.6c-0.9-1-0.1-2.6,0.2-3.2c1.8-3.5,7.4-8.2,14.9-12.5c-0.1-0.7-0.5-1.3-1.2-1.5
		c-6.8-3.4-30,8-38.4,12.7c-0.5,0.3-1.2,0.1-1.5-0.4c-0.3-0.5-0.1-1.2,0.4-1.5c0,0,0,0,0,0c0.1-0.1,7.8-4.4,16.5-8.1
		c12-5.1,20-6.7,24-4.7c1,0.5,1.8,1.3,2.2,2.4c1.2-0.6,2.4-1.3,3.7-1.9c11.2-5.6,21.7-8.3,28.8-7.6c0.6,0.1,1.1,0.6,1,1.2
		c-0.1,0.6-0.6,1.1-1.2,1c0,0,0,0,0,0c-8.5-0.9-21.8,4-32.2,9.9c-1.3,5.7-11,13.4-14.7,14.6C412.6,205.9,412.2,206,411.8,206z
		 M424.5,193c-5.9,3.6-10.3,7.4-11.8,10.2c-0.1,0.1-0.1,0.2-0.2,0.4C415,202.7,421.7,197.6,424.5,193L424.5,193z"></path><path class="st0" d="M456.1,187.6c-0.6,0-1.1-0.5-1.1-1.1c0-0.3,0.1-0.6,0.3-0.8l5.3-5.8l-6.5-4.1c-0.5-0.3-0.7-1-0.4-1.6
		s1-0.7,1.6-0.4l0,0l7.6,4.8c0.5,0.3,0.7,1,0.3,1.6c0,0.1-0.1,0.1-0.1,0.1l-6.2,6.8C456.8,187.5,456.5,187.6,456.1,187.6z"></path><linearGradient id="SVGID_00000011018028661726036170000013140137628989483916_-iaK8yoguuT" gradientUnits="userSpaceOnUse" x1="380.9113" y1="314.7606" x2="390.6813" y2="293.4906" gradientTransform="matrix(1 0 0 -1 0 502)"><stop offset="0" style="stop-color: rgb(243, 131, 116);"></stop><stop offset="1" style="stop-color: rgb(198, 66, 52);"></stop></linearGradient><circle cx="386.9" cy="200.2" r="4.7" style="fill: url(&quot;#SVGID_00000011018028661726036170000013140137628989483916_-iaK8yoguuT&quot;);"></circle></g><g id="moon"><path class="st8" d="M277.8,153.2c-18.9,10.9-43.1,4.4-53.9-14.6s-4.4-43.1,14.6-53.9c12.2-7,27.2-7,39.4,0
		c-18.9,0.3-34,15.9-33.7,34.8C244.5,138,259.4,152.9,277.8,153.2z"></path><circle class="st0" cx="238.3" cy="96.5" r="4.4"></circle><circle class="st0" cx="231.5" cy="104.6" r="1.9"></circle><circle class="st0" cx="248.3" cy="143.9" r="1.9"></circle></g><g id="light"><path class="st8" d="M189.6,83.3c5.7,0.4,10.2,4.8,10.8,10.5c0.6-5.6,5.1-10,10.8-10.5c-5.6-0.4-10.2-4.8-10.8-10.5
		C199.8,78.5,195.3,82.9,189.6,83.3z"></path><path class="st8" d="M373.7,71c1.5,0.1,2.9,0.7,4,1.8c1,1,1.7,2.4,1.8,3.8c0.1-1.4,0.8-2.8,1.8-3.8c1.1-1.1,2.5-1.7,4-1.8
		c-3-0.2-5.4-2.6-5.8-5.6C379.2,68.4,376.7,70.8,373.7,71z"></path><path class="st8" d="M275.5,176.3c1.5,0.1,2.9,0.7,4,1.8c1,1,1.7,2.4,1.8,3.8c0.3-3,2.7-5.4,5.8-5.6c-3-0.2-5.5-2.6-5.8-5.6
		C281,173.7,278.6,176.1,275.5,176.3L275.5,176.3z"></path><path class="st8" d="M174.9,103.7c3,0.2,5.5,2.6,5.8,5.6c0.3-3,2.7-5.4,5.8-5.6c-3-0.2-5.5-2.6-5.8-5.6
		C180.4,101.2,178,103.5,174.9,103.7z"></path></g><g id="cloud"><path class="st2" d="M255,73.1h70.4c0,0,2.9-15.9-7.6-21.5s-22.2,5.2-22.2,5.2s-0.4-21.8-15.2-22.9s-26.9,19.5-26.9,19.5
		s-19.1-7.2-24.9,20.4L255,73.1z"></path><path class="st0" d="M228.6,74.9c-0.3,0-0.7-0.2-0.9-0.4c-0.2-0.3-0.3-0.6-0.2-1c2.1-10,6.2-16.8,12.1-20c4.1-2.2,8.9-2.7,13.4-1.5
		c2.4-3.8,13.7-20.3,27.5-19.3c6.5,0.5,11.4,4.8,14.1,12.6c1,3,1.7,6,2,9.1c3.8-2.9,13-8.6,21.7-3.9c4.6,2.5,7.5,7.2,8.4,13.7
		c0.4,3,0.3,6-0.1,9c-0.1,0.5-0.6,0.9-1.1,0.9H255L228.6,74.9L228.6,74.9z M248.1,53.7c-2.6,0-5.1,0.6-7.4,1.8
		c-5,2.8-8.6,8.5-10.7,17.1l25-0.6h69.4c0.4-3.4,1.1-15-7.2-19.4c-9.7-5.2-20.8,4.9-20.9,5c-0.3,0.3-0.8,0.4-1.2,0.2
		c-0.4-0.2-0.7-0.6-0.7-1c0-0.2-0.6-20.7-14.2-21.8c-13.9-1.1-25.7,18.7-25.8,19c-0.3,0.5-0.9,0.7-1.4,0.5
		C251.4,54,249.8,53.7,248.1,53.7z"></path><path class="st4" d="M171.6,180.7h54.3c0,0,2.2-12.3-5.9-16.6s-17.1,4-17.1,4s-0.4-16.8-11.8-17.6s-20.8,15.1-20.8,15.1
		s-14.7-5.5-19.2,15.8L171.6,180.7z"></path></g><g id="shape_1"><polygon class="st2" points="416.9,466.1 81.7,466.1 81.7,60.6 	"></polygon><path class="st0" d="M416.9,467.3H81.7c-0.6,0-1.1-0.5-1.1-1.1l0,0V60.6c0-0.6,0.5-1.1,1.1-1.1c0.3,0,0.7,0.2,0.9,0.4l335.2,405.6
		c0.4,0.5,0.3,1.2-0.1,1.6C417.4,467.2,417.1,467.3,416.9,467.3L416.9,467.3z M82.8,465h331.7L82.8,63.7V465z"></path></g><g id="laptop"><path class="st0" d="M19.9,368.8l182.4-44.6c1.2-0.4,2.6-0.1,3.7,0.6l74.5,43.9c3.8,2.4,1.3,12.3-2.2,13.5l-174,55.1
		c-1.3,0.4-2.7,0.2-3.8-0.5L21,383.2C17.9,381.1,15.1,370.4,19.9,368.8z"></path><path class="st0" d="M197.5,313.4L21.4,368c-4.6,1.4-9.6-1.2-11-5.8c-0.3-0.9-0.4-1.8-0.4-2.7l0.3-101c0-4.6,3-8.6,7.4-9.8
		L190,199.8c3.8-1.1,14-4.3,14.4,5.9L197.5,313.4z"></path><path class="st0" d="M204.2,314.7L18.5,367.4c-2.2,0.6-4.6-0.7-5.2-2.9c-0.1-0.4-0.2-0.8-0.2-1.2V258.7c0-4.7,3.1-8.7,7.6-10
		l175.8-49.9c3.2-0.9,6.6,1,7.5,4.2c0.2,0.5,0.2,1.1,0.2,1.7V314.7z"></path><linearGradient id="SVGID_00000127764751480760035610000016397713836054830246_-iaK8yoguuT" gradientUnits="userSpaceOnUse" x1="146.069" y1="340.7303" x2="97.029" y2="179.1703" gradientTransform="matrix(1 0 0 -1 0 502)"><stop offset="0" style="stop-color: rgb(243, 131, 116);"></stop><stop offset="1" style="stop-color: rgb(198, 66, 52);"></stop></linearGradient><path d="M199.4,204.6V311L17.9,362.6V258.7
		c0-2.5,1.7-4.7,4.1-5.4l175.8-49.9c0.1,0,0.2-0.1,0.4-0.1C198.9,203.3,199.4,203.9,199.4,204.6z" style="fill: url(&quot;#SVGID_00000127764751480760035610000016397713836054830246_-iaK8yoguuT&quot;);"></path><path class="st2" d="M22.2,366.1l180-51.1c1.2-0.4,2.6-0.1,3.7,0.6l73.4,49.4c2,1.4,2.5,4.1,1.2,6.1c-0.6,0.8-1.4,1.4-2.3,1.7
		l-174,55.2c-1.3,0.4-2.7,0.2-3.8-0.5L21,374c-2-1.3-2.6-4-1.3-6.1C20.3,367,21.2,366.4,22.2,366.1z"></path><path class="st0" d="M102.9,429.4c-1.1,0-2.2-0.3-3.1-1l-79.4-53.5c-2.5-1.7-3.2-5.1-1.5-7.7c0.7-1.1,1.8-1.9,3.1-2.2l0.3,1.1
		l-0.3-1.1l180-51.1c1.6-0.4,3.2-0.2,4.6,0.7l73.5,49.5c2.5,1.7,3.2,5.1,1.5,7.7c-0.7,1-1.7,1.8-2.9,2.2l-174,55.2
		C104,429.3,103.4,429.4,102.9,429.4z M203.5,316c-0.3,0-0.6,0-0.9,0.1l-180,51.1c-1.7,0.5-2.8,2.3-2.3,4c0.2,0.7,0.7,1.4,1.3,1.8
		l79.4,53.5c0.8,0.6,1.9,0.7,2.8,0.4l174-55.2c1.7-0.5,2.7-2.4,2.1-4.1c-0.2-0.7-0.7-1.3-1.3-1.7l-73.4-49.5
		C204.8,316.2,204.1,316,203.5,316z"></path><path class="st0" d="M62.1,376.9l-11.5,3.5c-0.6,0.2-1.1,0.1-1.6-0.2l-10.4-6.9c-0.9-0.6-1.1-1.8-0.5-2.7c0.3-0.4,0.6-0.6,1.1-0.8
		l11.6-3.4c0.6-0.2,1.1-0.1,1.6,0.2l10.3,6.9c0.9,0.6,1.1,1.8,0.5,2.7C62.9,376.5,62.5,376.8,62.1,376.9z"></path><path class="st0" d="M84.2,370.2L73,373.6c-0.6,0.2-1.2,0.1-1.6-0.2l-10.2-6.9c-0.9-0.6-1.1-1.8-0.5-2.7c0.3-0.4,0.6-0.6,1.1-0.8
		l11.3-3.4c0.6-0.2,1.2-0.1,1.6,0.3l10.1,6.8c0.9,0.7,1,1.9,0.4,2.8C84.9,369.9,84.6,370.1,84.2,370.2z"></path><path class="st0" d="M105.9,363.7L95,367c-0.6,0.2-1.2,0.1-1.7-0.3l-10-6.8c-0.9-0.6-1.1-1.8-0.5-2.7c0.3-0.4,0.6-0.6,1.1-0.8
		l11.1-3.3c0.6-0.2,1.2-0.1,1.6,0.2l9.9,6.8c0.9,0.6,1.1,1.8,0.5,2.7C106.8,363.3,106.4,363.6,105.9,363.7z"></path><path class="st0" d="M127.3,357.2l-10.7,3.2c-0.6,0.2-1.2,0.1-1.7-0.3l-9.9-6.7c-0.9-0.7-1-1.9-0.4-2.8c0.2-0.3,0.6-0.5,0.9-0.7
		l10.8-3.2c0.6-0.2,1.2-0.1,1.6,0.3l9.8,6.7c0.9,0.6,1.1,1.8,0.5,2.7C128.1,356.9,127.7,357.1,127.3,357.2z"></path><path class="st0" d="M148.3,350.9l-10.5,3.2c-0.6,0.2-1.2,0.1-1.7-0.3l-9.7-6.7c-0.9-0.6-1.1-1.8-0.5-2.7c0.3-0.4,0.6-0.6,1.1-0.8
		l10.6-3.1c0.6-0.2,1.2-0.1,1.6,0.3l9.6,6.6c0.9,0.6,1.1,1.8,0.5,2.7C149.1,350.5,148.7,350.8,148.3,350.9z"></path><path class="st0" d="M169,344.7l-10.3,3.1c-0.6,0.2-1.2,0.1-1.7-0.3l-9.5-6.6c-0.9-0.6-1.1-1.8-0.5-2.7c0.3-0.4,0.6-0.6,1.1-0.8
		l10.4-3.1c0.6-0.2,1.2-0.1,1.7,0.3l9.4,6.6c0.9,0.6,1.1,1.8,0.5,2.7C169.8,344.3,169.4,344.6,169,344.7z"></path><path class="st0" d="M209.9,332.4l-18.1,5.5c-0.6,0.2-1.2,0.1-1.7-0.3l-9.3-6.5c-0.9-0.6-1.1-1.8-0.5-2.7c0.3-0.4,0.6-0.6,1-0.7
		l18.2-5.4c0.6-0.2,1.2-0.1,1.7,0.3l9.1,6.5c0.9,0.6,1.1,1.8,0.5,2.7C210.6,332,210.3,332.2,209.9,332.4z"></path><path class="st0" d="M78.8,388l-11.4,3.5c-0.6,0.2-1.2,0.1-1.7-0.2l-10.3-6.9c-0.9-0.6-1.1-1.8-0.5-2.7c0.3-0.4,0.6-0.6,1-0.7
		l11.5-3.5c0.6-0.2,1.2-0.1,1.6,0.2l10.2,6.8c0.9,0.6,1.1,1.8,0.5,2.7C79.5,387.7,79.2,387.9,78.8,388z"></path><path class="st0" d="M100.6,381.3l-11.1,3.4c-0.6,0.2-1.2,0.1-1.7-0.2l-10.1-6.8c-0.9-0.6-1.1-1.8-0.5-2.7c0.3-0.4,0.6-0.6,1.1-0.8
		l11.2-3.4c0.6-0.2,1.2-0.1,1.6,0.2l10,6.8c0.9,0.6,1.1,1.8,0.5,2.7C101.4,380.9,101,381.2,100.6,381.3z"></path><path class="st0" d="M122.1,374.7l-10.8,3.3c-0.6,0.2-1.2,0.1-1.7-0.2l-9.9-6.7c-0.9-0.6-1.1-1.8-0.5-2.7c0.2-0.4,0.6-0.6,1-0.8
		l11-3.3c0.6-0.2,1.2-0.1,1.7,0.2l9.8,6.7c0.9,0.6,1.2,1.8,0.6,2.7C123,374.3,122.6,374.6,122.1,374.7z"></path><path class="st0" d="M143.3,368.2l-10.6,3.3c-0.6,0.2-1.2,0.1-1.7-0.2l-9.8-6.7c-0.9-0.6-1.1-1.8-0.5-2.7c0.2-0.4,0.6-0.6,1-0.8
		l10.7-3.2c0.6-0.2,1.2-0.1,1.7,0.3l9.7,6.6c0.9,0.7,1,1.9,0.4,2.8C144,367.8,143.6,368.1,143.3,368.2z"></path><path class="st0" d="M164.1,361.8l-10.4,3.2c-0.6,0.2-1.2,0.1-1.7-0.2l-9.6-6.6c-0.9-0.6-1.1-1.8-0.5-2.7c0.2-0.4,0.6-0.6,1-0.8
		l10.5-3.2c0.6-0.2,1.2-0.1,1.7,0.3l9.5,6.6c0.9,0.6,1.1,1.8,0.5,2.7C164.8,361.4,164.5,361.7,164.1,361.8z"></path><path class="st0" d="M184.6,355.5l-10.1,3.1c-0.6,0.2-1.2,0.1-1.7-0.3l-9.4-6.5c-0.9-0.7-1-1.9-0.4-2.8c0.2-0.3,0.5-0.5,0.9-0.7
		l10.2-3.1c0.6-0.2,1.2-0.1,1.7,0.3l9.4,6.5c0.9,0.6,1.1,1.8,0.5,2.7C185.4,355.1,185,355.4,184.6,355.5z"></path><path class="st0" d="M225,343l-32.6,10c-0.6,0.2-1.2,0.1-1.7-0.3l-9.3-6.5c-0.9-0.6-1.1-1.8-0.5-2.7c0.3-0.4,0.6-0.6,1-0.7
		l32.8-9.9c0.6-0.2,1.2-0.1,1.7,0.3l9.1,6.4c0.9,0.6,1,1.9,0.4,2.7C225.7,342.7,225.4,342.9,225,343z"></path><path class="st0" d="M95.6,399.3l-11.2,3.5c-0.6,0.2-1.2,0.1-1.7-0.2l-10.2-6.8c-0.9-0.6-1.1-1.8-0.5-2.7c0.2-0.4,0.6-0.6,1-0.8
		l11.3-3.5c0.6-0.2,1.2-0.1,1.7,0.2l10.1,6.8c0.9,0.6,1.1,1.8,0.6,2.7C96.4,398.9,96,399.2,95.6,399.3z"></path><path class="st0" d="M117.2,392.5l-11,3.4c-0.6,0.2-1.2,0.1-1.7-0.2l-10-6.7c-0.9-0.6-1.1-1.8-0.5-2.7c0.2-0.4,0.6-0.7,1.1-0.8
		l11.1-3.4c0.6-0.2,1.2-0.1,1.7,0.2l9.9,6.7c0.9,0.6,1.1,1.8,0.5,2.7C118,392.1,117.6,392.4,117.2,392.5z"></path><path class="st0" d="M200.9,366.2l-73.1,23c-0.6,0.2-1.2,0.1-1.7-0.2l-9.8-6.7c-0.9-0.6-1.1-1.8-0.5-2.7c0.2-0.4,0.6-0.6,1-0.8
		l73.7-22.7c0.6-0.2,1.2-0.1,1.7,0.3l9.3,6.5c0.9,0.6,1.1,1.8,0.4,2.7C201.6,365.9,201.3,366.1,200.9,366.2z"></path><path class="st0" d="M240.4,353.9l-31.9,10c-0.6,0.2-1.2,0.1-1.7-0.3l-9.2-6.4c-0.9-0.6-1.1-1.8-0.5-2.7c0.2-0.4,0.6-0.6,1-0.8
		l32.1-9.9c0.6-0.2,1.2-0.1,1.7,0.3l9,6.3c0.9,0.7,1,2,0.3,2.8C241,353.5,240.7,353.7,240.4,353.9z"></path><linearGradient id="SVGID_00000000220618731678745100000017579207353784473498_-iaK8yoguuT" gradientUnits="userSpaceOnUse" x1="133.1585" y1="113.9195" x2="230.5001" y2="113.9195" gradientTransform="matrix(1 0 0 -1 0 502)"><stop offset="0" style="stop-color: rgb(243, 131, 116);"></stop><stop offset="1" style="stop-color: rgb(198, 66, 52);"></stop></linearGradient><path d="M133.7,394.7l17.3,12.4
		c0.3,0.2,0.8,0.3,1.1,0.2l77.5-25.4c0.7-0.2,1-0.9,0.8-1.6c-0.1-0.3-0.3-0.6-0.6-0.8L209.6,369c-0.3-0.2-0.7-0.2-1-0.1l-74.6,23.5
		c-0.7,0.2-1,0.9-0.8,1.6C133.3,394.3,133.5,394.5,133.7,394.7z" style="fill: url(&quot;#SVGID_00000000220618731678745100000017579207353784473498_-iaK8yoguuT&quot;);"></path><path class="st4" d="M199.4,204.6v17.4L17.9,273v-14.3c0-2.5,1.7-4.7,4.1-5.4l175.8-49.9c0.1,0,0.2-0.1,0.4-0.1
		C198.9,203.3,199.4,203.9,199.4,204.6z"></path><circle class="st0" cx="27.6" cy="261.2" r="3.2"></circle><circle class="st0" cx="37.4" cy="258.3" r="3.2"></circle><circle class="st0" cx="47.3" cy="255.4" r="3.2"></circle><path class="st4" d="M25.2,292.2c1.1-0.4,102.6-29.5,102.6-29.5l0.2,60L25.2,354.1V292.2z"></path><linearGradient id="SVGID_00000009549309289976422960000018117282312366954150_-iaK8yoguuT" gradientUnits="userSpaceOnUse" x1="88.2099" y1="241.76" x2="78.2199" y2="170.71" gradientTransform="matrix(1 0 0 -1 0 502)"><stop offset="0" style="stop-color: rgb(243, 131, 116);"></stop><stop offset="1" style="stop-color: rgb(198, 66, 52);"></stop></linearGradient><polygon points="31.8,344.3 59.6,299 91.2,321.4 
		108.9,300.2 124.8,317.1 	" style="fill: url(&quot;#SVGID_00000009549309289976422960000018117282312366954150_-iaK8yoguuT&quot;);"></polygon><path class="st0" d="M136.1,263.3c-0.6,0-1.1-0.5-1.1-1.2c0-0.5,0.3-0.9,0.8-1.1l54.2-15.7c0.6-0.2,1.2,0.1,1.4,0.7
		s-0.1,1.2-0.7,1.4c0,0,0,0,0,0l-54.2,15.7C136.3,263.3,136.2,263.3,136.1,263.3z"></path><path class="st0" d="M136.3,271.4c-0.6,0-1.1-0.5-1.1-1.2c0-0.5,0.3-0.9,0.8-1.1l54.2-15.7c0.6-0.2,1.2,0.1,1.4,0.7
		s-0.1,1.2-0.7,1.4c0,0,0,0,0,0l-54.2,15.7C136.5,271.3,136.4,271.4,136.3,271.4z"></path><path class="st0" d="M136.5,279.4c-0.6,0-1.1-0.5-1.1-1.2c0-0.5,0.3-0.9,0.8-1.1l54.2-15.7c0.6-0.2,1.2,0.1,1.4,0.7
		c0.2,0.6-0.1,1.2-0.7,1.4c0,0,0,0,0,0l-54.2,15.7C136.7,279.4,136.6,279.4,136.5,279.4z"></path><path class="st0" d="M136.7,287.4c-0.6,0-1.1-0.5-1.2-1.1c0-0.5,0.3-1,0.8-1.1l54.2-15.7c0.6-0.2,1.2,0.1,1.5,0.6s-0.1,1.2-0.6,1.5
		c-0.1,0-0.1,0-0.2,0.1L137,287.4C136.9,287.4,136.8,287.4,136.7,287.4z"></path><path class="st0" d="M136.9,295.4c-0.6,0-1.1-0.5-1.1-1.1c0-0.5,0.3-0.9,0.8-1.1l54.2-15.7c0.6-0.2,1.2,0.1,1.4,0.7
		c0.2,0.6-0.1,1.2-0.7,1.4c0,0,0,0,0,0l-54.2,15.7C137.1,295.4,137,295.4,136.9,295.4z"></path><path class="st0" d="M137.6,319.1c-0.6,0-1.1-0.5-1.1-1.1c0-0.5,0.3-1,0.8-1.1l54.2-15.7c0.6-0.2,1.2,0.1,1.4,0.7
		c0.2,0.6-0.1,1.2-0.7,1.4c0,0,0,0,0,0l-54.2,15.7C137.8,319.1,137.7,319.1,137.6,319.1z"></path></g><g id="sun"><path class="st8" d="M120.8,176.7l-7.2-3.9c-1.4-0.7-1.9-2.4-1.1-3.8c0.1-0.2,0.2-0.3,0.3-0.5l5.3-6.2l0,0l-9.4-1.1
		c-1.5-0.2-2.6-1.6-2.4-3.1c0-0.2,0.1-0.3,0.1-0.5l2.8-9l0,0l-7.8,2.4c-1.5,0.5-3-0.4-3.5-1.8c-0.1-0.2-0.1-0.4-0.1-0.6l-0.6-8.2
		l0,0l-7.4,5.8c-1.2,1-3,0.7-3.9-0.5c-0.1-0.1-0.2-0.3-0.3-0.4l-4.4-8.4l0,0l-3.9,7.2c-0.7,1.4-2.4,1.9-3.8,1.2
		c-0.2-0.1-0.4-0.2-0.5-0.3l-6.2-5.4l0,0l-1.1,9.4c-0.2,1.5-1.6,2.6-3.1,2.4c-0.2,0-0.3-0.1-0.5-0.1l-9-2.8l0,0l2.4,7.9
		c0.5,1.5-0.4,3.1-1.9,3.5c-0.2,0.1-0.4,0.1-0.6,0.1l-8.2,0.6l0,0l5.8,7.4c1,1.2,0.7,3-0.5,3.9c-0.1,0.1-0.3,0.2-0.4,0.3l-8.3,4.4
		l0,0l7.2,3.9c1.4,0.7,1.9,2.4,1.2,3.8c-0.1,0.2-0.2,0.4-0.4,0.5l-5.3,6.2l0,0l9.4,1.1c1.5,0.2,2.6,1.6,2.4,3.1
		c0,0.2-0.1,0.3-0.1,0.5l-2.8,9l0,0l7.8-2.4c1.5-0.5,3,0.4,3.5,1.8c0.1,0.2,0.1,0.4,0.1,0.6l0.6,8.2l0,0l7.4-5.8
		c1.2-1,3-0.7,3.9,0.5c0.1,0.1,0.2,0.3,0.3,0.4l4.4,8.4l0,0l3.9-7.2c0.7-1.4,2.4-1.9,3.8-1.2c0.2,0.1,0.4,0.2,0.5,0.3l6.2,5.4l0,0
		l1.1-9.4c0.2-1.5,1.6-2.6,3.1-2.4c0.2,0,0.3,0.1,0.5,0.1l9,2.8l0,0l-2.4-7.8c-0.4-1.5,0.4-3.1,1.9-3.5c0.2-0.1,0.4-0.1,0.6-0.1
		l8.2-0.6l0,0l-5.8-7.4c-1-1.2-0.7-3,0.5-3.9c0.1-0.1,0.3-0.2,0.4-0.3L120.8,176.7L120.8,176.7z"></path><linearGradient id="SVGID_00000087396093556895551930000015611303839756644532_-iaK8yoguuT" gradientUnits="userSpaceOnUse" x1="62.3148" y1="354.7067" x2="96.2548" y2="301.3467" gradientTransform="matrix(1 0 0 -1 0 502)"><stop offset="0" style="stop-color: rgb(243, 131, 116);"></stop><stop offset="1" style="stop-color: rgb(198, 66, 52);"></stop></linearGradient><circle cx="81" cy="176.7" r="20" style="fill: url(&quot;#SVGID_00000087396093556895551930000015611303839756644532_-iaK8yoguuT&quot;);"></circle></g></svg>