<svg transform="scale(1)" version="1.1" id="RjMnX5nf96" xmlns="http://www.w3.org/2000/svg" xmlns:xlink="http://www.w3.org/1999/xlink" x="0px" y="0px" viewBox="0 0 500 500" xml:space="preserve" class="pbimage_pbimage__wrapper__image__0LEis false"><title>Loading</title><style type="text/css"> .st0{fill:#FFFFFF;} .st1{fill:#000111;} .st2{fill:url(#SVGID_1_-RjMnX5nf96);} .st3{fill:url(#SVGID_00000183945211384084003650000012045537993504778908_-RjMnX5nf96);} .st4{fill:#FFC2A7;} .st5{fill:#D88260;} .st6{fill:#005045;} .st7{fill:url(#SVGID_00000052806929880930267290000016900616747851998132_-RjMnX5nf96);} .st8{fill:url(#SVGID_00000169526355114347130360000015149971132508614579_-RjMnX5nf96);} .st9{fill:url(#SVGID_00000044896100210623705630000009607533819670951359_-RjMnX5nf96);} .st10{fill:url(#SVGID_00000125591049911575720830000010330935478289587635_-RjMnX5nf96);} .st11{fill:#FED490;}
 .st11{fill:#FED490;}
 .st6{fill:#005045;}
 .st5{fill:#D88260;}
 .st4{fill:#FFC2A7;}
 .st1{fill:#000111;}
 .st0{fill:#FFFFFF;}</style><g id="loading"><path class="st0" d="M56.9,312.9h398.5c18.5,0,33.5,15,33.5,33.5v0c0,18.5-15,33.5-33.5,33.5H56.9c-18.5,0-33.5-15-33.5-33.5v0
		C23.4,327.9,38.4,312.9,56.9,312.9z" fill="#FFFFFF"></path><path class="st1" d="M455.4,381H56.9c-19.1-0.3-34.3-16.1-34-35.2c0.3-18.6,15.3-33.7,34-34h398.5c19.1,0.3,34.3,16.1,34,35.2
		C489.1,365.7,474.1,380.7,455.4,381z M56.9,314c-17.9,0-32.5,14.6-32.5,32.5S39,379,56.9,379h398.5c17.9,0,32.5-14.6,32.5-32.5
		S473.4,314,455.4,314H56.9z" fill="#000111"></path><linearGradient id="SVGID_1_-RjMnX5nf96" gradientUnits="userSpaceOnUse" x1="321.0694" y1="264.7108" x2="156.2394" y2="128.3508" gradientTransform="matrix(1 0 0 -1 0 502)"><stop offset="0" style="stop-color: rgb(243, 131, 116);"></stop><stop offset="1" style="stop-color: rgb(198, 66, 52);"></stop></linearGradient><path class="st2" d="M56.9,369.5c-12.8,0-23.1-10.3-23.1-23.1s10.3-23.1,23.1-23.1h264.5c12.8,0,23.1,10.3,23.1,23.1
		s-10.3,23.1-23.1,23.1H56.9z"></path><path class="st1" d="M455.4,370.5H56.9c-13.3,0-24.1-10.8-24.1-24.1c0-13.3,10.8-24.1,24.1-24.1h398.5c13.3,0,24.1,10.8,24.1,24.1
		C479.6,359.7,468.8,370.5,455.4,370.5z M56.9,324.3c-12.2-0.3-22.3,9.4-22.5,21.6c-0.3,12.2,9.4,22.3,21.6,22.5c0.3,0,0.6,0,0.9,0
		h398.5c12.2-0.3,21.8-10.3,21.6-22.5c-0.3-11.8-9.8-21.3-21.6-21.6L56.9,324.3z" fill="#000111"></path><path class="st0" d="M240.4,363.7c-0.6,0-1-0.4-1-1c0-7.2,3.6-14.8,10.4-22c2.4-2.5,4.9-4.8,7.7-6.9h-17.6l1.9,4.8
		c0.2,0.5,0,1.1-0.6,1.3c-0.5,0.2-1.1,0-1.3-0.6l-2.5-6.2c-0.2-0.5,0-1.1,0.5-1.3c0.2-0.1,0.4-0.1,0.5-0.1h22.3
		c0.5-0.2,1.1,0.1,1.2,0.7c0.2,0.5-0.1,1.1-0.7,1.2c-0.2,0.1-19.9,13-19.9,29.1C241.5,363.2,241,363.7,240.4,363.7
		C240.4,363.7,240.4,363.7,240.4,363.7z" fill="#FFFFFF"></path><path class="st0" d="M271.9,364c-1.3,0-2.5-0.2-3.7-0.6c-1.9-0.6-3.4-2-4.1-3.8c-1.7-4.1,0.8-9.4,0.9-9.6c0.2-0.5,0.9-0.7,1.4-0.5
		c0.5,0.2,0.7,0.9,0.5,1.4c0,0-2.2,4.7-0.9,8c0.5,1.3,1.6,2.3,2.9,2.7c4.3,1.6,10.2-0.6,13.3-4.9c2.7-3.7,2.6-7.9-0.3-11.6
		c-5.7-7.3-15.3-1.6-15.7-1.4c-0.3,0.2-0.7,0.2-1,0c-0.3-0.2-0.5-0.5-0.5-0.9v-10c0-0.6,0.4-1,1-1h17.6c0.6,0,1,0.4,1,1v3
		c0,0.6-0.5,1-1,1c-0.6,0-1-0.5-1-1v-2h-15.4v7.3c3.4-1.5,11.5-4.1,16.8,2.7c3.5,4.5,3.6,9.6,0.3,14.1
		C281.1,361.6,276.7,363.9,271.9,364z" fill="#FFFFFF"></path><path class="st0" d="M296,361c-0.2,0-0.4-0.1-0.6-0.2c-0.5-0.3-0.6-1-0.2-1.5l19.4-27.2c0.3-0.5,0.9-0.6,1.4-0.3c0,0,0,0,0.1,0
		c0.5,0.3,0.6,0.9,0.3,1.4c0,0,0,0,0,0.1l-19.4,27.2C296.7,360.8,296.3,361,296,361z" fill="#FFFFFF"></path><path class="st0" d="M301.5,339.4c-2.6,0-4.6-2.1-4.6-4.6s2.1-4.6,4.6-4.6s4.6,2.1,4.6,4.6S304,339.4,301.5,339.4L301.5,339.4z
		 M301.5,332.2c-1.4,0-2.6,1.1-2.6,2.5c0,1.4,1.1,2.6,2.5,2.6c1.4,0,2.6-1.1,2.6-2.5c0,0,0,0,0,0C304,333.4,302.9,332.3,301.5,332.2
		z" fill="#FFFFFF"></path><path class="st0" d="M313.9,360.5c-3.7,0-6.7-3-6.7-6.6c0-3.7,3-6.7,6.6-6.7c3.7,0,6.7,3,6.7,6.6c0,0,0,0,0,0
		C320.6,357.5,317.6,360.5,313.9,360.5z M313.9,349.3c-2.5,0-4.6,2-4.6,4.6c0,2.5,2,4.6,4.6,4.6c2.5,0,4.6-2,4.6-4.6c0,0,0,0,0,0
		C318.5,351.3,316.4,349.3,313.9,349.3z" fill="#FFFFFF"></path></g><g id="character"><linearGradient id="SVGID_00000094609556234911311140000006804976342769450675_-RjMnX5nf96" gradientUnits="userSpaceOnUse" x1="181.9836" y1="433.5386" x2="250.3236" y2="326.2686" gradientTransform="matrix(1 0 0 -1 0 502)"><stop offset="0" style="stop-color: rgb(10, 107, 91);"></stop><stop offset="0.78" style="stop-color: rgb(0, 81, 70);"></stop><stop offset="0.91" style="stop-color: rgb(0, 80, 69);"></stop></linearGradient><path d="M312.5,170.9c0,0-17.3-4.6-26.4,4.4
		L270.4,196l-46.4-20l2.7,65.2l75.4,5.9L312.5,170.9z" style="fill: url(&quot;#SVGID_00000094609556234911311140000006804976342769450675_-RjMnX5nf96&quot;);"></path><path class="st4" d="M307.6,141.4c2.4,1.7,5.2,2.8,8.1,3c3.5,0.2,7-0.9,9.7-3.2c0.5,4.9,6.2,9.7,8,8.1c0,0,0-6.7,6-6.5
		c5.1,0.2,6,8.7,2.6,11.4c-0.5,0.4-1.2,0.7-1.8,0.8c0,0,0.5,4.5,1,9.8c-8.1,8.2-21.2,8.3-29.4,0.2
		C305.5,158.8,303.8,149.4,307.6,141.4L307.6,141.4z"></path><path class="st4" d="M307.6,141.4c2.4,1.7,5.2,2.8,8.1,3c3.5,0.2,7-0.9,9.7-3.2c0.5,4.9,6.2,9.7,8,8.1c0,0,0-6.7,6-6.5
		c5.1,0.2,6,8.7,2.6,11.4c-0.5,0.4-1.2,0.7-1.8,0.8c0,0-3.3,7.9,1,9.8l0,0c2.5-2.5,4.2-5.6,5.2-8.9c0.6-2.1,0.9-4.3,0.8-6.5
		c-0.5-11.5-10.1-20.4-21.6-19.9C317.8,129.7,310.9,134.3,307.6,141.4L307.6,141.4z"></path><ellipse class="st4" transform="matrix(0.9528 -0.3035 0.3035 0.9528 -33.2489 100.0161)" cx="305.1" cy="157" rx="6.5" ry="2.9"></ellipse><path class="st1" d="M302.1,129c-0.3-12.7,19.8-12.2,21.2-4.1c0,0,17.4-5,22.5,7.2c6.7-0.5,10.9,9.1,7.7,13.9
		c2.5,9.5-3.2,18.5-12.3,18.7l0,0c-0.1-3.3-0.5-6.6-1-9.8c0.7-0.1,1.3-0.3,1.8-0.8c3.4-2.7,2.5-11.2-2.6-11.4c-5.9-0.2-6,6.5-6,6.5
		c-1.9,1.6-7.5-3.2-8-8.1c-6.2,4.7-17.2,7.1-20.3,2.2C289.4,148.5,291.1,123.8,302.1,129z"></path><path class="st5" d="M338.1,153.4c1.9-0.1,3.4-1.7,3.3-3.7s-1.7-3.4-3.7-3.3c-0.3,0-0.6,0.1-0.8,0.1l1.3,1c0-0.1,0-0.2,0-0.3
		c0,0.2,0-0.1,0-0.1c0.1-0.2-0.1,0.1,0-0.1c0-0.1,0.1-0.2,0.1-0.2c-0.1,0.1,0.1-0.1,0.1-0.1s0,0,0.1-0.1l0.2-0.1l0,0h0.1
		c0.1,0,0.2,0,0,0h0.3c-0.2,0,0.1,0,0.1,0s0.3,0.1,0.1,0l0.2,0.1c0.2,0.1-0.1-0.1,0.1,0.1l0.2,0.2l0,0c0,0.1,0.1,0.1,0.1,0.2
		c0.3,0.5,0.9,0.7,1.4,0.4c0.5-0.3,0.7-0.9,0.4-1.4c-0.8-1.5-2.7-2.1-4.2-1.2c-1,0.6-1.7,1.7-1.6,2.8c0,0.6,0.5,1,1.1,1
		c0.1,0,0.2,0,0.2,0l0.2-0.1c0.3-0.1-0.1,0,0.1,0h0.4c0.1,0-0.1,0,0.1,0h0.2l0.2,0.1c-0.2-0.1,0,0,0.1,0l0.2,0.1
		c0.1,0.1-0.1-0.1,0.1,0.1l0.1,0.1c0,0,0.1,0.1,0,0c0.2,0.2,0.3,0.4,0.3,0.7c0,0.1,0,0.1,0,0c0,0.1,0,0.1,0,0.2s0,0.3,0,0.2
		s0,0.1,0,0.1l-0.1,0.2c0,0.2,0.1-0.2,0,0.1c-0.1,0.1-0.1,0.2-0.2,0.3c0.1-0.1,0,0-0.1,0.1l-0.1,0.1c-0.1,0.1,0.1-0.1,0,0l-0.2,0.1
		l-0.2,0.1c0.1,0,0,0,0,0l-0.2,0.1c-0.2,0,0.2,0-0.1,0c-0.6,0-1,0.5-1,1c0,0.6,0.5,1,1,1V153.4z"></path><ellipse class="st0" transform="matrix(0.1718 -0.9851 0.9851 0.1718 109.8912 433.7925)" cx="312.9" cy="151.5" rx="3" ry="2.6"></ellipse><ellipse class="st6" transform="matrix(0.1718 -0.9851 0.9851 0.1718 109.3679 433.3181)" cx="312.4" cy="151.6" rx="2" ry="1.7"></ellipse><path class="st5" d="M318.2,163.8c-1.6,0-3.1-0.5-4.4-1.2c-0.5-0.3-0.7-0.9-0.4-1.4c0.3-0.5,0.9-0.7,1.4-0.4c1.5,0.9,3.3,1.2,5,0.7
		c1.7-0.7,3.1-2,3.9-3.7c0.2-0.5,0.8-0.8,1.3-0.6c0,0,0.1,0,0.1,0c0.5,0.2,0.8,0.9,0.5,1.4c-1,2.2-2.9,3.9-5.1,4.8
		C319.7,163.6,319,163.8,318.2,163.8z"></path><path class="st5" d="M325.8,159.3c-0.3,0-0.6,0-0.8-0.1c-1.4-0.4-2.5-1.4-3.1-2.7c-0.3-0.5-0.1-1.1,0.4-1.4c0,0,0.1,0,0.1,0
		c0.5-0.2,1.1,0,1.4,0.5c0.3,0.7,1,1.3,1.7,1.6c0.8,0.1,1.6-0.2,2.1-0.8c0.4-0.4,1-0.3,1.4,0.1c0,0,0,0,0.1,0.1
		c0.4,0.4,0.3,1-0.1,1.4c0,0,0,0-0.1,0C328.1,158.8,327,159.3,325.8,159.3z"></path><g id="character-2"><linearGradient id="SVGID_00000098182741626251647160000013564819390506519956_-RjMnX5nf96" gradientUnits="userSpaceOnUse" x1="257.0267" y1="360.1202" x2="246.7667" y2="219.3602" gradientTransform="matrix(1 0 0 -1 0 502)"><stop offset="0" style="stop-color: rgb(243, 131, 116);"></stop><stop offset="1" style="stop-color: rgb(198, 66, 52);"></stop></linearGradient><path d="M298.6,247.1L280.8,201
			c-6.7-17.5-25.4-27.2-43.6-22.7l0,0c-18.8,4.6-34.5,22.7-35.3,45.3l-2.6,76.8L298.6,247.1z" style="fill: url(&quot;#SVGID_00000098182741626251647160000013564819390506519956_-RjMnX5nf96&quot;);"></path><linearGradient id="SVGID_00000103984652260525466360000017078590994705411491_-RjMnX5nf96" gradientUnits="userSpaceOnUse" x1="254.4611" y1="358.4207" x2="244.7411" y2="225.0306" gradientTransform="matrix(1 0 0 -1 0 502)"><stop offset="0" style="stop-color: rgb(243, 131, 116);"></stop><stop offset="1" style="stop-color: rgb(198, 66, 52);"></stop></linearGradient><path d="M139.6,294l67.9-52.1
			c0,0,21.7-15.1,56.3-12.2l51.9,7.4c20.9,3,35.5,22.3,32.7,43.3l0,0c-2.8,21.1-22.2,35.9-43.3,33.1c-0.8-0.1-1.5-0.2-2.3-0.4
			L246.4,302l-67.8,42.6L139.6,294z" style="fill: url(&quot;#SVGID_00000103984652260525466360000017078590994705411491_-RjMnX5nf96&quot;);"></path><path class="st4" d="M178.6,344.6c-3.8,2.9-7.9,5.5-12,7.9c0,0-73.6-43.5-47.3-46.9c6.4,0,10.2-3.4,20.3-11.7
			C152.6,311,169,332,178.6,344.6z"></path><path class="st1" d="M166.6,352.5L138,369.6l-50.6-65.5l31.9,1.5c0,0-8.8,4.6,10.3,17.6C153.8,339.7,172,347,166.6,352.5z"></path><path class="st0" d="M169.6,308.2c-0.3,0-0.6-0.2-0.8-0.4c-0.3-0.5-0.2-1.1,0.2-1.5l50-36.1c0.2-0.1,21.7-17.6,53.5-16.3
			c0.1,0,0.1,0,0.2,0l76,20c0.6,0.1,0.9,0.7,0.7,1.3c-0.1,0.6-0.7,0.9-1.3,0.7L272.2,256c-30.8-1.3-51.8,15.7-52,15.9l-50,36.1
			C170,308.1,169.8,308.2,169.6,308.2z"></path><path class="st1" d="M190.7,336.7c-0.3,0-0.6-0.1-0.8-0.4l-38.6-49.6c-0.4-0.4-0.3-1.1,0.1-1.4c0,0,0,0,0.1-0.1
			c0.4-0.4,1.1-0.3,1.4,0.1c0,0,0,0,0.1,0.1l38.6,49.6c0.4,0.4,0.4,1,0,1.4C191.2,336.6,191,336.7,190.7,336.7L190.7,336.7z"></path><path class="st1" d="M200.9,248c-0.3,0-0.7-0.2-0.9-0.4c-0.3-0.4-0.2-1.1,0.2-1.4c0,0,0,0,0.1,0c0.3-0.2,30.3-21,60.4-17.1l32,4.6
			c0.6,0.1,1,0.6,0.9,1.2s-0.6,1-1.2,0.9l-32-4.6c-29.3-3.7-58.7,16.6-59,16.8C201.3,247.9,201.1,248,200.9,248z"></path></g><path class="st4" d="M370.5,329.6c0,0,12.4,20.4,61.8,16.9c3.4-0.2,6.9,10.4,9.7,12.6s7.1,1.5,7.9-1.1c0,0,5,2.4,8.9-1
		c2.3-1.7,3-4.8,1.9-7.4l-6.6-12.6l7.6,0.1c0,0,4.1-1.4,1.5-6.3c0,0-5.6-3.2-7.4-4.4s-8.2-10.4-14.7-14.2s-20.5-11.2-20.5-11.2
		L370.5,329.6z"></path><path class="st5" d="M453.9,336.8c-0.5,0-0.9-0.3-1-0.7c0-0.1-3-9.8-7.5-16.2c-0.3-0.5-0.2-1.1,0.3-1.4c0.5-0.3,1.1-0.2,1.4,0.3
		c4.6,6.6,7.6,16.4,7.7,16.8c0.2,0.5-0.1,1.1-0.6,1.3c0,0-0.1,0-0.1,0C454.1,336.8,454,336.8,453.9,336.8z"></path><path class="st5" d="M449.8,358.9c-0.5,0-0.9-0.3-1-0.8c0-0.1-3-14.1-5.6-18.2s-8.9-8.1-9-8.2c-0.5-0.3-0.6-1-0.3-1.4
		s1-0.6,1.4-0.3c0.3,0.2,6.8,4.4,9.6,8.8s5.8,18.3,5.9,18.9c0.1,0.5-0.2,1.1-0.7,1.2c0,0-0.1,0-0.1,0L449.8,358.9z"></path><path class="st4" d="M440.4,354.4c0,0-2.9,3.3-8.4,1.6s-9.1-13.4-19-15.9C413,340,431.1,332,440.4,354.4z"></path><path class="st5" d="M440.4,355.5c-0.4,0-0.8-0.2-1-0.6c0-0.1-3.8-9.1-6.5-11.8c-2.9-2.8-6.6-6.3-6.6-6.3l1.4-1.5
		c0,0,3.7,3.5,6.6,6.4s6.8,12.1,6.9,12.5c0.2,0.5,0,1.1-0.6,1.4C440.7,355.4,440.6,355.5,440.4,355.5z"></path><linearGradient id="SVGID_00000055669711323440310800000010659205524592200326_-RjMnX5nf96" gradientUnits="userSpaceOnUse" x1="251.3272" y1="414.9745" x2="310.1371" y2="322.6746" gradientTransform="matrix(1 0 0 -1 0 502)"><stop offset="0" style="stop-color: rgb(10, 107, 91);"></stop><stop offset="0.78" style="stop-color: rgb(0, 81, 70);"></stop><stop offset="0.91" style="stop-color: rgb(0, 80, 69);"></stop></linearGradient><path d="M331.3,248.8l-19.4-3.6
		c-10-1.9-17.4-10.4-17.9-20.6l-1.7-39.3c0,0-2.1-17.2,20.2-14.3l45.2,8.4c0,0,7.7,2.8,3.3,25.2l-4.1,26c-1.9,12-13.1,20.1-25,18.3
		C331.7,248.8,331.5,248.8,331.3,248.8z" style="fill: url(&quot;#SVGID_00000055669711323440310800000010659205524592200326_-RjMnX5nf96&quot;);"></path><linearGradient id="SVGID_00000088816361057881295220000015408507080356737186_-RjMnX5nf96" gradientUnits="userSpaceOnUse" x1="248.2534" y1="434.2785" x2="340.5034" y2="289.4885" gradientTransform="matrix(1 0 0 -1 0 502)"><stop offset="0" style="stop-color: rgb(10, 107, 91);"></stop><stop offset="0.78" style="stop-color: rgb(0, 81, 70);"></stop><stop offset="0.91" style="stop-color: rgb(0, 80, 69);"></stop></linearGradient><path d="M357.7,179.4c0,0,14.5,5.6,19.2,19.6
		L422,301.6l-52.6,28.5l-35.2-83.8L357.7,179.4z" style="fill: url(&quot;#SVGID_00000088816361057881295220000015408507080356737186_-RjMnX5nf96&quot;);"></path><path class="st11" d="M321,209.7c-1,0-2,0-3-0.1c-7-0.6-11.4-3-13.3-7.2c-4.7-10.9,9.9-29.6,10.6-30.4c0.3-0.4,1-0.5,1.4-0.2
		c0,0,0,0,0.1,0c0.4,0.3,0.6,0.9,0.2,1.4c0,0,0,0.1-0.1,0.1c-0.1,0.2-14.5,18.5-10.3,28.3c1.5,3.5,5.4,5.5,11.5,6
		c27.5,2.2,38.4-28.2,38.5-28.5c0.2-0.6,0.8-0.8,1.3-0.7s0.8,0.8,0.7,1.3l0,0C358.6,180,347.9,209.7,321,209.7z"></path><path class="st11" d="M358.9,308.3c-0.6,0.1-1-0.4-1.1-0.9c0-0.3,0.1-0.6,0.3-0.8c0.1-0.1,8.2-10.7,15.9-22.7
		c12.6-19.9,14.1-28.3,13.1-31.8c-0.3-1.2-1.1-2.2-2.2-2.6c-13.8-5.7-43.6,11-43.9,11.1c-0.5,0.3-1.1,0.1-1.4-0.4s-0.1-1.1,0.4-1.4
		c1.3-0.7,31-17.4,45.7-11.2c1.7,0.7,3,2.2,3.4,4c3.6,13.5-28,54.6-29.4,56.4C359.6,308.2,359.2,308.3,358.9,308.3z"></path><circle class="st11" cx="380.1" cy="277.7" r="6.1"></circle><path class="st1" d="M335.8,250c-0.5,0-0.9-0.3-1-0.8l-7.2-29.8c0,0,0-0.1,0-0.1c-0.1-0.7-1.6-17.9,10-26.8
		c0.5-0.4,1.1-0.3,1.5,0.2s0.3,1.1-0.2,1.5l0,0c-10.4,7.9-9.3,23.7-9.2,24.9l7.2,29.7c0.1,0.6-0.2,1.1-0.8,1.3
		C336,250,335.9,250,335.8,250z"></path><path class="st1" d="M286.4,217.3c-0.6,0-1-0.4-1-1c-1-20.1,7.9-38.3,8-38.5c0.3-0.5,0.9-0.7,1.4-0.5c0.5,0.3,0.7,0.9,0.5,1.4
		c-0.1,0.2-8.7,17.9-7.8,37.5c0,0.6-0.4,1-0.9,1.1C286.6,217.2,286.6,217.3,286.4,217.3L286.4,217.3z"></path><g id="phone"><path class="st1" d="M248.5,219l33.5-1.7c4.6-0.2,8.1-4.1,7.9-8.7c0-0.8-0.2-1.5-0.4-2.3l-21.9-64c-1.2-3.5-4.6-5.8-8.3-5.6
			l-33.6,1.8c-4.6,0.2-8.1,4.2-7.9,8.7c0,0.8,0.2,1.5,0.4,2.3l21.9,64C241.4,216.9,244.8,219.2,248.5,219z"></path><path class="st1" d="M248,220.1c-4,0-7.5-2.5-8.8-6.3l-21.9-64c-1.7-4.9,0.9-10.2,5.8-11.9c0.8-0.3,1.7-0.4,2.5-0.5l33.6-1.8
			c4.2-0.2,8,2.4,9.3,6.3l21.9,64c1.7,4.9-0.9,10.2-5.8,11.9c-0.8,0.3-1.7,0.4-2.5,0.5l-33.6,1.8L248,220.1L248,220.1z M248.4,219
			L248.4,219z M259.6,137.7h-0.4l-33.6,1.8c-4,0.2-7.1,3.6-6.9,7.6c0,0.7,0.2,1.3,0.4,2l21.9,64c1.1,3.1,4,5.1,7.2,4.9l33.6-1.8
			c4-0.2,7.1-3.6,6.9-7.6c0-0.7-0.2-1.3-0.4-2l-21.9-64C265.5,139.7,262.8,137.7,259.6,137.7L259.6,137.7z"></path><path class="st0" d="M243,219.3l33.6-1.8c4.6-0.2,8.1-4.2,7.9-8.7c0-0.8-0.2-1.5-0.4-2.3l-21.9-64c-1.2-3.5-4.6-5.8-8.3-5.6
			l-33.6,1.8c-4.6,0.2-8.1,4.2-7.9,8.7c0,0.8,0.2,1.5,0.4,2.3l21.9,64C235.9,217.2,239.3,219.5,243,219.3z"></path><path class="st1" d="M242.5,220.4c-4,0-7.5-2.5-8.8-6.3l-21.9-64c-1.7-4.9,0.9-10.2,5.8-11.9c0.8-0.3,1.7-0.4,2.5-0.5l33.6-1.7
			c4.2-0.2,8,2.4,9.3,6.3l21.9,64c1.7,4.9-0.9,10.2-5.8,11.9c-0.8,0.3-1.7,0.4-2.5,0.5l-33.6,1.7L242.5,220.4z M254.2,138h-0.4
			l-33.6,1.8c-4,0.2-7.1,3.6-6.9,7.6c0,0.7,0.2,1.3,0.4,2l21.9,64c1,3.1,4,5.1,7.2,4.9l0,0l33.6-1.8c4-0.2,7.1-3.6,6.9-7.6
			c0-0.7-0.2-1.3-0.4-2l-21.9-64C260.1,140,257.3,138,254.2,138z"></path><path class="st1" d="M239.9,151.1l11.2-0.6c2.1-0.1,3.8-1.9,3.7-4.1c0-0.4-0.1-0.8-0.3-1.2l0,0c-0.6-1.6-2.2-2.6-3.8-2.5
			l-11.2,0.6c-2.1,0.1-3.8,1.9-3.7,4.1c0,0.4,0.1,0.8,0.3,1.2l0,0C236.6,150.2,238.2,151.2,239.9,151.1z"></path><path class="st0" d="M250.4,150.5h0.7c2.1-0.1,3.8-1.9,3.7-4.1c0-0.4-0.1-0.8-0.3-1.2l0,0c-0.6-1.6-2.2-2.6-3.8-2.5H250
			c-2.2,0.1-3.8,2-3.7,4.1c0,0.4,0.1,0.8,0.3,1.2l0,0C247.2,149.6,248.7,150.6,250.4,150.5z"></path><path class="st1" d="M250.2,151.6c-2,0-3.9-1.2-4.6-3.1c-1-2.5,0.3-5.4,2.8-6.4c0.5-0.2,1-0.3,1.5-0.3h0.7
			c2.1-0.1,4.1,1.2,4.9,3.1c1,2.5-0.3,5.4-2.8,6.4c-0.5,0.2-1,0.3-1.5,0.3h-0.7H250.2z M250.4,150.5L250.4,150.5z M250.9,143.8h-0.2
			H250c-1.6,0.1-2.8,1.4-2.7,3s1.4,2.8,3,2.7h0.7c0.9,0,1.8-0.5,2.3-1.3c0.9-1.3,0.5-3.1-0.9-3.9
			C251.9,143.9,251.4,143.7,250.9,143.8L250.9,143.8z"></path></g><g id="hand"><path class="st4" d="M197.6,173.8c0,0,0.8-9.3,6.4-13.9c4.2-3.5,12.3-5.6,22.7-3.5c8,1.6,22.5,5.6,27.1,9.8
			c4.6,4.3,4.1,10.6-1.4,11.8c0,0,9.9,9.4,2.6,17.3c0,0,4.7,6.5-0.5,12.1s-10.9,4.6-18.4,11.6c-4.1,3.4-13.7,3.8-24.3-7.5
			S197.6,173.8,197.6,173.8z"></path><path class="st4" d="M197.9,171.8c0,0-4-21.1,4.4-27.5s13.4,1.7,14.6,5s2.1,7.8-2.6,11.1S197.9,171.8,197.9,171.8z"></path><path class="st5" d="M197.6,174.8c-0.1,0-0.2,0-0.3,0c-0.6-0.2-0.9-0.7-0.7-1.3c0.1-0.4,2.3-8.5,7.8-13.8s11-5.3,11.2-5.3
			c0.6,0,1,0.5,1,1s-0.5,1-1,1l0,0c-0.2,0-4.9,0.1-9.7,4.7c-5.1,4.9-7.2,12.8-7.2,12.8C198.5,174.5,198.1,174.9,197.6,174.8z"></path><path class="st5" d="M252.4,178.9c-0.2,0-0.4,0-0.5-0.1c-0.1-0.1-9.8-5.8-15.4-8.4c-3.4-1.5-7.1-2-10.8-1.3
			c-0.6,0.1-1.1-0.2-1.2-0.8c-0.1-0.6,0.2-1.1,0.8-1.2c4.1-0.8,8.3-0.2,12.1,1.5c5.7,2.7,15.5,8.4,15.6,8.5c0.5,0.1,0.9,0.7,0.7,1.2
			S253,179.1,252.4,178.9L252.4,178.9L252.4,178.9z"></path><path class="st5" d="M255,196.3c-0.2,0-0.4-0.1-0.5-0.1c-0.1-0.1-9.3-5.3-16.8-6.1s-11.4,0.9-11.4,0.9c-0.5,0.2-1.1,0-1.4-0.6
			c-0.2-0.5,0-1.1,0.6-1.4c0.2-0.1,4.4-1.8,12.4-1s17.3,6.1,17.7,6.3c0.6,0.1,0.9,0.7,0.7,1.3C256.1,196.2,255.6,196.5,255,196.3
			L255,196.3z"></path><path class="st5" d="M231.3,213.1c-0.5,0.1-1.1-0.2-1.2-0.8c-0.1-0.5,0.1-0.9,0.6-1.1c3.9-2.8,11-2.6,11.3-2.6c0.6,0,1,0.5,1,1.1
			s-0.5,1-1.1,1c-0.1,0-6.8-0.1-10.1,2.2C231.7,213,231.5,213.1,231.3,213.1z"></path></g><path class="st0" d="M269.9,151.5L269.9,151.5c1.5-0.5,3.2,0.3,3.7,1.9l5.8,17.4c0.5,1.5-0.3,3.2-1.9,3.7l0,0
		c-1.5,0.5-3.2-0.3-3.7-1.9l-5.8-17.4C267.5,153.7,268.3,152,269.9,151.5z"></path><path class="st1" d="M276.6,175.7c-1.7,0-3.2-1.1-3.8-2.7l-5.8-17.4c-0.5-2.2,0.9-4.3,3-4.8c1.8-0.4,3.7,0.5,4.5,2.3l5.8,17.4
		c0.7,2.1-0.5,4.3-2.5,5l0,0C277.4,175.6,277,175.7,276.6,175.7z M277.5,174.5L277.5,174.5z M270.8,152.4c-0.2,0-0.4,0-0.6,0.1
		c-1,0.3-1.5,1.4-1.2,2.4l5.8,17.4c0.3,1,1.4,1.5,2.4,1.2c0,0,0,0,0,0l0,0c0.5-0.2,0.9-0.5,1.1-0.9c0.2-0.5,0.3-1,0.1-1.4l-5.8-17.4
		c-0.2-0.5-0.5-0.9-1-1.1C271.4,152.5,271.1,152.4,270.8,152.4L270.8,152.4z"></path><path class="st0" d="M278.9,176.3L278.9,176.3c1.5-0.5,3.2,0.3,3.7,1.9l5.8,17.4c0.5,1.5-0.3,3.2-1.9,3.7l0,0
		c-1.5,0.5-3.2-0.3-3.7-1.9L277,180C276.5,178.5,277.3,176.8,278.9,176.3z"></path><path class="st1" d="M285.6,200.5c-1.7,0-3.2-1.1-3.8-2.7l-5.8-17.4c-0.9-2-0.1-4.4,1.9-5.3s4.4-0.1,5.3,1.9
		c0.1,0.3,0.2,0.6,0.3,0.9l5.8,17.4c0.3,1,0.3,2.1-0.2,3c-0.5,0.9-1.3,1.7-2.3,2C286.4,200.4,286,200.5,285.6,200.5z M279.8,177.2
		c-0.2,0-0.4,0-0.6,0.1c-1,0.3-1.5,1.4-1.2,2.4l5.8,17.4c0.3,1,1.4,1.5,2.4,1.2c0,0,0,0,0,0l0,0c1-0.3,1.5-1.4,1.2-2.4l-5.8-17.4
		C281.3,177.7,280.6,177.2,279.8,177.2z"></path></g><g id="line"><path class="st1" d="M485,381H11c-0.6,0-1-0.5-1-1c0-0.6,0.5-1,1-1h474c0.6,0,1,0.5,1,1C486,380.5,485.6,381,485,381z"></path></g></svg>