<svg transform="scale(1)" version="1.1" id="n33IVNQvfF" xmlns="http://www.w3.org/2000/svg" xmlns:xlink="http://www.w3.org/1999/xlink" x="0px" y="0px" viewBox="0 0 500 500" xml:space="preserve" class="pbimage_pbimage__wrapper__image__0LEis false"><title>HTML</title><style type="text/css"> .st0{fill:#000111;} .st1{fill:#FFFFFF;} .st2{fill:url(#SVGID_1_-n33IVNQvfF);} .st3{fill:#FED490;} .st4{fill:url(#SVGID_00000015330565801897527330000007018608372098972557_-n33IVNQvfF);} .st5{fill:url(#SVGID_00000153682877914720693750000004279945674785220268_-n33IVNQvfF);}
 .st3{fill:#FED490;}
 .st1{fill:#FFFFFF;}
 .st0{fill:#000111;}</style><g id="computer"><polygon class="st0" points="267.7,296.4 158.2,296.4 136.2,353 245.7,353 	" fill="#000111"></polygon><path class="st0" d="M245.7,354.1H136.2c-0.4,0-0.7-0.2-0.9-0.5c-0.2-0.3-0.3-0.7-0.1-1.1l22-56.5c0.2-0.4,0.6-0.7,1.1-0.7h109.5
		c0.6,0,1.1,0.5,1.1,1.2c0,0.1,0,0.3-0.1,0.4l-22,56.5C246.6,353.8,246.2,354.1,245.7,354.1z M137.9,351.8H245l21.1-54.2H159
		L137.9,351.8z" fill="#000111"></path><polygon class="st1" points="256.1,296.4 146.6,296.4 124.6,353 234.1,353 	" fill="#FFFFFF"></polygon><path class="st0" d="M234.1,354.1H124.6c-0.4,0-0.7-0.2-0.9-0.5c-0.2-0.3-0.3-0.7-0.1-1.1l22-56.5c0.2-0.4,0.6-0.7,1.1-0.7h109.5
		c0.6,0,1.1,0.5,1.1,1.2c0,0.1,0,0.3-0.1,0.4l-22,56.5C235,353.8,234.6,354.1,234.1,354.1z M126.2,351.8h107.1l21.1-54.2H147.3
		L126.2,351.8z" fill="#000111"></path><rect class="st1" x="92.3" y="348.1" width="194.3" height="13" fill="#FFFFFF"></rect><path class="st0" d="M286.6,362.3H92.3c-0.6,0-1.1-0.5-1.2-1.1v-13c0-0.6,0.5-1.1,1.2-1.1h194.3c0.6,0,1.1,0.5,1.1,1.1v13
		C287.8,361.8,287.3,362.3,286.6,362.3z M93.4,360h192v-10.7h-192L93.4,360z" fill="#000111"></path><rect class="st0" x="220.6" y="348.1" width="66" height="13" fill="#000111"></rect><path class="st0" d="M286.6,362.3h-66c-0.6,0-1.1-0.5-1.1-1.1v-13c0-0.6,0.5-1.1,1.1-1.1h66c0.6,0,1.1,0.5,1.1,1.1v13
		C287.8,361.8,287.3,362.3,286.6,362.3z M221.8,360h63.7v-10.7h-63.7V360z" fill="#000111"></path><path class="st0" d="M371,262.7H55.9l30-181.4c1.3-6.8,7-11.8,13.9-12H391c6.6,0,11.1,5.4,10,12L371,262.7z" fill="#000111"></path><path class="st0" d="M371,263.9H55.9c-0.3,0-0.7-0.1-0.9-0.4c-0.2-0.3-0.3-0.6-0.2-0.9l30-181.4c1.4-7.3,7.6-12.7,15.1-12.9H391
		c3.3-0.1,6.5,1.3,8.7,3.8c2.2,2.6,3,6.1,2.4,9.4l-30,181.3C372,263.4,371.6,263.8,371,263.9z M57.2,261.6H370l29.9-180.4
		c0.5-2.7-0.1-5.5-1.9-7.6c-1.8-2-4.3-3.1-7-3H99.8c-6.3,0.2-11.6,4.8-12.8,11L57.2,261.6z" fill="#000111"></path><linearGradient id="SVGID_1_-n33IVNQvfF" gradientUnits="userSpaceOnUse" x1="131.4128" y1="541.0665" x2="240.9128" y2="396.1165" gradientTransform="matrix(1 0 0.33 -1 -168.4 502)"><stop offset="0" style="stop-color: rgb(10, 107, 91);"></stop><stop offset="0.78" style="stop-color: rgb(0, 81, 70);"></stop><stop offset="0.91" style="stop-color: rgb(0, 80, 69);"></stop></linearGradient><path class="st2" d="M66.6,253.5L95.1,81.4c0.3-1.6,1.6-2.7,3.2-2.8h291.2c1.3,0,2.3,1,2.4,2.2c0,0.2,0,0.4-0.1,0.6l-28.5,172.2
		H66.6z"></path><path class="st1" d="M371,262.7H55.9l-4.2,25.6c-1.1,6.6,3.4,12,10,12h291.1c6.9-0.2,12.7-5.2,13.9-12L371,262.7z" fill="#FFFFFF"></path><path class="st0" d="M352.8,301.4H61.6c-3.3,0.1-6.5-1.3-8.7-3.9c-2.2-2.6-3.1-6.1-2.4-9.4l4.2-25.6c0.1-0.6,0.6-1,1.1-1H371
		c0.6,0,1.1,0.5,1.2,1.1c0,0.1,0,0.1,0,0.2l-4.2,25.6C366.5,295.8,360.3,301.1,352.8,301.4z M56.9,263.9l-4.1,24.6
		c-0.5,2.7,0.2,5.5,1.9,7.6c1.8,2,4.3,3.1,7,3h291.1c6.3-0.2,11.6-4.8,12.8-11l4-24.2L56.9,263.9z" fill="#000111"></path><ellipse class="st1" transform="matrix(0.7356 -0.6774 0.6774 0.7356 -134.1578 216.6933)" cx="210.5" cy="280.2" rx="8.4" ry="7.1" fill="#FFFFFF"></ellipse><path class="st0" d="M209.2,289.1c-2.3,0.1-4.5-0.9-5.9-2.6c-1.5-1.8-2.1-4.1-1.6-6.4c0.9-4.9,5.1-8.5,10.1-8.7
		c2.3-0.1,4.5,0.9,5.9,2.6c1.5,1.8,2.1,4.1,1.6,6.4C218.5,285.4,214.2,289,209.2,289.1z M211.8,273.7c-3.9,0.1-7.2,2.9-7.9,6.8
		c-0.3,1.6,0.1,3.3,1.1,4.6c1.1,1.2,2.6,1.9,4.2,1.8c3.9-0.1,7.2-2.9,7.9-6.8l0,0c0.3-1.6-0.1-3.3-1.1-4.6
		C214.9,274.3,213.4,273.6,211.8,273.7z" fill="#000111"></path><path class="st1" d="M387.4,101.9H91.3c-0.6,0-1.2-0.5-1.2-1.2s0.5-1.2,1.2-1.2h296.1c0.6,0,1.1,0.5,1.1,1.2S388,101.9,387.4,101.9
		z" fill="#FFFFFF"></path><ellipse class="st1" transform="matrix(0.7356 -0.6774 0.6774 0.7356 -31.6414 97.9005)" cx="109.6" cy="89.5" rx="5" ry="4.3" fill="#FFFFFF"></ellipse><ellipse class="st1" transform="matrix(0.7356 -0.6774 0.6774 0.7356 -27.5866 108.2878)" cx="124.9" cy="89.5" rx="5" ry="4.3" fill="#FFFFFF"></ellipse><ellipse class="st1" transform="matrix(0.7356 -0.6774 0.6774 0.7356 -23.5289 118.6757)" cx="140.3" cy="89.5" rx="5" ry="4.3" fill="#FFFFFF"></ellipse><polygon class="st3" points="366.8,158.6 304.4,158.6 312.1,111.7 374.5,111.7 	" fill="#FED490"></polygon><polygon class="st3" points="363.7,176.9 301.4,176.9 303.3,165.4 365.6,165.4 	" fill="#FED490"></polygon><polygon class="st3" points="360.9,193.9 298.5,193.9 300.4,182.4 362.8,182.4 	" fill="#FED490"></polygon><polygon class="st3" points="358.1,210.9 295.7,210.9 297.6,199.4 360,199.4 	" fill="#FED490"></polygon><polygon class="st3" points="355.3,227.9 292.9,227.9 294.8,216.4 357.2,216.4 	" fill="#FED490"></polygon><polygon class="st1" points="285.1,239.6 223.7,239.6 244.9,111.7 306.3,111.7 	" fill="#FFFFFF"></polygon><path class="st0" d="M296.9,122.6h-47.3c-0.6,0-1.1-0.5-1.1-1.2s0.5-1.2,1.1-1.2h47.3c0.6,0,1.1,0.5,1.1,1.2
		S297.6,122.6,296.9,122.6z" fill="#000111"></path><path class="st0" d="M295.5,131h-47.3c-0.6,0-1.2-0.5-1.2-1.1c0-0.6,0.5-1.2,1.2-1.2h47.3c0.6,0,1.1,0.5,1.1,1.2
		C296.7,130.5,296.2,131,295.5,131z" fill="#000111"></path><path class="st0" d="M294.1,139.5h-47.3c-0.6,0-1.2-0.5-1.2-1.2c0-0.6,0.5-1.1,1.2-1.1l0,0h47.3c0.6,0,1.1,0.5,1.1,1.1
		C295.3,138.9,294.8,139.5,294.1,139.5z" fill="#000111"></path><path class="st0" d="M292.8,147.9h-47.3c-0.6,0-1.1-0.5-1.1-1.2c0-0.6,0.5-1.1,1.1-1.1h47.3c0.6,0,1.1,0.5,1.1,1.1
		C293.9,147.4,293.4,147.9,292.8,147.9z" fill="#000111"></path><path class="st0" d="M291.4,156.3h-47.3c-0.6,0.1-1.2-0.4-1.3-1c-0.1-0.6,0.4-1.2,1-1.3c0.1,0,0.1,0,0.2,0h47.3
		c0.6-0.1,1.2,0.4,1.3,1c0.1,0.6-0.4,1.2-1,1.3C291.5,156.3,291.4,156.3,291.4,156.3z" fill="#000111"></path><path class="st0" d="M290,164.8h-47.3c-0.6-0.1-1.1-0.6-1-1.3c0.1-0.6,0.5-1,1-1H290c0.6,0.1,1.1,0.6,1,1.3
		C291,164.3,290.6,164.7,290,164.8z" fill="#000111"></path><path class="st0" d="M288.6,173.2h-47.3c-0.6,0.1-1.2-0.4-1.3-1c-0.1-0.6,0.4-1.2,1-1.3c0.1,0,0.1,0,0.2,0h47.3
		c0.6-0.1,1.2,0.4,1.3,1c0.1,0.6-0.4,1.2-1,1.3C288.7,173.2,288.6,173.2,288.6,173.2z" fill="#000111"></path><path class="st0" d="M287.2,181.6h-47.3c-0.6-0.1-1.1-0.6-1-1.3c0.1-0.6,0.5-1,1-1h47.3c0.6,0.1,1.1,0.6,1,1.3
		C288.2,181.1,287.7,181.6,287.2,181.6z" fill="#000111"></path><path class="st0" d="M285.8,190h-47.3c-0.6,0.1-1.2-0.4-1.3-1c-0.1-0.6,0.4-1.2,1-1.3c0.1,0,0.1,0,0.2,0h47.3
		c0.6-0.1,1.2,0.4,1.3,1c0.1,0.6-0.4,1.2-1,1.3C285.9,190,285.9,190,285.8,190z" fill="#000111"></path><path class="st0" d="M284.4,198.5h-47.3c-0.6-0.1-1.1-0.6-1-1.3c0.1-0.6,0.5-1,1-1h47.3c0.6,0.1,1.1,0.6,1,1.3
		C285.4,198,284.9,198.4,284.4,198.5z" fill="#000111"></path><path class="st0" d="M283,206.9h-47.3c-0.6,0.1-1.2-0.4-1.3-1c-0.1-0.6,0.4-1.2,1-1.3c0.1,0,0.1,0,0.2,0H283c0.6-0.1,1.2,0.4,1.3,1
		c0.1,0.6-0.4,1.2-1,1.3C283.1,206.9,283.1,206.9,283,206.9z" fill="#000111"></path><path class="st0" d="M281.6,215.3h-47.3c-0.6-0.1-1.1-0.6-1-1.3c0.1-0.6,0.5-1,1-1h47.3c0.6,0.1,1.1,0.6,1,1.3
		C282.6,214.8,282.2,215.3,281.6,215.3z" fill="#000111"></path><path class="st0" d="M280.2,223.8h-47.3c-0.6,0.1-1.2-0.4-1.3-1c-0.1-0.6,0.4-1.2,1-1.3c0.1,0,0.1,0,0.2,0h47.3
		c0.6-0.1,1.2,0.4,1.3,1c0.1,0.6-0.4,1.2-1,1.3C280.3,223.8,280.3,223.8,280.2,223.8z" fill="#000111"></path><path class="st0" d="M278.8,232.2h-47.3c-0.6-0.1-1.1-0.6-1-1.3c0.1-0.6,0.5-1,1-1h47.3c0.6,0.1,1.1,0.6,1,1.3
		C279.8,231.7,279.4,232.1,278.8,232.2z" fill="#000111"></path><path class="st1" d="M114.5,161.6h-0.2c-0.6-0.1-1-0.7-0.9-1.3c0,0,0,0,0,0l5.2-30.4c0.1-0.6,0.7-1,1.3-0.9c0.6,0.1,1,0.7,0.9,1.3
		c0,0,0,0,0,0l-5.2,30.4C115.5,161.2,115,161.6,114.5,161.6z" fill="#FFFFFF"></path><path class="st1" d="M133.8,161.6h-0.2c-0.6-0.1-1-0.7-0.9-1.3l5.2-30.4c0.1-0.6,0.6-1.1,1.3-1c0.6,0.1,1.1,0.6,1,1.3
		c0,0.1,0,0.1,0,0.2l-5.2,30.4C134.8,161.2,134.3,161.6,133.8,161.6z" fill="#FFFFFF"></path><path class="st1" d="M147.4,161.6h-0.2c-0.6-0.1-1-0.7-0.9-1.3c0,0,0,0,0,0l5.2-30.4c0.1-0.6,0.7-1,1.3-0.9c0.6,0.1,1,0.7,0.9,1.3
		l-5.2,30.4C148.4,161.2,147.9,161.6,147.4,161.6z" fill="#FFFFFF"></path><path class="st1" d="M207.4,161.6H192c-0.6,0-1.1-0.5-1.1-1.1c0-0.1,0-0.1,0-0.2l5.1-30.4c0.1-0.6,0.6-1.1,1.3-1
		c0.6,0.1,1.1,0.6,1,1.3c0,0.1,0,0.1,0,0.2l-5,29.1h14.1c0.6-0.1,1.2,0.4,1.3,1c0.1,0.6-0.4,1.2-1,1.3
		C207.5,161.6,207.4,161.6,207.4,161.6L207.4,161.6z" fill="#FFFFFF"></path><path class="st1" d="M135.8,145.5h-18.6c-0.6,0.1-1.2-0.4-1.3-1c-0.1-0.6,0.4-1.2,1-1.3c0.1,0,0.1,0,0.2,0h18.5
		c0.6-0.1,1.2,0.4,1.3,1c0.1,0.6-0.4,1.2-1,1.3C136,145.5,135.9,145.5,135.8,145.5L135.8,145.5z" fill="#FFFFFF"></path><path class="st1" d="M163.2,131.1H143c-0.6,0-1.1-0.5-1.1-1.1c0-0.6,0.5-1.2,1.1-1.2h20.2c0.6,0,1.1,0.5,1.1,1.2
		C164.4,130.6,163.8,131.1,163.2,131.1L163.2,131.1z" fill="#FFFFFF"></path><path class="st1" d="M184.5,162.1h-0.2c-0.6-0.1-1.1-0.7-1-1.3c0,0,0,0,0,0l3.9-26.7l-11.3,14.3c-0.3,0.3-0.7,0.5-1.1,0.4
		c-0.4-0.1-0.8-0.3-0.9-0.7l-5.2-13.7l-4,26.1c-0.1,0.6-0.7,1-1.4,0.9c-0.6-0.1-1-0.7-0.9-1.2l4.6-30.4c0.1-0.5,0.5-0.9,1-1
		c0.5-0.1,1,0.2,1.2,0.7l6.1,15.8l12.7-16.1c0.4-0.5,1.1-0.5,1.6-0.1c0.3,0.2,0.4,0.6,0.4,1l-4.5,31
		C185.5,161.7,185,162.1,184.5,162.1z" fill="#FFFFFF"></path><path class="st1" d="M212.7,162.8c-0.6,0-1.1-0.5-1.1-1.2c0-0.3,0.1-0.6,0.4-0.8l17.4-14.7L214,131.5c-0.4-0.5-0.4-1.2,0-1.6
		c0.4-0.4,1.1-0.4,1.6,0l16.3,15.5c0.5,0.4,0.5,1.2,0.1,1.6c0,0-0.1,0.1-0.1,0.1l-18.4,15.5C213.2,162.7,212.9,162.8,212.7,162.8z" fill="#FFFFFF"></path><path class="st1" d="M106.9,162c-0.4,0-0.7-0.2-0.9-0.5l-11.8-17.3c-0.3-0.5-0.2-1.1,0.2-1.5l16.8-15.5c0.5-0.4,1.2-0.4,1.6,0.1
		c0.4,0.5,0.4,1.2-0.1,1.6l-16.1,14.8l11.2,16.5c0.4,0.5,0.2,1.2-0.3,1.6c0,0,0,0,0,0C107.3,161.9,107.1,162,106.9,162z" fill="#FFFFFF"></path><path class="st1" d="M203.4,176.3h-99.3c-0.6,0-1.2-0.5-1.2-1.2c0-0.6,0.5-1.1,1.2-1.1l0,0h99.3c0.6,0,1.1,0.5,1.1,1.1
		C204.5,175.8,204,176.3,203.4,176.3z" fill="#FFFFFF"></path><path class="st1" d="M202.1,185.5h-99.3c-0.6,0-1.2-0.5-1.2-1.2c0-0.6,0.5-1.1,1.2-1.1l0,0h99.3c0.6,0,1.1,0.5,1.1,1.1
		C203.3,185,202.8,185.5,202.1,185.5z" fill="#FFFFFF"></path><path class="st1" d="M200.9,194.8h-99.3c-0.6,0-1.2-0.5-1.2-1.2c0-0.6,0.5-1.1,1.2-1.1h99.3c0.6,0,1.1,0.5,1.1,1.1
		C202,194.2,201.5,194.8,200.9,194.8z" fill="#FFFFFF"></path><path class="st1" d="M199.6,204h-99.3c-0.6,0.1-1.2-0.4-1.3-1c-0.1-0.6,0.4-1.2,1-1.3c0.1,0,0.1,0,0.2,0h99.3
		c0.6-0.1,1.2,0.4,1.3,1c0.1,0.6-0.4,1.2-1,1.3C199.7,204,199.7,204,199.6,204z" fill="#FFFFFF"></path></g><g id="light"><path class="st3" d="M295.5,41.4c-9.1,0.7-16.4,7.8-17.3,16.8c-0.9-9.1-8.2-16.1-17.3-16.8c9.1-0.7,16.4-7.8,17.3-16.8
		C279.1,33.6,286.4,40.7,295.5,41.4z"></path><path class="st3" d="M267.8,19c-4.9,0.3-8.8,4.1-9.2,9c-0.5-4.9-4.4-8.7-9.2-9c4.9-0.3,8.8-4.1,9.2-9C259,14.9,262.9,18.7,267.8,19
		z"></path></g><g id="line"><path class="st0" d="M308.9,362.3H74.1c-0.6,0-1.1-0.5-1.1-1.2c0-0.6,0.5-1.1,1.1-1.1h234.4c3.3-3.1,28-25.5,44.2-26.3
		c4.5-0.2,8.4,1.1,11,3.7c6.4-6.2,17.4-11.7,32.1-10.9c0.6,0,1.1,0.6,1.1,1.2c0,0.6-0.6,1.1-1.2,1.1c0,0,0,0,0,0
		c-14.6-0.8-24.8,4.7-30.5,10.4c0.3,0.5,0.6,0.9,0.8,1.5c1.9,3.9,1.7,8.7-0.5,11.3c-1.2,1.5-3.3,2.1-5.2,1.5
		c-2.4-0.7-3.5-2.9-2.9-5.8c0.8-3.2,2.4-6.1,4.7-8.5c-1.7-1.8-4.6-3.4-9.3-3.1c-16.1,0.8-42.8,25.8-43,26
		C309.5,362.2,309.2,362.3,308.9,362.3z M363.5,340.9c-1.8,2-3.2,4.4-3.9,7c-0.3,1.8,0.1,2.9,1.3,3.3c1,0.4,2.1,0.1,2.8-0.8
		c1.4-1.6,1.8-5.4,0.1-8.8C363.8,341.4,363.6,341.2,363.5,340.9z"></path></g><g id="pop_up"><linearGradient id="SVGID_00000085928878782397679640000002250202222052294539_-n33IVNQvfF" gradientUnits="userSpaceOnUse" x1="358.0244" y1="553.4919" x2="420.7144" y2="406.6819" gradientTransform="matrix(1 0 0 -1 0 502)"><stop offset="0" style="stop-color: rgb(243, 131, 116);"></stop><stop offset="1" style="stop-color: rgb(198, 66, 52);"></stop></linearGradient><path d="M440.4,134.5h6.5c3.6,0,6.7-2.6,7.3-6.2
		l16.1-96.7c0.7-4-2.1-7.8-6.1-8.5c-0.4-0.1-0.8-0.1-1.2-0.1H325.2c-3.5,0-6.4,2.4-7.2,5.8l-1.3,5.7L440.4,134.5z" style="fill: url(&quot;#SVGID_00000085928878782397679640000002250202222052294539_-n33IVNQvfF&quot;);"></path><polygon class="st1" points="454.9,35.3 307.1,35.3 289.3,148.5 315.1,148.5 315.1,172 338.6,148.5 437.1,148.5 	"></polygon><path class="st0" d="M315.1,173.1c-0.2,0-0.3,0-0.4-0.1c-0.4-0.2-0.7-0.6-0.7-1.1v-22.3h-24.7c-0.3,0-0.7-0.1-0.9-0.4
		c-0.2-0.3-0.3-0.6-0.3-0.9L306,35.1c0.1-0.6,0.6-1,1.1-1h147.8c0.6,0,1.1,0.5,1.1,1.1c0,0.1,0,0.1,0,0.2l-17.9,113.2
		c-0.1,0.6-0.6,1-1.1,1h-98l-23.2,23.1C315.7,173,315.4,173.1,315.1,173.1z M290.6,147.3h24.5c0.6,0,1.1,0.5,1.1,1.1c0,0,0,0,0,0
		v20.7l21.5-21.5c0.2-0.2,0.5-0.3,0.8-0.3h97.5l17.5-110.9H308.1L290.6,147.3z"></path><path class="st0" d="M450.9,55H304.5c-0.6,0-1.2-0.5-1.2-1.1s0.5-1.2,1.1-1.2c0,0,0,0,0,0h146.4c0.6,0,1.1,0.5,1.1,1.2
		C452.1,54.5,451.6,55,450.9,55z"></path><path class="st0" d="M320.4,50.2c-2.7,0-4.9-2.2-4.9-4.9c0-2.7,2.2-4.9,4.9-4.9c2.7,0,4.9,2.2,4.9,4.9c0,0,0,0,0,0
		C325.3,48,323.1,50.2,320.4,50.2z M320.4,42.7c-1.5,0-2.6,1.2-2.6,2.6c0,1.5,1.2,2.6,2.6,2.6c1.5,0,2.6-1.2,2.6-2.6c0,0,0,0,0,0
		C323,43.9,321.8,42.7,320.4,42.7z"></path><path class="st0" d="M334.5,50.2c-2.7,0-4.9-2.2-4.9-4.9c0-2.7,2.2-4.9,4.9-4.9c2.7,0,4.9,2.2,4.9,4.9c0,0,0,0,0,0
		C339.4,48,337.2,50.2,334.5,50.2z M334.5,42.7c-1.5,0-2.6,1.2-2.6,2.6c0,1.5,1.2,2.6,2.6,2.6c1.5,0,2.6-1.2,2.6-2.6c0,0,0,0,0,0
		C337.1,43.9,335.9,42.7,334.5,42.7z"></path><path class="st0" d="M348.6,50.2c-2.7,0-4.9-2.2-4.9-4.9c0-2.7,2.2-4.9,4.9-4.9c2.7,0,4.9,2.2,4.9,4.9c0,0,0,0,0,0
		C353.5,48,351.3,50.2,348.6,50.2z M348.6,42.7c-1.5,0-2.6,1.2-2.6,2.6c0,1.5,1.2,2.6,2.6,2.6c1.5,0,2.6-1.2,2.6-2.6c0,0,0,0,0,0
		C351.2,43.9,350.1,42.7,348.6,42.7z"></path><path class="st0" d="M423.8,72.3H310.3c-0.6-0.1-1.1-0.6-1-1.3c0.1-0.6,0.5-1,1-1h113.5c0.6,0.1,1.1,0.6,1,1.3
		C424.8,71.8,424.4,72.3,423.8,72.3z"></path><path class="st0" d="M422.2,81.5H308.7c-0.6,0.1-1.2-0.4-1.3-1c-0.1-0.6,0.4-1.2,1-1.3c0.1,0,0.1,0,0.2,0h113.5
		c0.6-0.1,1.2,0.4,1.3,1c0.1,0.6-0.4,1.2-1,1.3C422.3,81.5,422.3,81.5,422.2,81.5z"></path><path class="st0" d="M420.6,90.7H307.1c-0.6,0.1-1.2-0.4-1.3-1c-0.1-0.6,0.4-1.2,1-1.3c0.1,0,0.1,0,0.2,0h113.5
		c0.6-0.1,1.2,0.4,1.3,1c0.1,0.6-0.4,1.2-1,1.3C420.8,90.7,420.7,90.7,420.6,90.7z"></path><path class="st0" d="M419,99.8H305.5c-0.6-0.1-1.1-0.6-1-1.3c0.1-0.6,0.5-1,1-1H419c0.6-0.1,1.2,0.4,1.3,1c0.1,0.6-0.4,1.2-1,1.3
		C419.1,99.8,419.1,99.8,419,99.8z"></path><path class="st0" d="M357.2,137.1c-2.4,0.1-4.7-1.5-5.4-3.8c-0.5-1.3-0.5-3.2,2-5.2c2.9-2.4,9.3-4.5,17.2-6.1
		c0.8-3.5-0.6-6.4-3.9-8.4c-14.4-8.7-51.5,8.6-51.9,8.8c-0.6,0.3-1.3,0-1.5-0.5c-0.3-0.6,0-1.3,0.5-1.5c1.6-0.7,38.6-18.1,54-8.7
		c3.9,2.4,5.7,5.8,5.2,9.9c20.3-3.7,48.9-4.3,57,0.4c0.5,0.3,0.7,1,0.4,1.6c-0.3,0.5-1,0.7-1.6,0.4c-7.7-4.6-36.6-3.8-56.3,0
		c-2.2,6.4-9.6,12.9-15.3,13.2L357.2,137.1z M370.2,124.5c-6.9,1.5-12.4,3.3-14.9,5.4c-1.7,1.4-1.4,2.3-1.2,2.6
		c0.4,1.5,1.9,2.5,3.5,2.3C361.5,134.6,367.7,129.8,370.2,124.5L370.2,124.5z"></path></g><g id="keyboard"><path class="st0" d="M38.2,488.9h200c6.1,0,13-4.9,15.5-11l35.5-86.5c2.5-6.1-0.4-11-6.5-11h-200c-6.1,0-13,4.9-15.5,11l-35.5,86.5
		C29.2,483.9,32.1,488.9,38.2,488.9z"></path><path class="st0" d="M238.2,490h-200c-2.8,0.2-5.6-1.1-7.2-3.4c-1.6-2.4-1.7-5.7-0.3-9.2l35.6-86.5c2.7-6.5,10.1-11.7,16.6-11.7
		h200c2.8-0.2,5.5,1.1,7.2,3.4c1.6,2.4,1.7,5.7,0.3,9.1l-35.6,86.5C252.1,484.7,244.7,490,238.2,490z M82.8,381.5
		c-5.6,0-12.1,4.6-14.5,10.3l-35.5,86.5c-1.1,2.7-1.1,5.2,0.1,7c1.2,1.7,3.2,2.6,5.3,2.4h200c5.6,0,12.1-4.6,14.5-10.3l35.5-86.5
		c1.1-2.7,1.1-5.2-0.1-7c-1.3-1.6-3.3-2.6-5.3-2.4L82.8,381.5z"></path><path class="st1" d="M41.6,480.6h192c6.1,0,13-4.9,15.5-11l34.1-83.1c2.5-6.1-0.4-11-6.5-11h-192c-6.1,0-13,4.9-15.5,11l-34.1,83
		C32.6,475.7,35.5,480.6,41.6,480.6z"></path><path class="st0" d="M233.5,481.7H41.6c-2.8,0.2-5.6-1.1-7.2-3.4c-1.6-2.4-1.7-5.7-0.3-9.2l34.1-83c2.7-6.5,10.1-11.7,16.6-11.7
		h192c2.8-0.2,5.6,1.1,7.2,3.4c1.6,2.4,1.7,5.7,0.3,9.2l-34.2,83C247.4,476.5,240,481.7,233.5,481.7z M84.7,376.7
		c-5.7,0-12.1,4.6-14.5,10.3l-34.1,83c-1.1,2.7-1.1,5.2,0.1,7c1.2,1.7,3.3,2.6,5.3,2.4h192c5.6,0,12.1-4.6,14.5-10.3l34.1-83
		c1.1-2.7,1.1-5.3-0.1-7c-1.2-1.7-3.2-2.6-5.3-2.4L84.7,376.7z"></path><path class="st1" d="M62.3,454H234c3.8,0,8.2-3.1,9.8-6.9l19.1-46.5c1.6-3.8-0.2-7-4.1-7H87.1c-3.8,0-8.2,3.1-9.8,7L58.2,447
		C56.6,450.9,58.4,454,62.3,454z"></path><path class="st0" d="M234,455.1H62.3c-1.9,0.1-3.8-0.8-4.9-2.4c-1.1-1.9-1.2-4.2-0.2-6.2l19.1-46.5c1.8-4.3,6.5-7.6,10.8-7.6h171.7
		c1.9-0.1,3.8,0.8,4.9,2.4c1.1,1.9,1.2,4.2,0.2,6.2l-19.1,46.5C243.1,451.8,238.3,455.1,234,455.1z M87.1,394.7
		c-3.3,0-7.3,2.9-8.7,6.2l-19.1,46.5c-0.7,1.3-0.7,2.7,0,4c0.7,0.9,1.8,1.4,3,1.3H234c3.3,0,7.3-2.9,8.7-6.2l19.1-46.5
		c0.7-1.3,0.7-2.7,0-4c-0.7-0.9-1.8-1.4-3-1.3L87.1,394.7z"></path><linearGradient id="SVGID_00000159447135175411787890000000295690373983405729_-n33IVNQvfF" gradientUnits="userSpaceOnUse" x1="93.8987" y1="105.6859" x2="141.9887" y2="34.7759" gradientTransform="matrix(1 0 0 -1 0 502)"><stop offset="0" style="stop-color: rgb(243, 131, 116);"></stop><stop offset="1" style="stop-color: rgb(198, 66, 52);"></stop></linearGradient><path d="M116.8,475.8h45.4
		c1.9-0.1,3.6-1.3,4.4-3.1l3.7-9c0.7-1.7-0.1-3.1-1.8-3.1h-45.4c-1.9,0.1-3.6,1.3-4.3,3.1l-3.7,9
		C114.3,474.4,115.1,475.8,116.8,475.8z" style="fill: url(&quot;#SVGID_00000159447135175411787890000000295690373983405729_-n33IVNQvfF&quot;);"></path><path class="st0" d="M178.5,454.9c-0.6,0-1.1-0.5-1.1-1.2c0-0.2,0-0.3,0.1-0.4l24.5-59.6c0.2-0.6,0.9-0.9,1.5-0.6
		c0.6,0.2,0.9,0.9,0.6,1.5c0,0,0,0,0,0l-24.5,59.6C179.4,454.6,179,454.9,178.5,454.9z"></path><path class="st0" d="M199.8,454.9c-0.1,0-0.3,0-0.4-0.1c-0.6-0.2-0.9-0.9-0.6-1.5c0,0,0,0,0,0l24.5-59.6c0.3-0.6,1-0.8,1.5-0.5
		c0.5,0.3,0.7,0.8,0.6,1.4l-24.5,59.6C200.7,454.6,200.2,454.9,199.8,454.9z"></path><path class="st0" d="M221,454.9c-0.1,0-0.3,0-0.4-0.1c-0.6-0.2-0.9-0.9-0.6-1.5c0,0,0,0,0,0l24.5-59.6c0.3-0.6,1-0.8,1.5-0.5
		c0.5,0.3,0.7,0.8,0.6,1.4l-24.5,59.6C221.9,454.6,221.5,454.9,221,454.9z"></path><path class="st0" d="M158.8,454.9c-0.2,0-0.3,0-0.4-0.1c-0.6-0.2-0.9-0.9-0.6-1.5l24.5-59.6c0.3-0.6,1-0.8,1.5-0.5
		c0.5,0.3,0.7,0.8,0.6,1.4l-24.5,59.6C159.7,454.6,159.3,454.9,158.8,454.9z"></path><path class="st0" d="M116.6,454.9c-0.2,0-0.3,0-0.4-0.1c-0.6-0.2-0.9-0.9-0.6-1.5l24.5-59.6c0.2-0.6,0.9-0.9,1.5-0.6
		c0.6,0.2,0.9,0.9,0.6,1.5c0,0,0,0,0,0l-24.5,59.6C117.5,454.6,117.1,454.9,116.6,454.9z"></path><path class="st0" d="M95.4,454.9c-0.1,0-0.3,0-0.4-0.1c-0.6-0.2-0.9-0.9-0.6-1.5c0,0,0,0,0,0l24.5-59.6c0.3-0.6,1-0.8,1.5-0.5
		c0.5,0.3,0.7,0.8,0.6,1.4l-24.5,59.6C96.3,454.6,95.8,454.9,95.4,454.9z"></path><path class="st0" d="M74.1,454.9c-0.1,0-0.3,0-0.4-0.1c-0.6-0.2-0.9-0.9-0.6-1.5c0,0,0,0,0,0l24.5-59.6c0.3-0.6,1-0.8,1.5-0.5
		c0.5,0.3,0.7,0.8,0.6,1.4l-24.5,59.6C75,454.6,74.6,454.9,74.1,454.9z"></path><path class="st0" d="M136.4,454.9c-0.2,0-0.3,0-0.4-0.1c-0.6-0.2-0.9-0.9-0.6-1.5c0,0,0,0,0,0l24.5-59.6c0.3-0.6,1-0.8,1.5-0.5
		c0.5,0.3,0.7,0.8,0.6,1.4l-24.5,59.6C137.2,454.6,136.8,454.9,136.4,454.9z"></path><path class="st0" d="M253.5,425.7H67.6c-0.6-0.1-1.1-0.6-1-1.3c0.1-0.6,0.5-1,1-1h185.9c0.6-0.1,1.2,0.4,1.3,1
		c0.1,0.6-0.4,1.2-1,1.3C253.7,425.7,253.6,425.7,253.5,425.7z"></path><path class="st0" d="M259.9,410.2H74c-0.6,0-1.2-0.5-1.2-1.1c0-0.6,0.5-1.2,1.1-1.2c0,0,0,0,0,0h185.9c0.6,0,1.1,0.5,1.1,1.2
		C261,409.7,260.5,410.2,259.9,410.2L259.9,410.2z"></path><path class="st0" d="M247.2,441H61.3c-0.6,0.1-1.2-0.4-1.3-1c-0.1-0.6,0.4-1.2,1-1.3c0.1,0,0.1,0,0.2,0h185.9
		c0.6-0.1,1.2,0.4,1.3,1c0.1,0.6-0.4,1.2-1,1.3C247.4,441,247.3,441,247.2,441L247.2,441z"></path></g></svg>