<svg transform="scale(1)" version="1.1" id="g5yb900VZU" xmlns="http://www.w3.org/2000/svg" xmlns:xlink="http://www.w3.org/1999/xlink" x="0px" y="0px" viewBox="0 0 500 500" xml:space="preserve" class="pbimage_pbimage__wrapper__image__0LEis false"><title>Internet 1</title><style type="text/css"> .st0{fill:#FED490;} .st1{fill:#FFC2A7;} .st2{fill:#D88260;} .st3{fill:url(#SVGID_1_-g5yb900VZU);} .st4{fill:url(#SVGID_00000168820216922471835570000003573308033012962483_-g5yb900VZU);} .st5{fill:#000111;} .st6{fill:url(#SVGID_00000029046034734891409640000008106707535217911961_-g5yb900VZU);} .st7{fill:url(#SVGID_00000163765798318685673570000004615747742227568314_-g5yb900VZU);} .st8{fill:#FFFFFF;} .st9{fill:url(#SVGID_00000139263944146787786860000007580105220122522763_-g5yb900VZU);} .st10{fill:url(#SVGID_00000124139206053085021370000008727293694362938266_-g5yb900VZU);} .st11{fill:#005045;} .st12{fill:url(#SVGID_00000158012493109362519230000006271487921150522546_-g5yb900VZU);} .st13{fill:url(#SVGID_00000111904342533463124950000002056877270793044608_-g5yb900VZU);} .st14{fill:url(#SVGID_00000163753300399869643510000010185010353700949437_-g5yb900VZU);} .st15{fill:url(#SVGID_00000176022833656153298580000008301023053324457605_-g5yb900VZU);} .st16{fill:#FEF1E0;}
 .st16{fill:#FEF1E0;}
 .st11{fill:#005045;}
 .st8{fill:#FFFFFF;}
 .st5{fill:#000111;}
 .st2{fill:#D88260;}
 .st1{fill:#FFC2A7;}
 .st0{fill:#FED490;}</style><g id="light"><path class="st0" d="M420.9,50.9c-9.6,0.7-17.2,8.2-18.2,17.7c-1-9.5-8.7-17-18.2-17.7c9.6-0.7,17.2-8.2,18.2-17.7
		C403.6,42.8,411.3,50.3,420.9,50.9L420.9,50.9z" fill="#FED490"></path><path class="st0" d="M389.4,35.4c-5.1,0.4-9.2,4.4-9.7,9.5c-0.5-5.1-4.6-9.1-9.7-9.5c5.1-0.4,9.2-4.4,9.7-9.5
		C380.2,31,384.3,35,389.4,35.4z" fill="#FED490"></path><path class="st0" d="M82.2,232.8c-5.1,0.4-9.2,4.4-9.7,9.5c-0.5-5.1-4.6-9.1-9.7-9.5c5.1-0.4,9.2-4.4,9.7-9.5
		c0.2,2.4,1.3,4.7,3,6.4C77.3,231.5,79.7,232.6,82.2,232.8z" fill="#FED490"></path></g><g id="character"><path class="st1" d="M313.3,129.4l7.6-15.8c0,0-0.2-15.2,3.6-20.8s12.1-6.7,12.1-6.7l13-18.8l14.1-12.5c5.8-5.1,14.7-0.6,9.3,7.7
		l-9.3,10.7l-4.4,12.4c0,0,12.4,2.5,11,11.7c0,0,8.9,1.6,8.8,10.8c0,0,5.8,3.6,5.3,12.8l-4.6,20.8c-1.7,3.5-10,5.4-11.5-7.6
		c0,0-3.6,8.3-12.7,10.1l-6.7,14L313.3,129.4z"></path><path class="st2" d="M352.5,121.8h-0.2c-0.7-0.1-1.1-0.7-1-1.4c0.5-3.3-0.4-6.7-2.6-9.3c-2.9-3.8-2.1-9.2,1.7-12c0,0,0,0,0,0
		l1.8-1.3c1.2-3,1.4-5.6,0.6-7.7c-0.6-1.4-1.7-2.6-3.1-3.3l-13.1,0.6c-0.6,0-1.2-0.4-1.3-1.1c0,0,0,0,0-0.1c0-0.7,0.5-1.2,1.2-1.2
		l13.4-0.6c0.2,0,0.3,0,0.5,0.1c2.1,0.9,3.7,2.6,4.6,4.6c1.2,2.8,0.9,6.1-0.7,9.9c-0.1,0.2-0.2,0.4-0.4,0.5l-2,1.5
		c-2.7,2-3.3,5.9-1.3,8.6c0,0,0,0,0,0c2.5,3.1,3.6,7.2,3,11.2C353.6,121.4,353.1,121.8,352.5,121.8z"></path><path class="st2" d="M357.1,132.3c-0.5,0-1.1-0.1-1.6-0.2c-3.1-0.8-5.8-4.2-4.6-10c0,0,0-0.1,0-0.1l4.5-14l2.1-16.8
		c0.1-0.7,0.7-1.1,1.3-1.1s1.1,0.7,1.1,1.3c0,0,0,0,0,0l-2.1,16.9c0,0.1,0,0.1,0,0.2l-4.5,14c-0.9,4.4,1,6.6,2.9,7.1
		c1.9,0.5,3.8-0.5,4.4-2.4l0.1-0.1l7.6-16.2l1-13.8c0.1-0.7,0.6-1.2,1.3-1.1c0.7,0,1.2,0.6,1.1,1.3c0,0,0,0,0,0l-1,14
		c0,0.1,0,0.3-0.1,0.4l-7.7,16.3C362,130.6,359.7,132.3,357.1,132.3z"></path><path class="st2" d="M365.6,133.9c-2.2,0-4.2-1.1-6-3.3c-0.5-0.5-0.5-1.2,0-1.7c0.5-0.5,1.2-0.5,1.7,0c0,0,0.1,0.1,0.1,0.1
		c1.4,1.6,2.8,2.4,4.3,2.4c2.3,0,4.3-2.2,4.7-2.7l7-19.3c0.3-0.6,1-0.9,1.6-0.6c0.6,0.2,0.9,0.9,0.7,1.5l-7.1,19.5
		c0,0.1-0.1,0.2-0.2,0.3c-0.1,0.1-2.9,3.7-6.7,3.8H365.6z"></path><path class="st2" d="M353.5,145.5c-1.4,0-3.2,0-5-0.1c-0.7-0.1-1.2-0.6-1.1-1.3c0.1-0.6,0.5-1,1.1-1.1l0,0c3.5,0.1,7.1,0.1,7.1,0.1
		c0.7,0,1.2,0.5,1.2,1.2c0,0,0,0,0,0c0,0.7-0.5,1.2-1.2,1.2c0,0,0,0,0,0C355.7,145.5,354.8,145.5,353.5,145.5z"></path><path class="st2" d="M323.1,124.4c-0.3,0-0.6-0.1-0.8-0.3c-3.8-3.3-2.7-10.3-2.6-10.7c0.1-0.7,0.7-1.1,1.4-1c0.7,0.1,1.1,0.7,1,1.4
		c-0.3,1.7-0.5,6.4,1.8,8.4c0.5,0.4,0.6,1.2,0.1,1.7c0,0,0,0,0,0C323.8,124.2,323.5,124.4,323.1,124.4z"></path><linearGradient id="SVGID_1_-g5yb900VZU" gradientUnits="userSpaceOnUse" x1="249.2739" y1="467.7115" x2="218.584" y2="346.4615" gradientTransform="matrix(1 0 0 -1 0 502)"><stop offset="0" style="stop-color: rgb(243, 131, 116);"></stop><stop offset="1" style="stop-color: rgb(198, 66, 52);"></stop></linearGradient><path class="st3" d="M201.8,181.2l22.7,3.2c11.7,1.6,23-5,27.2-16l16.4-42.6c0,0,8.7-18.1-16.9-23.2l-52.8-7.5c0,0-9.5,0.2-13,26.5
		l-5.2,30.1c-2.4,13.8,6.9,26.9,20.7,29.3C201.3,181.2,201.5,181.2,201.8,181.2z"></path><linearGradient id="SVGID_00000048459747547241157730000013124099806776779650_-g5yb900VZU" gradientUnits="userSpaceOnUse" x1="318.9665" y1="450.0709" x2="288.2664" y2="328.8209" gradientTransform="matrix(1 0 0 -1 0 502)"><stop offset="0" style="stop-color: rgb(243, 131, 116);"></stop><stop offset="1" style="stop-color: rgb(198, 66, 52);"></stop></linearGradient><path d="M249.9,103l9.5,1.3c0,0,8,3.6,16.6,15.4
		l23.8,26.7l13.6-17l35.1,27.9L329,214.4c0,0-38.3,32.1-61.6,0.4l-27.2-34L249.9,103z" style="fill: url(&quot;#SVGID_00000048459747547241157730000013124099806776779650_-g5yb900VZU&quot;);"></path><g id="character-2"><path class="st5" d="M416.5,295.3l-70.4-70c0,0-22.7-20.6-62.9-22.4l-58.3,1.5l19,72l48.5,12.3l71.6,59L416.5,295.3z"></path><path class="st1" d="M188.7,327.5c-8.1,5.3-10.4,10.7-10.4,10.7s43.3,89.1,49.7,59.1c0.6-7.5,15.1-28.2,27-41
			C236.6,339.5,205.3,333.1,188.7,327.5z"></path><linearGradient id="SVGID_00000059280908858919009240000008388931655146451118_-g5yb900VZU" gradientUnits="userSpaceOnUse" x1="304.6738" y1="343.0429" x2="255.0038" y2="236.6029" gradientTransform="matrix(1 0 0 -1 0 502)"><stop offset="0" style="stop-color: rgb(10, 107, 91);"></stop><stop offset="0.78" style="stop-color: rgb(0, 81, 70);"></stop><stop offset="0.91" style="stop-color: rgb(0, 80, 69);"></stop></linearGradient><path d="M178.3,338.2l-22.5,31.4l11.4,10.4l0,0
			c3-1.4,6.6,0,7.9,3c0.4,0.8,0.5,1.6,0.5,2.5v2.3l51,46.4l1.2-37c0,0-6.2,9.7-19.4-13.5C191.9,354.2,185.2,332.5,178.3,338.2z" style="fill: url(&quot;#SVGID_00000059280908858919009240000008388931655146451118_-g5yb900VZU&quot;);"></path><path class="st1" d="M364.1,347.7c4,3.9,8.2,7.5,12.6,10.9c0,0,91-39.1,61.3-46.8c-7.4-1-11.2-5.5-21.6-16.4
			C399,312.9,377.1,334.6,364.1,347.7z"></path><linearGradient id="SVGID_00000064324389936166002470000007534473064513909653_-g5yb900VZU" gradientUnits="userSpaceOnUse" x1="471.43" y1="265.22" x2="421.76" y2="158.78" gradientTransform="matrix(1 0 0 -1 0 502)"><stop offset="0" style="stop-color: rgb(10, 107, 91);"></stop><stop offset="0.78" style="stop-color: rgb(0, 81, 70);"></stop><stop offset="0.91" style="stop-color: rgb(0, 80, 69);"></stop></linearGradient><path d="M376.8,358.6l30.3,23.9l11-11l0,0
			c-1.2-3.1,0.3-6.6,3.4-7.8c0.8-0.3,1.7-0.5,2.5-0.4l2.3,0.1l48.7-48.8l-36.9-3c0,0,9.4,6.6-14.5,18.7
			C393.4,345.8,371.4,351.4,376.8,358.6z" style="fill: url(&quot;#SVGID_00000064324389936166002470000007534473064513909653_-g5yb900VZU&quot;);"></path><path class="st5" d="M154.8,230L154.8,230c0,19,15.5,34.5,34.5,34.5h39.8l-40.3,63l66.3,28.7l57.2-77.2c8.4-8.4,13-19.7,13-31.5
			l0,0c0-24.8-19.4-42.3-45.1-44.5l-87.9-7.4c-19-1.6-35.7,12.5-37.3,31.5C154.8,228,154.8,229,154.8,230z"></path><path class="st8" d="M266.1,340.6c-0.1,0-0.3,0-0.4-0.1l-67.6-26.2c-0.6-0.3-0.9-1-0.6-1.6c0.3-0.5,0.9-0.8,1.4-0.6l67.6,26.2
			c0.6,0.3,0.9,1,0.7,1.6C267,340.3,266.6,340.6,266.1,340.6L266.1,340.6z"></path><path class="st8" d="M380,307.2c-0.3,0-0.6-0.1-0.8-0.3L327.1,258c-0.3-0.3-21.9-23-57.6-26l-112.6-5.5c-0.7,0-1.2-0.6-1.1-1.3
			c0-0.7,0.6-1.2,1.3-1.1l112.7,5.5c36.7,3.1,58.9,26.5,59.1,26.7l52,48.8c0.5,0.5,0.5,1.2,0,1.7C380.7,307.1,380.3,307.2,380,307.2
			L380,307.2z"></path><path class="st8" d="M351.6,336.8c-0.3,0-0.6-0.1-0.9-0.4c-0.5-0.5-0.5-1.2,0-1.7c0,0,0,0,0,0l51.7-51.3c0.5-0.5,1.3-0.4,1.7,0.1
			c0.4,0.5,0.4,1.2,0,1.6l-51.7,51.3C352.2,336.7,351.9,336.8,351.6,336.8z"></path><path class="st8" d="M298.7,295.6c-0.4,0-0.9-0.2-1.1-0.6l-15-27.5l-53.7-1.7c-0.7-0.1-1.2-0.6-1.1-1.3c0.1-0.6,0.5-1,1.1-1.1l0,0
			l54.4,1.7c0.4,0,0.8,0.3,1,0.6l15.3,28.1c0.3,0.6,0.1,1.3-0.5,1.6C299.1,295.5,298.9,295.5,298.7,295.6z"></path></g><linearGradient id="SVGID_00000080205231534501830600000010368822274013587111_-g5yb900VZU" gradientUnits="userSpaceOnUse" x1="212.9748" y1="476.9088" x2="182.2748" y2="355.6588" gradientTransform="matrix(1 0 0 -1 0 502)"><stop offset="0" style="stop-color: rgb(243, 131, 116);"></stop><stop offset="1" style="stop-color: rgb(198, 66, 52);"></stop></linearGradient><path d="M197.8,94.8c0,0-16.9,1.9-30.7,19.3
		l-55.7,65.2c-11.6,13.4-17.2,80.1,54.2,69.5l57.6-8.2l6.3-50.9l-28.9-6.2l14.6-24.6C215.2,159,208.3,99.1,197.8,94.8z" style="fill: url(&quot;#SVGID_00000080205231534501830600000010368822274013587111_-g5yb900VZU&quot;);"></path><path class="st1" d="M221.2,68.7c-2.6,5.9-2.6,12.5-0.1,18.4l0,0c5.1,11.8,18.7,17.2,30.5,12.2c11.8-5.1,17.2-18.7,12.2-30.5
		S245,51.6,233.2,56.6C227.8,59,223.5,63.3,221.2,68.7L221.2,68.7z"></path><ellipse class="st1" transform="matrix(0.6292 -0.7773 0.7773 0.6292 24.3346 238.1964)" cx="261.8" cy="93.6" rx="3.2" ry="7.2"></ellipse><linearGradient id="SVGID_00000021101772942570155380000010128415620816106921_-g5yb900VZU" gradientUnits="userSpaceOnUse" x1="293.883" y1="565.5663" x2="221.913" y2="371.8063" gradientTransform="matrix(1 0 0 -1 0 502)"><stop offset="0" style="stop-color: rgb(10, 107, 91);"></stop><stop offset="0.78" style="stop-color: rgb(0, 81, 70);"></stop><stop offset="0.91" style="stop-color: rgb(0, 80, 69);"></stop></linearGradient><path d="M221.2,68.7c-2.6,5.9-2.6,12.5-0.1,18.4
		l0,0c5.3-0.2,5.1-9.8,5.1-9.8c-5.4-2.9-0.4-14.5,5.7-12.3s3.6,9.2,3.6,9.2c15.4,13.3,29.8,2.3,30.1,2.3
		c-0.9-12.8-11.9-22.5-24.7-21.6C232.2,55.4,224.6,60.7,221.2,68.7L221.2,68.7z" style="fill: url(&quot;#SVGID_00000021101772942570155380000010128415620816106921_-g5yb900VZU&quot;);"></path><path class="st2" d="M230,74.4l-0.2-0.1c0,0-0.2-0.1-0.1,0s-0.1-0.1-0.1-0.1l-0.1-0.2c-0.1-0.2,0,0.1,0,0s-0.1-0.1-0.1-0.2
		s-0.1-0.2-0.1-0.2c0.1,0.1,0,0.1,0,0c0-0.1-0.1-0.2-0.1-0.3c0,0-0.1-0.2,0-0.1s0-0.1,0-0.2s0-0.1,0-0.2c0,0.2,0,0,0,0
		s0.1-0.2,0.1-0.3s0-0.1,0,0c0-0.1,0.1-0.2,0.1-0.2c0-0.1,0.1-0.1,0.1-0.2s-0.2,0.2,0,0c0.1-0.1,0.1-0.1,0.1-0.2s0.2-0.2,0.1-0.1
		s0.1,0,0.1-0.1c0.1,0,0.2-0.1,0.2-0.1c-0.1,0-0.1,0,0,0l0.3-0.1c0.2-0.1-0.2,0,0,0h0.5c-0.2,0,0,0,0.1,0l0.2,0.1
		c0.1,0,0.2,0.1,0.1,0l0.2,0.1c0,0,0.3,0.2,0.1,0.1c0.3,0.3,0.6,0.4,1,0.3c0.4,0,0.7-0.3,0.9-0.6c0.9-1.7,0.2-3.8-1.5-4.7
		c-1.3-0.7-2.9-0.4-3.9,0.5c-0.5,0.5-0.5,1.2,0,1.7c0.5,0.5,1.2,0.5,1.7,0c-0.2,0.2,0.1,0,0.1-0.1c0.2-0.2-0.1,0,0.1,0l0.3-0.1
		c-0.2,0.1,0,0,0.1,0s0.4,0,0.1,0l0.3,0.1c0.3,0.1-0.1-0.1,0.1,0c0,0,0.3,0.2,0.1,0c0.1,0.1,0.1,0.1,0.2,0.2s-0.1-0.1,0.1,0.1
		c0,0.1,0.2,0.3,0.1,0.1c0,0.1,0.1,0.2,0.1,0.3c0,0.1,0,0.4,0,0.1c0,0.1,0,0.2,0,0.2c0,0.1,0,0.1,0,0.2c0-0.1,0-0.2,0-0.1
		s-0.1,0.4,0,0.1l1.9-0.2c-0.9-0.8-2.2-1.1-3.4-0.9c-1.1,0.2-2,0.9-2.6,1.8c-1.1,1.9-0.5,4.4,1.4,5.5c0.1,0,0.1,0.1,0.2,0.1
		c0.6,0.3,1.4,0.1,1.7-0.5C230.8,75.6,230.6,74.8,230,74.4L230,74.4z"></path><ellipse class="st8" transform="matrix(0.1982 -0.9802 0.9802 0.1982 122.031 318.7703)" cx="255.9" cy="84.8" rx="3.4" ry="2.9"></ellipse><ellipse class="st11" transform="matrix(0.1982 -0.9802 0.9802 0.1982 122.2512 319.6194)" cx="256.5" cy="85.1" rx="2.2" ry="1.9"></ellipse><linearGradient id="SVGID_00000101096592642851487100000012324756451628721823_-g5yb900VZU" gradientUnits="userSpaceOnUse" x1="229.3965" y1="589.5213" x2="157.4266" y2="395.7613" gradientTransform="matrix(1 0 0 -1 0 502)"><stop offset="0" style="stop-color: rgb(10, 107, 91);"></stop><stop offset="0.78" style="stop-color: rgb(0, 81, 70);"></stop><stop offset="0.91" style="stop-color: rgb(0, 80, 69);"></stop></linearGradient><circle cx="175" cy="58.9" r="48.9" style="fill: url(&quot;#SVGID_00000101096592642851487100000012324756451628721823_-g5yb900VZU&quot;);"></circle><linearGradient id="SVGID_00000082351517585470115670000018045376391607402380_-g5yb900VZU" gradientUnits="userSpaceOnUse" x1="134.7578" y1="518.2608" x2="105.8578" y2="440.4708" gradientTransform="matrix(1 0 0 -1 0 502)"><stop offset="0" style="stop-color: rgb(10, 107, 91);"></stop><stop offset="0.78" style="stop-color: rgb(0, 81, 70);"></stop><stop offset="0.91" style="stop-color: rgb(0, 80, 69);"></stop></linearGradient><circle cx="112.9" cy="42.5" r="19.6" style="fill: url(&quot;#SVGID_00000082351517585470115670000018045376391607402380_-g5yb900VZU&quot;);"></circle><path class="st2" d="M247.8,98.6c-0.1,0-0.3,0-0.4-0.1c-2.9-1-4.8-2.6-5.5-4.7c-1.1-3.2,0.9-6.3,1-6.4c0.4-0.5,1.2-0.5,1.7-0.1
		c0.4,0.4,0.5,0.9,0.3,1.4c0,0.1-1.4,2.3-0.7,4.3c0.5,1.3,1.8,2.4,4,3.2c0.6,0.2,1,0.9,0.7,1.5C248.7,98.3,248.3,98.6,247.8,98.6z"></path><path class="st0" d="M105.6,204.3c-0.7,0-1.2-0.5-1.2-1.2c0-0.6,0.4-1.1,1-1.2c0.8-0.2,79.7-16.8,93.9-39.4c1.9-2.7,2.5-6,1.8-9.1
		c-0.6-2.7-2.1-5.2-4.3-7c-20.4,11.9-50.7,22.3-57.5,18.2c-1.5-0.8-2.1-2.6-1.6-4.2c2.4-9.5,22.8-21.1,43.2-21.1h0.1
		c6.7,0,12.2,1.4,16.1,4.2c4-2.3,7.7-5,11.2-8.1c3.5-3.2,7.4-7.7,5.7-11.3c-7.7-16.5-41.2-14.8-41.5-14.8c-0.7,0.1-1.3-0.4-1.4-1
		c-0.1-0.7,0.4-1.3,1-1.4c0.1,0,0.1,0,0.2,0c6.2-0.2,12.4,0.2,18.6,1.2c13,2.3,21.8,7.5,25.3,15c1.9,4-0.2,8.7-6.3,14.2
		c-3.4,2.9-7,5.6-10.9,7.9c2.2,2.1,3.7,4.8,4.4,7.7c0.9,3.8,0.1,7.8-2.1,11c-14.7,23.5-92.2,39.9-95.5,40.5L105.6,204.3z
		 M180.9,141.8c-17.2,0-38.6,10.1-40.9,19.2c-0.2,1,0.1,1.3,0.5,1.5c5.7,3.4,34.2-6,54.2-17.6C190.3,142.3,184.8,141.8,180.9,141.8
		L180.9,141.8z"></path><path class="st0" d="M298.9,161.8c-0.1,0-0.2,0-0.3,0c-5.6-1.5-54.7-15.3-58.8-27.1c-0.6-1.6-0.3-3.3,0.7-4.6
		c8.8-11.9,26.7-17,27.4-17.2c0.6-0.2,1.3,0.2,1.5,0.8c0.2,0.6-0.2,1.3-0.8,1.5c-0.2,0-17.8,5.1-26.1,16.3c-0.6,0.7-0.7,1.6-0.4,2.4
		c3.1,8.9,42.3,21.5,57.2,25.5c0.6,0.2,1,0.8,0.9,1.5C299.9,161.5,299.5,161.8,298.9,161.8z"></path><g id="laptop"><path class="st5" d="M232.2,216.8h123.2l12.2-68.4c0.7-4-2-7.8-6-8.5c-0.4-0.1-0.9-0.1-1.3-0.1H252.1c-3.6,0-6.6,2.6-7.3,6.1
			L232.2,216.8z"></path><path class="st5" d="M355.4,218H232.2c-0.4,0-0.7-0.2-0.9-0.4c-0.2-0.3-0.3-0.6-0.3-1l12.6-71c0.7-4.1,4.3-7.1,8.4-7.1h108.3
			c4.7,0,8.6,3.8,8.6,8.6c0,0.5,0,1-0.1,1.5L356.6,217C356.5,217.6,356,218,355.4,218z M233.6,215.6h120.8l12-67.4
			c0.6-3.3-1.6-6.5-5-7.1c-0.4-0.1-0.7-0.1-1.1-0.1H252.1c-3,0-5.5,2.1-6.1,5.1L233.6,215.6z"></path><path class="st8" d="M241,216.8h123.2l12.2-68.4c0.7-4-2-7.8-6-8.5c-0.4-0.1-0.9-0.1-1.3-0.1H260.8c-3.6,0-6.6,2.6-7.2,6.1
			L241,216.8z"></path><path class="st5" d="M364.2,218H241c-0.4,0-0.7-0.2-0.9-0.4c-0.2-0.3-0.3-0.6-0.3-1l12.6-71c0.7-4.1,4.3-7.1,8.4-7.1h108.2
			c4.7,0,8.6,3.8,8.6,8.6c0,0.5,0,1-0.1,1.5L365.4,217C365.3,217.6,364.8,218,364.2,218z M242.4,215.6h120.8l12-67.4
			c0.6-3.3-1.6-6.5-5-7.1c-0.4-0.1-0.7-0.1-1.1-0.1H260.8c-3,0-5.5,2.1-6.1,5.1L242.4,215.6z"></path><linearGradient id="SVGID_00000060002381337797217550000007229295147195001774_-g5yb900VZU" gradientUnits="userSpaceOnUse" x1="461.8305" y1="365.1602" x2="478.3205" y2="306.5602" gradientTransform="matrix(1 0 0 -1 -159.7843 502.0045)"><stop offset="0" style="stop-color: rgb(243, 131, 116);"></stop><stop offset="1" style="stop-color: rgb(198, 66, 52);"></stop></linearGradient><path d="M304.5,179.7c1.1-6.6,6.5-11.3,12.1-10.3
			c5.6,0.9,9.2,7.1,8,13.7c-1.1,6.6-6.5,11.3-12.1,10.3C307,192.5,303.4,186.3,304.5,179.7z" style="fill: url(&quot;#SVGID_00000060002381337797217550000007229295147195001774_-g5yb900VZU&quot;);"></path><linearGradient id="SVGID_00000009575459586787788550000001478161967920039051_-g5yb900VZU" gradientUnits="userSpaceOnUse" x1="-8561.3057" y1="360.8913" x2="-8553.1855" y2="332.0313" gradientTransform="matrix(-1 0 0 -1 -8230.8906 502)"><stop offset="0" style="stop-color: rgb(243, 131, 116);"></stop><stop offset="1" style="stop-color: rgb(198, 66, 52);"></stop></linearGradient><path d="M317.5,165.6c0,0,9.1-11.5,13.1-5.9
			C333.9,164.2,314,170.5,317.5,165.6z" style="fill: url(&quot;#SVGID_00000009575459586787788550000001478161967920039051_-g5yb900VZU&quot;);"></path><path class="st5" d="M243.6,216.8l-2.4-0.4l10.4-66.9c0.8-4.7,2.5-8,4.9-9.8c1.3-1,2.9-1.4,4.5-1.2l-0.4,2.4c-0.2,0-5-0.6-6.6,9
			L243.6,216.8z"></path></g><path class="st1" d="M228.8,189.5c0,0,4.8-2.4,29.4-6.7c3.9-0.7,6.2-13.1,9-16s8-2.9,9.2,0c0,0,5.4-3.6,10.4-0.4
		c2.9,1.6,4.3,5,3.4,8.2l-5.6,15.6l8.7-1.3c0,0,5,0.9,2.7,7c0,0-6,4.6-7.8,6.3s-7.8,13.2-14.6,18.7c-13.9,11.3-50.6,19.9-50.6,19.9
		L228.8,189.5z"></path><path class="st2" d="M278.8,212.8c-0.2,0-0.4,0-0.5-0.1c-0.6-0.3-0.8-1-0.5-1.6c0,0,0,0,0,0c4-8,5.9-19.7,5.9-19.8
		c0.1-0.7,0.8-1.1,1.4-1c0.6,0.1,1,0.7,1,1.3c-0.1,0.5-2,12.1-6.1,20.5C279.7,212.6,279.3,212.8,278.8,212.8z"></path><path class="st2" d="M263.6,201.5c-0.7,0-1.2-0.5-1.2-1.2c0-0.3,0.2-0.7,0.4-0.9c0.1-0.1,6.7-5.8,9-10.8s3.5-21.6,3.5-21.8
		c0.1-0.7,0.7-1.1,1.4-1c0.6,0.1,1.1,0.6,1.1,1.2c0,0.7-1.2,17.2-3.7,22.6s-9.3,11.4-9.6,11.6C264.2,201.4,263.9,201.5,263.6,201.5z
		"></path><path class="st1" d="M266.3,172.3c0,0-3.8-3.4-9.9-0.4s-8.2,16.9-19.2,21.4C237.2,193.3,259.2,199.5,266.3,172.3z"></path><path class="st2" d="M255.1,196.4l-1.9-1.5c0,0,3.7-4.7,6.5-8.4c2.2-2.9,4.7-11.5,5.5-14.5c0.2-0.6,0.9-1,1.5-0.8
		c0.6,0.2,0.9,0.8,0.8,1.4c-0.1,0.5-3,11.6-5.9,15.4S255.1,196.4,255.1,196.4z"></path><circle class="st0" cx="149.7" cy="193.3" r="7.5"></circle><path class="st5" d="M200.6,184.8c-0.1,0-0.1,0-0.2,0c-0.3-0.1-29.4-5-42.5-5.6c-12.7-0.6-20.9,4.4-21,4.5
		c-0.6,0.4-1.3,0.2-1.7-0.4s-0.2-1.3,0.4-1.7c0.4-0.2,8.9-5.5,22.4-4.8c13.2,0.7,42.5,5.6,42.8,5.7c0.7,0.1,1.1,0.8,1,1.4
		C201.7,184.4,201.2,184.8,200.6,184.8L200.6,184.8z"></path><path class="st5" d="M202.3,180.5c-0.1,0-0.3,0-0.4-0.1c-0.6-0.2-1-0.9-0.7-1.5l12.3-35.5c0.1-1.5,1.3-16.1-6.9-18.5
		c-0.6-0.2-1-0.9-0.8-1.5c0.2-0.6,0.9-1,1.5-0.8c10.6,3.1,8.7,20.5,8.6,21.2c0,0.1,0,0.2-0.1,0.3l-12.4,35.6
		C203.2,180.2,202.8,180.5,202.3,180.5z"></path></g><g id="earth"><path class="st5" d="M204.7,490C124.9,490,60,425.1,60,345.3c0-41.4,17.7-80.8,48.7-108.2c0.5-0.4,1.3-0.4,1.7,0.1
		c0.4,0.5,0.4,1.3-0.1,1.7l0,0c-30.4,27-47.8,65.7-47.8,106.4c0,78.4,63.8,142.2,142.2,142.2s142.2-63.8,142.2-142.2
		c0-6.5-0.4-13-1.3-19.5c-0.1-0.7,0.4-1.3,1-1.4c0.6-0.1,1.3,0.4,1.4,1c0.9,6.6,1.3,13.2,1.3,19.8C349.3,425.1,284.4,490,204.7,490z
		"></path><path class="st5" d="M176.3,442.6c-3.4,0-6.7-0.9-9.6-2.6c-2.2-1.5-4.2-3.3-6-5.4c-3.4-3.6-5.6-5.8-9.2-4.9
		c-1.7,0.5-3.3,1.2-4.8,2.2c-4.8,2.7-10.2,5.7-19.4-3c-5-4.7-7.3-9.5-9.3-13.6c-2.8-5.8-5.3-10.8-14-15c-2.7-1.3-5-2.5-7-3.5
		c-4.7-2.4-7.5-3.8-8.6-3.4c-0.7,0.3-1.2,1.7-1.7,3.2c-2.5,7.5-12,9.9-12.4,10c-0.6,0.2-1.3-0.2-1.5-0.9c-0.2-0.6,0.2-1.3,0.9-1.5
		c0.1,0,8.6-2.2,10.7-8.4c0.8-2.5,1.6-4.1,3.1-4.7c2.1-0.9,4.6,0.4,10.6,3.4c1.9,1,4.2,2.1,6.9,3.4c9.4,4.5,12.2,10.2,15.1,16.1
		c2,4.2,4.2,8.5,8.8,12.9c7.9,7.5,11.9,5.3,16.6,2.7c1.7-1,3.5-1.8,5.4-2.4c5.1-1.3,8.4,2.2,11.6,5.5c1.6,1.9,3.5,3.6,5.5,5
		c4.1,2.4,9.1,2.9,13.6,1.3c3.8-1.5,6.7-4.7,7.6-8.7c0.8-2.8,0.9-4.6,0.3-5.5s-2.6-1.3-5.2-1.7c-4.3-0.4-8.5-1.6-12.3-3.6
		c-5-2.6-7.2-2.4-9.4-2.2c-3.1,0.3-5.8,0.5-13.3-6c-8-6.9-7.8-14.2-7.6-21.3c0.1-4.8,0.3-9.7-2-14.9c-2.8-6.5-2.1-13-1.5-18.3
		c0.7-6.4,0.9-9.5-2.9-10.4l-2-0.5c-7.8-1.9-8.2-2.2-10.9-9.5c-0.6-1.3-0.7-2.7-0.1-4c0.9-1.7,3.1-2.2,5.8-2.8
		c3.6-0.8,8-1.7,11.2-5.9c1.6-1.8,1.8-4.5,0.6-6.5c-3-5.5-13.6-9.6-22.6-8.8c-5.9,0.5-9.4,4.8-12.6,8.7c-3.4,4.1-6.9,8.4-12.2,4.1
		c-1.4-1-2.3-2.5-2.5-4.1c-0.2-3.2,2.8-6.3,6.6-10.1c4.5-4.6,10-10.2,11.6-17.7c0.7-3,0.1-6.1-1.7-8.6c-5.7-8.5-21.9-11.5-22-11.5
		c-0.6-0.3-0.9-1-0.7-1.6c0.2-0.5,0.6-0.8,1.1-0.8c0.7,0.1,17.4,3.3,23.6,12.6c2.1,3,2.8,6.8,2,10.5c-1.7,8.2-7.5,14.1-12.2,18.9
		c-3.2,3.3-6,6.2-5.9,8.3c0.2,1,0.7,1.9,1.6,2.4c3.4,2.7,5.1,0.8,8.9-3.8c3.2-4,7.3-8.9,14.2-9.5c10-0.9,21.4,3.7,24.9,10
		c1.7,2.9,1.4,6.6-0.8,9.2c-3.7,4.9-8.9,6-12.6,6.8c-1.9,0.4-3.8,0.8-4.2,1.5c-0.2,0.7-0.1,1.4,0.2,2c2.4,6.3,2.4,6.3,9.3,8l2,0.5
		c5.9,1.5,5.3,7.1,4.7,13c-0.6,5.2-1.2,11.2,1.3,17.1c2.4,5.6,2.3,10.9,2.2,15.9c-0.2,7.1-0.4,13.3,6.7,19.4
		c6.7,5.8,8.8,5.6,11.5,5.4c2.3-0.2,5.1-0.4,10.8,2.5c3.6,1.8,7.5,2.9,11.6,3.3c3.2,0.5,5.7,0.8,6.9,2.8c1,1.5,1,3.9,0,7.5
		c-1.2,4.7-4.6,8.5-9.1,10.3C180.6,442.3,178.4,442.6,176.3,442.6z"></path><path class="st5" d="M191.6,286.3c-2.2,0-3.2-1.3-4.2-3.5c-0.8-2.6-2.8-4.6-5.4-5.5c-4.2-1.7-4.9-0.9-6.8,1.3s-4.8,5.4-12.6,7.1
		c-5.6,1.3-11.6-0.2-16-3.9c-6.3-5.1-9.6-13.2-9.6-18.6c-0.2-5.3,2.3-10.3,6.6-13.3c0.6-0.4,1.3-0.2,1.7,0.4
		c0.4,0.6,0.2,1.3-0.4,1.7l0,0l0,0c-0.2,0.1-5.4,3.5-5.4,11.2c0,4.7,3,12.2,8.6,16.7c3.9,3.3,9.1,4.5,14,3.4c7-1.5,9.5-4.3,11.3-6.4
		c2.4-2.6,4.1-4.1,9.6-1.9c3.2,1.1,5.6,3.6,6.7,6.8c0.9,2.1,1.2,2.9,7,0.6c11.2-4.5,12.2-19.2,12.2-19.3c0-0.6,0.6-1.1,1.2-1.1
		c0.7,0,1.2,0.6,1.1,1.3c0,0,0,0,0,0c0,0.7-1.1,16.3-13.7,21.4C195.7,285.6,193.6,286.1,191.6,286.3z"></path><path class="st5" d="M304.2,449.8c-0.2,0-0.4,0-0.5-0.1c-8.4-4-6.5-11.1-5-16.2c0.4-1.4,0.8-2.8,0.9-4.3c0.1-1.3-0.2-2.6-0.8-3.7
		c-1.2-3-2.5-6.4,3.1-16.1c7.8-13.4,9.2-16,8.4-20.6c-0.6-3.8-4-7-18.3-9.7c-7.5-1.5-8.2,2-9.5,7.3c-0.6,2.9-1.4,6.1-3.6,8.6
		c-6.9,7.9-17.5,5.7-24.9,3.4c-4.8-1.5-7.9-3.8-9.5-6.8c-1.3-2.7-1.4-5.7-0.3-8.5c1.5-4.6,3.8-11.5,16.9-8.1
		c10.1,2.6,19.5-11,23-18.6c2.9-6.2,11.9-7.5,24.2-3.6c7.3,2.3,9,0.1,11.7-3.6c0.5-0.6,1-1.3,1.5-2l0.5-0.6c3.5-4.4,6.9-8.5,15.5-4
		s10,21.7,10.1,22.4c0,0.7-0.5,1.2-1.2,1.2c-0.6,0-1.1-0.4-1.2-1.1c0-0.2-1.3-16.5-8.8-20.5c-6.9-3.6-9-1-12.6,3.3l-0.5,0.6
		c-0.5,0.7-1,1.3-1.5,1.9c-3,3.9-5.5,7.3-14.4,4.5c-8.5-2.7-18.5-3.5-21.3,2.4c-0.5,1-11.2,23.7-25.8,20c-10.9-2.8-12.5,1.9-14,6.5
		c-0.9,2.1-0.8,4.5,0.2,6.6c1.2,2.4,3.9,4.3,8,5.6c10.7,3.4,17.8,2.6,22.3-2.6c1.8-2,2.4-4.9,3-7.6c1.2-5.2,2.5-11,12.3-9.1
		c13.8,2.7,19.3,5.8,20.3,11.7c0.9,5.6-0.9,8.8-8.7,22.2c-5,8.7-4,11.4-2.9,14c0.7,1.5,1,3.1,0.9,4.8c-0.2,1.6-0.5,3.2-1,4.7
		c-1.5,5.3-2.8,10.2,3.8,13.4c0.6,0.3,0.9,1,0.6,1.6C305.1,449.6,304.7,449.8,304.2,449.8L304.2,449.8z"></path><path class="st5" d="M310.8,344.1c-2.1,0-3.8-1.1-6.2-3c-0.8-0.6-1.7-1.3-2.7-2c-1.7-1-2.7-2.8-2.8-4.8c-0.3-5,5.5-10.2,5.7-10.4
		c0.1-0.1,0.2-0.1,0.3-0.2c5.2-2.4,12.5-2.8,16,3.8c2.3,4.3,1.9,10.6-2.9,13.6C314.8,343.2,312.7,344.1,310.8,344.1z M306.2,325.9
		c-1.5,1.4-5,5.3-4.8,8.4c0.1,1.2,0.8,2.3,1.8,2.9c1.1,0.7,2,1.4,2.8,2c4.1,3.1,4.8,3.7,10.8-0.1c3.5-2.2,3.8-7.1,2.1-10.4
		C316.6,324.4,311.9,323.4,306.2,325.9L306.2,325.9z"></path><path class="st5" d="M188.1,488.5c-0.7,0-1.2-0.5-1.2-1.2c0-0.4,0.2-0.7,0.5-1c2.7-1.9,4-5.3,3.2-8.5c-1.2-5.7-7.5-11.7-14.3-13.6
		c-6.1-1.7-8-1.1-10.7-0.2c-3.1,1.1-6.4,1.7-9.7,1.7c-7.2,0.3-8.2-4.1-9.4-8.7c-0.9-3.8-2-8.1-6.5-11.6c-6.4-5-6.6-4.9-9.6-3.9
		c-3,1-6.1,1.6-9.2,1.9c-12.6,1.2-15.6,3.8-15.7,3.8c-0.5,0.4-1.2,0.4-1.7-0.1c-0.5-0.5-0.5-1.2,0-1.7c0.3-0.3,3.5-3.2,17.1-4.4
		c3-0.2,5.9-0.8,8.7-1.8c4-1.3,4.9-1.1,11.9,4.3c5.2,4,6.4,9,7.3,12.9c1.1,4.5,1.7,7,6.9,6.8c3.1,0,6.1-0.6,9-1.6
		c2.9-1,5.3-1.8,12.1,0.1c7.8,2.1,14.6,8.8,16,15.5c0.9,4.1-0.7,8.3-4.1,10.8C188.6,488.4,188.3,488.5,188.1,488.5z"></path><path class="st5" d="M173.3,311.4c-2.4,0-3.8-1.4-5.6-3.3c-1.2-1.4-2.6-2.7-4.1-3.8c-1.4-0.9-2.3-2.5-2.4-4.2
		c0-5.1,7.5-10.7,8.4-11.3l0,0c5-3.2,10.2,1.6,13.6,5.6c2.6,3,3.7,5.7,3.2,8.2c-0.6,2.8-3,5.1-7.4,7.2
		C177.2,310.7,175.3,311.2,173.3,311.4z M170.9,290.7c-2.1,1.5-7.4,6.1-7.4,9.4c0,0.9,0.5,1.8,1.3,2.2c1.7,1.2,3.2,2.6,4.5,4.1
		c2.4,2.6,3.3,3.6,8.5,1.1c3.6-1.7,5.7-3.6,6.1-5.5c0.4-1.7-0.5-3.7-2.6-6.1C175.5,289,172.6,289.6,170.9,290.7L170.9,290.7z"></path></g><g id="cloud"><path class="st16" d="M479.7,248.5H374.2c0-20.6,17.4-20.7,17.4-20.7s6.4-34,30.8-31c3.9,0.4,7.7,1.7,11.1,3.7c1.6,1,3,2.1,4.3,3.5
		c0.2,0.2,0.5,0.5,0.7,0.7s0.5,0.6,0.8,0.9l0,0c0.4,0.5,0.9,1.1,1.2,1.7c0.3,0.5,0.6,1,0.9,1.4c1.6,2.7,2.7,5.7,3.4,8.8
		c0,0,0,0.1,0,0.1c0.6,2.7,0.9,5.4,0.9,8.2c1.2-1.1,2.5-2.2,3.9-3.1c1.4-1,2.9-2,4.5-2.8c3.7-2,8.3-3.6,12.8-3
		c2.5,0.3,4.9,1.3,6.8,2.9C485.8,229.1,479.7,248.5,479.7,248.5z"></path><path class="st8" d="M138.3,134.6H32.8c0-20.6,17.4-20.7,17.4-20.7s6.3-34,30.8-31c3.9,0.4,7.7,1.7,11.1,3.7c1.6,1,3,2.1,4.3,3.4
		l0.7,0.7c0.3,0.3,0.5,0.6,0.7,0.9l0,0c0.4,0.6,0.8,1.1,1.2,1.7s0.6,0.9,0.9,1.4c1.6,2.7,2.7,5.7,3.4,8.8c0,0,0,0.1,0,0.1
		c0.6,2.7,0.9,5.4,0.9,8.2c1.2-1.1,2.5-2.2,3.9-3.1c1.4-1,2.9-2,4.5-2.8c3.7-2,8.3-3.6,12.8-3c2.5,0.3,4.9,1.3,6.8,2.9
		C144.4,115.1,138.3,134.6,138.3,134.6z"></path><path class="st5" d="M138.3,135.8L138.3,135.8H32.8c-0.7,0-1.2-0.5-1.2-1.2c0-18.6,13.8-21.4,17.6-21.9c1.3-5.5,9-33.9,32-31.1
		c4.1,0.4,8.1,1.8,11.6,3.9c1.7,1,3.2,2.3,4.6,3.7l0.7,0.8c0.3,0.3,0.5,0.6,0.8,0.9c0,0,0,0,0.1,0.1c0.4,0.5,0.8,1.1,1.3,1.7
		s0.7,1,0.9,1.5c1.6,2.8,2.8,5.9,3.5,9.1c0.5,2,0.7,4,0.9,6c0.6-0.4,1.2-1,2-1.5c1.5-1.1,3-2,4.6-2.9c4.9-2.6,9.4-3.6,13.6-3.1
		c2.7,0.4,5.3,1.4,7.4,3.1c5.2,4.1,7.9,10.6,7.9,18.9c0,3.8-0.6,7.6-1.6,11.2C139.2,135.5,138.8,135.8,138.3,135.8z M34.1,133.4
		h103.3c1-3.8,4.1-19-5.7-26.6c-1.8-1.4-4-2.3-6.2-2.6c-3.6-0.5-7.7,0.5-12.1,2.8c-2.9,1.6-5.6,3.5-8.1,5.7
		c-0.5,0.4-1.3,0.4-1.7-0.1c-0.2-0.2-0.3-0.5-0.3-0.8c0-2.6-0.3-5.3-0.9-7.9c-0.7-3-1.8-5.9-3.4-8.5c-0.3-0.5-0.6-0.9-0.9-1.4
		s-0.8-1.1-1.2-1.6l0,0c-0.2-0.3-0.5-0.6-0.7-0.8s-0.4-0.4-0.6-0.7c-1.2-1.3-2.6-2.4-4.1-3.3c-3.2-2-6.9-3.2-10.6-3.6
		c-23.1-2.8-29.4,29.7-29.5,30c-0.1,0.6-0.6,1-1.2,1C49.6,115.1,34.7,115.5,34.1,133.4z"></path><path class="st0" d="M341.4,484.6H236c0-20.5,17.4-20.7,17.4-20.7s6.4-34,30.8-31c3.9,0.4,7.7,1.7,11.1,3.7c1.6,1,3,2.1,4.4,3.5
		c0.2,0.2,0.5,0.5,0.7,0.7s0.5,0.6,0.7,0.9l0,0c0.4,0.5,0.9,1.1,1.2,1.7s0.6,1,0.9,1.4c1.6,2.7,2.7,5.7,3.4,8.8c0,0,0,0.1,0,0.1
		c0.6,2.7,0.9,5.4,0.9,8.2c1.2-1.1,2.5-2.2,3.9-3.1c1.4-1,2.9-2,4.5-2.8c3.7-2,8.3-3.6,12.8-3c2.5,0.3,4.9,1.3,6.8,2.9
		C347.5,465.1,341.4,484.6,341.4,484.6z"></path></g><g id="network_2"><path class="st5" d="M407,172.7h-20.6c-0.7-0.1-1.2-0.6-1.1-1.3c0.1-0.6,0.5-1,1.1-1.1H407c3.1,0,5.7-2.5,5.7-5.7v-11.3
		c0-4.5,3.6-8.1,8.1-8.1h48.7c0.7-0.1,1.3,0.4,1.3,1.1c0.1,0.7-0.4,1.3-1.1,1.3c-0.1,0-0.1,0-0.2,0h-48.7c-3.1,0-5.7,2.5-5.7,5.7
		v11.4C415.1,169.1,411.5,172.7,407,172.7C407,172.7,407,172.7,407,172.7z"></path><path class="st5" d="M457.9,161.4h-9.3c-4.3,0-7.9-3.5-7.9-7.9v-6.2c0-0.7,0.5-1.2,1.2-1.2c0.7,0,1.2,0.5,1.2,1.2v6.2
		c0,3,2.4,5.4,5.5,5.4h9.3c0.7,0,1.2,0.5,1.2,1.2C459.1,160.9,458.5,161.4,457.9,161.4L457.9,161.4z"></path><path class="st5" d="M422.2,147.3c-0.7,0-1.2-0.5-1.2-1.2v-7.8c0-3.4,2.8-6.2,6.2-6.2h22.3c0.7-0.1,1.3,0.4,1.3,1.1
		c0.1,0.7-0.4,1.3-1.1,1.3c-0.1,0-0.1,0-0.2,0h-22.3c-2.1,0-3.8,1.7-3.8,3.8v7.8C423.4,146.8,422.9,147.3,422.2,147.3L422.2,147.3z"></path><circle class="st8" cx="451.3" cy="132.4" r="4.3"></circle><path class="st5" d="M451.3,137.9c-3,0-5.5-2.5-5.5-5.5s2.5-5.5,5.5-5.5s5.5,2.5,5.5,5.5S454.3,137.9,451.3,137.9L451.3,137.9z
		 M451.3,129.4c-1.7,0-3.1,1.4-3.1,3.1s1.4,3.1,3.1,3.1c1.7,0,3.1-1.4,3.1-3.1l0,0C454.4,130.8,453,129.4,451.3,129.4z"></path><circle class="st8" cx="470.7" cy="146.3" r="4.3"></circle><path class="st5" d="M470.7,151.7c-3,0-5.5-2.4-5.5-5.5s2.4-5.5,5.5-5.5s5.5,2.4,5.5,5.5C476.2,149.3,473.7,151.7,470.7,151.7z
		 M470.7,143.2c-1.7,0-3.1,1.4-3.1,3c0,1.7,1.4,3.1,3,3.1c1.7,0,3.1-1.4,3.1-3c0,0,0,0,0,0C473.8,144.6,472.4,143.2,470.7,143.2z"></path><circle class="st8" cx="459.1" cy="160" r="4.3"></circle><path class="st5" d="M459.1,165.5c-3,0-5.5-2.4-5.5-5.5s2.4-5.5,5.5-5.5s5.5,2.4,5.5,5.5S462.1,165.5,459.1,165.5L459.1,165.5z
		 M459.1,157c-1.7,0-3.1,1.4-3.1,3.1s1.4,3.1,3.1,3.1c1.7,0,3.1-1.4,3.1-3.1l0,0C462.2,158.4,460.8,157,459.1,157L459.1,157z"></path><circle class="st8" cx="385.2" cy="171.7" r="4.3"></circle><path class="st5" d="M385.2,177.1c-3,0-5.5-2.5-5.5-5.5s2.5-5.5,5.5-5.5c3,0,5.5,2.5,5.5,5.5c0,0,0,0,0,0
		C390.6,174.7,388.2,177.2,385.2,177.1z M385.2,168.6c-1.7,0-3.1,1.4-3.1,3.1s1.4,3.1,3.1,3.1c1.7,0,3.1-1.4,3.1-3.1l0,0
		C388.2,170,386.9,168.6,385.2,168.6z"></path></g><g id="network_1"><path class="st5" d="M108.6,224.2H87.9c-4.5,0-8.1-3.6-8.1-8.1v-11.4c0-3.1-2.5-5.7-5.7-5.7H25.5c-0.7,0-1.2-0.5-1.2-1.2
		c0-0.7,0.5-1.2,1.2-1.2c0,0,0,0,0,0h48.7c4.5,0,8.1,3.6,8.1,8.1v11.4c0,3.1,2.5,5.7,5.7,5.7h20.7c0.7-0.1,1.3,0.4,1.3,1.1
		c0.1,0.7-0.4,1.3-1.1,1.3C108.8,224.2,108.7,224.2,108.6,224.2L108.6,224.2z"></path><path class="st5" d="M46.4,212.9h-9.3c-0.7,0-1.2-0.5-1.2-1.2c0-0.7,0.5-1.2,1.2-1.2c0,0,0,0,0,0h9.3c3,0,5.5-2.4,5.5-5.4v-6.2
		c0-0.7,0.5-1.2,1.2-1.2c0.7,0,1.2,0.5,1.2,1.2v6.2C54.2,209.3,50.7,212.9,46.4,212.9z"></path><path class="st5" d="M72.8,198.8c-0.7,0-1.2-0.5-1.2-1.2l0,0v-7.8c0-2.1-1.7-3.8-3.8-3.8l0,0H45.5c-0.7,0-1.2-0.5-1.2-1.2
		c0-0.7,0.5-1.2,1.2-1.2c0,0,0,0,0,0h22.2c3.5,0,6.3,2.8,6.3,6.2c0,0,0,0,0,0v7.8C74,198.2,73.5,198.8,72.8,198.8
		C72.8,198.8,72.8,198.8,72.8,198.8z"></path><circle class="st8" cx="43.7" cy="183.9" r="4.3"></circle><path class="st5" d="M43.7,189.4c-3,0-5.5-2.4-5.5-5.5s2.4-5.5,5.5-5.5c3,0,5.5,2.4,5.5,5.5S46.7,189.4,43.7,189.4
		C43.7,189.4,43.7,189.4,43.7,189.4z M43.7,180.8c-1.7,0-3.1,1.4-3.1,3.1c0,1.7,1.4,3.1,3.1,3.1s3.1-1.4,3.1-3.1l0,0
		C46.7,182.2,45.3,180.8,43.7,180.8z"></path><circle class="st8" cx="24.3" cy="197.7" r="4.3"></circle><path class="st5" d="M24.3,203.2c-3,0-5.5-2.5-5.5-5.5c0-3,2.5-5.5,5.5-5.5c3,0,5.5,2.5,5.5,5.5C29.7,200.7,27.3,203.2,24.3,203.2z
		 M24.3,194.6c-1.7,0-3.1,1.4-3.1,3.1s1.4,3.1,3.1,3.1s3.1-1.4,3.1-3.1l0,0C27.3,196,25.9,194.6,24.3,194.6z"></path><circle class="st8" cx="35.8" cy="211.5" r="4.3"></circle><path class="st5" d="M35.8,217c-3,0-5.5-2.4-5.5-5.5c0-3,2.4-5.5,5.5-5.5c3,0,5.5,2.4,5.5,5.5c0,0,0,0,0,0
		C41.3,214.5,38.9,217,35.8,217z M35.8,208.5c-1.7,0-3.1,1.4-3.1,3.1c0,1.7,1.4,3.1,3.1,3.1s3.1-1.4,3.1-3.1l0,0
		C38.9,209.8,37.6,208.4,35.8,208.5C35.9,208.4,35.9,208.4,35.8,208.5L35.8,208.5z"></path><circle class="st8" cx="109.8" cy="223.1" r="4.3"></circle><path class="st5" d="M109.8,228.6c-3,0-5.5-2.4-5.5-5.5s2.4-5.5,5.5-5.5c3,0,5.5,2.4,5.5,5.5c0,0,0,0,0,0
		C115.3,226.1,112.8,228.6,109.8,228.6z M109.8,220.1c-1.7,0-3.1,1.4-3.1,3.1c0,1.7,1.4,3.1,3.1,3.1c1.7,0,3.1-1.4,3.1-3.1l0,0
		C112.9,221.4,111.5,220.1,109.8,220.1z"></path></g></svg>