<svg transform="scale(1)" version="1.1" id="_x30_469_x5F_Home_Finances_2" xmlns="http://www.w3.org/2000/svg" xmlns:xlink="http://www.w3.org/1999/xlink" x="0px" y="0px" viewBox="0 0 500 500" xml:space="preserve" class="show_show__wrapper__graphic__5Waiy "><title>React</title><style type="text/css">
	.st0{fill:#732A09;}
	.st1{fill:#F75454;}
	.st2{fill:#FFFFFF;}
</style><g id="house"><polygon class="st0" points="398.2,235.8 398.2,336.2 271.6,373.8 271.6,248.1 290.9,269.8 	"></polygon><path class="st0" d="M271.6,374.3c-0.1,0-0.2,0-0.3-0.1c-0.1-0.1-0.2-0.2-0.2-0.4V248.1c0-0.3,0.2-0.5,0.5-0.5
		c0.1,0,0.3,0.1,0.4,0.2l19.1,21.4l107-33.9c0.2,0,0.3,0,0.5,0.1c0.1,0.1,0.2,0.2,0.2,0.4v100.3c0,0.2-0.1,0.4-0.4,0.5l-126.6,37.6
		L271.6,374.3z M272.1,249.5v123.7l125.6-37.3v-99.3l-106.6,33.8c-0.2,0.1-0.4,0-0.5-0.1L272.1,249.5z"></path><polygon class="st1" points="412.8,231.2 398.2,235.8 290.9,269.8 271.6,248.1 212.6,181.9 212.7,181.8 334.5,143.2 334.4,143.3 	
		"></polygon><path class="st0" d="M290.9,270.3c-0.1,0-0.3-0.1-0.4-0.2l-78.3-88c-0.2-0.2-0.2-0.5,0-0.6c0.1-0.1,0.2-0.2,0.3-0.2l121.8-38.6
		c0.2-0.1,0.5,0,0.6,0.2c0,0,0,0.1,0,0.1l78.1,87.8c0.1,0.1,0.1,0.3,0.1,0.5c0,0.2-0.2,0.3-0.3,0.4l-121.9,38.7L290.9,270.3z
		 M213.5,182.1l77.6,87.2L411.9,231l-77.6-87.2L213.5,182.1z"></path><polygon class="st2" points="271.6,248.1 271.6,373.8 145,373.8 145,258 212.6,181.9 	"></polygon><path class="st0" d="M271.6,374.3H145c-0.3,0-0.5-0.2-0.5-0.5V258c0-0.1,0-0.2,0.1-0.3l67.6-76.1c0.2-0.2,0.5-0.2,0.7,0
		c0,0,0,0,0,0l59,66.3c0.1,0.1,0.1,0.2,0.1,0.3v125.6C272.1,374.1,271.9,374.3,271.6,374.3z M145.5,373.3h125.6v-125l-58.5-65.7
		l-67.1,75.5L145.5,373.3z"></path><path class="st0" d="M212.6,182.4c-0.1,0-0.3,0-0.4-0.1l0,0c-0.1-0.1-0.2-0.2-0.1-0.4c0-0.1,0.1-0.3,0.2-0.4
		c0.2-0.2,0.5-0.1,0.7,0.1c0.2,0.2,0.2,0.5,0,0.7c0,0,0,0,0,0l0,0C212.9,182.3,212.8,182.4,212.6,182.4z"></path><path class="st0" d="M134.4,270.4c-0.3,0-0.5-0.2-0.5-0.5c0-0.1,0-0.3,0.1-0.4l10.6-11.9c0.2-0.2,0.5-0.2,0.7,0
		c0.2,0.2,0.2,0.5,0,0.7l-10.6,11.9C134.7,270.3,134.6,270.4,134.4,270.4z"></path><polygon class="st0" points="335.1,194.3 326.7,197 322.6,198.4 294.4,207.5 290.2,208.9 286.6,210.1 282.8,206.1 290.3,203.7 
		294.5,202.3 322.6,193.2 326.8,191.8 331.4,190.3 	"></polygon><path class="st0" d="M286.6,210.6c-0.1,0-0.3-0.1-0.4-0.2l-3.7-4c-0.1-0.1-0.2-0.3-0.1-0.5c0-0.2,0.2-0.3,0.3-0.4l48.6-15.8
		c0.2-0.1,0.4,0,0.5,0.1l3.7,4c0.2,0.2,0.2,0.5,0,0.7c-0.1,0.1-0.1,0.1-0.2,0.1l-48.6,15.8L286.6,210.6z M283.7,206.4l3,3.1
		l47.5-15.4l-3-3.2L283.7,206.4z"></path><path class="st2" d="M333.8,164.7c-5,7.4-6.5,18.3-6.9,27.1c-0.1,1.8-0.1,3.6-0.1,5.2l-4.1,1.3l-28.2,9.2l-4.1,1.3
		c0-1.6,0-3.4,0.1-5.2c0.4-8.9,2-19.8,6.9-27.1c9.7-14.4,8.8-28.5,8.8-28.5l36.5-11.9C342.6,136.1,343.5,150.2,333.8,164.7z"></path><path class="st0" d="M290.2,209.4c-0.1,0-0.2,0-0.3-0.1c-0.1-0.1-0.2-0.2-0.2-0.4c0-1.7,0-3.5,0.1-5.2c0.4-8.3,1.9-19.7,7-27.4
		c5.7-8.3,8.7-18.1,8.8-28.2c0-0.2,0.1-0.4,0.3-0.5l36.5-11.9c0.1,0,0.3,0,0.4,0.1c0.1,0.1,0.2,0.2,0.2,0.4
		c0,10.3-3.1,20.4-8.9,28.9l0,0c-5,7.5-6.5,18.8-6.8,26.9c-0.1,1.8-0.1,3.5-0.1,5.2c0,0.2-0.1,0.4-0.4,0.5l-36.5,11.9
		C290.3,209.4,290.3,209.4,290.2,209.4z M306.6,148.4c-0.2,10.1-3.3,20-8.9,28.4c-5,7.5-6.5,18.8-6.8,26.9c-0.1,1.5-0.1,3-0.1,4.5
		l35.5-11.5c0-1.6,0-3.2,0.1-4.9c0.3-8.2,1.8-19.7,7-27.4c5.5-8.2,8.6-17.7,8.8-27.6L306.6,148.4z M333.8,164.7L333.8,164.7z"></path><path class="st2" d="M337.2,146.6c-1.3,5.6-3.7,11-6.9,15.8c-2.6,4.1-4.4,8.6-5.5,13.3c-0.6,2.5-1.1,5.1-1.4,7.6
		c-0.5,3.4-0.7,6.8-0.8,9.9c0,1.9-0.1,3.6,0,5.2l-28.2,9.2c0-1.6,0.1-3.4,0.2-5.2c0.4-7.1,1.6-15.1,4.8-21.2
		c0.4-0.8,0.8-1.5,1.3-2.3c1.2-1.8,2.3-3.6,3.2-5.4c3.2-6.1,5.2-12.8,6-19.6c1.6-0.5,2.7-1.9,2.9-3.6l20.9-6.8
		c-0.3,1.5,0.5,2.9,2,3.3C336.2,146.8,336.8,146.7,337.2,146.6z"></path><path class="st0" d="M294.4,208c-0.1,0-0.2,0-0.3-0.1c-0.1-0.1-0.2-0.2-0.2-0.4c0-1.8,0.1-3.6,0.2-5.2c0.5-9,2.1-16.2,4.9-21.4
		c0.4-0.8,0.9-1.6,1.4-2.3c1.2-1.7,2.2-3.5,3.2-5.4c3.2-6.1,5.2-12.7,6-19.5c0-0.2,0.2-0.4,0.3-0.4c1.4-0.5,2.4-1.7,2.6-3.1
		c0-0.2,0.2-0.4,0.3-0.4l20.9-6.8c0.2-0.1,0.4,0,0.5,0.1c0.1,0.1,0.2,0.3,0.1,0.5c-0.3,1.2,0.4,2.4,1.6,2.7c0.4,0.1,0.8,0.1,1.2,0
		c0.2-0.1,0.4,0,0.5,0.1c0.1,0.1,0.2,0.3,0.1,0.5c-1.4,5.7-3.7,11.1-7,15.9c-2.6,4-4.4,8.5-5.4,13.1c-0.6,2.5-1.1,5-1.4,7.6
		c-0.4,3.1-0.7,6.4-0.8,9.9c0,1.8-0.1,3.6,0,5.1c0,0.2-0.1,0.4-0.3,0.5l-28.2,9.2C294.5,208,294.4,208,294.4,208z M310.4,154.1
		c-1.1,8.9-4.3,17.5-9.3,25c-0.5,0.7-0.9,1.5-1.3,2.2c-2.6,5.1-4.2,12.1-4.8,21c-0.1,1.4-0.1,3-0.2,4.5l27.2-8.8c0-1.5,0-3.1,0-4.8
		c0.1-3.5,0.4-6.8,0.8-9.9c0.3-2.6,0.8-5.2,1.4-7.7c1.1-4.8,2.9-9.3,5.6-13.4c3-4.5,5.3-9.6,6.6-14.9c-1.8,0.1-3.3-1.3-3.4-3.1
		c0,0,0,0,0,0l-19.9,6.4C313,152.1,311.9,153.5,310.4,154.1L310.4,154.1z"></path><ellipse class="st2" transform="matrix(0.9927 -0.1207 0.1207 0.9927 -19.3576 39.0066)" cx="312.4" cy="179.4" rx="13.2" ry="8.6"></ellipse><path class="st0" d="M311,188.5c-6.4,0-11.7-3.1-12.2-7.5c-0.6-5,5-9.7,12.5-10.6s14.1,2.4,14.7,7.3l0,0c0.6,4.9-5,9.7-12.5,10.6
		C312.7,188.4,311.8,188.5,311,188.5z M313.8,171.2c-0.8,0-1.6,0.1-2.4,0.1c-7,0.8-12.2,5.1-11.6,9.5s6.6,7.3,13.6,6.5
		s12.2-5.1,11.6-9.5C324.6,173.9,319.8,171.2,313.8,171.2L313.8,171.2z"></path><rect class="st1" x="183.3" y="295.9" width="44.2" height="77.6"></rect><path class="st0" d="M227.5,374h-44.2c-0.3,0-0.5-0.2-0.5-0.5v-77.6c0-0.3,0.2-0.5,0.5-0.5h44.2c0.3,0,0.5,0.2,0.5,0.5v77.6
		C228,373.8,227.8,374,227.5,374z M183.8,373H227v-76.6h-43.2V373z"></path><polygon class="st1" points="298.4,283.9 336.6,270.8 336.6,300.2 298.4,313.4 	"></polygon><path class="st0" d="M298.4,313.9c-0.3,0-0.5-0.2-0.5-0.5c0,0,0,0,0,0v-29.5c0-0.2,0.1-0.4,0.3-0.5l38.2-13.1
		c0.2-0.1,0.3,0,0.5,0.1c0.1,0.1,0.2,0.2,0.2,0.4v29.5c0,0.2-0.1,0.4-0.3,0.5l-38.2,13.1C298.5,313.9,298.4,313.9,298.4,313.9z
		 M298.9,284.2v28.5l37.2-12.8v-28.5L298.9,284.2z"></path><polygon class="st1" points="344.1,269 382.3,255.9 382.3,285.4 344.1,298.5 	"></polygon><path class="st0" d="M344.1,299c-0.1,0-0.2,0-0.3-0.1c-0.1-0.1-0.2-0.2-0.2-0.4V269c0-0.2,0.1-0.4,0.3-0.5l38.2-13.1
		c0.2-0.1,0.3,0,0.5,0.1c0.1,0.1,0.2,0.2,0.2,0.4v29.5c0,0.2-0.1,0.4-0.3,0.5L344.3,299C344.2,299,344.2,299,344.1,299z
		 M344.6,269.4v28.5l37.2-12.8v-28.5L344.6,269.4z"></path></g><g id="cerry"><path class="st1" d="M418.4,141.8c0,0,14.8-14.3,26.1-3.2s-9.6,39.9-27.6,16c0,0-13.5,10.1-24.4,1.7s-4.9-26.4,6.4-28.1
		C415.2,125.8,418.4,141.8,418.4,141.8z"></path><path class="st0" d="M420.9,147.9c-0.2,0-0.4-0.1-0.5-0.3l-1.9-4.2c-0.1-0.3,0-0.5,0.3-0.6c0.2-0.1,0.5,0,0.6,0.2l1.9,4.2
		c0.1,0.2,0,0.5-0.2,0.7c0,0,0,0,0,0C421,147.9,420.9,147.9,420.9,147.9z"></path><path class="st0" d="M443.7,151.3h-0.1c-0.3-0.1-0.4-0.3-0.4-0.6c0,0,0,0,0,0c1.7-8.2-5.1-10.1-5.4-10.2c-0.3-0.1-0.4-0.4-0.4-0.6
		s0.4-0.4,0.6-0.4c0.1,0,8,2.3,6.1,11.4C444.2,151.1,444,151.3,443.7,151.3z"></path><path class="st2" d="M419.2,142.9c-1.1,0.1-2.1-0.7-2.2-1.8c0-0.3,0-0.5,0.1-0.8c2-6.2,2.1-15,0.1-18.9c-0.9-1.6-1.9-3.1-3.1-4.5
		c-0.8-0.9-0.7-2.4,0.2-3.2c0.2-0.1,0.3-0.2,0.5-0.3l0,0c1-0.5,2.3-0.2,2.9,0.8c2.2,3.2,3.5,6.8,3.9,10.6c0.5,5.4-0.2,13.1-0.6,16.4
		C420.9,142.1,420.2,142.8,419.2,142.9L419.2,142.9z"></path><path class="st0" d="M419,143.4c-1.4,0-2.5-1.1-2.5-2.5c0-0.3,0-0.5,0.1-0.8c2-6.3,2-14.9,0.1-18.5c-0.9-1.6-1.9-3.1-3.1-4.4
		c-0.6-0.7-0.8-1.6-0.6-2.4c0.2-0.8,0.7-1.6,1.5-1.9c1.2-0.6,2.7-0.2,3.5,0.9c2.2,3.2,3.6,7,4,10.8c0.5,5.5-0.2,13.4-0.6,16.5
		c-0.1,1.2-1.1,2.1-2.2,2.2L419,143.4z M415.8,113.6c-0.3,0-0.5,0.1-0.8,0.2c-0.5,0.2-0.9,0.7-1,1.2c-0.1,0.6,0,1.1,0.4,1.6
		c1.2,1.4,2.3,3,3.2,4.6c2.1,3.8,2.1,12.6,0,19.2c-0.2,0.5-0.1,1,0.3,1.4c0.3,0.4,0.8,0.6,1.3,0.5l0,0c0.7-0.1,1.3-0.6,1.3-1.3
		c0.4-3.1,1.1-10.9,0.6-16.3c-0.4-3.7-1.7-7.3-3.9-10.4C416.9,113.9,416.4,113.6,415.8,113.6z"></path><path class="st1" d="M420.9,129.1c5.1-10.6,12.1-13.6,19-14.9s13.5-2.2,16.4-5.9c-0.5,7.1-4.3,13.6-10.2,17.5
		C436,132.6,420.9,129.1,420.9,129.1z"></path><path class="st0" d="M423.3,128.9c-0.2,0-0.4-0.2-0.5-0.4c-0.1-0.3,0.1-0.5,0.3-0.6l0,0l0.8-0.2c5-1.5,20.4-5.9,28.6-15.4
		c0.2-0.2,0.5-0.2,0.7-0.1c0.2,0.2,0.2,0.5,0.1,0.7c-8.4,9.8-23.9,14.3-29,15.8l-0.8,0.2C423.4,128.9,423.4,128.9,423.3,128.9z"></path></g><g id="graduation-gown"><path class="st1" d="M135.8,171c3.6,2.9,3.6,5.8,5.4,8.7c0.6,0.9,1.2,1.8,1.9,2.6c0.7,0.8,0.6,2-0.1,2.7c0,0,0,0,0,0
		c-1.9,1.7-5.5,4.1-9.7,3c-0.7-0.2-1.2-0.7-1.4-1.3c-1.4-5.1-0.6-10.6,2.1-15.2L135.8,171z"></path><path class="st0" d="M135.3,188.7c-0.8,0-1.5-0.1-2.2-0.3c-0.8-0.2-1.5-0.9-1.7-1.7c-1.4-5.3-0.7-10.9,2.1-15.6
		c0.1-0.1,0.2-0.2,0.3-0.2l1.9-0.5c0.2,0,0.3,0,0.4,0.1c1.9,1.6,3.3,3.7,4.1,6c0.4,1,0.8,2,1.4,2.9c0.5,0.9,1.2,1.7,1.8,2.5
		c0.4,0.5,0.7,1.1,0.6,1.7c0,0.6-0.3,1.2-0.8,1.7C141.1,187.4,138.3,188.6,135.3,188.7z M134.2,171.9c-2.6,4.4-3.3,9.7-1.9,14.6
		c0.1,0.5,0.5,0.9,1,1c4.1,1,7.5-1.4,9.3-2.9c0.3-0.3,0.5-0.6,0.5-1c0-0.4-0.1-0.7-0.4-1c-0.7-0.8-1.4-1.7-1.9-2.6
		c-0.6-1-1.1-2-1.5-3c-0.7-2.1-1.9-4-3.6-5.4L134.2,171.9z"></path><path class="st0" d="M134.2,188.7c-0.2,0-0.4-0.1-0.5-0.3c-2.1-5.2-1-11.1,0.5-16.7c0.1-0.2,0.3-0.4,0.6-0.4c0.3,0,0.4,0.2,0.4,0.5
		c0,6.7,2,16.1,2.1,16.2c0.1,0.3-0.1,0.5-0.4,0.6c0,0,0,0,0,0c-0.3,0.1-0.5-0.1-0.6-0.4c0,0,0,0,0,0c-0.9-4.3-1.5-8.6-1.9-12.9
		c-0.9,4.3-1.3,8.7,0.3,12.6c0.1,0.3,0,0.5-0.3,0.6c0,0,0,0,0,0C134.3,188.6,134.3,188.7,134.2,188.7z"></path><path class="st0" d="M140.4,187.3c-0.2,0-0.3-0.1-0.4-0.2c-2.7-4.3-5.6-14.7-5.8-15.2c-0.1-0.3,0.1-0.5,0.3-0.6
		c0.2-0.1,0.5,0,0.6,0.3c0.1,0.1,4.6,8.9,8.2,13.1c0.2,0.2,0.2,0.5-0.1,0.7c-0.2,0.2-0.5,0.2-0.7-0.1c-2.2-2.8-4.2-5.8-5.9-9
		c1.1,3.4,2.7,7.8,4.2,10.2c0.1,0.2,0.1,0.5-0.1,0.7c0,0,0,0,0,0C140.6,187.3,140.5,187.3,140.4,187.3z"></path><path class="st2" d="M134.4,127.9c-8.4-0.4-21.4,7-21.1,18.5s13.4,13.8,17.8,16.4c4.3,2.6,4.8,9.1,4.8,9.1s-0.9,1.4-1.9,0.5
		s-0.1-6.9-6.5-8.6s-15.6-6-16.4-16.5s7.6-17.4,12-19.4s8.9-2.9,11.8-2.5L134.4,127.9z"></path><path class="st0" d="M134.6,173.2c-0.4,0-0.8-0.2-1.1-0.5c-0.4-0.6-0.6-1.2-0.7-1.9c-0.5-2.1-1.1-5.4-5.6-6.6
		c-7.2-2-16-6.5-16.8-16.9c-0.8-11.3,8.6-18.2,12.3-19.9c4.3-2,8.9-2.9,12-2.5c0.1,0,0.3,0.1,0.3,0.2c0.1,0.1,0.1,0.3,0.1,0.4
		l-0.4,2.5c0,0.3-0.3,0.4-0.5,0.4c-5.1-0.2-11.4,2.4-15.6,6.5c-3.2,2.9-5,7.1-5,11.5c0.2,8.7,8,11.9,13.7,14.2
		c1.3,0.5,2.6,1.1,3.9,1.8c4.5,2.7,5,9.2,5,9.5c0,0.1,0,0.2-0.1,0.3C135.8,172.7,135.3,173,134.6,173.2L134.6,173.2z M133.3,125.8
		c-3.5,0.2-6.9,1-10.1,2.5c-3.5,1.6-12.5,8.2-11.7,18.9c0.7,9.9,9.1,14.2,16,16.1c5,1.4,5.8,5.1,6.3,7.4c0.1,0.5,0.2,0.9,0.4,1.4
		c0.1,0.1,0.2,0.2,0.4,0.2c0.3-0.1,0.5-0.2,0.6-0.5c-0.1-1-0.9-6.3-4.5-8.6c-1.2-0.7-2.4-1.2-3.7-1.7c-5.6-2.3-14-5.8-14.3-15.1
		c0-4.6,1.9-9.1,5.3-12.2c4.2-4.1,10.4-6.8,15.7-6.8h0.2l0.3-1.5C133.9,125.8,133.6,125.8,133.3,125.8z"></path><polygon class="st2" points="144.4,106.1 126.4,149.6 204.1,137.9 236.1,89.3 	"></polygon><path class="st0" d="M126.4,150.1c-0.2,0-0.3-0.1-0.4-0.2c-0.1-0.1-0.1-0.3-0.1-0.5l18-43.5c0.1-0.2,0.2-0.3,0.4-0.3L236,88.8
		c0.2,0,0.4,0,0.5,0.2c0.1,0.2,0.1,0.4,0,0.6l-32,48.6c-0.1,0.1-0.2,0.2-0.3,0.2L126.4,150.1L126.4,150.1z M144.7,106.6L127.2,149
		l76.7-11.6L235,90L144.7,106.6z"></path><polygon class="st1" points="126.4,149.6 124.3,147.7 142.3,104.2 144.4,106.1 	"></polygon><path class="st0" d="M126.4,150.1c-0.1,0-0.3,0-0.4-0.1l-2-1.9c-0.2-0.1-0.2-0.4-0.1-0.6l18-43.5c0.1-0.2,0.2-0.3,0.4-0.3
		c0.2,0,0.3,0,0.4,0.1l2,1.9c0.2,0.1,0.2,0.4,0.1,0.6l-18,43.5C126.7,150,126.6,150.1,126.4,150.1L126.4,150.1z M124.9,147.6
		l1.3,1.2l17.6-42.5l-1.3-1.2L124.9,147.6z"></path><polygon class="st0" points="236.1,89.3 234.1,87.4 142.3,104.2 144.4,106.1 	"></polygon><path class="st0" d="M144.4,106.6c-0.1,0-0.2,0-0.3-0.1l-2-1.9c-0.1-0.1-0.2-0.3-0.1-0.5c0.1-0.2,0.2-0.3,0.4-0.3L234,86.9
		c0.2,0,0.3,0,0.4,0.1l2,1.9c0.2,0.2,0.2,0.5,0,0.7c-0.1,0.1-0.2,0.1-0.3,0.1L144.4,106.6L144.4,106.6z M143.4,104.5l1.1,1L235,89
		l-1.1-1.1L143.4,104.5z"></path><path class="st0" d="M198.2,144.6c-14.9,6.3-29.5,6.7-31.8,3.4c-0.3-0.5-0.5-1-0.5-1.6c0-7,21.9-21.9,38.6-21.9
		c3.2,0,5.5,0.7,6.7,1.8l0.6,0.6l0,0C214.8,131.1,212.7,138.8,198.2,144.6z"></path><path class="st0" d="M174.3,150.6c-4.3,0-7.4-0.8-8.4-2.3c-0.4-0.5-0.6-1.2-0.6-1.9c0-7.2,21.9-22.4,39.1-22.4
		c3.2,0,5.6,0.7,7.1,1.9l0.6,0.7c1.3,1.8,1.7,4.1,1,6.2c-1.3,4.6-6.6,9-14.8,12.2C189.5,148.8,180.6,150.6,174.3,150.6z M204.5,125
		c-16.3,0-38.1,14.7-38.1,21.4c0,0.5,0.1,0.9,0.4,1.3c2,3,16.3,2.8,31.2-3.6l0,0c10.7-4.3,13.5-9.1,14.2-11.6
		c0.6-1.8,0.3-3.7-0.8-5.3l-0.6-0.6C209.6,125.6,207.4,125,204.5,125z"></path><path class="st1" d="M211.2,126.3c-1.3-1.1-3.5-1.8-6.7-1.8c-16.7,0-38.6,14.9-38.6,21.9c0,0.6,0.2,1.1,0.5,1.6l-9.3-15.5l0,0
		l-0.3-0.3c-0.4-0.5-0.6-1.1-0.6-1.8c0-7,21.9-21.9,38.6-21.9c3.9,0,6.3,1,7.4,2.5l0,0L211.2,126.3z"></path><path class="st0" d="M166.4,148.5c-0.2,0-0.3-0.1-0.4-0.2c-0.1-0.1-0.1-0.2-0.2-0.3l-9.1-15.2l-0.3-0.3c-0.5-0.6-0.8-1.3-0.8-2.1
		c0-7.2,21.9-22.4,39.1-22.4c3.8,0,6.5,0.9,7.8,2.7l9.2,15.4c0.1,0.2,0.1,0.5-0.1,0.6c-0.2,0.2-0.5,0.2-0.6,0
		c-1.2-1.1-3.4-1.7-6.4-1.7c-16.3,0-38.1,14.7-38.1,21.4c0,0.4,0.1,0.7,0.3,1.1l0.1,0.2c0.1,0.2,0.1,0.5-0.2,0.7
		C166.6,148.5,166.5,148.5,166.4,148.5z M194.7,109c-16.3,0-38.1,14.7-38.1,21.4c0,0.5,0.2,1,0.5,1.4l0.3,0.3l0.1,0.1l8,13.3
		c1.6-7.5,22.4-21.5,39-21.5c1.8-0.1,3.6,0.2,5.3,0.8l-8.1-13.6l0,0C200.6,109.8,198.2,109,194.7,109z"></path></g><g id="car"><path class="st0" d="M120.2,241.6c-3.4-4.5-9.2-5.8-12.9-3l-3.5,2.6l0.9,1.2c-0.9,3.3-0.1,6.8,2,9.4c1.8,2.5,4.6,4.1,7.7,4.4
		l1.1,1.6l4.1-3C123.3,252,123.6,246.1,120.2,241.6z"></path><path class="st0" d="M115.5,258.4L115.5,258.4c-0.2,0-0.3-0.1-0.4-0.2l-1-1.4c-3.1-0.4-6-2.1-7.9-4.6c-2.2-2.7-2.9-6.2-2.1-9.6
		l-0.7-1c-0.2-0.2-0.1-0.5,0.1-0.7l3.5-2.6c2-1.5,4.6-2,7-1.3c2.7,0.6,5,2.2,6.6,4.4c3.6,4.7,3.2,10.9-0.8,13.9l-4.1,3
		C115.6,258.4,115.6,258.4,115.5,258.4z M104.5,241.4l0.6,0.8c0.1,0.1,0.1,0.3,0.1,0.4c-0.8,3.1-0.1,6.4,1.9,9
		c1.8,2.4,4.4,3.9,7.4,4.2c0.1,0,0.3,0.1,0.4,0.2l0.8,1.1l3.7-2.7c3.5-2.7,3.8-8.3,0.6-12.5c-1.5-2-3.6-3.4-6-4
		c-2.1-0.6-4.4-0.1-6.2,1.2L104.5,241.4z"></path><ellipse class="st2" transform="matrix(0.7975 -0.6033 0.6033 0.7975 -128.2161 116.828)" cx="109.9" cy="249.4" rx="8.5" ry="10.2"></ellipse><path class="st0" d="M111.5,259.5c-0.7,0-1.4-0.1-2.1-0.2c-5.4-1.4-9.2-6.4-9.1-12c0.1-2.5,1.2-4.8,3.2-6.4c4-3,10.1-1.6,13.6,3.1
		l0,0c3.5,4.7,3.2,10.9-0.8,13.9C115,258.9,113.2,259.5,111.5,259.5z M108.4,240.3c-1.5,0-3,0.5-4.3,1.4c-1.7,1.4-2.8,3.4-2.8,5.6
		c-0.1,5.1,3.3,9.6,8.3,10.9c2.1,0.6,4.4,0.1,6.2-1.2c3.5-2.7,3.8-8.3,0.6-12.5l0,0C114.5,242,111.5,240.4,108.4,240.3L108.4,240.3z
		"></path><ellipse class="st1" transform="matrix(0.7975 -0.6033 0.6033 0.7975 -128.2161 116.828)" cx="109.9" cy="249.4" rx="5.8" ry="6.9"></ellipse><path class="st0" d="M111,256.4c-2.4-0.1-4.6-1.3-6.1-3.2c-2.4-3.2-2.2-7.6,0.5-9.7s7-1.1,9.4,2.1l0,0c1.2,1.5,1.8,3.3,1.7,5.2
		c0,1.7-0.9,3.4-2.2,4.4C113.4,256,112.2,256.4,111,256.4z M108.9,243.4c-1,0-2,0.3-2.8,0.9c-2.3,1.8-2.5,5.4-0.3,8.3s5.7,3.7,8,1.9
		c1.1-0.9,1.8-2.2,1.8-3.7c0.1-1.7-0.5-3.3-1.5-4.6l0,0C112.9,244.5,110.9,243.5,108.9,243.4L108.9,243.4z"></path><path class="st0" d="M86,269.1c-3.4-4.5-9.2-5.8-12.9-3l-3.5,2.6l0.9,1.2c-0.9,3.3-0.1,6.8,2,9.4c1.8,2.5,4.7,4.1,7.8,4.4l1.1,1.6
		l4.1-3C89.1,279.5,89.3,273.6,86,269.1z"></path><path class="st0" d="M81.2,285.9L81.2,285.9c-0.2,0-0.3-0.1-0.4-0.2l-1-1.4c-3.1-0.4-6-2.1-7.8-4.6c-2.2-2.7-2.9-6.2-2.1-9.6
		l-0.7-1c-0.2-0.2-0.1-0.5,0.1-0.7l3.5-2.6c4-3,10.1-1.6,13.6,3.1s3.2,10.9-0.8,13.9l-4.1,3C81.5,285.8,81.3,285.9,81.2,285.9z
		 M70.2,268.9l0.6,0.8c0.1,0.1,0.1,0.3,0.1,0.4c-0.8,3.1-0.1,6.4,1.9,9c1.7,2.4,4.4,3.9,7.4,4.2c0.2,0,0.3,0.1,0.4,0.2l0.8,1.1
		L85,282c3.5-2.7,3.8-8.3,0.6-12.5s-8.7-5.5-12.2-2.9L70.2,268.9z"></path><ellipse class="st2" transform="matrix(0.8 -0.6 0.6 0.8 -151.7184 100.5488)" cx="75" cy="277.9" rx="8.5" ry="10.2"></ellipse><path class="st0" d="M77.3,287c-0.7,0-1.4-0.1-2.1-0.2c-2.7-0.6-5-2.2-6.6-4.4c-3.6-4.7-3.2-10.9,0.8-13.9c2-1.5,4.6-2,7-1.4
		c5.4,1.4,9.1,6.4,9,12c0,2.5-1.2,4.8-3.2,6.4C80.7,286.5,79,287,77.3,287z M74.1,267.8c-1.5,0-3,0.5-4.3,1.4
		c-3.5,2.7-3.8,8.3-0.6,12.5c1.5,2,3.6,3.4,6,4c3.8,1.1,7.7-1.1,8.7-4.9c0.2-0.6,0.3-1.3,0.3-1.9c0.1-2.5-0.7-4.9-2.2-6.9l0,0
		c-1.5-2-3.6-3.4-6-4C75.4,267.9,74.8,267.8,74.1,267.8L74.1,267.8z"></path><ellipse class="st1" transform="matrix(0.7975 -0.6033 0.6033 0.7975 -151.7363 101.7516)" cx="75.7" cy="276.9" rx="5.8" ry="6.9"></ellipse><path class="st0" d="M76.8,283.9c-0.5,0-1-0.1-1.5-0.2c-1.8-0.4-3.4-1.5-4.6-3c-2.5-3.2-2.2-7.6,0.5-9.7s7-1.1,9.4,2.1
		c1.2,1.5,1.8,3.3,1.7,5.2c0,1.7-0.9,3.4-2.2,4.4C79.2,283.5,78,283.9,76.8,283.9z M74.6,270.9c-1,0-2,0.3-2.8,0.9
		c-2.3,1.8-2.5,5.5-0.3,8.3c1,1.3,2.4,2.3,4,2.7c2.5,0.7,5-0.7,5.7-3.2c0.1-0.4,0.2-0.8,0.2-1.3c0.1-1.7-0.5-3.3-1.5-4.6
		C78.7,272,76.7,271,74.6,270.9z"></path><path class="st2" d="M139.5,225.5c1.1,2.7,0.2,5.9-2.1,7.7l-12.9,10.5c-1.4,1.2-3.5,1.1-4.8-0.3c-3.4-3.4-10.3-8.6-16.9-3.3
		c-6.3,5.1-3.4,11.5-0.9,15.1c1.1,1.6,0.8,3.8-0.8,5l-13.8,10.2c-1.3,1-3.1,0.9-4.4-0.1c-3.3-2.6-9.8-6.5-15-2.4s-2.6,11.6-0.7,15.4
		c0.7,1.4,0.4,3.1-0.8,4.2c-5.1,4.8-18,16.7-20.1,16.7s-9.3-9.7-12.1-15.5l0,0c-1.1-3.1,5.2-11,7.9-13.5s7-6.8,7.8-8.3
		s-0.9-7.6-0.9-7.6s-1.1-9.4-0.7-11.1c2.2-4.5,26.8-25,32.9-26.4c0.7-0.2,1.4-0.2,2.2-0.2c6.9,0.2,19,5.8,20.6,5.9
		c1.7,0.1,9.1-5.3,13.8-8.3s13.2-7.7,16-5.9l0,0c1.4,2.3,2.6,4.6,3.6,7.1C138.2,222.2,138.9,224,139.5,225.5z"></path><path class="st0" d="M46.3,304.7c-2.7,0-10-10.5-12.6-15.8c0,0,0-0.1,0-0.1c-1.2-3.7,5.9-12,8.1-14c1.7-1.6,6.9-6.6,7.7-8.1
		c0.5-1-0.3-4.9-1-7.2c-0.1-1-1.1-9.6-0.7-11.4c0,0,0-0.1,0-0.1c2.4-4.9,27-25.3,33.2-26.6c0.8-0.2,1.5-0.2,2.3-0.2
		c4.8,0.1,12.3,2.9,16.8,4.6c1.3,0.5,2.6,1,3.9,1.3c1.1,0.1,5.8-3.1,9.2-5.4c1.5-1,3-2,4.2-2.8c3.8-2.4,13.2-7.9,16.5-6
		c0.1,0,0.2,0.1,0.2,0.2c1.2,1.8,2.2,3.7,3,5.7c0.2,0.5,0.4,0.9,0.6,1.4c0.7,1.6,1.5,3.3,2.1,5.1c1.1,3,0.3,6.3-2.2,8.3l-12.8,10.5
		c-1.6,1.3-4,1.2-5.5-0.3c-3.4-3.4-10-8.3-16.3-3.2c-5.8,4.6-3.6,10.4-0.8,14.4c1.3,1.8,0.9,4.4-0.9,5.7l-13.9,10.3
		c-1.5,1.1-3.5,1.1-5-0.1c-3.3-2.6-9.5-6.3-14.4-2.4s-2.5,10.9-0.6,14.7c0.8,1.6,0.5,3.6-0.9,4.8C54.9,299.1,48,304.7,46.3,304.7z
		 M34.7,288.6c3,6.1,9.9,15.2,11.6,15.2c1,0,6.8-4.3,19.8-16.5c1-0.9,1.3-2.4,0.7-3.6c-2-4.1-4.6-11.6,0.9-16s12.1-0.3,15.6,2.4
		c1.1,0.9,2.6,0.9,3.8,0.1l13.8-10.2c1.4-1,1.7-2.9,0.7-4.3c-2.5-3.6-5.7-10.4,1-15.8c6.9-5.6,14-0.3,17.6,3.3
		c1.1,1.1,2.9,1.3,4.1,0.2l12.9-10.5c2.1-1.7,2.9-4.6,1.9-7.2l0,0c-0.7-1.8-1.4-3.5-2.1-5.1l-0.6-1.4c-0.8-1.9-1.7-3.7-2.8-5.5
		c-2.4-1.3-9.8,2.4-15.4,6c-1.3,0.8-2.7,1.8-4.2,2.8c-5.2,3.5-8.5,5.6-9.8,5.5c-1.4-0.3-2.8-0.8-4.1-1.4c-4.4-1.6-11.8-4.4-16.5-4.5
		c-0.7,0-1.4,0-2.1,0.1c-5.8,1.3-30,21.4-32.5,26.1c-0.3,1.5,0.4,8.4,0.7,10.9c0.3,1,1.7,6.3,0.9,7.9s-4.7,5.3-7.9,8.4
		C39.7,278.2,33.7,285.8,34.7,288.6C34.7,288.5,34.7,288.6,34.7,288.6z"></path><path class="st1" d="M49.9,266.9c-0.8,1.5-5.1,5.7-7.8,8.3s-9,10.4-7.9,13.5c-0.5-1-0.9-2-1.1-3.1c-0.5-4.1,3.6-13.2,5.4-15
		S49,259.3,49,259.3S50.7,265.4,49.9,266.9z"></path><path class="st0" d="M34.2,289.2c-0.2,0-0.4-0.1-0.5-0.3c-0.5-1-0.9-2.1-1.2-3.2c-0.5-4.2,3.5-13.5,5.5-15.4
		c1.8-1.8,10.5-11.1,10.5-11.2c0.1-0.1,0.3-0.2,0.5-0.1c0.2,0,0.3,0.2,0.4,0.4c0.3,1,1.8,6.3,0.9,7.9l0,0c-0.8,1.5-4.7,5.3-7.9,8.4
		c-2.8,2.6-8.8,10.3-7.8,13c0.1,0.3,0,0.5-0.3,0.6C34.3,289.2,34.3,289.2,34.2,289.2z M48.7,260.3c-2,2.2-8.4,9.1-10,10.6
		s-5.7,10.6-5.2,14.6c0,0.3,0.1,0.6,0.2,0.9c1.1-4.1,6.2-10,8-11.7s6.9-6.6,7.7-8.1l0,0C49.9,265.8,49.3,262.6,48.7,260.3
		L48.7,260.3z"></path><path class="st1" d="M133.8,213.3c-2.9-1.7-11.3,2.9-16,5.9s-12,8.4-13.8,8.3l0.6-11.8l0.5-0.1c3.5-0.8,19.1-7.5,23.7-6.1
		C130.9,210.1,132.6,211.5,133.8,213.3z"></path><path class="st0" d="M104,228L104,228c-0.4,0-0.6-0.2-0.5-0.5c0,0,0,0,0,0l0.6-11.8c0-0.2,0.2-0.4,0.4-0.5l0.4-0.1
		c1-0.2,2.9-0.9,5.2-1.7c6.4-2.3,15.3-5.4,18.8-4.4c2.2,0.7,4.1,2.1,5.3,4c0.1,0.2,0.1,0.4,0,0.6c-0.2,0.2-0.4,0.2-0.6,0.1
		c-2.3-1.4-9.8,2.3-15.5,5.9c-1.3,0.8-2.7,1.8-4.2,2.8C108.6,225.9,105.4,228,104,228z M105,216.1l-0.6,10.8
		c1.6-0.5,5.7-3.2,8.7-5.3c1.5-1,3-2,4.2-2.8c3.4-2.1,11-6.6,15-6.4c-1-1.2-2.3-2.1-3.8-2.5c-3.2-0.9-12.2,2.3-18.2,4.4
		C108,215.2,106.1,215.9,105,216.1L105,216.1z"></path><path class="st0" d="M104.6,215.7l-0.6,11.8c-1.6-0.1-13.7-5.7-20.6-5.9l3.6-6.4C93.1,214.8,101.2,216.2,104.6,215.7z"></path><path class="st0" d="M104,228L104,228c-1.4-0.3-2.8-0.8-4.1-1.4c-4.5-1.6-11.9-4.4-16.5-4.5c-0.2,0-0.3-0.1-0.4-0.2
		c-0.1-0.2-0.1-0.3,0-0.5l3.7-6.4c0.1-0.1,0.2-0.2,0.4-0.2c3.5-0.2,6.9-0.1,10.4,0.3c2.4,0.3,4.8,0.3,7.1,0.2c0.1,0,0.3,0,0.4,0.1
		c0.1,0.1,0.2,0.2,0.2,0.4l-0.6,11.8c0,0.1-0.1,0.3-0.2,0.4C104.2,228,104.1,228,104,228z M84.2,221.2c4.8,0.4,11.7,2.9,16,4.5
		c1.3,0.5,2.6,1,3.3,1.2l0.6-10.6c-2.3,0.1-4.5,0-6.8-0.2c-3.3-0.3-6.7-0.4-10-0.3L84.2,221.2z"></path><path class="st1" d="M87,215.2l-3.7,6.4c-0.7,0-1.5,0-2.2,0.2c-6.1,1.4-30.6,21.9-32.9,26.4c0.4-1.8,7.5-13.5,8.7-14.7
		s21-16.5,27.5-17.9C85.3,215.4,86.1,215.3,87,215.2z"></path><path class="st0" d="M48.3,248.7c-0.1,0-0.1,0-0.2,0c-0.2-0.1-0.4-0.3-0.3-0.6c0.5-1.8,7.5-13.7,8.9-14.9c1.1-1,21-16.6,27.6-18
		c0.9-0.2,1.8-0.3,2.7-0.4c0.2,0,0.4,0.1,0.5,0.2c0.1,0.2,0.1,0.4,0,0.5l-3.7,6.4c-0.1,0.2-0.3,0.3-0.4,0.2c-0.7,0-1.3,0-2,0.1
		c-5.9,1.3-30.2,21.5-32.5,26.1C48.7,248.6,48.5,248.7,48.3,248.7z M86.1,215.8c-0.6,0.1-1.1,0.1-1.6,0.2
		c-6.3,1.4-26.1,16.9-27.2,17.8c-0.8,0.7-4.3,6.4-6.6,10.5c7.3-7.6,25.1-21.9,30.3-23c0.7-0.1,1.3-0.2,2-0.2L86.1,215.8z"></path><path class="st0" d="M55.2,264l43.7-32.3c0,0-11-7.2-17.3-4.2s-26.2,18.2-27.3,20.7S55.2,264,55.2,264z"></path><path class="st0" d="M55.2,264.5c-0.1,0-0.1,0-0.2,0c-0.2-0.1-0.3-0.2-0.3-0.4c-0.2-1.4-2.1-13.6-0.9-16.1c1.3-2.7,21.3-18,27.5-21
		c6.5-3.1,17.3,4,17.8,4.3c0.1,0.1,0.2,0.2,0.2,0.4c0,0.2-0.1,0.3-0.2,0.4l-43.7,32.4C55.4,264.5,55.3,264.5,55.2,264.5z
		 M85.2,227.2c-1.2,0-2.3,0.2-3.4,0.7c-6.5,3.1-26,18.2-27.1,20.4c-0.8,1.8,0.3,10.6,0.9,14.7l42.4-31.4
		C96,230.6,90.1,227.2,85.2,227.2L85.2,227.2z"></path><path class="st0" d="M92.8,266.9c-0.2,0-0.3-0.1-0.4-0.2l-15.3-18.9c-0.2-0.2-0.1-0.5,0.1-0.7c0.2-0.2,0.5-0.1,0.7,0.1l15.3,18.9
		c0.2,0.2,0.1,0.5-0.1,0.7C93,266.9,92.9,266.9,92.8,266.9z"></path></g></svg>