<svg transform="scale(1)" version="1.1" id="Q0GGNH03VT" xmlns="http://www.w3.org/2000/svg" xmlns:xlink="http://www.w3.org/1999/xlink" x="0px" y="0px" viewBox="0 0 500 500" xml:space="preserve" class="pbimage_pbimage__wrapper__image__0LEis false"><title>Startup 1</title><style type="text/css"> .st0{fill:#000111;} .st1{fill:url(#SVGID_1_-Q0GGNH03VT);} .st2{fill:url(#SVGID_00000033333483088084876340000004102522075917315749_-Q0GGNH03VT);} .st3{fill:url(#SVGID_00000085248702356631253000000016628739772968438427_-Q0GGNH03VT);} .st4{fill:url(#SVGID_00000133525388491907075290000001063390729294020254_-Q0GGNH03VT);} .st5{fill:#FFFFFF;} .st6{fill:url(#SVGID_00000132785097848541135530000001014687336622386064_-Q0GGNH03VT);} .st7{fill:url(#SVGID_00000139974900490489550840000012357551551061114753_-Q0GGNH03VT);} .st8{fill:url(#SVGID_00000038393103248595338620000013841486726674245047_-Q0GGNH03VT);} .st9{fill:url(#SVGID_00000129916929332602335080000011420807906987478167_-Q0GGNH03VT);} .st10{fill:url(#SVGID_00000072990667434270498520000015488230154513951639_-Q0GGNH03VT);} .st11{fill:#FFC2A7;} .st12{fill:#D88260;} .st13{fill:#005045;} .st14{fill:url(#SVGID_00000123421512576087595840000003680578133532450176_-Q0GGNH03VT);} .st15{fill:#FED490;} .st16{fill:#C64234;}
 .st16{fill:#C64234;}
 .st15{fill:#FED490;}
 .st13{fill:#005045;}
 .st12{fill:#D88260;}
 .st11{fill:#FFC2A7;}
 .st5{fill:#FFFFFF;}
 .st0{fill:#000111;}</style><g id="rocket"><path class="st0" d="M226.2,438c-0.5,0-0.9-0.3-1.1-0.7c-5.5-12.7-13.2-20.4-22.9-22.9c-17.7-4.6-36.4,9.5-36.5,9.7
		c-0.4,0.3-0.9,0.3-1.3,0.1c-11.1-6.4-18.9,3-19.2,3.4c-0.2,0.3-0.6,0.5-1,0.4c-0.4,0-0.7-0.3-0.9-0.6c-5.6-10.1-13-16.5-21.8-18.9
		c-14.3-3.9-27.9,4-28,4.1c-0.4,0.2-0.9,0.2-1.2,0c-0.4-0.3-0.6-0.7-0.5-1.1c3.1-17.7-13.3-23.9-14-24.2c-0.6-0.2-0.9-0.9-0.7-1.5
		c0.1-0.3,0.4-0.6,0.7-0.7l34.2-13.2c0.6-0.2,1.3,0.2,1.4,0.8c0.2,0.6-0.1,1.1-0.6,1.4l-31.7,12.3c4.8,2.6,14.5,9.6,13.2,23.3
		c4.5-2.1,15.7-6.5,27.8-3.3c9.1,2.5,16.7,8.7,22.5,18.6c2.8-2.6,10.5-8.4,20.4-3.1c3.5-2.5,20.8-14.1,37.9-9.6
		c10.4,2.7,18.7,10.9,24.4,24.2c0.3,0.6,0,1.3-0.6,1.5c0,0,0,0,0,0C226.5,438,226.4,438,226.2,438z" fill="#000111"></path><path class="st0" d="M56.9,316c-0.2,0-0.4-0.1-0.6-0.2c-0.3-0.2-0.5-0.5-0.5-0.9c0-0.2-2.4-23.2-16.5-23.8c-0.6,0-1.1-0.6-1.1-1.2
		c0,0,0-0.1,0-0.1c0-0.2,3.9-23.9-7-37.5c-4.6-5.8-11.4-9-20-9.5c-0.6,0-1.1-0.6-1.1-1.2c0-0.4,0.2-0.7,0.6-0.9
		c0.1-0.1,11.2-6.8,8.3-14.9c-0.2-0.6,0.2-1.3,0.8-1.4c0.6-0.2,1.2,0.1,1.4,0.7c2.5,7.1-3.1,13-6.7,15.9c7.8,1,14.1,4.4,18.6,10
		c10.2,12.7,8.3,32.9,7.6,38.1c13,1.6,16.5,19,17.3,24.3l32.6-11.6c0.6-0.2,1.3,0.1,1.5,0.7c0,0,0,0,0,0c0.2,0.6-0.1,1.3-0.7,1.5
		c0,0,0,0,0,0l-34,12.2C57.2,316,57,316,56.9,316z" fill="#000111"></path><linearGradient id="SVGID_1_-Q0GGNH03VT" gradientUnits="userSpaceOnUse" x1="963.1696" y1="-502.2033" x2="1015.4896" y2="-638.7533" gradientTransform="matrix(0.3371 0.9415 0.9415 -0.3371 296.7623 -867.5754)"><stop offset="0" style="stop-color: rgb(243, 131, 116);"></stop><stop offset="1" style="stop-color: rgb(198, 66, 52);"></stop></linearGradient><path class="st1" d="M154.6,249.2L154.6,249.2c-3.3-9.2-11.6-15.7-21.3-16.7l-55.4-5.8c-13.2-1.4-26.2,4.2-34.3,14.7l-25.3,32.8
		c-0.9,1.2-1.2,2.8-0.7,4.2l2.4,6.6c0.8,2.3,3.4,3.5,5.7,2.7c0.6-0.2,1.1-0.5,1.5-0.9l22.5-21c0.2-0.2,0.4-0.4,0.6-0.5
		c21.1-14,52.9-2.9,66.6,21.8c1.2,2.2,3.9,2.9,6,1.7c0.5-0.3,0.9-0.6,1.2-1l29.4-34.2C154.8,252.3,155.1,250.7,154.6,249.2z"></path><path class="st0" d="M121,290.5c-2,0-3.9-1.1-4.9-2.9c-7.2-12.9-19.4-22.3-33.8-25.9c-11.4-2.8-22.5-1.2-31.2,4.6
		c-0.2,0.1-0.3,0.2-0.5,0.4l-22.5,21c-2.3,2.1-5.8,2-8-0.3c-0.5-0.6-0.9-1.2-1.2-1.9l-2.4-6.7c-0.7-1.8-0.3-3.8,0.8-5.3l25.2-32.8
		c8.4-10.8,21.7-16.5,35.4-15.2l55.4,5.8c10.2,1.1,18.8,7.9,22.3,17.5l0,0c0.7,1.9,0.3,4-1,5.6l-29.4,34.2
		C124.2,289.8,122.6,290.5,121,290.5z M71.6,258c3.8,0,7.6,0.5,11.3,1.4c15,3.8,27.7,13.6,35.2,27.1c0.9,1.6,2.9,2.2,4.5,1.3
		c0.3-0.2,0.6-0.4,0.9-0.7l29.4-34.2c0.8-0.9,1-2.1,0.6-3.3c-3.2-8.8-11.1-15-20.4-16l-55.4-5.8c-12.8-1.3-25.4,4.1-33.3,14.3
		l-25.3,32.9c-0.7,0.9-0.9,2.1-0.5,3.1l2.4,6.7c0.6,1.7,2.5,2.6,4.2,2c0.4-0.2,0.8-0.4,1.1-0.7l22.5-21c0.2-0.2,0.5-0.4,0.8-0.6
		C56.3,260.1,63.8,257.9,71.6,258z" fill="#000111"></path><linearGradient id="SVGID_00000044898383795294437630000012476550342200774841_-Q0GGNH03VT" gradientUnits="userSpaceOnUse" x1="-282.8777" y1="-501.4682" x2="-230.5678" y2="-638.0181" gradientTransform="matrix(-0.34 -0.94 0.94 -0.34 597.37 -26.48)"><stop offset="0" style="stop-color: rgb(243, 131, 116);"></stop><stop offset="1" style="stop-color: rgb(198, 66, 52);"></stop></linearGradient><path d="M199.6,375L199.6,375
		c3.3,9.2,1,19.5-5.8,26.5l-39.1,39.6c-9.3,9.5-22.9,13.4-35.9,10.4l-40.3-9.4c-1.5-0.3-2.7-1.4-3.2-2.8l-2.4-6.7
		c-0.9-2.3,0.3-4.9,2.6-5.7c0.6-0.2,1.2-0.3,1.8-0.3l30.8,1.9c0.3,0,0.5,0,0.8,0c25.1-2.6,42.8-31.3,37.7-59.1
		c-0.4-2.4,1.2-4.7,3.6-5.2c0.5-0.1,1.1-0.1,1.6,0l44.4,7.7C197.8,372.3,199.1,373.5,199.6,375z" style="fill: url(&quot;#SVGID_00000044898383795294437630000012476550342200774841_-Q0GGNH03VT&quot;);"></path><path class="st0" d="M127.3,453.6c-2.9,0-5.9-0.3-8.8-1l-40.3-9.3c-1.9-0.4-3.4-1.8-4-3.6l-2.4-6.7c-1-2.9,0.5-6.1,3.4-7.2
		c0.7-0.3,1.5-0.4,2.3-0.3l30.8,1.9c0.2,0,0.4,0,0.6,0c10.4-1.1,20-6.8,27-16.2c8.8-11.9,12.2-26.9,9.6-41.5c-0.6-3,1.5-6,4.5-6.5
		c0.7-0.1,1.3-0.1,2,0l44.4,7.7c2,0.3,3.6,1.7,4.3,3.6l0,0c3.4,9.6,1,20.4-6.1,27.7l-39.1,39.6C148.1,449.4,137.9,453.6,127.3,453.6
		z M77.1,427.8c-1.8,0-3.3,1.5-3.3,3.3c0,0.4,0.1,0.7,0.2,1.1l2.4,6.7c0.4,1.1,1.3,1.8,2.4,2.1l40.3,9.3c12.6,2.9,25.7-1,34.8-10.1
		l39.1-39.6c6.5-6.7,8.7-16.5,5.6-25.3l0,0c-0.4-1.1-1.4-1.9-2.6-2.1l-44.4-7.7c-1.8-0.3-3.5,0.9-3.8,2.7c-0.1,0.4-0.1,0.8,0,1.2
		c2.7,15.2-0.9,30.8-10.1,43.3c-7.4,9.9-17.6,16-28.6,17.1c-0.3,0-0.7,0-1,0l-30.8-1.9L77.1,427.8z" fill="#000111"></path><linearGradient id="SVGID_00000132053299398936184310000000527181128926819775_-Q0GGNH03VT" gradientUnits="userSpaceOnUse" x1="1057.004" y1="-220.7389" x2="1083.9312" y2="-220.7389" gradientTransform="matrix(0.3371 0.9415 0.9415 -0.3371 296.7623 -867.5754)"><stop offset="0" style="stop-color: rgb(243, 131, 116);"></stop><stop offset="1" style="stop-color: rgb(198, 66, 52);"></stop></linearGradient><polygon points="425.6,223.4 430.8,235.8 
		473.8,206.1 474,206 473.9,206 474,205.9 473.8,206 421.7,210.4 425.5,223.3 425.5,223.3 425.5,223.3 425.6,223.4 	" style="fill: url(&quot;#SVGID_00000132053299398936184310000000527181128926819775_-Q0GGNH03VT&quot;);"></polygon><path class="st0" d="M430.8,236.9c-0.1,0-0.2,0-0.3,0c-0.3-0.1-0.6-0.3-0.7-0.7l-5.2-12.3c0-0.1-0.1-0.1-0.1-0.2
		c0-0.1,0-0.1-0.1-0.2l-3.8-12.7c-0.2-0.6,0.2-1.3,0.8-1.4c0.1,0,0.1,0,0.2,0l51.9-4.4h0.1c0.5-0.2,1.2,0,1.4,0.6
		c0,0.1,0,0.1,0.1,0.2c0,0.1,0,0.1,0,0.2c0.1,0.6-0.2,1.1-0.7,1.3h-0.1l-42.9,29.6C431.2,236.9,431,236.9,430.8,236.9z M426.6,222.9
		l4.6,11.1l38.4-26.5l-46.5,3.9L426.6,222.9z" fill="#000111"></path><linearGradient id="SVGID_00000026148193108535893500000000946134958532698533_-Q0GGNH03VT" gradientUnits="userSpaceOnUse" x1="1031.7329" y1="-579.5056" x2="1113.0128" y2="-579.5056" gradientTransform="matrix(0.3371 0.9415 0.9415 -0.3371 296.7474 -867.5813)"><stop offset="0" style="stop-color: rgb(243, 131, 116);"></stop><stop offset="1" style="stop-color: rgb(198, 66, 52);"></stop></linearGradient><path d="M110.5,295l27.4,76.5l0,0l-16.1,5.8
		c-3.8,1.4-8.1-0.6-9.4-4.5l-22.4-62.6c-1.4-3.8,0.6-8.1,4.4-9.4c0,0,0,0,0,0L110.5,295L110.5,295z" style="fill: url(&quot;#SVGID_00000026148193108535893500000000946134958532698533_-Q0GGNH03VT&quot;);"></path><path class="st0" d="M119.3,378.9c-3.6,0-6.8-2.3-8-5.6l0,0l-22.5-62.6c-1.6-4.4,0.7-9.3,5.2-10.9l16.1-5.8c0.3-0.1,0.6-0.1,0.9,0
		c0.3,0.1,0.5,0.4,0.6,0.7l27.4,76.6c0.1,0.3,0.1,0.6,0,0.9c-0.1,0.3-0.4,0.5-0.7,0.6l-16.1,5.8
		C121.3,378.7,120.3,378.9,119.3,378.9z M113.4,372.4c1.2,3.2,4.7,4.9,7.9,3.8c0,0,0,0,0.1,0l15-5.4l-26.6-74.3l-15.1,5.4
		c-3.2,1.2-4.9,4.7-3.7,7.9L113.4,372.4z" fill="#000111"></path><rect class="st5" x="115.1" y="286.1" transform="matrix(0.9415 -0.3371 0.3371 0.9415 -104.0727 63.1191)" width="29.3" height="90.3" fill="#FFFFFF"></rect><path class="st0" d="M131.1,379.9c-0.5,0-0.9-0.3-1.1-0.8l-30.4-85c-0.2-0.6,0.1-1.3,0.7-1.5l27.6-9.9c0.6-0.2,1.3,0.1,1.5,0.7
		l30.4,85c0.2,0.6-0.1,1.3-0.7,1.5l-27.6,9.9C131.4,379.8,131.3,379.9,131.1,379.9z M102.1,294.4l29.7,82.8l25.4-9.1l-29.7-82.8
		L102.1,294.4z" fill="#000111"></path><path class="st5" d="M160.7,379.9c-8.2,1.1-16.1-3.7-18.9-11.5L114.1,291c-2.8-7.8,0.2-16.5,7.3-20.9
		c31.3-19.5,117.7-70.1,185.4-80.9c5.6-0.9,11.2-1.5,16.8-1.9c0,0,89.7-4.2,118.3,29.9h0.1v0.1l0.1,0.1h-0.1
		c-0.5,44.5-72.4,98.1-72.4,98.1c-4.6,3.3-9.3,6.4-14.2,9.2C296.1,359.4,197.2,375.1,160.7,379.9z" fill="#FFFFFF"></path><path class="st0" d="M158.4,381.2c-7.9,0-15-5-17.7-12.5L113,291.4c-2.9-8.3,0.3-17.6,7.8-22.3c25.6-15.9,52-30.5,79.2-43.8
		c41.5-20.1,77.4-32.6,106.7-37.3c5.6-0.9,11.3-1.5,16.9-1.9c16.2-0.5,32.5,0.2,48.6,2.2c34.6,4.3,58.3,13.7,70.4,27.9l0,0
		c0.3,0.2,0.5,0.6,0.5,1h-1l-0.1,0.1l0,0h1.1c-0.2,18.7-12.6,41.1-36.7,66.5c-11.2,11.7-23.3,22.6-36.2,32.5
		c-4.6,3.3-9.4,6.5-14.3,9.3c-58.8,34.4-156,50.1-195,55.3l0,0C160,381.1,159.2,381.2,158.4,381.2z M332.3,188.3
		c-5.3,0-8.5,0.1-8.6,0.1c-5.6,0.3-11.2,0.9-16.7,1.8c-22.3,3.6-85,18.5-185,80.7c-6.6,4.1-9.4,12.2-6.8,19.5l27.7,77.4
		c2.6,7.3,10,11.8,17.7,10.8l0,0c116.8-15.4,174.7-43.6,194.2-55c4.8-2.8,9.5-5.9,14.1-9.2c0.7-0.5,71.1-53.6,72-96.9
		C417.9,190.9,355.3,188.3,332.3,188.3L332.3,188.3z" fill="#000111"></path><linearGradient id="SVGID_00000139263685497045808550000015266563357508793009_-Q0GGNH03VT" gradientUnits="userSpaceOnUse" x1="963.918" y1="-213.4652" x2="1132.108" y2="-383.2252" gradientTransform="matrix(0.3371 0.9415 0.9415 -0.3371 296.7623 -867.5754)"><stop offset="0" style="stop-color: rgb(243, 131, 116);"></stop><stop offset="1" style="stop-color: rgb(198, 66, 52);"></stop></linearGradient><path d="M355.3,324.8l-48.5-135.6
		c5.6-0.9,11.2-1.5,16.8-1.8c0,0,89.7-4.2,118.3,29.9h0.1v0.1c0,0,0,0.1,0.1,0.1h-0.1c-0.5,44.5-72.4,98.1-72.4,98.1
		C364.9,318.8,360.2,321.9,355.3,324.8z" style="fill: url(&quot;#SVGID_00000139263685497045808550000015266563357508793009_-Q0GGNH03VT&quot;);"></path><path class="st0" d="M355.3,325.9c-0.1,0-0.3,0-0.4-0.1c-0.3-0.1-0.6-0.4-0.7-0.7l-48.5-135.6c-0.1-0.3-0.1-0.7,0.1-1
		c0.2-0.3,0.5-0.5,0.8-0.6c5.6-0.9,11.3-1.5,16.9-1.9c16.2-0.5,32.5,0.2,48.6,2.2c34.6,4.3,58.3,13.7,70.4,27.9l0,0
		c0.3,0.2,0.5,0.6,0.5,1h-1l-0.1,0.1l0,0h1.1c-0.2,18.8-12.6,41.1-36.7,66.5c-11.2,11.7-23.3,22.6-36.2,32.5
		c-4.6,3.4-9.4,6.5-14.3,9.3C355.7,325.8,355.5,325.9,355.3,325.9z M308.3,190.1l47.6,133c4.7-2.8,9-5.6,12.9-8.5
		c0.7-0.5,71.1-53.6,72-96.9c-28.1-32.9-116.2-29.2-117.1-29.2C318.8,188.7,313.7,189.3,308.3,190.1L308.3,190.1z" fill="#000111"></path><path class="st0" d="M366.7,318.1c-0.5,0-0.9-0.3-1.1-0.8l-46-128.6c-0.2-0.6,0.1-1.3,0.7-1.5c0.6-0.2,1.3,0.1,1.5,0.7c0,0,0,0,0,0
		l46,128.6c0.2,0.6-0.1,1.3-0.7,1.5C367,318.1,366.9,318.1,366.7,318.1z" fill="#000111"></path><path class="st0" d="M256,263.7c-0.2,0-0.3,0-0.5-0.1c-0.3-0.1-0.5-0.4-0.6-0.6l-18.6-52c-0.2-0.6,0.2-1.3,0.8-1.4
		c0.6-0.2,1.2,0.1,1.4,0.7l18.2,50.9L324,237c0.6-0.2,1.3,0.1,1.5,0.7c0.2,0.6-0.1,1.3-0.7,1.5l0,0l-68.4,24.5
		C256.2,263.7,256.1,263.7,256,263.7z" fill="#000111"></path><path class="st0" d="M223.8,370.4c-0.5,0-0.9-0.3-1.1-0.8c-0.3-0.9-12-33.5-14.3-39.8c-27.9,9.4-68.9,23.7-72.8,25.8
		c-0.3,0.5-0.9,0.7-1.5,0.4c-0.4-0.2-0.7-0.7-0.7-1.1c0.1-1.1,0.1-1.7,38.1-14.9c18.4-6.4,37-12.7,37.2-12.8
		c0.6-0.2,1.2,0.1,1.5,0.7c0,0,14.3,39.9,14.6,40.9c0.2,0.6-0.1,1.3-0.7,1.5C224.1,370.4,223.9,370.4,223.8,370.4z" fill="#000111"></path><linearGradient id="SVGID_00000035520765120409711750000000992979924587110071_-Q0GGNH03VT" gradientUnits="userSpaceOnUse" x1="1034.0063" y1="-357.4606" x2="1089.5063" y2="-447.5006" gradientTransform="matrix(0.3371 0.9415 0.9415 -0.3371 296.7623 -867.5754)"><stop offset="0" style="stop-color: rgb(243, 131, 116);"></stop><stop offset="1" style="stop-color: rgb(198, 66, 52);"></stop></linearGradient><circle cx="265.6" cy="280.4" r="38.9" style="fill: url(&quot;#SVGID_00000035520765120409711750000000992979924587110071_-Q0GGNH03VT&quot;);"></circle><path class="st0" d="M265.6,320.4c-22.1,0-40.1-17.9-40.1-40c0-22.1,17.9-40.1,40-40.1c22.1,0,40.1,17.9,40.1,40
		c0,16.9-10.6,32-26.5,37.8l0,0C274.8,319.6,270.2,320.4,265.6,320.4z M265.6,242.7c-20.8,0-37.7,16.9-37.7,37.8
		c0,20.8,16.9,37.7,37.8,37.7c4.3,0,8.6-0.8,12.6-2.2l0,0c19.6-7,29.8-28.6,22.8-48.2C295.8,252.7,281.5,242.6,265.6,242.7z
		 M278.7,317L278.7,317z" fill="#000111"></path><circle class="st0" cx="265.6" cy="280.4" r="28.2" fill="#000111"></circle><path class="st0" d="M265.6,309.8c-16.2,0-29.4-13.1-29.4-29.3c0-16.2,13.1-29.4,29.3-29.4c16.2,0,29.4,13.1,29.4,29.3
		c0,12.4-7.8,23.5-19.5,27.7l0,0C272.4,309.2,269,309.8,265.6,309.8z M265.6,253.3c-14.9,0-27,12.2-27,27.1c0,14.9,12.2,27,27.1,27
		c3.1,0,6.2-0.5,9.1-1.6l0,0c14.1-5,21.4-20.5,16.4-34.6C287.3,260.5,277,253.3,265.6,253.3z M275.1,307L275.1,307z" fill="#000111"></path><path class="st5" d="M237.8,275.7l2.1,0.8c12.8,5.3,25.3,11.5,37.4,18.3l1,0.5c2.9,1.2,5.8,2.4,8.6,3.6c5.4-6.2,7.9-14.5,6.7-22.7
		c-2-0.6-4.1-1.3-6.1-1.9c-7.5-2.4-14.9-5.1-22.3-7.7c-6.2-2.2-12.3-4.5-18.3-7.2C242,263.7,238.9,269.4,237.8,275.7z" fill="#FFFFFF"></path><path class="st0" d="M286.9,300.1c-0.2,0-0.3,0-0.4-0.1c-2.9-1.2-5.8-2.4-8.6-3.6l-0.1-0.1l-1-0.5c-12-6.8-24.5-12.9-37.2-18.2
		c-0.4-0.2-0.8-0.3-1.2-0.5l-0.9-0.4c-0.5-0.2-0.8-0.7-0.7-1.3c1.1-6.5,4.4-12.5,9.3-17c0.3-0.3,0.8-0.4,1.2-0.2
		c5.9,2.5,12,4.9,18.3,7.1l3.5,1.2c6.1,2.2,12.5,4.4,18.8,6.5c2,0.7,4,1.3,6.1,1.9c0.4,0.1,0.7,0.5,0.8,0.9
		c1.3,8.5-1.3,17.2-6.9,23.7C287.5,299.9,287.2,300.1,286.9,300.1z M278.7,294.3c2.6,1.1,5.2,2.2,7.8,3.2c4.7-5.7,6.9-13.1,6-20.5
		c-1.8-0.6-3.6-1.1-5.4-1.7c-6.3-2.1-12.7-4.3-18.9-6.5l-3.5-1.2c-6.1-2.1-12-4.5-17.7-6.9c-4,3.8-6.8,8.8-7.9,14.2l1.2,0.5
		c12.9,5.4,25.4,11.5,37.5,18.4L278.7,294.3z" fill="#000111"></path><circle class="st5" cx="215.1" cy="344.7" r="5.4" fill="#FFFFFF"></circle><path class="st0" d="M215.1,351.3c-3.7,0-6.6-2.9-6.6-6.6c0-3.7,2.9-6.6,6.6-6.6s6.6,2.9,6.6,6.6c0,2.8-1.7,5.3-4.4,6.2
		C216.6,351.2,215.8,351.3,215.1,351.3z M215.1,340.4c-2.4,0-4.3,1.9-4.3,4.3s1.9,4.3,4.3,4.3c2.4,0,4.3-1.9,4.3-4.3
		c0-1.7-0.9-3.2-2.4-3.9C216.3,340.6,215.7,340.4,215.1,340.4z" fill="#000111"></path><circle class="st5" cx="310.6" cy="243.4" r="5.4" fill="#FFFFFF"></circle><path class="st0" d="M310.6,249.9c-3.6,0-6.6-2.9-6.6-6.6c0-3.6,2.9-6.6,6.6-6.6s6.6,2.9,6.6,6.6c0,1-0.2,1.9-0.6,2.8
		c-0.7,1.6-2.1,2.8-3.7,3.4l0,0C312.1,249.8,311.3,249.9,310.6,249.9z M312.4,248.5L312.4,248.5z M310.6,239.1
		c-2.4,0-4.3,1.9-4.3,4.3c0,1.7,1,3.2,2.5,3.9c1,0.5,2.2,0.5,3.3,0.2l0,0c2.2-0.8,3.4-3.2,2.6-5.5
		C314,240.2,312.4,239.1,310.6,239.1z" fill="#000111"></path><circle class="st5" cx="476.1" cy="206" r="12.7" fill="#FFFFFF"></circle><path class="st0" d="M476.1,219.9c-7.7,0-13.9-6.2-13.9-13.9c0-7.7,6.2-13.9,13.9-13.9S490,198.3,490,206c0,5.9-3.7,11.1-9.2,13.1
		l0,0C479.3,219.6,477.7,219.9,476.1,219.9z M476.1,194.5c-1.3,0-2.6,0.2-3.9,0.7c-6,2-9.3,8.6-7.3,14.6c2,6,8.6,9.3,14.6,7.3
		c0.1,0,0.3-0.1,0.4-0.2l0,0c6-2.1,9.1-8.7,7-14.7C485.3,197.5,481,194.5,476.1,194.5L476.1,194.5z" fill="#000111"></path><linearGradient id="SVGID_00000013899332508073942800000004559225684508221349_-Q0GGNH03VT" gradientUnits="userSpaceOnUse" x1="1042.2603" y1="-493.9393" x2="1097.9102" y2="-639.1893" gradientTransform="matrix(0.3371 0.9415 0.9415 -0.3371 296.7623 -867.5754)"><stop offset="0" style="stop-color: rgb(243, 131, 116);"></stop><stop offset="1" style="stop-color: rgb(198, 66, 52);"></stop></linearGradient><path d="M178,315.5l-2.4-6.6l-2.2-6
		c-1.3-3.7-5.4-5.6-9.1-4.2c-0.2,0.1-0.4,0.2-0.6,0.2L44.3,354.5l0.4,1.2l2.4,6.6l0.4,1.2l127.7-32.7c3.8-1,6.1-4.9,5.1-8.7
		c-0.1-0.2-0.1-0.4-0.2-0.6L178,315.5z" style="fill: url(&quot;#SVGID_00000013899332508073942800000004559225684508221349_-Q0GGNH03VT&quot;);"></path><path class="st0" d="M47.6,364.7c-0.5,0-0.9-0.3-1.1-0.8l-3.2-9c-0.2-0.6,0.1-1.2,0.6-1.4l119.4-55.7c4.1-1.9,9.1-0.1,11,4
		c0.1,0.2,0.2,0.5,0.3,0.7l6.7,18.7c1.5,4.3-0.7,9-5,10.6c-0.2,0.1-0.5,0.2-0.7,0.2L47.9,364.7L47.6,364.7z M45.8,355.1l2.5,7
		l126.6-32.5c3.2-0.8,5.1-4.1,4.3-7.3c0-0.2-0.1-0.3-0.1-0.5l-2.2-6l0,0l-4.5-12.6c-1.1-3.1-4.6-4.7-7.7-3.6
		c-0.2,0.1-0.3,0.1-0.4,0.2L45.8,355.1z" fill="#000111"></path><path class="st0" d="M91.7,315.2c-0.6,0-1.2-0.5-1.2-1.2c0-0.5,0.3-0.9,0.8-1.1l13.6-4.9c0.6-0.2,1.3,0.1,1.5,0.7s-0.1,1.3-0.7,1.5
		L92,315.2C91.9,315.2,91.8,315.2,91.7,315.2z" fill="#000111"></path><path class="st0" d="M106.7,357.3c-0.6,0-1.2-0.5-1.2-1.2c0-0.5,0.3-0.9,0.8-1.1l13.6-4.9c0.6-0.2,1.3,0.2,1.4,0.8
		c0.2,0.6-0.1,1.2-0.7,1.4l-13.6,4.9C107,357.3,106.9,357.3,106.7,357.3z" fill="#000111"></path><path class="st0" d="M111.2,370c-0.6,0-1.2-0.5-1.2-1.2c0-0.5,0.3-0.9,0.8-1.1l13.6-4.9c0.6-0.2,1.3,0.1,1.5,0.7
		c0.2,0.6-0.1,1.3-0.7,1.5c0,0,0,0,0,0l-13.6,4.9C111.5,370,111.4,370,111.2,370z" fill="#000111"></path><path class="st0" d="M31.9,222.9c-4.1,0-7.5-3.3-7.5-7.5s3.3-7.5,7.5-7.5s7.5,3.3,7.5,7.5C39.3,219.6,36,222.9,31.9,222.9z
		 M31.9,210.3c-2.8,0-5.2,2.3-5.2,5.1c0,2.8,2.3,5.2,5.1,5.2c2.8,0,5.2-2.3,5.2-5.1c0,0,0,0,0,0C37,212.6,34.7,210.3,31.9,210.3
		L31.9,210.3z" fill="#000111"></path><path class="st0" d="M237.6,434c-4.1,0-7.5-3.3-7.5-7.5s3.3-7.5,7.5-7.5s7.5,3.3,7.5,7.5C245,430.7,241.7,434,237.6,434z
		 M237.6,421.4c-2.8,0-5.2,2.3-5.2,5.1c0,2.8,2.3,5.2,5.1,5.2c2.8,0,5.2-2.3,5.2-5.1c0,0,0,0,0,0
		C242.7,423.7,240.4,421.3,237.6,421.4C237.6,421.3,237.6,421.3,237.6,421.4L237.6,421.4z" fill="#000111"></path></g><g id="character"><linearGradient id="SVGID_00000173847844615539268550000003455771323967936174_-Q0GGNH03VT" gradientUnits="userSpaceOnUse" x1="1098.3867" y1="932.5601" x2="1060.2567" y2="864.1301" gradientTransform="matrix(-0.99 0.12 -0.12 -0.99 1098.87 491.38)"><stop offset="0" style="stop-color: rgb(243, 131, 116);"></stop><stop offset="1" style="stop-color: rgb(198, 66, 52);"></stop></linearGradient><path d="M205.1,111.6c0,0,13.6-2.5,20,6.3
		l19.7,18.5l-38.1,23.5L205.1,111.6z" style="fill: url(&quot;#SVGID_00000173847844615539268550000003455771323967936174_-Q0GGNH03VT&quot;);"></path><linearGradient id="SVGID_00000113313723647246506920000010669876024428342955_-Q0GGNH03VT" gradientUnits="userSpaceOnUse" x1="1198.0492" y1="1039.4001" x2="1149.6492" y2="952.5201" gradientTransform="matrix(-0.99 0.12 -0.12 -0.99 1098.87 491.38)"><stop offset="0" style="stop-color: rgb(243, 131, 116);"></stop><stop offset="1" style="stop-color: rgb(198, 66, 52);"></stop></linearGradient><path d="M199.1,180.7l-36.8-2.5
		c-12.2-0.9-19.9-5.2-22.5-16.3l-6.9-29.4c0,0-1.5-12.2,14.5-14.3l57.8-6.6c3.9-0.9,12.3,2.7,10.9,16.8c-1.2,7.8-1.7,24-2.2,40.4
		C211.5,175.2,205.8,179.8,199.1,180.7z" style="fill: url(&quot;#SVGID_00000113313723647246506920000010669876024428342955_-Q0GGNH03VT&quot;);"></path><path class="st0" d="M196.2,69.1c0,0,19.4-8.6,4.5-17.4c-21.4-12.6-18.6,1.5-18.6,1.5s-4.8,1.2-12.3,3.2
		c-14.8,3.9-21.9,16.7-16.4,28.4L196.2,69.1z"></path><path class="st11" d="M153.3,87.8c1.1,6.6,4.9,12.4,10.5,16l0,0c11.1,7.3,26,4.2,33.3-6.9s4.2-26-6.9-33.3s-26-4.2-33.3,6.9
		C153.5,75.6,152.2,81.8,153.3,87.8L153.3,87.8z"></path><path class="st0" d="M205.3,89.4c-3,0-5.3-6.3-6.3-10.3l0,0c-1-4.2-1.8-11.4,1.5-12.2c1.4-0.3,2.8,0.7,4.1,3
		c1.2,2.3,2.1,4.7,2.7,7.2c0.6,2.5,0.9,5.1,0.8,7.7c-0.2,2.7-0.9,4.2-2.3,4.5C205.6,89.4,205.5,89.4,205.3,89.4z M201.3,78.6
		c1.3,5.5,3.3,8.2,4,8.5c0.5-0.6,1.1-3.8-0.2-9.4s-3.3-8.2-4-8.5C200.6,69.8,200,73.1,201.3,78.6z"></path><ellipse class="st11" transform="matrix(9.567198e-02 -0.9954 0.9954 9.567198e-02 97.6959 279.6652)" cx="202.8" cy="86.1" rx="3.4" ry="7.5"></ellipse><path class="st0" d="M153.3,87.8c1.1,6.6,4.9,12.4,10.5,16l0,0c4.5-3.2-1.2-11.4-1.2-11.4c-6.3,0.6-8.7-12.3-2.1-14
		s8.4,5.9,8.4,5.9c1.1-5,1.5-8.6,5.4-11c9.7,0.7,21.8-4.2,21.9-4.3c-8.1-10.6-23.2-12.6-33.8-4.6C155.2,69.9,151.7,78.8,153.3,87.8
		L153.3,87.8z"></path><path class="st12" d="M164.3,87.8c-0.2,0-0.3,0-0.5,0c-0.1,0-0.2,0-0.1,0h-0.2l-0.3-0.1c-0.2-0.1,0.2,0.1-0.1,0l-0.2-0.1l-0.2-0.1
		c-0.4-0.3-0.6-0.8-0.6-1.2c0-0.1,0-0.2,0-0.2s0,0,0-0.1c0-0.2,0.1-0.3,0.1-0.5c-0.1,0.1,0,0,0,0l0.1-0.2c0.1-0.2-0.2,0.2,0.1-0.1
		l0.2-0.2c0.2-0.2-0.1,0,0.1-0.1c0.1-0.1,0.1-0.1,0.2-0.2l0.2-0.1c-0.1,0.1,0,0,0.1,0c0.1,0,0.1,0,0.2-0.1c0.1,0,0.2,0,0.1,0
		c0.2,0,0.4,0,0.6,0c0.6,0,1.2-0.5,1.2-1.1c0-0.2,0-0.3-0.1-0.5c-0.4-1.9-2.2-3.2-4.1-2.8c-1.3,0.2-2.4,1.2-2.7,2.5
		c-0.2,0.6,0.2,1.2,0.8,1.4c0.6,0.2,1.2-0.2,1.4-0.8c0-0.1,0.1-0.3,0-0.1c0,0,0.2-0.3,0.1-0.2s0.1-0.1,0.2-0.2c0,0,0.1-0.1,0.1-0.1
		c-0.1,0.1-0.1,0.1,0,0c0.1-0.1,0.2-0.1,0.3-0.2c-0.2,0.1,0.1,0,0.1,0s0.4-0.1,0.1,0h0.4c-0.2,0,0.1,0,0.1,0s0.3,0.1,0.1,0l0.3,0.2
		c0.2,0.1,0-0.1,0.1,0.1l0.2,0.2c-0.1-0.2,0,0.1,0.1,0.1c0,0.1,0.1,0.1,0.1,0.2c0-0.1,0-0.1,0,0c0,0.1,0.1,0.2,0.1,0.4l1.1-1.5
		c-2.2,0-4,1.9-3.9,4.1c0,2.2,1.9,4,4.1,3.9c0.6,0,1.1-0.6,1.1-1.2C165.5,88.4,165,87.8,164.3,87.8L164.3,87.8z"></path><ellipse class="st5" transform="matrix(0.9267 -0.3757 0.3757 0.9267 -16.6519 78.3506)" cx="192.6" cy="81.9" rx="3" ry="3.5"></ellipse><ellipse class="st13" transform="matrix(0.9267 -0.3757 0.3757 0.9267 -16.5297 78.7124)" cx="193.5" cy="81.7" rx="2" ry="2.3"></ellipse><path class="st0" d="M193.7,94.1c-3.5,0-7.2-4.2-8.6-10.2l0,0c-0.7-2.8-0.7-5.7-0.1-8.4c0.7-2.7,2.2-4.4,4.2-4.9
		c3.8-0.9,8,3.5,9.6,10.1c0.7,2.8,0.7,5.7,0.1,8.4c-0.7,2.7-2.2,4.4-4.2,4.9C194.4,94.1,194,94.1,193.7,94.1z M187.4,83.4
		c1.3,5.6,4.6,8.9,6.8,8.3c1.1-0.2,2-1.4,2.5-3.2c0.6-2.4,0.5-4.9-0.1-7.3c-1.3-5.6-4.6-8.9-6.8-8.3c-1.1,0.2-2,1.4-2.5,3.2
		C186.7,78.5,186.7,81,187.4,83.4z"></path><path class="st12" d="M184.7,99.4c-0.9,0-1.8-0.2-2.7-0.6c-3.4-1.7-4.2-6.1-4.2-6.3c-0.1-0.6,0.4-1.2,1-1.3
		c0.6-0.1,1.1,0.3,1.3,0.9c0,0.1,0.6,3.5,3,4.6c1.3,0.7,3,0.4,5.1-0.7c0.5-0.4,1.2-0.4,1.6,0.1c0.4,0.5,0.4,1.2-0.1,1.6
		c-0.1,0.1-0.3,0.2-0.4,0.2C187.9,98.9,186.3,99.3,184.7,99.4z"></path><linearGradient id="SVGID_00000014595333919517221940000010013413720355814288_-Q0GGNH03VT" gradientUnits="userSpaceOnUse" x1="225.593" y1="332.57" x2="225.593" y2="192.47" gradientTransform="matrix(1 0 0 -1 0 502)"><stop offset="0" style="stop-color: rgb(10, 107, 91);"></stop><stop offset="0.78" style="stop-color: rgb(0, 81, 70);"></stop><stop offset="0.91" style="stop-color: rgb(0, 80, 69);"></stop></linearGradient><path d="M170.2,182.1c-23-1.3-51.1,48.9-11.6,68.6
		l70.4,12.2L210,321l67.8,16.2L308,250c0,0,23.6-49.7-39-60.1L170.2,182.1z" style="fill: url(&quot;#SVGID_00000014595333919517221940000010013413720355814288_-Q0GGNH03VT&quot;);"></path><path class="st11" d="M278,337c-2.8,12-8.3,28.8-3.2,51.3c-6.4,24.2-70.9-45.9-70.9-45.9L210,321L278,337z"></path><path class="st0" d="M203.9,342.4l-12.1,40.3l89.5,42.4l-6.5-36.9c0,0-2.6,12.3-24.2-7.8C223.2,354.8,208.6,334.1,203.9,342.4z"></path><polygon class="st12" points="244.7,136.4 315.3,185.8 247.1,179.7 222.9,148.6 	"></polygon><path class="st11" d="M191.7,136.7l-23.5,38.6l123.2,31.5c0,0,11.8,2.2,17.6-1.5s18.5-9.8,27.2-10.4s16.1,4.4,23.7,2
		c4.3-1.1,7.1-5.2,6.5-9.6c0,0,6.8,0.7,5.7-6.1s-8.7-11.3-16.3-12.6c-5.2-0.8-10.4-1-15.7-0.7c0,0,6.3-6.5,4.4-10.4
		s-9.8-5.2-13.9-1.3s-18.5,7-22.6,7.2S191.7,136.7,191.7,136.7z"></path><path class="st0" d="M168.2,176.4c-0.1,0-0.2,0-0.3,0l-19.7-5.8c-0.6-0.2-1-0.8-0.8-1.4c0.2-0.6,0.8-1,1.4-0.8l0,0l18.9,5.5
		l22.4-36.8l-19.9-11.8c-0.6-0.3-0.7-1-0.4-1.6s1-0.7,1.6-0.4l20.9,12.4c0.3,0.2,0.5,0.4,0.5,0.7c0.1,0.3,0,0.6-0.1,0.9l-23.5,38.6
		C168.9,176.2,168.6,176.4,168.2,176.4z"></path><path class="st15" d="M205.4,137.8c-0.6,0-1.1,0-1.7,0c-3.7-0.2-6.6-1.6-8.4-4.2c-4.9-7-0.8-20.4-0.6-20.9c0.2-0.6,0.8-0.9,1.4-0.8
		c0.6,0.2,0.9,0.8,0.8,1.5c0,0.1-4,12.8,0.3,18.9c1.4,2,3.6,3.1,6.6,3.2c14.7,0.6,28.8-7.8,29-7.9c0.6-0.3,1.3-0.2,1.6,0.4
		c0.3,0.6,0.2,1.3-0.4,1.6C233.4,129.9,220.2,137.8,205.4,137.8z"></path><circle class="st15" cx="193.8" cy="124.3" r="5.8"></circle><path class="st0" d="M204.6,140.2c-0.6,0-1.1-0.5-1.1-1.1l-1.1-15.3c0-0.6,0.5-1.2,1.2-1.2c0.6,0,1.1,0.4,1.2,1l1.1,15.3
		C205.9,139.6,205.4,140.1,204.6,140.2L204.6,140.2z"></path><path class="st5" d="M258,315.3h-0.2c-0.6-0.1-1-0.7-0.9-1.4l14.7-69.6c0.9-6.5-1.5-12-7.1-16.3c-2.7-2-5.7-3.6-8.9-4.6
		l-114.2-10.8c-0.6-0.1-1.1-0.6-1.1-1.3c0.1-0.6,0.6-1.1,1.2-1c0,0,0,0,0,0l114.3,10.8c0.1,0,0.1,0,0.2,0c3.5,1.1,6.8,2.7,9.7,4.9
		c6.3,4.8,9.1,11.2,8.1,18.6l-14.7,69.7C259,314.9,258.5,315.3,258,315.3z"></path><path class="st5" d="M284.1,320.8H284l-69.3-11.4c-0.6-0.1-1.1-0.7-1-1.3c0.1-0.6,0.7-1.1,1.3-1l69.3,11.4c0.6,0.1,1.1,0.7,1,1.3
		c0,0,0,0,0,0C285.2,320.4,284.7,320.8,284.1,320.8z"></path><path class="st0" d="M228.9,264c-0.1,0-0.2,0-0.3,0c-0.6-0.2-1-0.8-0.8-1.4c0,0,0,0,0,0l7.8-26.5c0.1-0.8,4.5-20.9,13.9-23.6
		c0.6-0.1,1.2,0.3,1.4,0.9c0.1,0.6-0.2,1.1-0.7,1.3c-6.7,2-11.1,16.6-12.3,22l-7.9,26.6C229.9,263.7,229.5,264,228.9,264z"></path><path class="st16" d="M294.6,413c-0.4,0-0.8-0.2-1-0.5c-4.8-6.9-10.7-10.7-17.6-11.2c-2.1-0.2-4.2,0-6.2,0.4
		c-1.6,0.5-2.7,0.8-2.7,0.8c-0.6,0.2-1.3-0.1-1.5-0.7s0.1-1.3,0.7-1.5l0,0c0.9-0.4,1.8-0.6,2.8-0.8c9.5-2.9,22.4-8.2,23.3-12.5
		c0.1-0.3,0.3-1.3-1.3-2.5c-6.5-5.2-22.2,6.6-27.7,11.5c-0.5,0.4-1.2,0.3-1.6-0.2c-0.4-0.5-0.3-1.1,0.1-1.5
		c0.9-0.8,21.4-19.2,30.7-11.6c2.2,1.8,2.4,3.6,2.1,4.8c-0.7,3.4-5.5,6.8-14.6,10.5c-0.9,0.4-1.9,0.7-2.8,1.1
		c5.5,0.7,12.3,3.6,18.2,12.1c0.4,0.5,0.2,1.2-0.3,1.6C295,412.9,294.8,413,294.6,413L294.6,413z"></path><path class="st12" d="M366.5,188.3c-0.4,0-0.8-0.2-1-0.5c-0.1-0.1-5.4-8.5-10.7-9.6c-5.6-1.1-15.6,0.5-15.7,0.6
		c-0.6,0.1-1.2-0.3-1.3-0.9c-0.1-0.6,0.3-1.2,0.9-1.3c0,0,0,0,0,0c0.4-0.1,10.5-1.8,16.5-0.5c6.3,1.3,12,10.3,12.2,10.7
		c0.3,0.5,0.2,1.2-0.4,1.6c0,0,0,0,0,0C366.9,188.2,366.7,188.3,366.5,188.3z"></path><path class="st12" d="M340.1,168.9c-0.1,0-0.2,0-0.3,0c-4.2-0.9-8.5-0.9-12.7-0.1c-0.6,0.1-1.2-0.2-1.4-0.9c0,0,0,0,0,0
		c-0.1-0.6,0.2-1.2,0.9-1.4c0,0,0,0,0,0c4.5-0.9,9.2-0.9,13.7,0.1c0.6,0.2,1,0.8,0.8,1.4C341.1,168.6,340.6,168.9,340.1,168.9
		L340.1,168.9z"></path></g></svg>