<svg transform="scale(1)" version="1.1" id="WVJcLqBA0h" xmlns="http://www.w3.org/2000/svg" xmlns:xlink="http://www.w3.org/1999/xlink" x="0px" y="0px" viewBox="0 0 500 500" xml:space="preserve" class="pbimage_pbimage__wrapper__image__0LEis false"><title>Javascript</title><style type="text/css"> .st0{fill:#000111;} .st1{fill:url(#SVGID_1_-WVJcLqBA0h);} .st2{fill:url(#SVGID_00000066512450480179459340000011057191647316962713_-WVJcLqBA0h);} .st3{fill:url(#SVGID_00000057146848626189261980000007380423695341933186_-WVJcLqBA0h);} .st4{fill:#FFC2A7;} .st5{fill:url(#SVGID_00000137851692753321992880000002702471632033998506_-WVJcLqBA0h);} .st6{fill:url(#SVGID_00000054963272868797255290000016579696369718671284_-WVJcLqBA0h);} .st7{fill:url(#SVGID_00000070109345003566192610000008944638345439933084_-WVJcLqBA0h);} .st8{fill:url(#SVGID_00000124126206787591525250000009086669292203446405_-WVJcLqBA0h);} .st9{fill:url(#SVGID_00000121241909826545139430000010973612925783610763_-WVJcLqBA0h);} .st10{fill:#FFFFFF;} .st11{fill:url(#SVGID_00000063626432715785579900000008370368293713719481_-WVJcLqBA0h);} .st12{fill:url(#SVGID_00000122702100398872494160000014038111376944989367_-WVJcLqBA0h);} .st13{fill:#FED490;} .st14{fill:url(#SVGID_00000132073256971026765230000017233000027331502782_-WVJcLqBA0h);} .st15{fill:url(#SVGID_00000115516762653841121640000003677402501253541551_-WVJcLqBA0h);} .st16{fill:#D88260;} .st17{fill:#005045;} .st18{fill:url(#SVGID_00000026856846555224517970000003396005138911178122_-WVJcLqBA0h);}
 .st17{fill:#005045;}
 .st16{fill:#D88260;}
 .st13{fill:#FED490;}
 .st10{fill:#FFFFFF;}
 .st4{fill:#FFC2A7;}
 .st0{fill:#000111;}</style><g id="pop_up_3"><path class="st0" d="M261.5,145.4h-39.2c-0.8-0.1-1.3-0.7-1.2-1.5c0.1-0.7,0.6-1.2,1.2-1.2h39.2c4.3,0,7.8-3.5,7.8-7.8V64.2
		c0-4.3-3.5-7.8-7.8-7.8H107.4c-4.3,0-7.8,3.5-7.8,7.8v24.2c-0.1,0.8-0.7,1.3-1.5,1.2c-0.7-0.1-1.2-0.6-1.2-1.2V64.2
		c0-5.8,4.7-10.5,10.5-10.5h154.1c5.8,0,10.5,4.7,10.5,10.5v70.7C272.1,140.7,267.4,145.4,261.5,145.4z" fill="#000111"></path><path class="st0" d="M268.9,74.4H100.2c-0.8,0.1-1.4-0.5-1.5-1.2c-0.1-0.8,0.5-1.4,1.2-1.5c0.1,0,0.2,0,0.2,0h168.7
		c0.8-0.1,1.4,0.5,1.5,1.2c0.1,0.8-0.5,1.4-1.2,1.5C269.1,74.4,269,74.4,268.9,74.4z" fill="#000111"></path><path class="st0" d="M166.7,98.3H99.4c-3.7-0.1-6.6-3.2-6.4-6.9c0.1-3.5,2.9-6.3,6.4-6.4h67.3c3.7,0.1,6.6,3.2,6.4,6.9
		C173,95.4,170.2,98.2,166.7,98.3z M99.4,87.7c-2.2,0-3.9,1.8-3.9,3.9c0,2.2,1.8,3.9,3.9,3.9h67.3c2.2,0,3.9-1.8,3.9-3.9
		c0-2.2-1.8-3.9-3.9-3.9H99.4z" fill="#000111"></path><path class="st0" d="M198.8,98.3h-17.2c-3.7,0.1-6.8-2.7-6.9-6.4c-0.1-3.7,2.7-6.8,6.4-6.9c0.2,0,0.3,0,0.5,0h17.2
		c3.7,0.1,6.6,3.2,6.4,6.9C205.1,95.4,202.3,98.2,198.8,98.3z M181.6,87.7c-2.2,0-3.9,1.8-3.9,3.9c0,2.2,1.8,3.9,3.9,3.9h17.2
		c2.2,0,3.9-1.8,3.9-3.9c0-2.2-1.8-3.9-3.9-3.9H181.6z" fill="#000111"></path><path class="st0" d="M231,98.3h-17.1c-3.7-0.1-6.6-3.2-6.4-6.9c0.1-3.5,2.9-6.3,6.4-6.4H231c3.7,0.1,6.6,3.2,6.4,6.9
		C237.3,95.4,234.5,98.2,231,98.3z M213.9,87.7c-2.2,0-3.9,1.8-3.9,3.9s1.8,3.9,3.9,3.9c0,0,0,0,0,0H231c2.2,0,3.9-1.8,3.9-3.9
		c0-2.2-1.8-3.9-3.9-3.9H213.9z" fill="#000111"></path><path class="st0" d="M259.9,98.3H247c-3.7-0.2-6.5-3.4-6.2-7.1c0.2-3.3,2.9-6,6.2-6.2h13c3.7,0.1,6.6,3.2,6.4,6.9
		C266.3,95.4,263.5,98.2,259.9,98.3L259.9,98.3z M247,87.7c-2.2,0-3.9,1.8-3.9,3.9s1.8,3.9,3.9,3.9c0,0,0,0,0,0h13
		c2.2,0,3.9-1.8,3.9-3.9c0-2.2-1.8-3.9-3.9-3.9H247z" fill="#000111"></path><path class="st0" d="M259.9,117.5h-67.3c-3.7-0.1-6.6-3.2-6.4-6.9c0.1-3.5,2.9-6.3,6.4-6.4h67.3c3.7,0.1,6.6,3.2,6.4,6.9
		C266.2,114.6,263.4,117.4,259.9,117.5z M192.6,106.9c-2.2,0.1-3.9,2-3.7,4.1c0.1,2,1.7,3.6,3.7,3.7h67.3c2.2-0.1,3.9-2,3.7-4.1
		c-0.1-2-1.7-3.6-3.7-3.7H192.6z" fill="#000111"></path><path class="st0" d="M177.7,117.5h-17.2c-3.7-0.1-6.6-3.2-6.4-6.9c0.1-3.5,2.9-6.3,6.4-6.4h17.2c3.7,0.1,6.6,3.2,6.4,6.9
		C184,114.6,181.2,117.4,177.7,117.5z M160.5,106.9c-2.2,0.1-3.9,2-3.7,4.1c0.1,2,1.7,3.6,3.7,3.7h17.2c2.2-0.1,3.9-2,3.7-4.1
		c-0.1-2-1.7-3.6-3.7-3.7H160.5z" fill="#000111"></path><path class="st0" d="M145.4,117.5h-17.2c-3.7-0.1-6.6-3.2-6.4-6.9c0.1-3.5,2.9-6.3,6.4-6.4h17.2c3.7,0.1,6.6,3.2,6.4,6.9
		C151.7,114.6,148.9,117.4,145.4,117.5z M128.3,106.9c-2.2,0.1-3.9,2-3.7,4.1c0.1,2,1.7,3.6,3.7,3.7h17.2c2.2-0.1,3.9-2,3.7-4.1
		c-0.1-2-1.7-3.6-3.7-3.7H128.3z" fill="#000111"></path><path class="st0" d="M112.3,117.5h-13c-3.7-0.1-6.6-3.2-6.4-6.9c0.1-3.5,2.9-6.3,6.4-6.4h13c3.7,0.1,6.6,3.2,6.4,6.9
		C118.6,114.6,115.8,117.4,112.3,117.5z M99.3,106.9c-2.2,0.1-3.9,2-3.7,4.1c0.1,2,1.7,3.6,3.7,3.7h13c2.2-0.1,3.9-2,3.7-4.1
		c-0.1-2-1.7-3.6-3.7-3.7H99.3z" fill="#000111"></path><path class="st0" d="M166.7,135.5H99.4c-3.7,0-6.7-3-6.7-6.7c0-3.7,3-6.7,6.7-6.7c0,0,0,0,0,0h67.3c3.7,0,6.7,3,6.7,6.7
		C173.4,132.5,170.4,135.5,166.7,135.5C166.7,135.5,166.7,135.5,166.7,135.5z M99.4,124.8c-2.2,0-3.9,1.8-3.9,3.9
		c0,2.2,1.8,3.9,3.9,3.9h67.3c2.2,0,3.9-1.8,3.9-3.9c0-2.2-1.8-3.9-3.9-3.9H99.4z" fill="#000111"></path><path class="st0" d="M198.8,135.5h-17.2c-3.7,0-6.7-3-6.7-6.7c0-3.7,3-6.7,6.7-6.7c0,0,0,0,0,0h17.2c3.7,0,6.7,3,6.7,6.7
		C205.4,132.5,202.4,135.5,198.8,135.5z M181.6,124.9c-2.2,0-3.9,1.8-3.9,3.9c0,2.2,1.8,3.9,3.9,3.9l0,0h17.2c2.2,0,3.9-1.8,3.9-3.9
		c0-2.2-1.8-3.9-3.9-3.9L181.6,124.9z" fill="#000111"></path><path class="st0" d="M231,135.5h-17.1c-3.7,0-6.7-3-6.7-6.7c0-3.7,3-6.7,6.7-6.7c0,0,0,0,0,0H231c3.7,0,6.7,3,6.7,6.7
		C237.7,132.5,234.7,135.5,231,135.5C231,135.5,231,135.5,231,135.5z M213.8,124.9c-2.2,0-3.9,1.8-3.9,3.9c0,2.2,1.8,3.9,3.9,3.9
		H231c2.2,0,3.9-1.8,3.9-3.9c0-2.2-1.8-3.9-3.9-3.9L213.8,124.9z" fill="#000111"></path><path class="st0" d="M259.9,135.5H247c-3.7,0-6.7-3-6.7-6.7c0-3.7,3-6.7,6.7-6.7c0,0,0,0,0,0h13c3.7,0,6.7,3,6.7,6.7
		C266.7,132.5,263.7,135.5,259.9,135.5C260,135.5,260,135.5,259.9,135.5L259.9,135.5z M246.9,124.9c-2.2,0-3.9,1.8-3.9,3.9
		c0,2.2,1.8,3.9,3.9,3.9l0,0h13c2.2,0,3.9-1.8,3.9-3.9c0-2.2-1.8-3.9-3.9-3.9L246.9,124.9z" fill="#000111"></path><linearGradient id="SVGID_1_-WVJcLqBA0h" gradientUnits="userSpaceOnUse" x1="102.8921" y1="452.4414" x2="123.3921" y2="421.3314" gradientTransform="matrix(1 0 0 -1 0 502)"><stop offset="0" style="stop-color: rgb(243, 131, 116);"></stop><stop offset="1" style="stop-color: rgb(198, 66, 52);"></stop></linearGradient><circle class="st1" cx="112.8" cy="64.6" r="3.6"></circle><linearGradient id="SVGID_00000145018904268320759110000009949463569309799559_-WVJcLqBA0h" gradientUnits="userSpaceOnUse" x1="116.1206" y1="452.4359" x2="136.6106" y2="421.3259" gradientTransform="matrix(1 0 0 -1 0 502)"><stop offset="0" style="stop-color: rgb(243, 131, 116);"></stop><stop offset="1" style="stop-color: rgb(198, 66, 52);"></stop></linearGradient><circle cx="126.1" cy="64.6" r="3.6" style="fill: url(&quot;#SVGID_00000145018904268320759110000009949463569309799559_-WVJcLqBA0h&quot;);"></circle><linearGradient id="SVGID_00000090257585906636611920000017557713774356281015_-WVJcLqBA0h" gradientUnits="userSpaceOnUse" x1="129.3421" y1="452.4414" x2="149.8421" y2="421.3314" gradientTransform="matrix(1 0 0 -1 0 502)"><stop offset="0" style="stop-color: rgb(243, 131, 116);"></stop><stop offset="1" style="stop-color: rgb(198, 66, 52);"></stop></linearGradient><circle cx="139.3" cy="64.6" r="3.6" style="fill: url(&quot;#SVGID_00000090257585906636611920000017557713774356281015_-WVJcLqBA0h&quot;);"></circle></g><g id="character"><path class="st4" d="M368.2,240.9c9.7,6.9,27.4,17.5,55.6-0.3c5.4-3.4,11.3-12.1,20.4-12.4s17.3,2.4,20.4-5.4s-4.2-14.8-17.9-14.2
		c0,0,8.7-6.2,15-6.2c8.7,0,6.3-15.5-10.5-16.8c-14.2-1.1-23.9,2.7-23.9,2.7s-10.9-8.2-22.1-6.7s-17.9,7.9-20.6,14.2
		c-1.6,3.8-4.4,7-7.9,9.1c0,0-7.3-9-13.5-11.1c-5.1-1.7-12.3-0.2-15,8.6s9.1,13.9,11.2,23C361,231.3,364,236.6,368.2,240.9z"></path><g id="character-2"><linearGradient id="SVGID_00000083067854754638024620000016746090300926980272_-WVJcLqBA0h" gradientUnits="userSpaceOnUse" x1="-960.4473" y1="390.9723" x2="-793.9572" y2="186.6423" gradientTransform="matrix(-1 0 0 -1 -517.02 502)"><stop offset="0" style="stop-color: rgb(10, 107, 91);"></stop><stop offset="0.78" style="stop-color: rgb(0, 81, 70);"></stop><stop offset="0.91" style="stop-color: rgb(0, 80, 69);"></stop></linearGradient><polygon points="285.5,316 199.8,332.4 
			199.8,363.1 295.4,370.4 		" style="fill: url(&quot;#SVGID_00000083067854754638024620000016746090300926980272_-WVJcLqBA0h&quot;);"></polygon><linearGradient id="SVGID_00000013166768370169791530000005490268626410658959_-WVJcLqBA0h" gradientUnits="userSpaceOnUse" x1="-679.3665" y1="327.8676" x2="-717.0964" y2="196.5476" gradientTransform="matrix(-1 0 0 -1 -517.02 502)"><stop offset="0" style="stop-color: rgb(243, 131, 116);"></stop><stop offset="1" style="stop-color: rgb(198, 66, 52);"></stop></linearGradient><path d="M204.3,285.1l-42.8,2.5l14.4-46.9
			c2.8-9.2,11-15.7,20.6-16.3c4.6-0.2,9.2,0,13.8,0.6L204.3,285.1z" style="fill: url(&quot;#SVGID_00000013166768370169791530000005490268626410658959_-WVJcLqBA0h&quot;);"></path><linearGradient id="SVGID_00000078025106914014268790000014760001869648374710_-WVJcLqBA0h" gradientUnits="userSpaceOnUse" x1="-733.4413" y1="343.4104" x2="-771.1713" y2="212.0804" gradientTransform="matrix(-1 0 0 -1 -517.02 502)"><stop offset="0" style="stop-color: rgb(243, 131, 116);"></stop><stop offset="1" style="stop-color: rgb(198, 66, 52);"></stop></linearGradient><path d="M270.5,309.9l-48.8-2.5
			c-7.7-0.4-14.2-5.9-15.9-13.5l-10.3-48.3c0,0-4.7-20.8,17.5-20.9l58.4,0.8c0,0,19.2,2,19.4,24.6c0.1,12.1,1,21.4,1.3,44.8
			C292.3,304.3,279.8,310.4,270.5,309.9z" style="fill: url(&quot;#SVGID_00000078025106914014268790000014760001869648374710_-WVJcLqBA0h&quot;);"></path><linearGradient id="SVGID_00000023260323539712966910000005015554473422123965_-WVJcLqBA0h" gradientUnits="userSpaceOnUse" x1="-775.4112" y1="355.4604" x2="-813.1312" y2="224.1404" gradientTransform="matrix(-1 0 0 -1 -517.02 502)"><stop offset="0" style="stop-color: rgb(243, 131, 116);"></stop><stop offset="1" style="stop-color: rgb(198, 66, 52);"></stop></linearGradient><path d="M290.9,282.6l14.7-2.5l-10.4-38.9
			c0,0-7.7-14.8-23.7-15.6L290.9,282.6z" style="fill: url(&quot;#SVGID_00000023260323539712966910000005015554473422123965_-WVJcLqBA0h&quot;);"></path><path class="st4" d="M312.6,382.6c-1.6,6.4-2,13.1-1.1,19.7c0,0,115.8,41,97.4,10.6c-5.6-6.9-10.7-14.6-12.5-31.5
			C367.7,381.9,333.9,382.2,312.6,382.6z"></path><path class="st0" d="M311.7,401.9l-0.9,44.4l121.5-1.7l-23.7-32.3c0,0-14.4,13.3-40.6,4.1C334.8,404.7,316.5,391.6,311.7,401.9z"></path><linearGradient id="SVGID_00000182489540410145865650000009176062638742448304_-WVJcLqBA0h" gradientUnits="userSpaceOnUse" x1="-13550.2559" y1="8371.8184" x2="-13581.7861" y2="8274.6982" gradientTransform="matrix(0.2854 -0.9584 -0.9584 -0.2854 3513.8782 -16293.4463)"><stop offset="0" style="stop-color: rgb(10, 107, 91);"></stop><stop offset="0.78" style="stop-color: rgb(0, 81, 70);"></stop><stop offset="0.91" style="stop-color: rgb(0, 80, 69);"></stop></linearGradient><path d="M291.1,389.1L280,292.8
			c-23.5-96.7,115.1-121,117.1-16l-0.5,106.8L291.1,389.1z" style="fill: url(&quot;#SVGID_00000182489540410145865650000009176062638742448304_-WVJcLqBA0h&quot;);"></path><path class="st10" d="M322.8,369.5c-0.7,0-1.3-0.6-1.4-1.3l-5.5-155.7c0-0.8,0.6-1.4,1.3-1.4c0,0,0,0,0,0c0.7,0,1.4,0.6,1.4,1.3
			l5.5,155.7C324.2,368.8,323.6,369.4,322.8,369.5C322.8,369.4,322.8,369.4,322.8,369.5L322.8,369.5z"></path><linearGradient id="SVGID_00000177449080074577997420000002521979265658159027_-WVJcLqBA0h" gradientUnits="userSpaceOnUse" x1="-948.1271" y1="401.0124" x2="-781.6371" y2="196.6824" gradientTransform="matrix(-1 0 0 -1 -517.02 502)"><stop offset="0" style="stop-color: rgb(10, 107, 91);"></stop><stop offset="0.78" style="stop-color: rgb(0, 81, 70);"></stop><stop offset="0.91" style="stop-color: rgb(0, 80, 69);"></stop></linearGradient><path d="M308.6,361.5l-146.9-41
			c-101-36.9-143.9,108.9-31.4,123.7L309,446L308.6,361.5z" style="fill: url(&quot;#SVGID_00000177449080074577997420000002521979265658159027_-WVJcLqBA0h&quot;);"></path><path class="st4" d="M309,446c6.8,0.3,13.5,0.1,20.3-0.6c0,0,41-115.8,10.6-97.4c-6.9,5.6-14.6,10.7-31.5,12.5
			C308.8,389.2,308.6,424.7,309,446z"></path><path class="st0" d="M328.9,445.2l45.2-0.3l-2.5-120.3l-32.3,23.7c0,0,13.3,14.4,4.1,40.6C331.7,422.1,318.6,440.4,328.9,445.2z"></path><path class="st10" d="M282,444.6c-0.8,0-1.4-0.6-1.4-1.4v-85.9c0.1-0.8,0.7-1.3,1.5-1.2c0.7,0.1,1.2,0.6,1.2,1.2v85.9
			C283.4,444,282.8,444.6,282,444.6C282,444.6,282,444.6,282,444.6z"></path><path class="st10" d="M281.5,409H109.9c-0.4,0-41.7-0.9-46.7-29.2c-0.2-0.7,0.2-1.5,1-1.7s1.5,0.2,1.7,1c0,0.1,0,0.1,0,0.2
			c1.9,10.9,9.8,18.7,23.5,23.3c6.6,2.1,13.5,3.4,20.5,3.7h171.5c0.8-0.1,1.4,0.5,1.5,1.2s-0.5,1.4-1.2,1.5
			C281.6,409,281.5,409,281.5,409L281.5,409z"></path><path class="st0" d="M308.4,361.9c-0.1,0-0.2,0-0.4,0L205.5,335c-0.7-0.2-1.2-0.9-1-1.7s0.9-1.2,1.7-1l102.5,26.9
			c0.7,0.2,1.2,1,1,1.7C309.5,361.5,309,361.9,308.4,361.9L308.4,361.9z"></path><path class="st0" d="M287,356.2c-0.7,0-1.3-0.5-1.4-1.2l-4.8-37.2c-0.1-0.7,0.4-1.4,1.2-1.5c0,0,0,0,0,0c0.7-0.1,1.4,0.4,1.5,1.2
			l4.8,37.2c0.1,0.7-0.4,1.4-1.2,1.5c0,0,0,0,0,0L287,356.2z"></path><linearGradient id="SVGID_00000101784264168345104160000014606366803783265181_-WVJcLqBA0h" gradientUnits="userSpaceOnUse" x1="-689.3489" y1="330.734" x2="-727.079" y2="199.414" gradientTransform="matrix(-1 0 0 -1 -517.02 502)"><stop offset="0" style="stop-color: rgb(243, 131, 116);"></stop><stop offset="1" style="stop-color: rgb(198, 66, 52);"></stop></linearGradient><path d="M291.9,330.1L227,392.3
			c-14.7,15.2-99.1,35.1-83.1-47.7l17.7-57L289,270.1L291.9,330.1z" style="fill: url(&quot;#SVGID_00000101784264168345104160000014606366803783265181_-WVJcLqBA0h&quot;);"></path><path class="st0" d="M218.3,281.5c-0.4,0-0.7-0.1-1-0.4c-0.3-0.3-0.5-0.7-0.4-1.2l4.9-31.6c0.2-0.7,0.9-1.2,1.6-1
			c0.7,0.2,1.1,0.8,1.1,1.4l-4.6,29.8l57.8-8.5c0.7-0.1,1.4,0.4,1.6,1.1c0.1,0.7-0.4,1.4-1.2,1.6l-59.6,8.8L218.3,281.5z"></path><path class="st0" d="M191.9,288.3c-0.5,0-0.9-0.2-1.1-0.6c-0.4-0.6-0.3-1.5,0.4-1.9c0.6-0.4,14.4-9.5,27.4-6.9
			c0.7,0.1,1.2,0.9,1.1,1.6c-0.1,0.7-0.9,1.2-1.6,1.1c-11.9-2.3-25.2,6.4-25.3,6.5C192.5,288.2,192.2,288.3,191.9,288.3z"></path><path class="st0" d="M281.7,248.4c-0.7,0-1.2-0.5-1.4-1.2l-2.2-14.2c-0.1-0.7,0.4-1.4,1.1-1.6c0,0,0,0,0,0
			c0.7-0.1,1.4,0.4,1.6,1.1l2.2,14.3c0.1,0.7-0.4,1.4-1.1,1.5c0,0,0,0,0,0C281.8,248.4,281.7,248.4,281.7,248.4z"></path><path class="st13" d="M166.1,386h-0.5c-5.5-0.2-9.1-2.9-10.4-7.9c-1.7-6.5,0.7-12.4,6.9-17c12.1-9.1,36.3-12.7,58.7-11.6
			c7.2-7.5,12.7-15.1,14.8-21.4c1.6-4.9,0.9-8.3-2.2-10.4c-17.1-11.7-78.1,0.1-78.8,0.2c-0.7,0.1-1.5-0.3-1.6-1.1
			c-0.1-0.7,0.3-1.5,1.1-1.6c2.6-0.5,62.8-12.1,80.8,0.2c2.9,2,5.7,5.9,3.2,13.5c-2,6.2-7.1,13.5-13.8,20.8
			c14.9,1.1,28.7,4.2,37.1,9.1c0.6,0.4,0.9,1.2,0.5,1.9c-0.4,0.6-1.2,0.9-1.9,0.5c-8.9-5.2-23.1-8.1-38.2-8.9
			C205,369.6,179.8,386,166.1,386z M213.8,352.1c-20.2,0-40.4,3.8-50.1,11.1c-5.3,4-7.3,8.8-5.9,14.2c1,3.8,3.5,5.7,7.8,5.8
			c12.4,0.3,35.9-14.8,52.5-31.1C216.7,352.1,215.3,352.1,213.8,352.1L213.8,352.1z"></path><circle class="st13" cx="192.5" cy="312.4" r="8.9"></circle></g><g id="laptop"><path class="st0" d="M297.9,316.6H454l15.4-86.7c0.9-5.1-2.5-9.9-7.5-10.9c-0.5-0.1-1.1-0.1-1.7-0.1H323.1c-4.5,0-8.4,3.2-9.2,7.7
			L297.9,316.6z"></path><path class="st0" d="M454,318H297.9c-0.4,0-0.8-0.2-1-0.5c-0.3-0.3-0.4-0.7-0.3-1.1l16-89.9c0.9-5.1,5.3-8.8,10.5-8.8h137.2
			c5.9,0,10.7,4.8,10.7,10.7c0,0.6-0.1,1.2-0.2,1.9l-15.4,86.7C455.2,317.5,454.7,318,454,318z M299.5,315.3h153.4l15.2-85.6
			c0.8-4.4-2.2-8.5-6.5-9.2c-0.4-0.1-0.9-0.1-1.3-0.1H323.1c-3.9,0-7.2,2.8-7.8,6.6L299.5,315.3z"></path><path class="st10" d="M309,316.6h156.1l15.4-86.7c0.9-5.1-2.5-9.9-7.5-10.9c-0.5-0.1-1.1-0.1-1.7-0.1H334.2
			c-4.5,0-8.4,3.2-9.2,7.7L309,316.6z"></path><path class="st0" d="M465.1,318H309c-0.8,0-1.4-0.6-1.4-1.4c0-0.1,0-0.2,0-0.2l16-89.9c0.9-5.1,5.3-8.8,10.5-8.8h137.2
			c5.9,0,10.7,4.8,10.7,10.7c0,0.6-0.1,1.2-0.2,1.9l-15.4,86.7C466.4,317.5,465.8,318,465.1,318z M310.6,315.3H464l15.2-85.6
			c0.8-4.4-2.2-8.5-6.5-9.2c-0.4-0.1-0.9-0.1-1.3-0.1H334.2c-3.9,0-7.2,2.8-7.8,6.6L310.6,315.3z"></path><linearGradient id="SVGID_00000009552251221078070370000001893534068702979007_-WVJcLqBA0h" gradientUnits="userSpaceOnUse" x1="-4051.428" y1="286.6306" x2="-4030.5381" y2="212.3906" gradientTransform="matrix(1 0 0 -1 4437.8164 501.9893)"><stop offset="0" style="stop-color: rgb(243, 131, 116);"></stop><stop offset="1" style="stop-color: rgb(198, 66, 52);"></stop></linearGradient><path d="M389.5,269.7c1.4-8.4,8.3-14.3,15.3-13.1
			c7,1.2,11.6,9,10.2,17.4c-1.4,8.4-8.3,14.3-15.3,13.1C392.7,285.9,388.1,278.1,389.5,269.7z" style="fill: url(&quot;#SVGID_00000009552251221078070370000001893534068702979007_-WVJcLqBA0h&quot;);"></path><linearGradient id="SVGID_00000088814140001253377440000017180209997406619034_-WVJcLqBA0h" gradientUnits="userSpaceOnUse" x1="-939.3378" y1="281.2362" x2="-929.0479" y2="244.6662" gradientTransform="matrix(-1 0 0 -1 -517.02 502)"><stop offset="0" style="stop-color: rgb(243, 131, 116);"></stop><stop offset="1" style="stop-color: rgb(198, 66, 52);"></stop></linearGradient><path d="M406,251.8c0,0,11.5-14.6,16.6-7.5
			C426.7,250.1,401.6,258.1,406,251.8z" style="fill: url(&quot;#SVGID_00000088814140001253377440000017180209997406619034_-WVJcLqBA0h&quot;);"></path><path class="st0" d="M312.1,316.6l-2.7-0.4l13.2-84.8c1-6,3.1-10.1,6.2-12.2c1.6-1.2,3.6-1.7,5.6-1.5l-0.5,2.7l0.2-1.4l-0.2,1.4
			c-0.3,0-6.5-0.8-8.6,11.5L312.1,316.6z"></path></g><g id="hand"><path class="st4" d="M260.5,263c0,0,3.7-11.4,12-15.7c6.3-3.2,17-3.5,29.5,2.1c9.6,4.3,26.7,13.5,31.2,20.2s2.1,14.5-5.1,14.4
			c0,0,9.7,14.6-1.8,22.5c0,0,4.1,9.5-4.2,15s-9.9,4.6-27.7,11.9c-10,4.1-17-1.8-27.1-19.1S260.5,263,260.5,263z"></path><path class="st4" d="M261.5,260.7c0,0,1.1-27.6,13.5-33.3s16.3,6,16.9,10.5s0.4,10.4-6.4,13.2S261.5,260.7,261.5,260.7z"></path><path class="st16" d="M261.1,263.2c-0.2,0-0.5-0.1-0.6-0.2c-0.7-0.4-0.9-1.2-0.6-1.9c0.2-0.4,4.8-8.8,13.2-13.9
			c8.6-5.1,15.4-3.5,15.6-3.4c0.7,0.2,1.2,0.9,1,1.7c-0.2,0.7-0.9,1.2-1.7,1c0,0-6-1.4-13.5,3.1c-7.7,4.6-12.1,12.7-12.2,12.8
			C262,262.9,261.6,263.2,261.1,263.2z"></path><path class="st16" d="M328.2,285.4c-0.3,0-0.7-0.1-0.9-0.4c-0.1-0.1-10.7-10.1-17-15c-3.8-2.9-8.4-4.5-13.1-4.8
			c-0.8,0.1-1.4-0.5-1.5-1.2s0.5-1.4,1.2-1.5c0.1,0,0.2,0,0.2,0l0,0c5.4,0.2,10.6,2.1,14.9,5.4c6.4,5,17,15.1,17.2,15.2
			c0.5,0.5,0.6,1.4,0.1,1.9c0,0,0,0,0,0C328.9,285.3,328.6,285.4,328.2,285.4z"></path><path class="st16" d="M326.4,307.9c-0.3,0-0.7-0.1-0.9-0.4c-0.1-0.1-10.1-9.4-19.4-12.5s-14.5-2.2-14.6-2.2
			c-0.8,0.1-1.4-0.5-1.5-1.2c-0.1-0.7,0.4-1.3,1-1.4c0.2,0,6-1,15.9,2.3s20,12.6,20.4,13c0.5,0.5,0.6,1.4,0.1,1.9c0,0,0,0,0,0
			C327.2,307.8,326.8,307.9,326.4,307.9z"></path><path class="st16" d="M305.9,322.3c-0.1,0-0.2,0-0.3,0c-0.1,0-8.5-2.1-13.2-0.1c-0.7,0.3-1.5,0.1-1.8-0.6s-0.1-1.5,0.6-1.8
			c0.1,0,0.1-0.1,0.2-0.1c5.6-2.3,14.6-0.1,15,0c0.7,0.2,1.2,1,1,1.7C307,321.9,306.5,322.3,305.9,322.3L305.9,322.3z"></path></g><path class="st16" d="M428.8,215.2c-4,0-8-1.1-11.5-3c-3.5-2-6.6-5.4-9.4-8.3c-2.4-2.6-5.1-5.4-6.5-5.5c-2.4-0.1-7.7,3.2-10.4,5.4
		c-0.6,0.5-1.4,0.4-1.9-0.2c-0.5-0.6-0.4-1.4,0.2-1.9c0,0,0,0,0,0c0.8-0.6,8-6.2,12.2-6c2.5,0.1,5.1,2.9,8.4,6.4
		c2.7,2.9,5.7,6.1,8.8,7.8c4.8,2.7,11.9,3.5,15.1,1.6c1.2-0.7,2-2,1.9-3.3c0-6.9-8.2-16-8.3-16.1c-0.4-0.6-0.3-1.5,0.3-1.9
		c0.5-0.4,1.2-0.3,1.7,0.1c0.4,0.4,9,10,9,17.9c0.1,2.4-1.2,4.6-3.3,5.7C433.2,214.7,431,215.2,428.8,215.2z"></path><path class="st4" d="M285.5,190.8c-3.7,1.1-7.6,1.2-11.4,0.3c-4.5-1.2-8.3-4.1-10.6-8.1c-2.7,5.9-11.8,9.3-13.4,6.6
		c0,0,2.8-8.4-4.6-10.6c-6.4-1.9-11.1,8.2-8.1,13c0.5,0.8,1.2,1.4,2,1.8c0,0-2.5,5.4-5.5,11.7c6.5,13.6,22.7,19.3,36.3,12.8
		C280.6,213.3,286.7,202.3,285.5,190.8L285.5,190.8z"></path><path class="st4" d="M285.5,190.8c-3.7,1.1-7.6,1.2-11.4,0.3c-4.5-1.2-8.3-4.1-10.6-8.1c-2.7,5.9-11.8,9.3-13.4,6.6
		c0,0,2.8-8.4-4.6-10.6c-6.4-1.9-11.1,8.2-8.1,13c0.5,0.8,1.2,1.4,2,1.8c0,0,0.7,11.2-5.5,11.7l0,0c-2-4.1-2.9-8.7-2.6-13.3
		c0.1-2.9,0.8-5.7,1.8-8.3c5.5-14,21.3-20.9,35.3-15.4C277.8,172.1,284.4,180.8,285.5,190.8L285.5,190.8z"></path><ellipse class="st4" transform="matrix(0.5971 -0.8022 0.8022 0.5971 -55.7576 311.1862)" cx="281.9" cy="211.1" rx="3.8" ry="8.5"></ellipse><path class="st0" d="M297.6,177.7c5.8-15.6-19.3-23.5-24.5-14.1c0,0-19.5-13.6-31-0.6c-8.1-3.4-17.4,6.7-15.5,14
		c-7.2,10.7-3.9,24.3,7.2,28.4l0,0c1.5-4,3.4-7.9,5.5-11.7c-0.8-0.4-1.5-1-2-1.8c-3-4.8,1.7-14.9,8.1-13c7.5,2.2,4.6,10.6,4.6,10.6
		c1.6,2.7,10.7-0.7,13.4-6.6c5.7,8.4,18.2,16.1,24.2,11.3C305,207.4,313.4,175.9,297.6,177.7z"></path><path class="st16" d="M243.7,190.2c-0.2-0.1-0.3-0.2-0.5-0.3c0.3,0.2,0.7,0.1,0.9-0.2s0.1-0.7-0.2-0.9s-0.7-0.1-0.9,0.2
		c-0.2,0.3-0.1,0.7,0.1,0.9l-0.2-0.2c0,0-0.2-0.3-0.1-0.1s-0.1-0.1-0.1-0.1c-0.1-0.1-0.1-0.2-0.2-0.3c-0.1-0.1-0.1-0.1,0,0
		c-0.1-0.2-0.1-0.4-0.2-0.6c0-0.1,0,0.2,0-0.1v-0.3c0-0.4,0,0.1,0-0.1c0-0.1,0-0.2,0.1-0.3l0.1-0.2c-0.1,0.2,0,0,0.1-0.1
		s0.1-0.1,0.1-0.2s0.2-0.2,0.1-0.1l0.2-0.2c0,0,0.3-0.2,0.2-0.1s0.1-0.1,0.1-0.1l0.3-0.2c-0.1,0.1-0.1,0,0,0l0.3-0.1h0.1h0.5
		c-0.2,0,0,0,0.1,0l0.2,0.1c0.1,0,0.3,0.1,0.1,0c0.2,0.1,0.4,0.2,0.6,0.3c0.7,0.4,1.5,0.1,1.9-0.5c0.1-0.1,0.1-0.2,0.1-0.3
		c0.8-2.1-0.2-4.4-2.3-5.2c-1.5-0.6-3.2-0.2-4.3,0.9c-0.5,0.5-0.5,1.4,0,1.9c0.5,0.5,1.4,0.5,1.9,0c0.2-0.2-0.1,0,0.1-0.1
		c0.1,0,0.3-0.2,0.1-0.1c0.1-0.1,0.2-0.1,0.4-0.1c0.3-0.1-0.1,0,0.1,0h0.4c-0.3,0,0.1,0,0.1,0s0.4,0.1,0.1,0c0,0,0.4,0.2,0.3,0.1
		s0.1,0.1,0.2,0.2s0.1,0,0-0.1l0.1,0.1c0,0,0.2,0.4,0.1,0.2s0.1,0.2,0.1,0.2s0.1,0.4,0.1,0.2s0,0.2,0,0.2s0,0.1,0,0.2
		c0-0.1,0-0.2,0-0.1s-0.1,0.3-0.1,0.4l2-0.8c-2.1-1.5-4.9-1-6.4,1.1c-1.5,2.1-1,4.9,1.1,6.4c0.2,0.2,0.5,0.3,0.8,0.4
		c0.7,0.4,1.5,0.1,1.9-0.5C244.5,191.4,244.3,190.5,243.7,190.2L243.7,190.2z"></path><ellipse class="st10" transform="matrix(0.1595 -0.9872 0.9872 0.1595 33.394 440.6963)" cx="275.5" cy="200.7" rx="4" ry="3.4"></ellipse><ellipse class="st17" transform="matrix(0.1582 -0.9874 0.9874 0.1582 32.7431 441.2166)" cx="275.1" cy="201.4" rx="2.6" ry="2.2"></ellipse><path class="st16" d="M256.3,207.3c-1.2,0-2.5-0.3-3.5-0.9c-0.6-0.4-0.8-1.3-0.3-1.9c0.4-0.6,1.1-0.7,1.8-0.4
		c0.6,0.3,3.4,1.8,5.7-1.8c0.4-0.7,1.2-0.9,1.8-0.6c0.7,0.4,0.9,1.2,0.6,1.8c0,0.1-0.1,0.1-0.1,0.2c-0.9,1.7-2.5,3-4.4,3.5
		C257.3,207.2,256.8,207.3,256.3,207.3z"></path><path class="st16" d="M267.4,214c-3.2,0-8.6-1.4-10.4-6.9c-0.2-0.7,0.2-1.5,0.9-1.7s1.5,0.2,1.7,0.9l0,0c1.8,5.5,8.1,5,8.4,5
		c0.8,0,1.4,0.6,1.4,1.4c0,0.7-0.5,1.2-1.1,1.4C267.9,214,267.6,214,267.4,214z"></path></g><g id="pop_up_1"><path class="st13" d="M45.5,210.2h163.2c3.8,0,6.8-3,6.8-6.8c0-0.6-0.1-1.1-0.2-1.7L186.5,89c-0.8-3-3.5-5.1-6.5-5.1H16.8
		c-3.8,0-6.8,3-6.8,6.8c0,0.6,0.1,1.1,0.2,1.7l28.7,112.7C39.7,208.1,42.4,210.2,45.5,210.2z"></path><polygon class="st10" points="119.2,109.5 177.1,109.5 173.8,97.9 115.8,97.9 	"></polygon><polygon class="st10" points="104.1,109.5 112.5,109.5 109.2,97.9 100.8,97.9 	"></polygon><polygon class="st10" points="90.1,109.5 98.5,109.5 95.2,97.9 86.8,97.9 	"></polygon><polygon class="st10" points="76.2,109.5 84.5,109.5 81.2,97.9 72.8,97.9 	"></polygon><polygon class="st10" points="26.1,109.5 70.6,109.5 67.3,97.9 22.8,97.9 	"></polygon><polygon class="st10" points="110.6,127.8 119,127.8 115.7,116.1 107.3,116.1 	"></polygon><polygon class="st10" points="96.6,127.8 105,127.8 101.7,116.1 93.3,116.1 	"></polygon><polygon class="st10" points="82.7,127.8 91.1,127.8 87.7,116.1 79.4,116.1 	"></polygon><polygon class="st10" points="151.8,127.8 182.7,127.8 179.4,116.1 148.5,116.1 	"></polygon><polygon class="st10" points="137.8,127.8 146.2,127.8 142.9,116.1 134.5,116.1 	"></polygon><polygon class="st10" points="123.8,127.8 132.2,127.8 128.9,116.1 120.5,116.1 	"></polygon><polygon class="st10" points="32.7,127.8 77.1,127.8 73.8,116.1 29.4,116.1 	"></polygon><path class="st10" d="M190.8,147.3h-59.4l-3.7-13h59.4L190.8,147.3z M132.5,146H189l-2.9-10.3h-56.5L132.5,146z"></path><path class="st10" d="M126.2,147.3h-9.8l-3.7-13h9.8L126.2,147.3z M117.4,146h7l-2.9-10.3h-7L117.4,146z"></path><path class="st10" d="M112.2,147.3h-9.8l-3.7-13h9.8L112.2,147.3z M103.4,146h7l-2.9-10.3h-7L103.4,146z"></path><path class="st10" d="M98.2,147.3h-9.8l-3.7-13h9.8L98.2,147.3z M89.5,146h7l-2.9-10.3h-7L89.5,146z"></path><path class="st10" d="M84.3,147.3H38.4l-3.7-13h45.8L84.3,147.3z M39.5,146h43l-2.9-10.3h-43L39.5,146z"></path><path class="st10" d="M132.7,165.6h-9.8l-3.7-13h9.8L132.7,165.6z M123.9,164.2h7l-2.9-10.3h-7L123.9,164.2z"></path><path class="st10" d="M118.7,165.6h-9.8l-3.7-13h9.8L118.7,165.6z M110,164.2h7l-3-10.3h-7L110,164.2z"></path><path class="st10" d="M104.8,165.6H95l-3.7-13h9.8L104.8,165.6z M96,164.2h7l-3-10.3h-7L96,164.2z"></path><path class="st10" d="M196.4,165.6h-32.3l-3.7-13h32.3L196.4,165.6z M165.1,164.2h29.5l-2.9-10.3h-29.5L165.1,164.2z"></path><path class="st10" d="M159.9,165.6h-9.8l-3.7-13h9.8L159.9,165.6z M151.1,164.2h7l-2.9-10.3h-7L151.1,164.2z"></path><path class="st10" d="M145.9,165.6h-9.8l-3.7-13h9.8L145.9,165.6z M137.2,164.2h7l-2.9-10.3h-7L137.2,164.2z"></path><path class="st10" d="M90.8,165.6H45l-3.7-13h45.8L90.8,165.6z M46,164.2h43l-2.9-10.3h-43L46,164.2z"></path><path class="st10" d="M197.5,173.8H46c-0.4,0-0.7-0.3-0.7-0.7c0-0.4,0.3-0.7,0.7-0.7h151.5c0.4,0,0.7,0.3,0.7,0.7
		C198.2,173.5,197.9,173.8,197.5,173.8L197.5,173.8z"></path><path class="st10" d="M199.3,181H47.8c-0.4,0-0.7-0.3-0.7-0.7c0-0.4,0.3-0.7,0.7-0.7h151.5c0.4,0,0.7,0.3,0.7,0.7
		C200,180.7,199.7,181,199.3,181z"></path><path class="st10" d="M201.1,188.3H49.6c-0.4,0-0.7-0.3-0.7-0.7c0-0.4,0.3-0.7,0.7-0.7h151.5c0.4,0,0.7,0.3,0.7,0.7
		C201.8,188,201.5,188.3,201.1,188.3z"></path><path class="st10" d="M202.9,195.5H51.4c-0.4,0-0.7-0.3-0.7-0.7c0-0.4,0.3-0.7,0.7-0.7h151.5c0.4,0,0.7,0.3,0.7,0.7
		C203.6,195.2,203.3,195.5,202.9,195.5z"></path><polygon class="st13" points="126,206.2 120.8,234.1 156.3,208.2 	"></polygon></g><g id="line"><path class="st0" d="M488.6,446H59.8c-0.8,0.1-1.4-0.5-1.5-1.2s0.5-1.4,1.2-1.5c0.1,0,0.2,0,0.2,0h428.8c0.8-0.1,1.4,0.5,1.5,1.2
		s-0.5,1.4-1.2,1.5C488.8,446,488.7,446,488.6,446z"></path></g><g id="pop_up_2"><linearGradient id="SVGID_00000112620028783224290290000009477795788131573933_-WVJcLqBA0h" gradientUnits="userSpaceOnUse" x1="324.7745" y1="416.6652" x2="389.6645" y2="343.2952" gradientTransform="matrix(1 0 0 -1 0 502)"><stop offset="0" style="stop-color: rgb(243, 131, 116);"></stop><stop offset="1" style="stop-color: rgb(198, 66, 52);"></stop></linearGradient><path d="M394.8,168.1h-69.5
		c-4.1,0-7.3-3.3-7.3-7.4c0-0.9,0.2-1.8,0.5-2.6l19.2-49.3c1.1-2.8,3.8-4.7,6.8-4.7h69.5c4.1,0,7.3,3.3,7.3,7.4
		c0,0.9-0.2,1.8-0.5,2.6l-19.2,49.3C400.6,166.2,397.9,168.1,394.8,168.1z" style="fill: url(&quot;#SVGID_00000112620028783224290290000009477795788131573933_-WVJcLqBA0h&quot;);"></path><path class="st10" d="M346.3,147.7c-0.4,0-0.7-0.1-1-0.4L333.6,136c-0.5-0.5-0.5-1.4,0-1.9c0,0,0.1-0.1,0.1-0.1l17.8-14.3
		c0.6-0.5,1.4-0.5,1.9,0.1s0.5,1.4-0.1,1.9c-0.1,0-0.1,0.1-0.2,0.1l-16.6,13.4l10.7,10.3c0.5,0.5,0.6,1.4,0,1.9
		c-0.3,0.3-0.6,0.4-1,0.4V147.7z"></path><path class="st10" d="M388.1,147.3c-0.8,0-1.4-0.6-1.4-1.4c0-0.5,0.2-0.9,0.6-1.1l17.3-11.4l-16.4-13.1c-0.6-0.5-0.7-1.3-0.2-1.9
		c0.5-0.6,1.3-0.7,1.9-0.2l0,0l17.8,14.3c0.6,0.5,0.7,1.3,0.2,1.9c-0.1,0.1-0.2,0.2-0.3,0.3L388.9,147
		C388.7,147.2,388.4,147.2,388.1,147.3z"></path><path class="st10" d="M358.4,146.9c-3.6,0-6.6-2.9-6.6-6.5c0-0.5,0.1-1.1,0.2-1.6l1.5-6.1c0.1-0.7,0.8-1.3,1.6-1.1
		c0.7,0.1,1.3,0.8,1.1,1.6c0,0.1,0,0.1-0.1,0.2l-1.5,6.1c-0.5,2.1,0.7,4.1,2.8,4.6c0.3,0.1,0.6,0.1,0.9,0.1c1.8,0,3.3-1.2,3.8-3
		l4.7-21.4H360c-0.8,0.1-1.4-0.5-1.5-1.2c-0.1-0.8,0.5-1.4,1.2-1.5c0.1,0,0.2,0,0.2,0h8.6c0.7,0,1.4,0.6,1.4,1.3c0,0.1,0,0.2,0,0.3
		l-5,23C364.2,144.7,361.5,146.9,358.4,146.9z"></path><path class="st10" d="M376.9,146.2c-2.7,0.2-5.4-1.1-6.9-3.3c-1.2-1.9-1.4-4.3-0.4-6.3c0.4-0.6,1.2-0.8,1.9-0.4
		c0.6,0.4,0.8,1.1,0.5,1.7c-0.6,1.2-0.5,2.5,0.2,3.6c0.9,1.5,2.8,2.2,5.1,2.1c1.6,0.1,3.1-0.9,3.6-2.5c0.6-1.9,0-5-2.9-7.3
		c-4.7-3.7-7-7.8-6.3-11.2c0.4-2.4,2.2-4.1,5-5c1.4-0.5,2.9-0.3,4.1,0.5c2.2,1.6,2.4,5,2.5,5.4c0,0.8-0.7,1.3-1.4,1.3
		c-0.7,0-1.2-0.5-1.3-1.2c0-0.6-0.3-2.6-1.3-3.3c-0.1-0.1-0.6-0.4-1.7-0.1c-1.3,0.4-2.8,1.2-3.2,2.9c-0.4,2.3,1.6,5.5,5.4,8.5
		c3.3,2.6,4.9,6.9,3.8,10.3c-0.8,2.6-3.3,4.4-6,4.4L376.9,146.2z"></path></g></svg>