<svg transform="scale(1)" version="1.1" id="_x30_264_x5F_Javascript" xmlns="http://www.w3.org/2000/svg" xmlns:xlink="http://www.w3.org/1999/xlink" x="0px" y="0px" viewBox="0 0 500 500" xml:space="preserve" class="show_show__wrapper__graphic__5Waiy "><title>React</title><style type="text/css">
	.st0{fill:#FFFFFF;}
	.st1{fill:#732A09;}
	.st2{fill:#F75454;}
</style><g id="code-bar"><path class="st0" d="M250.4,113.5v17.8H43.5v-17.8c0-4.8,3.9-8.7,8.7-8.7c0,0,0,0,0,0h189.5C246.5,104.8,250.4,108.7,250.4,113.5z"></path><path class="st1" d="M250.4,131.9H43.5c-0.3,0-0.5-0.2-0.5-0.5v-17.8c0-5.1,4.1-9.2,9.2-9.2h189.5c5.1,0,9.2,4.1,9.2,9.2v17.8
		C250.9,131.6,250.6,131.8,250.4,131.9z M44,130.9h205.9v-17.3c0-4.5-3.7-8.2-8.2-8.2H52.2c-4.5,0-8.2,3.7-8.2,8.2c0,0,0,0,0,0
		V130.9z"></path><rect class="st0" x="43.5" y="131.4" width="206.9" height="119.4"></rect><path class="st1" d="M250.4,251.3H43.5c-0.3,0-0.5-0.2-0.5-0.5V131.4c0-0.3,0.2-0.5,0.5-0.5h206.8c0.3,0,0.5,0.2,0.5,0.5v119.4
		C250.9,251,250.6,251.3,250.4,251.3z M44,250.3h205.9V131.9H44V250.3z"></path><path class="st1" d="M116.9,144.4H67.2c-0.3,0-0.5-0.2-0.5-0.5s0.2-0.5,0.5-0.5h49.7c0.3,0,0.5,0.2,0.5,0.5
		S117.2,144.4,116.9,144.4z"></path><path class="st1" d="M152.8,144.4h-25.9c-0.3,0-0.5-0.2-0.5-0.5s0.2-0.5,0.5-0.5h25.9c0.3,0,0.5,0.2,0.5,0.5
		S153.1,144.4,152.8,144.4z"></path><path class="st1" d="M182.7,144.4h-18c-0.3,0-0.5-0.2-0.5-0.5s0.2-0.5,0.5-0.5h18c0.3,0,0.5,0.2,0.5,0.5S182.9,144.4,182.7,144.4z"></path><path class="st1" d="M227.1,144.4h-36.2c-0.3,0-0.5-0.2-0.5-0.5s0.2-0.5,0.5-0.5h36.2c0.3,0,0.5,0.2,0.5,0.5
		S227.4,144.4,227.1,144.4z"></path><path class="st1" d="M92.7,178.8H66.8c-0.3,0-0.5-0.2-0.5-0.5s0.2-0.5,0.5-0.5h25.9c0.3,0,0.5,0.2,0.5,0.5S92.9,178.8,92.7,178.8z"></path><path class="st1" d="M122.5,178.8h-18c-0.3,0-0.5-0.2-0.5-0.5s0.2-0.5,0.5-0.5h18c0.3,0,0.5,0.2,0.5,0.5S122.8,178.8,122.5,178.8z"></path><path class="st2" d="M187,178.8h-56.2c-0.3,0-0.5-0.2-0.5-0.5s0.2-0.5,0.5-0.5H187c0.3,0,0.5,0.2,0.5,0.5S187.3,178.8,187,178.8z"></path><path class="st1" d="M85.8,160.7h-18c-0.3,0-0.5-0.2-0.5-0.5s0.2-0.5,0.5-0.5h18c0.3,0,0.5,0.2,0.5,0.5S86.1,160.7,85.8,160.7z"></path><path class="st2" d="M150.3,160.7H94.1c-0.3,0-0.5-0.2-0.5-0.5s0.2-0.5,0.5-0.5h56.3c0.3,0,0.5,0.2,0.5,0.5
		S150.6,160.7,150.3,160.7z"></path><path class="st1" d="M173.4,160.7h-18c-0.3,0-0.5-0.2-0.5-0.5s0.2-0.5,0.5-0.5h18c0.3,0,0.5,0.2,0.5,0.5S173.7,160.7,173.4,160.7z"></path><path class="st1" d="M217.8,160.7h-36.2c-0.3,0-0.5-0.2-0.5-0.5s0.2-0.5,0.5-0.5h36.2c0.3,0,0.5,0.2,0.5,0.5
		S218.1,160.7,217.8,160.7z"></path><path class="st2" d="M116.9,193.1H67.2c-0.3,0-0.5-0.2-0.5-0.5c0-0.3,0.2-0.5,0.5-0.5h49.7c0.3,0,0.5,0.2,0.5,0.5
		S117.2,193.1,116.9,193.1z"></path><path class="st1" d="M152.8,193.1h-25.9c-0.3,0-0.5-0.2-0.5-0.5s0.2-0.5,0.5-0.5h25.9c0.3,0,0.5,0.2,0.5,0.5
		C153.3,192.9,153.1,193.1,152.8,193.1z"></path><path class="st1" d="M182.7,193.1h-18c-0.3,0-0.5-0.2-0.5-0.5s0.2-0.5,0.5-0.5h18c0.3,0,0.5,0.2,0.5,0.5S182.9,193.1,182.7,193.1z"></path><path class="st1" d="M227.1,193.1h-36.2c-0.3,0-0.5-0.2-0.5-0.5s0.2-0.5,0.5-0.5h36.2c0.3,0,0.5,0.2,0.5,0.5
		S227.4,193.1,227.1,193.1z"></path><path class="st1" d="M92.7,227.6H66.8c-0.3,0-0.5-0.2-0.5-0.5s0.2-0.5,0.5-0.5h25.9c0.3,0,0.5,0.2,0.5,0.5
		C93.2,227.3,92.9,227.6,92.7,227.6z"></path><path class="st1" d="M122.5,227.6h-18c-0.3,0-0.5-0.2-0.5-0.5s0.2-0.5,0.5-0.5h18c0.3,0,0.5,0.2,0.5,0.5S122.8,227.6,122.5,227.6z"></path><path class="st2" d="M187,227.6h-56.2c-0.3,0-0.5-0.2-0.5-0.5s0.2-0.5,0.5-0.5H187c0.3,0,0.5,0.2,0.5,0.5S187.3,227.6,187,227.6z"></path><path class="st1" d="M85.8,209.4h-18c-0.3,0-0.5-0.2-0.5-0.5s0.2-0.5,0.5-0.5h18c0.3,0,0.5,0.2,0.5,0.5S86.1,209.4,85.8,209.4z"></path><path class="st1" d="M150.3,209.4H94.1c-0.3,0-0.5-0.2-0.5-0.5s0.2-0.5,0.5-0.5h56.3c0.3,0,0.5,0.2,0.5,0.5
		S150.6,209.4,150.3,209.4z"></path><path class="st1" d="M173.4,209.4h-18c-0.3,0-0.5-0.2-0.5-0.5s0.2-0.5,0.5-0.5h18c0.3,0,0.5,0.2,0.5,0.5S173.7,209.4,173.4,209.4z"></path><path class="st1" d="M217.8,209.4h-36.2c-0.3,0-0.5-0.2-0.5-0.5s0.2-0.5,0.5-0.5h36.2c0.3,0,0.5,0.2,0.5,0.5
		S218.1,209.4,217.8,209.4z"></path><circle class="st2" cx="56.7" cy="118.8" r="3.4"></circle><path class="st1" d="M56.8,122.7c-2.2,0-3.9-1.7-3.9-3.9c0-2.2,1.7-3.9,3.9-3.9c2.2,0,3.9,1.7,3.9,3.9c0,0,0,0,0,0
		C60.6,121,58.9,122.7,56.8,122.7z M56.8,115.9c-1.6,0-2.9,1.3-2.9,2.9c0,1.6,1.3,2.9,2.9,2.9c1.6,0,2.9-1.3,2.9-2.9c0,0,0,0,0,0
		C59.7,117.2,58.4,115.9,56.8,115.9z"></path><circle class="st2" cx="69.1" cy="118.8" r="3.4"></circle><path class="st1" d="M69.1,122.7c-2.2,0-3.9-1.7-3.9-3.9s1.7-3.9,3.9-3.9s3.9,1.7,3.9,3.9c0,0,0,0,0,0
		C73,121,71.3,122.7,69.1,122.7z M69.1,115.9c-1.6,0-2.9,1.3-2.9,2.9s1.3,2.9,2.9,2.9c1.6,0,2.9-1.3,2.9-2.9c0,0,0,0,0,0
		C72,117.2,70.7,115.9,69.1,115.9z"></path><circle class="st2" cx="81.5" cy="118.8" r="3.4"></circle><path class="st1" d="M81.5,122.7c-2.2,0-3.9-1.8-3.9-3.9s1.8-3.9,3.9-3.9s3.9,1.8,3.9,3.9C85.4,121,83.6,122.7,81.5,122.7z
		 M81.5,115.9c-1.6,0-2.9,1.3-2.9,2.9s1.3,2.9,2.9,2.9s2.9-1.3,2.9-2.9C84.4,117.2,83.1,115.9,81.5,115.9z"></path></g><g id="character"><path class="st0" d="M263.7,372.1l-2.7,0.2l-9.5,7.4l-20.1,1.2c0,0-36-4.2-41.6-22.4s17.3-30.5,17.3-30.5l15-6.4l91.1-2.9l14.3,4.9
		c0,0,26.5,15.6,23.5,39.6S299.5,396,269,395.6c-6.3-8.6-7.6-20-3.3-29.8l31.8-20.6"></path><path class="st1" d="M271.3,396.1H269c-0.1,0-0.3-0.1-0.4-0.2c-4.9-6.7-6.9-15.1-5.5-23.2l-1.9,0.1l-9.4,7.4
		c-0.1,0.1-0.2,0.1-0.3,0.1l-20.1,1.2c-6.4-0.9-12.8-2.4-18.9-4.4c-12.8-4.4-20.9-10.8-23.2-18.4s-0.1-15.4,6.6-22.6
		c3.2-3.4,6.9-6.2,10.9-8.5l15-6.5c0.1,0,0.1,0,0.2,0l91.1-2.9c0.1,0,0.1,0,0.2,0l14.3,4.9h0.1c0.3,0.2,26.7,16.1,23.8,40.1
		c-1.3,10.9-12.1,19.8-31.1,25.8C306.4,393.5,288.2,396.1,271.3,396.1z M269.2,395.1c32.3,0.4,78.7-9.2,81.5-31.9
		c2.8-23-22.1-38.4-23.3-39.1l-14.2-4.9l-91,2.9l-14.9,6.4c-0.2,0.1-22.4,12.3-17,29.9s40.8,22,41.1,22.1l19.8-1.2l9.4-7.3
		c0.1-0.1,0.2-0.1,0.3-0.1l2.3-0.1c0.4-2.1,1.1-4.1,1.9-6c0-0.1,0.1-0.2,0.2-0.2l31.8-20.6c0.2-0.2,0.5-0.1,0.7,0.1
		c0.1,0.2,0.1,0.5-0.1,0.7L266,366.2C262,375.7,263.2,386.7,269.2,395.1L269.2,395.1z"></path><path class="st2" d="M161.2,242.4c4.7-0.7,7.1-1.4,12.2,7.1s16.2,23.6,16.2,23.6s23.6-29.1,36.7-37.7s33.4-12.1,45-13.5
		s49.2,8.6,60.8,27.9s18.1,38.8,13.4,47.1s-11.3,9.9-11.3,9.9s0.7,8.5-0.5,13c-0.8,2.7-2.7,4.9-5.2,6.1c0,0-27-5.2-53.2-4.2
		c-14.8,0.6-29.7,0.4-44.5-0.7l-1.2-27.1c0,0-30.8,24.5-50.2,16.7S143,257.7,143,257.7s-2.6-5.9,3.3-8.9
		C151.2,246.4,156.1,244.3,161.2,242.4z"></path><path class="st0" d="M286.4,219c1,9.5,0.8,34.7,12.9,44.2c12.1,9.5,35.2-1.5,28.5-21.4s-39-26.4-39-26.4L286.4,219z"></path><path class="st1" d="M309.8,267.1c-3.9,0-7.7-1.2-10.8-3.6c-10.6-8.3-11.9-27.9-12.7-39.7c-0.1-1.9-0.2-3.5-0.4-4.9
		c0-0.1,0-0.2,0.1-0.3l2.5-3.6c0.1-0.2,0.3-0.2,0.5-0.2c0.3,0.1,32.6,6.8,39.3,26.7c2.9,8.7,0.5,16.8-6.5,21.7
		C318.3,265.8,314.1,267.1,309.8,267.1z M286.9,219.1c0.1,1.3,0.2,2.9,0.4,4.7c0.8,11.6,2.1,30.9,12.4,39c5.8,4.6,14.9,4.4,21.6-0.3
		s8.9-12.4,6.1-20.6c-6.2-18.4-34.9-25.2-38.3-26L286.9,219.1z"></path><path class="st2" d="M284.7,221.7c-0.6,2.5,3.8,5.4,8.6,3.1s8.4-8.2,2.2-10.5S284.7,221.7,284.7,221.7z"></path><path class="st1" d="M289.8,226.2c-1.5,0-3-0.5-4.2-1.4c-1-0.7-1.5-1.9-1.3-3.2c0,0,0-0.1,0-0.1c0.2-0.4,5-10,11.5-7.6
		c2.8,1,3.5,2.8,3.6,4c0.1,2.6-2.4,5.7-5.8,7.4C292.3,225.8,291.1,226.1,289.8,226.2z M285.2,221.9c-0.1,0.8,0.3,1.6,1,2.1
		c2.1,1.4,4.7,1.6,6.9,0.4c3-1.4,5.3-4.3,5.2-6.4c-0.1-1.4-1-2.4-2.9-3.1C290,212.8,285.5,221.2,285.2,221.9z"></path><path class="st0" d="M263.6,158.8c-13.5-10.5-30.4,8.7-26,30.6s39.2,29.7,39.2,29.7l10.1,3.4c0,0,8.1-1.6,9.9-6.1
		s0.3-16.6,0.1-27.8S292.3,158.1,263.6,158.8z"></path><path class="st1" d="M286.9,222.9c-0.1,0-0.1,0-0.2,0l-10.1-3.4c-0.3-0.1-35.1-8.1-39.5-30c-2.9-14.6,3.4-27.1,11.1-31.9
		c4.8-3.2,11.1-2.9,15.6,0.7c10.9-0.3,19.4,2.4,25.1,7.9c6.8,6.5,8.4,15.7,8.5,22.3c0.1,3.4,0.2,6.8,0.4,10.2
		c0.4,7.8,0.8,14.6-0.5,17.8C295.3,221.3,287.3,222.9,286.9,222.9L286.9,222.9z M255.6,156.4c-2.4,0-4.8,0.8-6.9,2.1
		c-7.4,4.6-13.5,16.7-10.6,30.8c4.3,21.3,38.5,29.2,38.8,29.3l10,3.3c1-0.2,7.8-1.9,9.4-5.8c1.2-3,0.9-10,0.5-17.4
		c-0.2-3.4-0.4-6.8-0.4-10.2c-0.1-6.4-1.6-15.3-8.2-21.6c-5.6-5.3-13.8-7.9-24.6-7.6c-0.1,0-0.2,0-0.3-0.1
		C261.1,157.4,258.4,156.4,255.6,156.4L255.6,156.4z"></path><path class="st0" d="M280.2,207.4c1,8.8,3.1,19,3.1,19s-1.6,8.5-10.2,9.8s-9.4-6.1-9.5-7.6s0.8-6.6,0.9-8.2
		S280.2,207.4,280.2,207.4z"></path><path class="st1" d="M271.1,236.9c-1.8,0.1-3.6-0.5-5-1.6c-2.5-2-2.9-5.3-3-6.6c0.1-1.7,0.2-3.4,0.5-5.1c0.2-1.3,0.4-2.5,0.4-3.2
		c0.1-1.7,11.2-9.9,16-13.3c0.1-0.1,0.3-0.1,0.5-0.1c0.2,0.1,0.3,0.2,0.3,0.4c1,8.7,3,18.8,3.1,18.9c0,0.1,0,0.1,0,0.2
		c0,0.1-1.8,8.9-10.7,10.2C272.5,236.8,271.8,236.8,271.1,236.9z M279.9,208.3c-7.2,5.2-14.6,11-14.9,12.1c0,0.7-0.2,1.9-0.4,3.2
		c-0.3,1.6-0.5,3.3-0.5,4.9c0.1,1.2,0.5,4.1,2.6,5.9c1.5,1.2,3.6,1.6,6.3,1.2c7.7-1.2,9.6-8.4,9.8-9.3
		C282.6,225.3,280.9,216.4,279.9,208.3L279.9,208.3z"></path><path class="st0" d="M245.2,181.1c0,0-9,22.5-0.2,32.4s32.3,9.3,39.9-5.7c0,0,4.5,5.6,8.7,0.1s-0.6-11.8-7.1-9.2
		c0,0-2.1-6.4-13.5-10.9c-6.6-2.5-12.5-6.7-17-12.1C256,175.7,253.7,179.6,245.2,181.1z"></path><path class="st1" d="M262.3,220.6c-7.2,0-13.9-2.5-17.7-6.8c-8.9-9.9-0.3-31.9,0.1-32.9c0.1-0.2,0.2-0.3,0.4-0.3
		c8.2-1.5,10.5-5.2,10.5-5.2c0.2-0.2,0.5-0.3,0.7-0.1c0.1,0,0.1,0.1,0.1,0.1c4.5,5.4,10.3,9.5,16.8,12c9.8,3.9,12.8,9.1,13.6,10.7
		c3.1-1,6.1-0.2,7.8,2s1.5,5.5-0.6,8.1c-1,1.5-2.6,2.5-4.5,2.6l0,0c-1.7-0.1-3.3-0.9-4.5-2.1c-3.5,6.3-10.2,10.6-18.5,11.6
		C265.1,220.5,263.7,220.6,262.3,220.6z M245.5,181.6c-0.9,2.5-8.2,22.7-0.2,31.6c4.4,4.9,12.6,7.3,21,6.2s14.9-5.4,18.1-11.7
		c0.1-0.2,0.2-0.3,0.4-0.3c0.2,0,0.3,0.1,0.4,0.2c0,0,1.9,2.3,4.2,2.3l0,0c1.5-0.1,2.9-0.9,3.7-2.2c2.1-2.8,1.7-5.4,0.5-7
		c-1.5-2-4.3-2.6-7-1.5c-0.1,0.1-0.3,0.1-0.4,0c-0.1-0.1-0.2-0.2-0.3-0.3c0-0.1-2.2-6.2-13.2-10.6c-6.5-2.5-12.3-6.5-16.8-11.8
		C255,177.6,252.2,180.3,245.5,181.6L245.5,181.6z"></path><path class="st1" d="M265,192.2c0.6-0.7,1.3-1.2,2.1-1.5c0.8-0.4,1.7-0.5,2.6-0.4c0.9,0.1,1.7,0.4,2.5,0.9c0.4,0.2,0.7,0.5,1,0.8
		c0.3,0.3,0.5,0.7,0.8,1c0.2,0.2,0.1,0.5-0.1,0.7c-0.2,0.1-0.4,0.1-0.6,0l0,0c-0.6-0.4-1.2-0.8-1.8-1.1c-0.6-0.3-1.2-0.5-1.8-0.5
		c-0.6-0.1-1.3,0-1.9,0.2c-0.7,0.2-1.3,0.4-1.9,0.8h-0.1c-0.2,0.1-0.5,0-0.7-0.2C264.9,192.6,264.9,192.4,265,192.2z"></path><path class="st1" d="M245.2,187.8c0.3-0.4,0.7-0.8,1.2-1c0.4-0.2,0.9-0.4,1.4-0.4c1-0.2,1.9-0.1,2.9,0.1c0.9,0.2,1.8,0.7,2.6,1.2
		c0.7,0.6,1.4,1.2,1.9,2c0.2,0.2,0.1,0.5-0.1,0.7c0,0,0,0,0,0c-0.2,0.1-0.4,0.1-0.6,0l0,0c-0.6-0.5-1.3-0.9-2-1.4
		c-0.7-0.4-1.4-0.7-2.1-0.9c-0.7-0.2-1.5-0.3-2.2-0.3c-0.4,0-0.7,0.1-1.1,0.2c-0.3,0.1-0.6,0.2-0.9,0.4l-0.1,0.1
		c-0.2,0.1-0.5,0.1-0.7-0.1c0,0,0,0,0,0C245.1,188.2,245.1,188,245.2,187.8z"></path><path class="st1" d="M252.6,203.8L252.6,203.8c-1.5,0-2.7-1.1-2.8-2.6c0,0,0,0,0-0.1c-0.1-0.7,0.2-1.5,0.7-2c1-0.8,2.2-1.1,3.4-1.1
		c0.3-2.7,0.4-5.3,0.3-8c0-0.3,0.2-0.5,0.5-0.5c0.3,0,0.5,0.2,0.5,0.5c0.2,2.9,0,5.8-0.3,8.6c0,0.3-0.3,0.4-0.5,0.4
		c-1.1-0.1-2.2,0.2-3.1,0.8c-0.3,0.3-0.5,0.8-0.4,1.2c0,0.9,0.7,1.7,1.7,1.7c0,0,0.1,0,0.1,0l0,0c1.3,0,2.5-0.9,2.7-2.2
		c0-0.3,0.2-0.5,0.5-0.5c0,0,0,0,0,0c0.3,0,0.5,0.3,0.5,0.6C256,202.5,254.5,203.9,252.6,203.8z"></path><path class="st1" d="M267.2,197.5c0.3,1.4-0.3,2.7-1.2,2.9s-2-0.8-2.2-2.2c-0.1-0.4-0.1-0.8,0-1.2l1.8,0.6l-1.2-1.9
		c0.2-0.2,0.4-0.3,0.6-0.3C266,195.2,267,196.2,267.2,197.5z"></path><path class="st1" d="M248.6,192.6c0.4,1.4,0,2.7-1,3s-2-0.6-2.4-1.9c-0.1-0.4-0.2-0.8-0.1-1.2l1.9,0.4l-1.4-1.8
		c0.2-0.2,0.4-0.3,0.6-0.4C247.1,190.4,248.2,191.2,248.6,192.6z"></path><path class="st1" d="M292.7,204.5c-0.2,0-0.4-0.2-0.5-0.4c-0.1-0.8-0.6-1.6-1.3-2c-1-0.4-2.1-0.5-3.2-0.2c-0.3,0.1-0.5-0.1-0.6-0.3
		c-0.1-0.3,0.1-0.5,0.3-0.6c1.3-0.4,2.7-0.3,4,0.3c1,0.6,1.6,1.5,1.8,2.6c0.1,0.3-0.1,0.5-0.4,0.6L292.7,204.5z"></path><path class="st1" d="M288.9,207.7c-0.3,0-0.5-0.2-0.5-0.5c0-0.3,0.2-0.5,0.5-0.5c0.6-0.1,1.2-0.5,1.5-1.1c0.6-1.1,0.8-2.4,0.5-3.6
		c-0.1-0.3,0-0.5,0.3-0.6c0.3-0.1,0.5,0.1,0.6,0.3c0.4,1.5,0.2,3.1-0.6,4.5C290.7,206.9,289.9,207.5,288.9,207.7L288.9,207.7z"></path><path class="st1" d="M257.8,211.4c-2.5-0.1-4.7-1.7-5.8-3.9c-0.1-0.2-0.1-0.4,0-0.5c0.1-0.2,0.3-0.2,0.5-0.2l8.7,1
		c0.1,0,0.3,0.1,0.4,0.2c0.1,0.1,0.1,0.3,0.1,0.4c-0.3,1.6-1.6,2.9-3.2,3.1C258.2,211.4,258,211.4,257.8,211.4z M253.4,207.8
		c1,1.7,2.9,2.6,4.8,2.5c1-0.1,1.9-0.8,2.2-1.8L253.4,207.8z"></path><path class="st0" d="M164.6,243.8c-1.6-8.8,0.8-11.4-1-15.6s-7.8-8.3-9.4-9s-1.1,2.6-1.1,2.6l-6.9-14.4c-2.4-5-3.8-8.4-5.9-7.5
		s-1,7.2,5.7,22.6c0,0-4.7-2.8-5.7,2.2c0,0-6.2-2-5.1,5.1c0,0-5.7,0.9-5.1,4.9s5.9,10.3,9,11.6s6.4,7.6,6.4,7.6
		S157.4,251.8,164.6,243.8z"></path><path class="st1" d="M145.5,254.4c-0.2,0-0.4-0.1-0.4-0.3c0-0.1-3.2-6.1-6.1-7.3c-3.4-1.4-8.7-7.8-9.3-12c-0.5-3.3,2.9-4.9,5.1-5.4
		c-0.2-2.2,0.2-3.7,1.2-4.6c1.2-0.8,2.7-1.1,4.1-0.7c0.2-1.1,1-2.1,2-2.6c1-0.4,2.1-0.4,3.1,0c-5-11.6-6.9-18.5-5.9-21
		c0.2-0.5,0.5-0.9,1-1.1c2.4-1,3.8,2,6,6.6l6.4,13.5c0.1-0.3,0.2-0.6,0.5-0.8c0.4-0.3,0.9-0.3,1.2-0.1c1.4,0.6,7.7,4.7,9.6,9.3
		c1,2.2,0.8,4,0.7,6.3c-0.3,3.2-0.2,6.3,0.4,9.5c0,0.2,0,0.3-0.1,0.4c-7.3,8-18.9,10.1-19.4,10.2L145.5,254.4z M138.7,224.9
		c-0.7,0-1.4,0.2-2,0.6c-0.9,0.7-1.1,2.1-0.8,4.2c0,0.3-0.1,0.5-0.4,0.6c0,0,0,0,0,0c-0.2,0-5.2,0.9-4.7,4.4
		c0.5,3.8,5.6,9.9,8.7,11.2c2.9,1.2,5.7,6.1,6.4,7.4c2-0.4,12-2.8,18.3-9.7c-0.6-3.1-0.7-6.3-0.4-9.5c0.2-2.2,0.3-3.8-0.6-5.8
		c-1.8-4.1-7.5-8-9.1-8.8c-0.1,0-0.2-0.1-0.2-0.1c-0.3,0.7-0.3,1.4-0.1,2.1c0,0.2-0.1,0.5-0.4,0.6c-0.2,0.1-0.5,0-0.6-0.3l-7.4-15.4
		c-2.1-4.5-3.3-6.8-4.7-6.2c-0.2,0.1-0.4,0.3-0.5,0.5c-0.6,1.6,0,6.6,6.4,21.4c0.1,0.2,0,0.4-0.1,0.6c-0.2,0.1-0.4,0.2-0.6,0.1
		c0,0-2-1.2-3.4-0.5c-0.9,0.5-1.4,1.4-1.5,2.4c0,0.1-0.1,0.3-0.2,0.3c-0.1,0.1-0.3,0.1-0.4,0C139.8,225,139.2,224.9,138.7,224.9z"></path><path class="st1" d="M158.4,233.7c-0.2,0-0.4-0.1-0.4-0.3c-3.5-7.1-5.3-11.5-5.3-11.5c-0.1-0.3,0-0.6,0.3-0.7s0.6,0,0.7,0.3
		c0,0,1.8,4.4,5.3,11.5c0.1,0.2,0,0.5-0.2,0.7C158.6,233.7,158.5,233.7,158.4,233.7z"></path><path class="st1" d="M147.8,235.8c-1.1-0.1-2.2-0.5-3.1-1.2c-0.2-0.2-0.3-0.5-0.1-0.7c0.2-0.2,0.5-0.3,0.7-0.1c0,0,0,0,0,0
		c0.8,0.6,1.7,1,2.7,1c0.3,0,0.6-0.2,0.8-0.5c1.1-1.4,0-6-2.6-10.6c-0.1-0.3,0-0.5,0.3-0.7c0.2-0.1,0.5,0,0.6,0.2
		c1.8,3.3,4.3,9.4,2.5,11.7c-0.4,0.5-0.9,0.8-1.5,0.9C148.1,235.8,148,235.8,147.8,235.8z"></path><path class="st1" d="M142.2,237.9c-0.2,0-0.5,0-0.7-0.1c-0.3-0.1-0.4-0.3-0.4-0.6c0-0.3,0.3-0.5,0.6-0.4c0,0,0,0,0,0
		c0.1,0,2.1,0.4,2.7-1.2s-0.9-6.8-3.9-9.9c-0.2-0.2-0.2-0.5,0-0.7c0,0,0,0,0,0c0.2-0.2,0.5-0.2,0.7,0c0,0,0,0,0,0
		c3.2,3.2,5,8.7,4.1,10.9C144.9,237.2,143.6,238,142.2,237.9z"></path><path class="st1" d="M140.2,241c-1.8,0-4.6-1.8-6.5-5c-0.1-0.2-0.1-0.5,0.1-0.7c0,0,0,0,0,0c0.2-0.1,0.5-0.1,0.7,0.2c0,0,0,0,0,0
		c1.9,3.2,4.6,4.7,5.9,4.5c0.3,0,0.6-0.2,0.6-0.5c0.6-1.9-1.2-6.9-5-8.6c-0.3-0.1-0.4-0.4-0.2-0.7c0.1-0.3,0.4-0.4,0.7-0.2
		c4.4,2,6.2,7.6,5.6,9.8c-0.2,0.7-0.8,1.2-1.5,1.2C140.5,241,140.4,241,140.2,241z"></path><path class="st1" d="M136,240.6c-0.1,0-0.3-0.1-0.4-0.1c-1-1-1.5-2.4-1.3-3.8c0.1-0.3,0.3-0.5,0.6-0.4c0.3,0.1,0.5,0.3,0.4,0.6l0,0
		c-0.1,1.1,0.2,2.1,1,2.9c0.2,0.2,0.2,0.5,0,0.7c0,0,0,0,0,0C136.3,240.5,136.1,240.6,136,240.6z"></path><path class="st1" d="M150.7,230.4c-0.3,0-0.5-0.2-0.5-0.5c0-0.1,0.1-0.3,0.2-0.4c1.6-1.3,3.5-2,5.6-2.1c0.3,0,0.5,0.2,0.5,0.5
		c0,0.3-0.2,0.5-0.5,0.5c-1.8,0.1-3.5,0.7-4.9,1.9C150.9,230.4,150.8,230.4,150.7,230.4z"></path><polygon class="st0" points="315.7,325.1 275.4,321.5 279.7,333.4 293.8,337 	"></polygon><path class="st1" d="M293.8,337.5h-0.1l-14.1-3.5c-0.2,0-0.3-0.2-0.4-0.3l-4.3-11.9c-0.1-0.2,0-0.3,0.1-0.5
		c0.1-0.1,0.3-0.2,0.4-0.2l40.4,3.6c0.2,0,0.4,0.2,0.5,0.4c0,0.2-0.1,0.4-0.3,0.5l-21.9,11.8C294,337.4,293.9,337.5,293.8,337.5z
		 M280.1,333l13.7,3.4l20.3-11l-37.9-3.4L280.1,333z"></path><path class="st0" d="M299.6,297.1c-5.9,2.9-18,11.1-18.9,13.9s9.4,5.8,9.4,5.8s1.2,10.9,2.8,11.1s2.2-5.6,2.2-5.6s1.7,5.7,4.5,4.2
		s0.5-4.4,0-6.3c-0.2-1.4-0.1-2.8,0.4-4.1c0,0,7.1-2.7,9-5.8C308.9,310.4,306.9,298.8,299.6,297.1z"></path><path class="st1" d="M293,328.5h-0.2c-1.7-0.3-2.7-7-3.2-11.2c-1.7-0.5-8-2.6-9.3-5c-0.2-0.4-0.3-0.9-0.2-1.4
		c0.9-3.1,13.4-11.4,19.1-14.2c0.1,0,0.2,0,0.3,0c7.5,1.8,9.6,13.2,9.7,13.7c0,0.1,0,0.2,0,0.3c-1.7,3-7.7,5.5-9,6
		c-0.4,1.2-0.5,2.4-0.3,3.6c0.1,0.5,0.3,1,0.5,1.5c0.7,1.7,1.7,4.1-0.8,5.4c-0.6,0.3-1.4,0.4-2,0.1c-1.1-0.7-2-1.7-2.5-2.9
		c-0.3,1.5-0.8,3.3-1.6,3.9C293.5,328.4,293.3,328.5,293,328.5z M299.6,297.6c-6,3-17.7,11-18.5,13.5c0,0.2,0,0.4,0.1,0.6
		c1,1.9,6.9,3.9,9,4.6c0.2,0.1,0.3,0.2,0.4,0.4c0.5,4.9,1.6,10.3,2.4,10.7c0,0,0,0,0.1-0.1c0.7-0.5,1.3-3.3,1.5-5.1
		c0-0.2,0.2-0.4,0.5-0.4c0.2,0,0.5,0.1,0.5,0.4c0.3,0.9,1.3,3.5,2.6,4c0.4,0.2,0.8,0.1,1.2-0.1c1.6-0.8,1.2-2.1,0.3-4.1
		c-0.2-0.5-0.4-1.1-0.6-1.6c-0.3-1.5-0.1-3,0.4-4.4c0.1-0.1,0.2-0.2,0.3-0.3c0.1,0,6.8-2.5,8.6-5.4
		C308.1,308.9,305.9,299.2,299.6,297.6L299.6,297.6z"></path><path class="st1" d="M290.2,317.3c-0.3,0-0.5-0.2-0.5-0.4c-0.1-2.1,0.6-4.1,2-5.7c0.2-0.2,0.5-0.3,0.7-0.1s0.3,0.5,0.1,0.7
		c0,0,0,0,0,0c-0.8,1-2,3-1.8,5C290.7,317,290.5,317.3,290.2,317.3C290.2,317.3,290.2,317.3,290.2,317.3L290.2,317.3z"></path><path class="st1" d="M295.1,322.9c-0.2,0-0.5-0.2-0.5-0.4c0-0.2-0.7-5.2,0.4-7.8c0.1-0.2,0.5-0.3,0.7-0.2c0.2,0.1,0.3,0.4,0.2,0.6
		c-1,2.3-0.4,7.2-0.4,7.2C295.7,322.6,295.5,322.8,295.1,322.9C295.2,322.9,295.2,322.9,295.1,322.9L295.1,322.9z"></path><polygon class="st0" points="214.1,341.8 294.8,341.8 282.9,282.2 199.1,283.3 	"></polygon><path class="st1" d="M294.8,342.2h-80.7c-0.2,0-0.4-0.1-0.5-0.4l-15-58.4c0-0.1,0-0.3,0.1-0.4c0.1-0.1,0.2-0.2,0.4-0.2l83.8-1.1
		c0.2,0,0.4,0.2,0.5,0.4l11.9,59.5c0,0.1,0,0.3-0.1,0.4C295.1,342.2,294.9,342.2,294.8,342.2z M214.5,341.2h79.7l-11.7-58.5
		l-82.7,1.1L214.5,341.2z"></path><polygon class="st2" points="315.7,325.1 316.5,330.3 294.8,341.8 293.8,337 	"></polygon><path class="st1" d="M294.8,342.2c-0.1,0-0.1,0-0.2,0c-0.1-0.1-0.2-0.2-0.3-0.4l-1-4.8c0-0.2,0.1-0.4,0.3-0.5l21.9-11.9
		c0.3-0.1,0.6,0,0.7,0.2c0,0,0,0.1,0,0.1l0.7,5.2c0,0.2-0.1,0.4-0.3,0.5L295,342.2C294.9,342.2,294.9,342.2,294.8,342.2z
		 M294.4,337.2l0.8,3.8l20.8-11l-0.6-4.1L294.4,337.2z"></path><path class="st2" d="M261.1,372.3c0,0-20.9-2.2-27.1,9.8s-13.8,32.4-4.4,36.1s20.9-11.4,23.2-16.2s9.3-5.5,9.3-5.5
		S253.8,379.7,261.1,372.3z"></path><path class="st1" d="M229.3,415L229.3,415c-0.3,0-0.5-0.3-0.5-0.5c0,0,0,0,0,0c0.6-10.7,5.8-25.3,13.4-38.1
		c0.1-0.2,0.5-0.3,0.7-0.2c0.2,0.1,0.3,0.4,0.2,0.7c0,0,0,0,0,0c-7.6,12.6-12.7,27-13.3,37.6C229.9,414.8,229.6,415,229.3,415
		C229.4,415,229.3,415,229.3,415z"></path><path class="st1" d="M255.1,408.1c-0.2,0-0.4-0.1-0.5-0.3c-1.9-4.3-4.2-8.3-7-12c-0.2-0.2-0.1-0.5,0.1-0.7c0.2-0.2,0.5-0.1,0.7,0.1
		c2.8,3.8,5.2,7.9,7.1,12.2c0.1,0.2,0,0.5-0.3,0.6c0,0,0,0,0,0C255.2,408.1,255.2,408.1,255.1,408.1z"></path><path class="st1" d="M249.8,413.2c-0.2,0-0.4-0.1-0.5-0.3c-1.9-4.3-4.2-8.3-7-12c-0.2-0.2-0.1-0.5,0.1-0.7c0.2-0.2,0.5-0.1,0.7,0.1
		c2.9,3.8,5.3,7.9,7.1,12.2c0.1,0.3,0,0.5-0.3,0.6c0,0,0,0,0,0C249.9,413.2,249.9,413.2,249.8,413.2z"></path><path class="st1" d="M273.8,356.2c-0.1,0-0.1,0-0.2,0L239.7,344c-0.3-0.1-0.4-0.4-0.3-0.6c0.1-0.2,0.4-0.4,0.6-0.3l33.9,12.1
		c0.3,0.1,0.4,0.4,0.3,0.6C274.2,356,274,356.2,273.8,356.2z"></path><path class="st1" d="M295.5,296.8L295.5,296.8c-0.3,0-0.5-0.2-0.5-0.5c0,0,0,0,0,0c0.1-3.8,8.8-7.5,11.4-8.6
		c3.9-1.5,21.7-11.3,21.9-11.4c0.2-0.1,0.5,0,0.7,0.2c0.1,0.2,0,0.5-0.2,0.7c0,0,0,0,0,0c-0.7,0.4-18.1,9.9-22,11.5
		c-4.9,2-10.7,5.1-10.8,7.6C296,296.6,295.8,296.8,295.5,296.8z"></path><path class="st1" d="M309.6,313.9c-0.5,0-1,0-1.4-0.2c-0.2-0.1-0.3-0.4-0.1-0.7c0,0,0,0,0,0c0.2-0.2,0.5-0.3,0.7-0.1
		c1.2,0.8,15.8-2.3,23-6.1c0.2-0.1,0.6,0,0.7,0.2c0.1,0.2,0,0.6-0.2,0.7l0,0C326.7,310.5,314.1,313.9,309.6,313.9z"></path><path class="st1" d="M316,284.1c-0.2,0-0.4-0.1-0.5-0.4c-1.9-6.4-5.2-14.4-5.2-14.4c-0.1-0.3,0-0.5,0.3-0.7c0,0,0,0,0,0
		c0.3-0.1,0.5,0,0.6,0.3c0,0.1,3.4,8.1,5.2,14.5c0.1,0.3-0.1,0.5-0.3,0.6L316,284.1z"></path><path class="st1" d="M229.6,280.4c-0.3,0-0.5-0.2-0.5-0.5c0-0.1-0.5-12.4,0-33.6c0-0.3,0.2-0.5,0.5-0.5c0,0,0,0,0,0
		c0.3,0,0.5,0.2,0.5,0.5c-0.5,21.1,0,33.4,0,33.5C230.1,280.2,229.9,280.4,229.6,280.4C229.7,280.4,229.7,280.4,229.6,280.4
		L229.6,280.4z"></path></g><g id="code-JS-bar"><path class="st0" d="M461.7,100v14.6H329.3V100c0-3.9,3.2-7.1,7.1-7.1c0,0,0,0,0,0h118.2C458.5,92.9,461.7,96.1,461.7,100z"></path><path class="st1" d="M461.7,115H329.3c-0.3,0-0.5-0.2-0.5-0.5V100c0-4.2,3.4-7.6,7.6-7.6h118.2c4.2,0,7.6,3.4,7.6,7.6v14.6
		C462.2,114.8,462,115,461.7,115z M329.8,114h131.4v-14c0-3.6-3-6.6-6.6-6.6H336.4c-3.7,0-6.6,3-6.6,6.6L329.8,114z"></path><rect class="st0" x="329.3" y="114.5" width="132.4" height="97.7"></rect><path class="st1" d="M461.7,212.8H329.3c-0.3,0-0.5-0.2-0.5-0.5v-97.7c0-0.3,0.2-0.5,0.5-0.5h132.4c0.3,0,0.5,0.2,0.5,0.5v97.7
		C462.2,212.5,462,212.8,461.7,212.8z M329.8,211.8h131.4V115H329.8V211.8z"></path><circle class="st2" cx="340.1" cy="104.3" r="2.8"></circle><path class="st1" d="M340.1,107.6c-1.8,0-3.3-1.5-3.3-3.3c0-1.8,1.5-3.3,3.3-3.3c1.8,0,3.3,1.5,3.3,3.3
		C343.4,106.1,341.9,107.6,340.1,107.6z M340.1,102c-1.3,0-2.3,1-2.3,2.3c0,1.3,1,2.3,2.3,2.3c1.3,0,2.3-1,2.3-2.3
		C342.4,103,341.4,102,340.1,102L340.1,102z"></path><circle class="st2" cx="350.2" cy="104.3" r="2.8"></circle><path class="st1" d="M350.2,107.6c-1.8,0-3.3-1.5-3.3-3.3c0-1.8,1.5-3.3,3.3-3.3c1.8,0,3.3,1.5,3.3,3.3S352,107.6,350.2,107.6
		L350.2,107.6z M350.2,102c-1.3,0-2.3,1-2.3,2.3c0,1.3,1,2.3,2.3,2.3c1.3,0,2.3-1,2.3-2.3C352.5,103,351.5,102,350.2,102L350.2,102z
		"></path><circle class="st2" cx="360.4" cy="104.3" r="2.8"></circle><path class="st1" d="M360.4,107.6c-1.8,0-3.3-1.5-3.3-3.3c0-1.8,1.5-3.3,3.3-3.3c1.8,0,3.3,1.5,3.3,3.3S362.2,107.6,360.4,107.6
		L360.4,107.6z M360.4,102c-1.3,0-2.3,1-2.3,2.3c0,1.3,1,2.3,2.3,2.3c1.3,0,2.3-1,2.3-2.3C362.6,103,361.6,102,360.4,102L360.4,102z
		"></path><path class="st2" d="M350.5,159.2v-2.7l15.5-10.5v3.3l-12.5,8.4v0.2l12.5,8.4v3.3L350.5,159.2z"></path><path class="st2" d="M373.8,167.7l2.2-2.1c1.2,2.1,3.4,3.5,5.9,3.6c3.9,0,5.6-2,5.6-6.5v-15.4h-11.4v-3h15V163
		c0,5.1-2.3,9.2-9.1,9.2C378.7,172.3,375.6,170.5,373.8,167.7z"></path><path class="st2" d="M398.3,168.2l2.1-2.4c2.1,2.1,5,3.3,8,3.4c3.8,0,5.9-1.8,5.9-4.3c0-2.9-2.1-3.8-4.9-4.9l-4-1.8
		c-2.7-1.1-5.9-3-5.9-7s3.8-7.2,9-7.2c3.1,0,6.2,1.2,8.4,3.4l-1.8,2.2c-1.8-1.7-4.3-2.6-6.8-2.5c-3.2,0-5.3,1.5-5.3,4
		c0,2.6,2.5,3.6,4.9,4.5l3.8,1.7c3.4,1.3,6,3.2,6,7.3c0,4.3-3.7,7.8-9.7,7.8C404.4,172.3,400.9,170.8,398.3,168.2z"></path><path class="st2" d="M424.9,166.4l12.5-8.4v-0.2l-12.5-8.4v-3.3l15.5,10.5v2.7l-15.5,10.5V166.4z"></path></g><g id="plant"><path class="st2" d="M406.4,308.6c-7.8-20.1-14.2-20.1-20.4-20.3s3,26.6,12.5,30.3S406.4,308.6,406.4,308.6z"></path><path class="st1" d="M401.5,319.8c-1.1,0-2.2-0.3-3.1-0.7c-8.1-3.2-16.1-22.5-14.8-29c0.4-2,1.7-2.3,2.4-2.3h0.3
		c6.3,0.2,12.8,0.5,20.6,20.6v0.1c0,0.3,0.9,7.7-2.6,10.3C403.5,319.5,402.5,319.8,401.5,319.8z M385.9,288.8c-0.5,0-1,0.2-1.3,1.5
		c-1.3,6.1,6.6,24.9,14.1,27.9c2.1,0.9,3.9,0.8,5-0.1c2.8-2.2,2.3-8.6,2.2-9.3c-7.5-19.4-13.7-19.7-19.7-19.9L385.9,288.8
		L385.9,288.8z"></path><path class="st2" d="M409,296.1c7.8-29.1,14.3-35.2,20.6-32.4s-9,41.4-9,41.4s4.5-11.3,10.5-10.5s-7.1,26.8-12.8,25.6s-9.3-6-9.3-6
		L409,296.1z"></path><path class="st1" d="M418.7,320.7c-0.2,0-0.3,0-0.5-0.1c-3.8-1-7.1-3.2-9.6-6.2c-0.1-0.1-0.1-0.2-0.1-0.3v-18.1c0,0,0-0.1,0-0.1
		c5.3-19.8,10.2-30.1,15.6-32.7c1.8-0.9,3.8-0.9,5.6,0c5.1,2.3-2.1,24.1-6.3,35.5c1.9-2.7,4.6-5.1,7.7-4.7c0.8,0.1,1.5,0.6,1.7,1.4
		c1.5,3.9-4,15.9-9.1,21.8C421.8,319.5,420.1,320.7,418.7,320.7z M409.5,314c0.6,0.8,4,4.6,8.9,5.7c1.1,0.2,2.7-0.8,4.6-3
		c5.2-6.1,10.2-17.5,8.9-20.8c-0.1-0.4-0.5-0.7-0.9-0.8c-5.5-0.7-9.9,10-10,10.2l0,0c-0.1,0.3-0.4,0.4-0.6,0.3c0,0,0,0,0,0
		c-0.3-0.1-0.4-0.4-0.3-0.6c5.9-14.8,13.5-38.9,9.3-40.8c-1.5-0.7-3.3-0.7-4.8,0c-5,2.4-10,12.9-15.1,32L409.5,314z"></path><path class="st0" d="M407,320.1c-13.3-28.8-9.5-54.9,1-56.4s4.6,55.2,4.6,55.2L407,320.1z"></path><path class="st1" d="M407,320.6c-0.2,0-0.4-0.1-0.5-0.3c-10.5-22.9-10.1-42.8-5.3-51.7c1.7-3.2,4-5,6.7-5.4c1-0.2,2.1,0.2,2.8,1
		c7.3,7,2.6,52.8,2.4,54.8c0,0.2-0.2,0.4-0.4,0.4l-5.6,1.2L407,320.6z M408.4,264.2c-0.1,0-0.2,0-0.3,0c-2.3,0.3-4.4,2-6,4.9
		c-4.7,8.6-5,28,5.2,50.5l4.9-1.1c0.4-4.4,4.5-47.2-2.2-53.6C409.6,264.5,409,264.2,408.4,264.2L408.4,264.2z"></path><path class="st0" d="M407.4,363.8L407.4,363.8c10.5,0,18.5-6.1,19.6-13.6l4.8-32.7c0.1-0.8-1.8-1.5-3.8-1.5h-41.2
		c-1.9,0-3.9,0.8-3.8,1.5l4.8,32.7C389,357.7,396.9,363.8,407.4,363.8z"></path><path class="st1" d="M407.4,364.3c-10.4,0-18.9-5.9-20.1-14l-4.8-32.7c0-0.3,0.1-0.6,0.3-0.9c1.1-0.9,2.6-1.3,4-1.2H428
		c1.4-0.1,2.9,0.4,4,1.2c0.2,0.2,0.3,0.5,0.3,0.9l-4.8,32.7C426.3,358.4,417.8,364.3,407.4,364.3z M386.8,316.4
		c-1.8,0-3.2,0.7-3.3,1l4.8,32.7c1.1,7.6,9.1,13.2,19.1,13.2s17.9-5.5,19.1-13.2l4.8-32.7c-0.1-0.3-1.4-1-3.2-1L386.8,316.4z"></path><path class="st1" d="M427.5,328.6H400c-0.3,0-0.5-0.2-0.5-0.5c0-0.3,0.2-0.5,0.5-0.5h27.5c0.3,0,0.5,0.2,0.5,0.5
		C428,328.4,427.7,328.6,427.5,328.6z"></path></g></svg>