<svg transform="scale(1)" version="1.1" id="jkaaIOiciU" xmlns="http://www.w3.org/2000/svg" xmlns:xlink="http://www.w3.org/1999/xlink" x="0px" y="0px" viewBox="0 0 500 500" xml:space="preserve" class="pbimage_pbimage__wrapper__image__0LEis false"><title>Landing Page 1</title><style type="text/css"> .st0{fill:#FED490;} .st1{fill:#000111;} .st2{fill:url(#SVGID_1_-jkaaIOiciU);} .st3{fill:#FFFFFF;} .st4{fill:url(#SVGID_00000140730345888816860190000011597823169726504885_-jkaaIOiciU);} .st5{fill:url(#SVGID_00000106827981380491074220000000941635169389432222_-jkaaIOiciU);} .st6{fill:url(#SVGID_00000049901124612849214330000007554857947602079638_-jkaaIOiciU);}
 .st3{fill:#FFFFFF;}
 .st1{fill:#000111;}
 .st0{fill:#FED490;}</style><g id="light"><path class="st0" d="M323.8,69.2c-10.6,0.8-19.1,9.1-20.2,19.7c-1.1-10.6-9.6-18.9-20.2-19.7c10.6-0.8,19.1-9.1,20.2-19.7
		C304.7,60.1,313.2,68.4,323.8,69.2z" fill="#FED490"></path><path class="st0" d="M288.8,51.9c-5.7,0.4-10.2,4.9-10.8,10.5c-0.6-5.7-5.1-10.1-10.8-10.5c5.7-0.4,10.3-4.9,10.8-10.5
		C278.6,47.1,283.1,51.5,288.8,51.9L288.8,51.9z" fill="#FED490"></path></g><g id="screen_2"><path class="st1" d="M229.8,406.2H70c-8.8,0-16-7.2-16-16v-1.6c0.1-0.7,0.7-1.3,1.5-1.2c0.7,0.1,1.2,0.6,1.2,1.2v1.6
		c0,7.3,6,13.3,13.3,13.3h159.8c7.4,0,13.3-6,13.3-13.3V51c0-7.4-6-13.3-13.3-13.3h-1.1c-0.7-0.1-1.3-0.7-1.2-1.5
		c0.1-0.7,0.6-1.2,1.2-1.2h1.1c8.8,0,16,7.2,16,16v339.2C245.8,399,238.7,406.2,229.8,406.2C229.8,406.2,229.8,406.2,229.8,406.2z"></path><linearGradient id="SVGID_1_-jkaaIOiciU" gradientUnits="userSpaceOnUse" x1="-5.6572" y1="492.4519" x2="161.9728" y2="254.0519" gradientTransform="matrix(1 0 0 -1 0 502)"><stop offset="0" style="stop-color: rgb(243, 131, 116);"></stop><stop offset="1" style="stop-color: rgb(198, 66, 52);"></stop></linearGradient><path class="st2" d="M53.1,10h149.3c14.5,0,26.3,11.8,26.3,26.3v325.9c0,14.5-11.8,26.3-26.3,26.3H53.1
		c-14.5,0-26.3-11.8-26.3-26.3V36.3C26.8,21.8,38.5,10,53.1,10z"></path><path class="st3" d="M68.5,67.5H187c9.4,0,16.9,7.6,16.9,16.9V203c0,9.4-7.6,16.9-16.9,16.9H68.5c-9.4,0-16.9-7.6-16.9-16.9V84.5
		C51.5,75.1,59.1,67.5,68.5,67.5z"></path><path class="st3" d="M136.8,77c0,0-11.1-32.7,24.2-43.3c0,0,3.7,8.9,4,8.2s5.7-10.6,5.7-10.6c9.5-3.6,20-3.2,29.2,1
		c15.1,7.2-8.9,28.4-31.1,34.6l-9.6-3.2l3.9,8.1C163,71.8,147.3,87.3,136.8,77z"></path><path class="st1" d="M145.2,81.8c-3.5,0-6.9-1.4-9.4-3.9c-0.1-0.1-0.3-0.3-0.3-0.5c-0.2-0.6-4.8-14.5,1.8-27.5
		c4.2-8.2,12.1-14.1,23.3-17.5c0.7-0.2,1.4,0.1,1.6,0.8c0.9,2,1.9,4.3,2.6,5.9c1.3-2.5,3.5-6.5,4.6-8.5c0.1-0.3,0.4-0.5,0.6-0.6
		c9.8-3.8,20.7-3.4,30.3,1c4.9,2.3,5.7,5.8,5.4,8.4c-0.9,10.7-20.5,24.2-36.8,28.8c-0.3,0.1-0.5,0.1-0.8,0l-6.6-2.2l2.5,5.3
		c0.2,0.5,0.1,1.1-0.3,1.5C160,76.6,152.5,81.8,145.2,81.8z M137.9,76.2c8.3,7.7,20.4-2.1,23.4-4.8l-3.4-7.2c-0.3-0.7,0-1.5,0.6-1.8
		c0.3-0.1,0.7-0.2,1-0.1l9.2,3.1c16.4-4.7,33.7-17.9,34.5-26.3c0.2-2.5-1.1-4.3-3.9-5.7c-12.9-6.1-25.3-2-27.6-1.1
		c-2.5,4.5-5.1,9.4-5.4,10c-0.2,0.5-0.7,0.9-1.3,0.9c-1,0-1.4,0-4.7-7.9c-9.9,3.2-16.7,8.5-20.5,15.8
		C134.1,62,137.3,74.2,137.9,76.2L137.9,76.2z"></path><path class="st1" d="M148.2,205.4h-41c-0.6,0-1.1-0.4-1.3-1c-0.4-1.3-9.2-31.6-10-43.4c-0.8-13.1,10.1-20.3,18.9-26
		c4-2.5,6.3-7,6.2-11.7c0-1.1-0.4-2.2-1.2-2.9c-0.8-0.8-1.9-1.3-3-1.3h-3c-3.8,0-6.9-3.1-6.9-6.9c0-3.8,3.1-6.9,6.9-6.9h27.6
		c3.8,0,6.9,3.1,6.9,6.9c0,3.8-3.1,6.9-6.9,6.9h-3c-1.1,0-2.2,0.5-3,1.3c-0.8,0.8-1.2,1.8-1.2,2.9c-0.1,4.7,2.3,9.2,6.3,11.7
		c8.8,5.8,19.8,12.9,18.9,26c-0.8,11.9-9.6,42.1-10,43.4C149.3,205,148.8,205.4,148.2,205.4z M108.2,202.7h39
		c1.5-5.4,8.9-31.5,9.6-41.9c0.7-10.7-7.3-16.8-17.7-23.6l0,0c-4.7-3-7.5-8.3-7.4-13.9c0-1.8,0.7-3.6,2-4.8c1.3-1.3,3.1-2.1,4.9-2.1
		h3c2.3,0,4.2-1.9,4.2-4.2s-1.9-4.2-4.2-4.2c0,0,0,0,0,0h-27.6c-2.3,0-4.2,1.9-4.2,4.2c0,2.3,1.9,4.2,4.2,4.2c0,0,0,0,0,0h3
		c1.9,0,3.6,0.7,4.9,2.1c1.3,1.3,2,3,2,4.8c0.1,5.6-2.7,10.9-7.4,13.9c-10.5,6.8-18.4,12.9-17.7,23.6
		C99.3,171.2,106.7,197.3,108.2,202.7L108.2,202.7z"></path><path class="st1" d="M151,195.5c-0.7,0-1.3-0.6-1.3-1.4c0-0.5,0.3-1,0.7-1.2c5.6-2.8,20.6-11.6,22.1-18.2c0.3-1.2,0-2.4-0.8-3.3
		c-4.5-5.6-21.6,0.2-34,4.5c-11.8,4-18.1,6-20.7,3.8c-0.9-0.8-1.2-2-0.9-3.2c0.9-4.8,7.3-11.6,18.8-20.1
		c8.5-6.3,16.8-11.3,16.9-11.3c0.7-0.3,1.5-0.1,1.8,0.6c0.3,0.6,0.1,1.4-0.4,1.7c-9,5.4-32.8,21.3-34.4,29.7c-0.1,0.3,0,0.6,0,0.6
		c1.5,1.3,11-2,18-4.3c14.7-5,31.3-10.7,37-3.6c1.3,1.6,1.8,3.6,1.3,5.6c-2,9.2-22.6,19.6-23.5,20.1
		C151.4,195.5,151.2,195.5,151,195.5z"></path><path class="st1" d="M98.7,164.6c-0.7,0-1.3-0.6-1.4-1.3c0-0.5,0.3-1,0.7-1.2c16.7-8.4,20.6-15,20.9-19.1c0.2-2.4-0.8-4.7-2.7-6.2
		c-0.6-0.4-0.7-1.3-0.3-1.9c0.4-0.6,1.3-0.7,1.9-0.3c0,0,0,0,0,0c2.6,2,4,5.2,3.8,8.5c-0.6,6.9-8.1,14-22.4,21.3
		C99.1,164.6,98.9,164.7,98.7,164.6z"></path><path class="st1" d="M141.6,119.1h-26.6c-0.7,0.1-1.4-0.5-1.5-1.2c-0.1-0.7,0.5-1.4,1.2-1.5c0.1,0,0.2,0,0.2,0h26.6
		c0.7,0.1,1.3,0.7,1.2,1.5C142.7,118.5,142.2,119.1,141.6,119.1z"></path><path class="st1" d="M127.6,107.6c-0.7,0-1.3-0.6-1.3-1.3c-0.3-11.7-5.3-21.8-14.3-28.4c-12.2-9.1-30.5-11-51.3-5.3
		c-0.7,0.3-1.5,0-1.8-0.6c-0.3-0.7,0-1.5,0.6-1.8c0.1-0.1,0.3-0.1,0.5-0.1c21.6-6,40.7-3.9,53.6,5.7c6.8,5,11.8,12.2,13.9,20.5
		c1.6-7.2,4.3-14,8-20.3c8.6-14.7,27.3-34,67.3-42.4c0.7-0.2,1.4,0.3,1.6,1c0.2,0.7-0.3,1.4-1,1.6c-21.5,4.5-50.2,15.2-65.4,41
		c-9.1,15.4-9,29-9,29.2C128.9,107,128.3,107.6,127.6,107.6C127.5,107.6,127.5,107.6,127.6,107.6L127.6,107.6z"></path><path class="st1" d="M101.6,93c-0.6,0-1.1,0-1.7,0c-27.3-1.2-42.2-11-42.4-19.6c-0.1-3.7,2.6-12.4,28.2-14.5
		c13.4-1.1,23.4,1.5,29.6,7.8c4.6,4.8,7,11.2,6.7,17.8c0,0.3-0.1,0.5-0.3,0.7C121.5,85.6,115.3,93,101.6,93z M91.4,61.4
		c-1.8,0-3.6,0.1-5.5,0.2c-19.1,1.6-25.8,7.1-25.8,11.7c0.1,7.3,15.4,15.9,39.8,16.9c12,0.5,18.1-5,19.4-6.4c0-1.9-0.2-9.5-6-15.2
		C108.6,63.8,101.2,61.4,91.4,61.4z M120.7,84.4L120.7,84.4z"></path><path class="st1" d="M107.3,205.4H94.7c-0.7-0.1-1.3-0.7-1.2-1.5c0.1-0.7,0.6-1.2,1.2-1.2h12.6c0.7,0.1,1.3,0.7,1.2,1.5
		C108.4,204.8,107.9,205.3,107.3,205.4z"></path><path class="st1" d="M159.7,205.4h-11.5c-0.7,0.1-1.4-0.5-1.5-1.2c-0.1-0.7,0.5-1.4,1.2-1.5c0.1,0,0.2,0,0.2,0h11.5
		c0.7-0.1,1.4,0.5,1.5,1.2c0.1,0.7-0.5,1.4-1.2,1.5C159.9,205.4,159.8,205.4,159.7,205.4z"></path><path class="st1" d="M70.5,86.3c-0.4,0-0.7-0.1-1-0.4c-0.5-0.5-0.5-1.4,0-1.9c0,0,0,0,0,0l17.2-16.6c0.6-0.5,1.4-0.4,1.9,0.2
		c0.4,0.5,0.4,1.3,0,1.8L71.4,85.9C71.2,86.1,70.8,86.3,70.5,86.3z"></path><path class="st1" d="M106.8,74.2c-0.6,0-1.1-0.3-1.3-0.9l-4.2-11.1c-0.3-0.7,0.1-1.5,0.8-1.7c0.7-0.3,1.5,0.1,1.7,0.8l4.2,11.1
		c0.3,0.7-0.1,1.5-0.8,1.7C107.1,74.2,106.9,74.2,106.8,74.2L106.8,74.2z"></path><path class="st1" d="M58,42.4c-4.3,0-7.8-3.5-7.8-7.8c0-4.3,3.5-7.8,7.8-7.8s7.8,3.5,7.8,7.8S62.3,42.4,58,42.4L58,42.4z M58,29.5
		c-2.8,0-5.1,2.3-5.1,5.1c0,2.8,2.3,5.1,5.1,5.1c2.8,0,5.1-2.3,5.1-5.1c0,0,0,0,0,0C63.1,31.8,60.8,29.5,58,29.5
		C58,29.5,58,29.5,58,29.5z"></path><path class="st1" d="M80.8,42.4c-4.3,0-7.8-3.5-7.8-7.8s3.5-7.8,7.8-7.8c4.3,0,7.8,3.5,7.8,7.8c0,0,0,0,0,0
		C88.5,38.9,85,42.4,80.8,42.4z M80.8,29.5c-2.8,0-5.1,2.3-5.1,5.1c0,2.8,2.3,5.1,5.1,5.1c2.8,0,5.1-2.3,5.1-5.1c0,0,0,0,0,0
		C85.8,31.8,83.6,29.5,80.8,29.5z"></path><path class="st1" d="M103.5,42.4c-4.3,0-7.8-3.5-7.8-7.8s3.5-7.8,7.8-7.8c4.3,0,7.8,3.5,7.8,7.8c0,0,0,0,0,0
		C111.3,38.9,107.8,42.4,103.5,42.4z M103.5,29.5c-2.8,0-5.1,2.3-5.1,5.1s2.3,5.1,5.1,5.1c2.8,0,5.1-2.3,5.1-5.1c0,0,0,0,0,0
		C108.6,31.8,106.3,29.5,103.5,29.5z"></path><path class="st3" d="M70.1,263.7c-6.4,0-11.6-5.2-11.6-11.6c0-6.4,5.2-11.6,11.6-11.6c6.4,0,11.6,5.2,11.6,11.6c0,0,0,0,0,0
		C81.7,258.5,76.6,263.7,70.1,263.7z M70.1,243.1c-4.9,0-8.9,4-8.9,8.9c0,4.9,4,8.9,8.9,8.9s8.9-4,8.9-8.9c0,0,0,0,0,0
		C79.1,247.1,75.1,243.1,70.1,243.1L70.1,243.1z"></path><path class="st3" d="M185.7,259.5H97c-4.1,0-7.5-3.4-7.5-7.5c0-4.1,3.4-7.5,7.5-7.5h88.6c4.1,0,7.5,3.4,7.5,7.5
		C193.1,256.2,189.8,259.5,185.7,259.5L185.7,259.5z M97,247.3c-2.6,0.1-4.7,2.4-4.6,5c0.1,2.5,2.1,4.5,4.6,4.6h88.6
		c2.6,0.1,4.9-1.9,5-4.6c0.1-2.6-1.9-4.9-4.6-5c-0.1,0-0.3,0-0.4,0L97,247.3z"></path><path class="st3" d="M70.1,291.2c-6.4,0-11.6-5.2-11.6-11.6c0-6.4,5.2-11.6,11.6-11.6c6.4,0,11.6,5.2,11.6,11.6c0,0,0,0,0,0
		C81.7,286,76.6,291.2,70.1,291.2z M70.1,270.6c-4.9,0-8.9,4-8.9,8.9c0,4.9,4,8.9,8.9,8.9c4.9,0,8.9-4,8.9-8.9c0,0,0,0,0,0
		C79.1,274.7,75.1,270.7,70.1,270.6z"></path><path class="st3" d="M185.7,287.1H97c-4.1,0-7.5-3.4-7.5-7.5s3.4-7.5,7.5-7.5h88.6c4.1,0,7.5,3.4,7.5,7.5S189.8,287.1,185.7,287.1
		L185.7,287.1z M97,274.8c-2.6,0.1-4.7,2.4-4.6,5c0.1,2.5,2.1,4.5,4.6,4.6h88.6c2.6,0.1,4.9-1.9,5-4.6c0.1-2.6-1.9-4.9-4.6-5
		c-0.1,0-0.3,0-0.4,0H97z"></path><path class="st3" d="M70.1,318.7c-6.4,0-11.6-5.2-11.6-11.6s5.2-11.6,11.6-11.6c6.4,0,11.6,5.2,11.6,11.6c0,0,0,0,0,0
		C81.7,313.5,76.6,318.7,70.1,318.7z M70.1,298.2c-4.9,0-8.9,4-8.9,8.9c0,4.9,4,8.9,8.9,8.9s8.9-4,8.9-8.9c0,0,0,0,0,0
		C79.1,302.2,75.1,298.2,70.1,298.2z"></path><path class="st3" d="M185.7,314.6H97c-4.1,0-7.5-3.4-7.5-7.5s3.4-7.5,7.5-7.5h88.6c4.1,0,7.5,3.4,7.5,7.5S189.8,314.6,185.7,314.6
		L185.7,314.6z M97,302.3c-2.6,0.1-4.7,2.4-4.6,5c0.1,2.5,2.1,4.5,4.6,4.6h88.6c2.6,0.1,4.9-1.9,5-4.6c0.1-2.6-1.9-4.9-4.6-5
		c-0.1,0-0.3,0-0.4,0H97z"></path><path class="st1" d="M192.2,340.4H62.7c-0.7-0.1-1.3-0.7-1.2-1.5c0.1-0.7,0.6-1.2,1.2-1.2h129.5c0.7-0.1,1.4,0.5,1.5,1.2
		s-0.5,1.4-1.2,1.5C192.4,340.4,192.3,340.4,192.2,340.4z"></path><path class="st1" d="M192.2,350.4H62.7c-0.7-0.1-1.3-0.7-1.2-1.5c0.1-0.7,0.6-1.2,1.2-1.2h129.5c0.7-0.1,1.4,0.5,1.5,1.2
		s-0.5,1.4-1.2,1.5C192.4,350.4,192.3,350.4,192.2,350.4z"></path><path class="st1" d="M192.2,360.4H62.7c-0.7,0-1.3-0.6-1.3-1.3c0-0.7,0.6-1.3,1.3-1.3c0,0,0,0,0,0h129.5c0.7,0,1.3,0.6,1.3,1.3
		S193,360.4,192.2,360.4C192.2,360.4,192.2,360.4,192.2,360.4z"></path><circle class="st0" cx="198.8" cy="116.9" r="15.1"></circle><linearGradient id="SVGID_00000069396904757188733870000004434813002034795935_-jkaaIOiciU" gradientUnits="userSpaceOnUse" x1="189.9014" y1="394.3792" x2="164.5114" y2="346.6492" gradientTransform="matrix(1 0 0 -1 0 502)"><stop offset="0" style="stop-color: rgb(10, 107, 91);"></stop><stop offset="0.78" style="stop-color: rgb(0, 81, 70);"></stop><stop offset="0.91" style="stop-color: rgb(0, 80, 69);"></stop></linearGradient><circle cx="178.3" cy="129.4" r="10.5" style="fill: url(&quot;#SVGID_00000069396904757188733870000004434813002034795935_-jkaaIOiciU&quot;);"></circle></g><g id="screen_1"><linearGradient id="SVGID_00000159433307778159157990000018007766333684835486_-jkaaIOiciU" gradientUnits="userSpaceOnUse" x1="551.2589" y1="397.3598" x2="351.7189" y2="-32.0502" gradientTransform="matrix(1 0 0 -1 0 502)"><stop offset="0" style="stop-color: rgb(10, 107, 91);"></stop><stop offset="0.78" style="stop-color: rgb(0, 81, 70);"></stop><stop offset="0.91" style="stop-color: rgb(0, 80, 69);"></stop></linearGradient><path d="M284,473.7v1.6c0,8.1,6.6,14.7,14.7,14.7
		c0,0,0,0,0,0h159.9c8.1,0,14.7-6.6,14.7-14.7c0,0,0,0,0,0V136.2c0-8.1-6.6-14.7-14.6-14.7c0,0,0,0,0,0h-1.1L284,473.7z" style="fill: url(&quot;#SVGID_00000159433307778159157990000018007766333684835486_-jkaaIOiciU&quot;);"></path><path class="st0" d="M281.9,95.2h149.3c14.5,0,26.3,11.8,26.3,26.3v325.9c0,14.5-11.8,26.3-26.3,26.3H281.9
		c-14.5,0-26.3-11.8-26.3-26.3V121.5C255.5,107,267.3,95.2,281.9,95.2z"></path><path class="st1" d="M286.7,127.6c-4.3,0-7.8-3.5-7.8-7.8c0-4.3,3.5-7.8,7.8-7.8c4.3,0,7.8,3.5,7.8,7.8
		C294.5,124.1,291,127.5,286.7,127.6z M286.7,114.7c-2.8,0-5.1,2.3-5.1,5.1c0,2.8,2.3,5.1,5.1,5.1c2.8,0,5.1-2.3,5.1-5.1
		C291.8,116.9,289.5,114.7,286.7,114.7z"></path><path class="st1" d="M309.5,127.6c-4.3,0-7.8-3.5-7.8-7.8c0-4.3,3.5-7.8,7.8-7.8c4.3,0,7.8,3.5,7.8,7.8
		C317.3,124.1,313.8,127.5,309.5,127.6z M309.5,114.7c-2.8,0-5.1,2.3-5.1,5.1c0,2.8,2.3,5.1,5.1,5.1c2.8,0,5.1-2.3,5.1-5.1
		S312.3,114.7,309.5,114.7L309.5,114.7z"></path><path class="st1" d="M332.3,127.6c-4.3,0-7.8-3.5-7.8-7.8c0-4.3,3.5-7.8,7.8-7.8c4.3,0,7.8,3.5,7.8,7.8
		C340.1,124.1,336.6,127.5,332.3,127.6z M332.3,114.7c-2.8,0-5.1,2.3-5.1,5.1c0,2.8,2.3,5.1,5.1,5.1c2.8,0,5.1-2.3,5.1-5.1
		S335.1,114.7,332.3,114.7L332.3,114.7z"></path><circle class="st3" cx="298.9" cy="169.4" r="10.3"></circle><path class="st3" d="M325.8,163.3h88.6c3.4,0,6.1,2.7,6.1,6.1l0,0c0,3.4-2.7,6.1-6.1,6.1h-88.6c-3.4,0-6.1-2.7-6.1-6.1l0,0
		C319.7,166,322.4,163.3,325.8,163.3z"></path><circle class="st3" cx="298.9" cy="205.5" r="10.3"></circle><path class="st3" d="M325.8,199.3h88.6c3.4,0,6.1,2.7,6.1,6.1l0,0c0,3.4-2.7,6.1-6.1,6.1h-88.6c-3.4,0-6.1-2.7-6.1-6.1l0,0
		C319.7,202.1,322.4,199.3,325.8,199.3z"></path><circle class="st3" cx="298.9" cy="241.5" r="10.3"></circle><path class="st3" d="M325.8,235.4h88.6c3.4,0,6.1,2.7,6.1,6.1l0,0c0,3.4-2.7,6.1-6.1,6.1h-88.6c-3.4,0-6.1-2.7-6.1-6.1l0,0
		C319.7,238.1,322.4,235.4,325.8,235.4z"></path><path class="st1" d="M421,274.6H291.5c-0.7,0-1.3-0.6-1.3-1.3s0.6-1.3,1.3-1.3c0,0,0,0,0,0H421c0.7,0,1.3,0.6,1.3,1.3
		S421.7,274.6,421,274.6C421,274.6,421,274.6,421,274.6z"></path><path class="st1" d="M421,284.6H291.5c-0.7-0.1-1.3-0.7-1.2-1.5c0.1-0.7,0.6-1.2,1.2-1.2H421c0.7-0.1,1.4,0.5,1.5,1.2
		c0.1,0.7-0.5,1.4-1.2,1.5C421.2,284.6,421.1,284.6,421,284.6z"></path><path class="st1" d="M421,294.6H291.5c-0.7-0.1-1.3-0.7-1.2-1.5c0.1-0.7,0.6-1.2,1.2-1.2H421c0.7-0.1,1.4,0.5,1.5,1.2
		c0.1,0.7-0.5,1.4-1.2,1.5C421.2,294.6,421.1,294.6,421,294.6z"></path><linearGradient id="SVGID_00000124866241101513355700000017251813966115811202_-jkaaIOiciU" gradientUnits="userSpaceOnUse" x1="421.0896" y1="270.7502" x2="312.8297" y2="23.4102" gradientTransform="matrix(1 0 0 -1 0 502)"><stop offset="0" style="stop-color: rgb(243, 131, 116);"></stop><stop offset="1" style="stop-color: rgb(198, 66, 52);"></stop></linearGradient><path d="M291.8,324.1v93.5
		c0,9.2,7.5,16.6,16.6,16.6h103c9.2,0,16.7-7.5,16.7-16.6V323c0-9.2-7.5-16.7-16.6-16.7c-0.1,0-0.1,0-0.2,0l-103,1.1
		C299.2,307.6,291.8,315,291.8,324.1z" style="fill: url(&quot;#SVGID_00000124866241101513355700000017251813966115811202_-jkaaIOiciU&quot;);"></path><path class="st3" d="M402.3,424.1h-84.6c-8.3,0-15-6.7-15-15v-76.8c0-8.2,6.6-14.9,14.9-15l84.6-0.9h0.2c8.3,0,15,6.7,15,15l0,0
		v77.7C417.3,417.4,410.6,424.1,402.3,424.1C402.3,424.2,402.3,424.2,402.3,424.1z M402.3,319.1h-0.1l-84.6,0.9
		c-6.7,0.1-12.2,5.6-12.2,12.3v76.8c0,6.8,5.5,12.3,12.3,12.3h84.6c6.8,0,12.3-5.5,12.3-12.3v-77.7
		C414.6,324.6,409.1,319.1,402.3,319.1L402.3,319.1z"></path><path class="st1" d="M437.9,121.1H348c-0.7-0.1-1.3-0.7-1.2-1.5c0.1-0.7,0.6-1.2,1.2-1.2h89.9c0.7,0.1,1.3,0.7,1.2,1.5
		C439.1,120.5,438.6,121,437.9,121.1L437.9,121.1z"></path><path class="st3" d="M332.4,401c-0.8,0-1.6-0.1-2.4-0.5c-3.5-1.5-3.5-4-3.3-5.3c1.1-5.3,11.7-13.1,28.1-19.9
		c8.2-13.9,13.6-29.8,10.3-36.8c-1.4-2.8-4.1-4-8.3-3.7c-29.5,2.5-50.6,30.3-50.8,30.5c-0.4,0.6-1.3,0.7-1.9,0.3
		c-0.6-0.4-0.7-1.3-0.3-1.9c0.9-1.2,22.1-29,52.8-31.6c6.7-0.6,9.7,2.5,11,5.2c3.7,7.8-1.2,22.9-8.7,36.4
		c22.1-8.2,45.5-12.4,69.1-12.4c0.7-0.1,1.4,0.5,1.5,1.2c0.1,0.7-0.5,1.4-1.2,1.5c-0.1,0-0.2,0-0.2,0c-24.4,0.1-48.6,4.7-71.4,13.6
		c-3.3,5.6-7.2,10.8-11.6,15.5C340.2,398.4,335.8,401,332.4,401z M352.3,379.5c-13.6,6-22.1,12.3-22.9,16.2
		c-0.1,0.5-0.3,1.5,1.7,2.3c2.6,1.1,7-1.3,12-6.7C346.5,387.7,349.6,383.7,352.3,379.5z"></path><circle class="st3" cx="334.1" cy="340.7" r="6.9"></circle></g></svg>