<svg transform="scale(1)" version="1.1" id="_x30_234_x5F_Coding_x5F_10" xmlns="http://www.w3.org/2000/svg" xmlns:xlink="http://www.w3.org/1999/xlink" x="0px" y="0px" viewBox="0 0 500 500" xml:space="preserve" class="show_show__wrapper__graphic__5Waiy "><title>React</title><style type="text/css">
	.st0{fill:#FFFFFF;}
	.st1{fill:#732A09;}
	.st2{fill:#F75454;}
</style><g id="laptop-2"><polygon class="st0" points="127.3,297 375.5,297 434.9,350.9 68,350.9 	"></polygon><path class="st1" d="M434.9,351.4H68c-0.2,0-0.4-0.1-0.5-0.3c-0.1-0.2,0-0.4,0.1-0.5l59.3-53.9c0.1-0.1,0.2-0.1,0.3-0.1h248.2
		c0.1,0,0.2,0,0.3,0.1l59.4,53.9c0.2,0.2,0.2,0.5,0,0.7C435.2,351.4,435.1,351.4,434.9,351.4z M69.3,350.4h364.4l-58.3-52.9H127.5
		L69.3,350.4z"></path><polygon class="st2" points="319.1,350.3 183.8,350.3 197.6,334.1 305.3,334.1 	"></polygon><polygon class="st2" points="249.7,303.5 232.5,303.5 231.4,308.4 249.7,308.4 	"></polygon><polygon class="st2" points="252.6,308.4 270.7,308.4 269.6,303.5 252.6,303.5 	"></polygon><polygon class="st2" points="229.1,319.2 249.8,319.2 249.7,311.5 230.8,311.5 	"></polygon><polygon class="st2" points="252.6,319.2 273.1,319.2 271.4,311.5 252.6,311.5 	"></polygon><polygon class="st2" points="274,308.4 291.7,308.4 289.5,303.5 272.9,303.5 	"></polygon><polygon class="st2" points="227.5,311.5 208.9,311.5 205.5,319.2 225.8,319.2 	"></polygon><polygon class="st2" points="158.4,319.2 177.9,319.2 182.9,311.5 165.1,311.5 	"></polygon><polygon class="st2" points="210.2,308.4 228.1,308.4 229.2,303.5 212.4,303.5 	"></polygon><polygon class="st2" points="205.2,311.5 187,311.5 182,319.2 201.9,319.2 	"></polygon><polygon class="st2" points="319.8,319.2 314.7,311.5 296.8,311.5 300,319.2 	"></polygon><polygon class="st2" points="274.6,311.5 276.3,319.2 296.4,319.2 293,311.5 	"></polygon><polygon class="st2" points="359.8,308.4 375,308.4 369.5,303.5 354.6,303.5 	"></polygon><polygon class="st2" points="343.1,319.2 336.4,311.5 318.9,311.5 323.8,319.2 	"></polygon><polygon class="st2" points="366.5,319.2 358.1,311.5 341,311.5 347.6,319.2 	"></polygon><polygon class="st2" points="316.9,308.4 333.7,308.4 329.4,303.5 313.7,303.5 	"></polygon><polygon class="st2" points="295.4,308.4 312.7,308.4 309.5,303.5 293.3,303.5 	"></polygon><polygon class="st2" points="334.1,303.5 338.3,308.4 354.8,308.4 349.5,303.5 	"></polygon><polygon class="st2" points="189,308.4 206.5,308.4 208.6,303.5 192.2,303.5 	"></polygon><polygon class="st2" points="321.7,322.2 301.3,322.2 304.1,328.8 326,328.8 	"></polygon><polygon class="st2" points="167.8,308.4 184.9,308.4 188,303.5 172.1,303.5 	"></polygon><polygon class="st2" points="369.7,322.2 350.1,322.2 355.8,328.8 376.8,328.8 	"></polygon><polygon class="st2" points="141.5,308.4 146.7,303.5 133.4,303.5 127.9,308.4 	"></polygon><polygon class="st2" points="378.5,311.5 363.2,311.5 371.4,319.2 387.1,319.2 	"></polygon><polygon class="st2" points="345.7,322.2 325.7,322.2 330,328.8 351.4,328.8 	"></polygon><polygon class="st2" points="145.8,328.8 151.4,322.2 131.7,322.2 124.6,328.8 	"></polygon><polygon class="st2" points="115.8,319.2 129.9,319.2 138.2,311.5 124.4,311.5 	"></polygon><polygon class="st2" points="134.9,319.2 153.9,319.2 160.5,311.5 143.2,311.5 	"></polygon><polygon class="st2" points="146.5,308.4 163.2,308.4 167.4,303.5 151.8,303.5 	"></polygon><polygon class="st2" points="176,322.2 155.9,322.2 150.2,328.8 171.8,328.8 	"></polygon><polygon class="st2" points="200.6,322.2 180.1,322.2 175.8,328.8 197.8,328.8 	"></polygon><polygon class="st2" points="204.2,322.2 297.7,322.2 300.6,328.8 201.4,328.8 	"></polygon><path class="st0" d="M377.2,133l-1.6,160c0,2.2-1.8,4-4,4H131.3c-2.2,0-4-1.8-4-4l-1.6-160c0-2.2,1.7-4,3.9-4.1c0,0,0.1,0,0.1,0
		h243.4c2.2,0,4,1.7,4,4C377.2,132.9,377.2,133,377.2,133z"></path><path class="st1" d="M371.5,297.5H131.3c-2.5,0-4.5-2-4.5-4.5l-1.6-160c0-2.5,2-4.6,4.5-4.6c0,0,0,0,0.1,0h243.4
		c2.5,0,4.5,2,4.5,4.5c0,0,0,0,0,0.1l-1.6,160C376.1,295.5,374,297.5,371.5,297.5z M129.7,129.4c-1.9,0-3.5,1.6-3.5,3.5
		c0,0,0,0,0,0.1l1.6,160c0,1.9,1.6,3.5,3.5,3.5h240.2c1.9,0,3.5-1.6,3.5-3.5l1.6-160l0,0c0-1.9-1.5-3.6-3.5-3.6c0,0,0,0-0.1,0
		L129.7,129.4z"></path><polygon class="st2" points="133.6,290.7 132,135.2 370.9,135.2 369.3,290.7 	"></polygon><path class="st1" d="M369.3,291.2H133.6c-0.3,0-0.5-0.2-0.5-0.5l-1.6-155.5c0-0.1,0-0.3,0.1-0.4c0.1-0.1,0.2-0.2,0.4-0.1h238.8
		c0.1,0,0.3,0.1,0.4,0.1c0.1,0.1,0.1,0.2,0.1,0.4l-1.6,155.5C369.8,291,369.6,291.2,369.3,291.2z M134.1,290.2h234.7l1.5-154.5
		H132.5L134.1,290.2z"></path><rect class="st2" x="68" y="350.9" width="367" height="7.7"></rect><path class="st1" d="M434.9,359.1H68c-0.3,0-0.5-0.2-0.5-0.5v-7.7c0-0.3,0.2-0.5,0.5-0.5h366.9c0.3,0,0.5,0.2,0.5,0.5v7.7
		C435.4,358.9,435.2,359.1,434.9,359.1z M68.5,358.1h365.9v-6.7H68.5V358.1z"></path><path class="st0" d="M206.9,160.2h-56.4c-0.3,0-0.5-0.2-0.5-0.5c0-0.3,0.2-0.5,0.5-0.5h56.4c0.3,0,0.5,0.2,0.5,0.5
		C207.4,159.9,207.1,160.2,206.9,160.2z"></path><path class="st0" d="M247.5,160.2h-29.4c-0.3,0-0.5-0.2-0.5-0.5c0-0.3,0.2-0.5,0.5-0.5h29.4c0.3,0,0.5,0.2,0.5,0.5
		C248,159.9,247.8,160.2,247.5,160.2z"></path><path class="st0" d="M281.4,160.2H261c-0.3,0-0.5-0.2-0.5-0.5s0.2-0.5,0.5-0.5h20.5c0.3,0,0.5,0.2,0.5,0.5
		C282,159.9,281.7,160.2,281.4,160.2C281.4,160.2,281.4,160.2,281.4,160.2z"></path><path class="st0" d="M354.6,160.2h-63.8c-0.3,0-0.5-0.2-0.5-0.5s0.2-0.5,0.5-0.5h63.8c0.3,0,0.5,0.2,0.5,0.5
		S354.8,160.2,354.6,160.2z"></path><path class="st0" d="M179.3,190.5H150c-0.3,0-0.5-0.2-0.5-0.5c0-0.3,0.2-0.5,0.5-0.5h29.4c0.3,0,0.5,0.2,0.5,0.5
		C179.9,190.3,179.6,190.5,179.3,190.5C179.3,190.5,179.3,190.5,179.3,190.5z"></path><path class="st0" d="M213.2,190.5h-20.5c-0.3,0-0.5-0.2-0.5-0.5s0.2-0.5,0.5-0.5h20.5c0.3,0,0.5,0.2,0.5,0.5
		C213.7,190.3,213.5,190.5,213.2,190.5z"></path><path class="st0" d="M286.4,190.5h-63.8c-0.3,0-0.5-0.2-0.5-0.5s0.2-0.5,0.5-0.5h63.8c0.3,0,0.5,0.2,0.5,0.5
		S286.6,190.5,286.4,190.5z"></path><path class="st0" d="M171.6,174.5h-20.5c-0.3,0-0.5-0.2-0.5-0.5s0.2-0.5,0.5-0.5h20.5c0.3,0,0.5,0.2,0.5,0.5
		C172.1,174.3,171.9,174.5,171.6,174.5z"></path><path class="st0" d="M244.8,174.5h-63.8c-0.3,0-0.5-0.2-0.5-0.5s0.2-0.5,0.5-0.5h63.8c0.3,0,0.5,0.2,0.5,0.5
		C245.2,174.3,245,174.5,244.8,174.5z"></path><path class="st0" d="M270.9,174.5h-20.5c-0.3,0-0.5-0.2-0.5-0.5s0.2-0.5,0.5-0.5h20.5c0.3,0,0.5,0.2,0.5,0.5
		C271.4,174.3,271.2,174.5,270.9,174.5z"></path><path class="st0" d="M344,174.5h-63.8c-0.3,0-0.5-0.2-0.5-0.5s0.2-0.5,0.5-0.5H344c0.3,0,0.5,0.2,0.5,0.5
		C344.5,174.3,344.3,174.5,344,174.5z"></path><path class="st0" d="M206.9,203h-56.4c-0.3,0-0.5-0.2-0.5-0.5c0-0.3,0.2-0.5,0.5-0.5h56.4c0.3,0,0.5,0.2,0.5,0.5
		C207.4,202.8,207.1,203,206.9,203z"></path><path class="st0" d="M247.5,203h-29.4c-0.3,0-0.5-0.2-0.5-0.5c0-0.3,0.2-0.5,0.5-0.5h29.4c0.3,0,0.5,0.2,0.5,0.5
		C248,202.8,247.8,203,247.5,203z"></path><path class="st0" d="M281.4,203H261c-0.3,0-0.5-0.2-0.5-0.5s0.2-0.5,0.5-0.5h20.5c0.3,0,0.5,0.2,0.5,0.5
		C282,202.8,281.7,203,281.4,203C281.4,203,281.4,203,281.4,203z"></path><path class="st0" d="M354.6,203h-63.8c-0.3,0-0.5-0.2-0.5-0.5s0.2-0.5,0.5-0.5h63.8c0.3,0,0.5,0.2,0.5,0.5S354.8,203,354.6,203z"></path><path class="st0" d="M179.3,233.4H150c-0.3,0-0.5-0.2-0.5-0.5c0-0.3,0.2-0.5,0.5-0.5h29.4c0.3,0,0.5,0.2,0.5,0.5
		C179.9,233.1,179.6,233.4,179.3,233.4C179.3,233.4,179.3,233.4,179.3,233.4z"></path><path class="st0" d="M213.2,233.4h-20.5c-0.3,0-0.5-0.2-0.5-0.5s0.2-0.5,0.5-0.5h20.5c0.3,0,0.5,0.2,0.5,0.5
		C213.7,233.1,213.5,233.4,213.2,233.4z"></path><path class="st0" d="M286.4,233.4h-63.8c-0.3,0-0.5-0.2-0.5-0.5s0.2-0.5,0.5-0.5h63.8c0.3,0,0.5,0.2,0.5,0.5
		S286.6,233.4,286.4,233.4z"></path><path class="st0" d="M171.6,217.4h-20.5c-0.3,0-0.5-0.2-0.5-0.5s0.2-0.5,0.5-0.5h20.5c0.3,0,0.5,0.2,0.5,0.5
		C172.1,217.2,171.9,217.4,171.6,217.4z"></path><path class="st0" d="M244.8,217.4h-63.8c-0.3,0-0.5-0.2-0.5-0.5s0.2-0.5,0.5-0.5h63.8c0.3,0,0.5,0.2,0.5,0.5
		C245.2,217.2,245,217.4,244.8,217.4z"></path><path class="st0" d="M270.9,217.4h-20.5c-0.3,0-0.5-0.2-0.5-0.5s0.2-0.5,0.5-0.5h20.5c0.3,0,0.5,0.2,0.5,0.5
		C271.4,217.2,271.2,217.4,270.9,217.4z"></path><path class="st0" d="M344,217.4h-63.8c-0.3,0-0.5-0.2-0.5-0.5s0.2-0.5,0.5-0.5H344c0.3,0,0.5,0.2,0.5,0.5
		C344.5,217.2,344.3,217.4,344,217.4z"></path></g><g id="code-1"><path class="st0" d="M105.8,206h52.5c6.8,0,12.4,5.5,12.4,12.4v28.9c0,6.8-5.5,12.4-12.4,12.4h-52.5c-6.8,0-12.4-5.5-12.4-12.4
		v-28.9C93.4,211.6,99,206,105.8,206z"></path><path class="st1" d="M158.2,260.2h-52.4c-7.1,0-12.9-5.8-12.9-12.9v-28.9c0-7.1,5.8-12.9,12.9-12.9h52.4c7.1,0,12.9,5.8,12.9,12.9
		v28.9C171.1,254.4,165.4,260.2,158.2,260.2z M105.8,206.5c-6.6,0-11.9,5.3-11.9,11.9v28.9c0,6.6,5.3,11.9,11.9,11.9h52.4
		c6.6,0,11.9-5.3,11.9-11.9v-28.9c0-6.6-5.3-11.9-11.9-11.9H105.8z"></path><path class="st1" d="M111.4,219.5h3.2v8.5h0.1c1-1.3,2.6-2,4.2-2c1.4,0,2.7,0.5,3.7,1.5c1.2,1.1,1.8,2.7,1.7,4.3v11.1H121V233
		c0.1-1-0.3-1.9-0.9-2.7c-0.6-0.6-1.4-1-2.3-0.9c-0.9,0-1.7,0.3-2.3,0.9c-0.7,0.7-1,1.7-0.9,2.7v10h-3.2L111.4,219.5z"></path><path class="st1" d="M134.6,246.2c-6.7-7.7-6.7-19.1,0-26.8h1.3c-4.1,8.5-4.1,18.3,0,26.8H134.6z"></path><path class="st1" d="M139.3,219.5c6.7,7.7,6.7,19.1,0,26.8h-1.3c4.1-8.5,4.1-18.3,0-26.8H139.3z"></path><path class="st1" d="M149.4,232.1h3.2v3.3h-3.2V232.1z M149.4,239.6h3.2v3.3l-3.2,2.4V239.6z"></path></g><g id="code-2"><path class="st0" d="M339.3,141.6h95.6c6.8,0,12.4,5.5,12.4,12.4v28.9c0,6.8-5.5,12.4-12.4,12.4h-95.6c-6.8,0-12.4-5.5-12.4-12.4
		V154C326.9,147.1,332.4,141.6,339.3,141.6z"></path><path class="st1" d="M434.8,195.7h-95.6c-7.1,0-12.9-5.8-12.9-12.9V154c0-7.1,5.8-12.9,12.9-12.9h95.6c7.1,0,12.9,5.8,12.9,12.9
		v28.9C447.7,190,441.9,195.7,434.8,195.7z M339.3,142.1c-6.6,0-11.9,5.3-11.9,11.9c0,0,0,0,0,0v28.9c0,6.6,5.3,11.9,11.9,11.9h95.6
		c6.6,0,11.9-5.3,11.9-11.9V154c0-6.6-5.3-11.9-11.9-11.9L339.3,142.1z"></path><path class="st1" d="M339,167.4c0.4,0,0.8-0.1,1.1-0.3c0.3-0.2,0.6-0.5,0.8-0.9c0.4-0.9,0.6-1.8,0.6-2.8v-4.7c0-1,0.3-1.9,1-2.7
		c0.5-0.6,1.3-1,2.2-0.9h2.7v2.1h-1.6c-0.5,0-0.9,0.3-1.1,0.8c-0.2,0.6-0.3,1.3-0.3,1.9v4.2c0,0.6-0.1,1.2-0.3,1.8
		c-0.2,0.5-0.4,0.9-0.8,1.3c-0.4,0.5-0.9,0.9-1.5,1.1v0.1c0.2,0.1,0.5,0.2,0.7,0.3c0.3,0.2,0.6,0.5,0.8,0.8c0.3,0.4,0.6,0.8,0.8,1.3
		c0.2,0.6,0.3,1.3,0.3,1.9v4.2c0,0.6,0.1,1.2,0.3,1.8c0.1,0.5,0.6,0.9,1.1,0.9h1.6v2.1h-2.7c-0.8,0-1.6-0.4-2.2-1
		c-0.7-0.7-1-1.7-1-2.6v-4.6c0-1-0.2-2-0.6-2.8c-0.3-0.7-1.1-1.2-1.9-1.2V167.4z"></path><path class="st1" d="M362.3,175.9c-0.7,0.8-1.5,1.5-2.5,2c-1,0.6-2.2,0.8-3.3,0.8c-1.9,0-3.7-0.7-5-2c-1.5-1.3-2.3-3.5-2.3-6.5
		c0-3,0.7-5.2,2.3-6.6c1.3-1.3,3.1-2,5-2c1.2,0,2.3,0.3,3.3,0.8c1,0.5,1.8,1.2,2.5,2.1l-2.4,2.2c-0.7-1.1-2-1.7-3.3-1.8
		c-2.8,0-4.2,1.7-4.2,5.2c0,3.5,1.4,5.2,4.2,5.2c1.3,0,2.5-0.6,3.3-1.7L362.3,175.9z"></path><path class="st1" d="M364.8,161.6c-0.1-1.9,0.6-3.7,2-5c1.2-1.1,2.8-1.8,4.4-1.7c1.7,0,3.3,0.6,4.5,1.7c1.3,1.3,2,3.1,2,5V172
		c0.1,1.9-0.6,3.7-2,5c-1.2,1.1-2.8,1.8-4.5,1.8c-3.6,0-6.4-2.9-6.4-6.5c0-0.1,0-0.2,0-0.3V161.6z M374.4,161.9
		c-0.1-2.4-1.1-3.6-3.2-3.6s-3.1,1.2-3.2,3.6v10c0,2.4,1.1,3.6,3.2,3.6c2.1,0,3.1-1.2,3.2-3.6V161.9z"></path><path class="st1" d="M382.2,175.2h3.2v3.3l-3.2,2.5V175.2z"></path><path class="st1" d="M400.4,176.8c-1,1.2-2.6,1.9-4.2,1.9c-0.9,0-1.7-0.2-2.5-0.6c-0.7-0.4-1.3-0.9-1.8-1.6
		c-0.5-0.6-0.8-1.4-0.9-2.1c-0.3-2.8-0.3-5.7,0-8.5c0.1-0.8,0.4-1.5,0.9-2.1c1-1.4,2.6-2.2,4.3-2.2c0.8,0,1.6,0.2,2.3,0.5
		c0.7,0.4,1.3,0.9,1.9,1.4v-8.5h3.2v23.4h-3.2V176.8z M397.2,165c-0.6,0-1.2,0.1-1.8,0.4c-0.4,0.3-0.8,0.7-1,1.2
		c-0.2,0.5-0.3,1.1-0.4,1.6c-0.1,0.7-0.1,1.3-0.1,2c0,0.7,0,1.3,0.1,1.8c0.1,0.6,0.2,1.2,0.4,1.7c0.2,0.5,0.6,0.9,1,1.2
		c0.5,0.3,1.1,0.5,1.8,0.4c0.6,0,1.3-0.1,1.8-0.5c0.4-0.3,0.8-0.7,0.9-1.2c0.2-0.5,0.4-1.1,0.4-1.7c0-0.6,0-1.2,0-1.8s0-1.3,0-1.9
		c-0.1-0.6-0.2-1.1-0.4-1.6c-0.2-0.5-0.5-0.9-0.9-1.2C398.4,165.1,397.8,165,397.2,165z"></path><path class="st1" d="M407.8,165.6H424v2.6h-16.2V165.6z M407.8,172.2H424v2.6h-16.2V172.2z"></path><path class="st1" d="M426.8,179.7h1.6c0.5,0,1-0.4,1.1-0.9c0.2-0.6,0.3-1.2,0.3-1.8v-4.2c0-0.6,0.1-1.3,0.3-1.9
		c0.2-0.5,0.4-0.9,0.7-1.3c0.4-0.5,0.8-0.8,1.4-1.1v-0.1l-0.6-0.3c-0.3-0.2-0.6-0.4-0.8-0.7c-0.3-0.4-0.6-0.8-0.7-1.3
		c-0.2-0.6-0.4-1.3-0.3-1.9V160c0-0.7-0.1-1.3-0.3-1.9c-0.1-0.5-0.6-0.8-1.1-0.8h-1.5v-2.1h2.7c0.8,0,1.7,0.3,2.2,0.9
		c0.6,0.8,0.9,1.7,0.9,2.7v4.6c0,1,0.2,1.9,0.7,2.8c0.3,0.7,1,1.2,1.8,1.2l0.1,2.2c-0.8,0-1.5,0.5-1.9,1.2c-0.5,0.8-0.7,1.8-0.7,2.8
		v4.7c0,1-0.3,1.9-0.9,2.6c-0.6,0.6-1.4,1-2.2,1h-2.7L426.8,179.7z"></path><path class="st1" d="M363,169.7l15.8-8.1c0.6-0.3,1.4-0.1,1.7,0.6l0,0c0.3,0.6,0.1,1.4-0.6,1.7l-15.8,8.1c-0.6,0.3-1.4,0.1-1.7-0.6
		v0C362.1,170.8,362.4,170.1,363,169.7z"></path><path class="st1" d="M363,169.7l15.8-8.1c0.6-0.3,1.4-0.1,1.7,0.6l0,0c0.3,0.6,0.1,1.4-0.6,1.7l-15.8,8.1c-0.6,0.3-1.4,0.1-1.7-0.6
		v0C362.1,170.8,362.4,170.1,363,169.7z"></path></g></svg>