<svg transform="scale(1)" version="1.1" id="q09yFlPPdW" xmlns="http://www.w3.org/2000/svg" xmlns:xlink="http://www.w3.org/1999/xlink" x="0px" y="0px" viewBox="0 0 500 500" xml:space="preserve" class="pbimage_pbimage__wrapper__image__0LEis false"><title>Coding 10</title><style type="text/css"> .st0{fill:#000111;} .st1{fill:#FFFFFF;} .st2{fill:url(#SVGID_1_-q09yFlPPdW);} .st3{fill:#FED490;} .st4{fill:url(#SVGID_00000096044365269796148650000002988193251192424332_-q09yFlPPdW);}
 .st3{fill:#FED490;}
 .st1{fill:#FFFFFF;}
 .st0{fill:#000111;}</style><g id="line"><path class="st0" d="M425.3,303.9H42.8c-0.7,0-1.3-0.6-1.3-1.3s0.6-1.3,1.3-1.3c0,0,0,0,0,0h382.5c0.7,0,1.3,0.6,1.3,1.3
		S426,303.9,425.3,303.9C425.3,303.9,425.3,303.9,425.3,303.9z" fill="#000111"></path></g><g id="laptop"><path class="st1" d="M97.9,102.1h271.9c8.6,0,15.6,7,15.6,15.6V272c0,8.6-7,15.6-15.6,15.6H97.9c-8.6,0-15.6-7-15.6-15.6V117.7
		C82.3,109.1,89.3,102.1,97.9,102.1z"></path><path class="st0" d="M369.8,288.9H97.9c-9.3,0-16.9-7.5-16.9-16.9V117.7c0-9.3,7.6-16.9,16.9-16.9h271.9c9.3,0,16.9,7.6,16.9,16.9
		V272C386.7,281.3,379.1,288.8,369.8,288.9z M97.9,103.4c-7.9,0-14.3,6.4-14.3,14.3V272c0,7.9,6.4,14.3,14.3,14.3h271.9
		c7.9,0,14.3-6.4,14.3-14.3V117.7c0-7.9-6.4-14.3-14.3-14.3H97.9z"></path><linearGradient id="SVGID_1_-q09yFlPPdW" gradientUnits="userSpaceOnUse" x1="94.9375" y1="450.0776" x2="220.5375" y2="322.1676" gradientTransform="matrix(1 0 0 -1 0 502)"><stop offset="0" style="stop-color: rgb(243, 131, 116);"></stop><stop offset="1" style="stop-color: rgb(198, 66, 52);"></stop></linearGradient><path class="st2" d="M374.9,117.7v151.4c0,2.8-2.3,5.1-5.1,5.1H97.9c-2.8,0-5.1-2.3-5.1-5.1V117.7c0-2.8,2.3-5.1,5.1-5.1h271.9
		C372.6,112.6,374.9,114.9,374.9,117.7z"></path><path class="st0" d="M438.4,448.1H155.1c-8.6,0-18.5-7-22-15.6L82.7,310c-3.5-8.6,0.6-15.6,9.2-15.6h283.3c8.6,0,18.5,7,22,15.6
		l50.4,122.5C451.1,441.1,447,448.1,438.4,448.1z"></path><path class="st0" d="M438.4,449.4H155.1c-9.1,0-19.5-7.4-23.2-16.4L81.5,310.5c-2-4.7-1.8-9.4,0.4-12.7c2-3,5.6-4.7,10-4.7h283.3
		c9.1,0,19.5,7.4,23.2,16.4L448.8,432c2,4.7,1.8,9.4-0.4,12.7C446.4,447.7,442.8,449.4,438.4,449.4z M91.9,295.7
		c-3.5,0-6.3,1.3-7.8,3.6c-1.7,2.6-1.8,6.3-0.2,10.2L134.3,432c3.4,8.1,12.7,14.8,20.8,14.8h283.4c3.5,0,6.2-1.3,7.8-3.6
		c1.7-2.6,1.8-6.3,0.2-10.2L396,310.5c-3.4-8.1-12.7-14.8-20.8-14.8H91.9z"></path><path class="st1" d="M433.6,436.4H161.7c-8.6,0-18.5-7-22-15.6L91.4,303.2c-3.5-8.6,0.6-15.6,9.2-15.6h271.9c8.6,0,18.5,7,22,15.6
		l48.3,117.6C446.3,429.4,442.2,436.4,433.6,436.4z"></path><path class="st0" d="M433.6,437.7H161.7c-9.1,0-19.5-7.4-23.2-16.4L90.2,303.7c-2-4.7-1.8-9.4,0.4-12.7c2-3,5.6-4.7,10-4.7h271.9
		c9.1,0,19.5,7.4,23.2,16.4L444,420.3c2,4.7,1.8,9.4-0.4,12.7C441.5,436,438,437.7,433.6,437.7z M100.6,288.9
		c-3.5,0-6.3,1.3-7.8,3.6c-1.8,2.5-1.8,6.3-0.2,10.2l48.3,117.6c3.4,8.1,12.7,14.8,20.8,14.8h271.9c3.5,0,6.3-1.3,7.8-3.6
		c1.7-2.6,1.8-6.3,0.2-10.2l-48.3-117.6c-3.3-8.1-12.7-14.8-20.8-14.8H100.6z"></path><path class="st1" d="M404.3,398.7H161c-5.4,0-11.6-4.4-13.9-9.8L120.1,323c-2.2-5.4,0.4-9.8,5.8-9.8h243.2c5.4,0,11.6,4.4,13.9,9.8
		l27.1,65.9C412.3,394.3,409.7,398.7,404.3,398.7z"></path><path class="st0" d="M404.3,400H161c-6,0-12.6-4.7-15.1-10.6l-27.1-65.9c-1.3-3.1-1.2-6.2,0.3-8.5c1.5-2.1,4.1-3.3,6.7-3.2h243.2
		c6,0,12.6,4.7,15.1,10.6l27.1,65.9c1.3,3.1,1.2,6.2-0.3,8.5C409.4,398.9,406.9,400.2,404.3,400z M125.8,314.4
		c-1.7-0.1-3.4,0.6-4.5,2c-1,1.5-1,3.7-0.1,6l27.1,65.9c2,5,7.7,9,12.7,9h243.2c1.7,0.1,3.4-0.6,4.5-2c1-1.5,1-3.7,0.1-6l-27.1-65.9
		c-2-5-7.7-9-12.7-9H125.8z"></path><path class="st1" d="M327,429.6h-64.3c-2.7-0.2-5.1-1.9-6.2-4.4l-5.2-12.7c-1-2.4,0.2-4.4,2.6-4.4h64.3c2.7,0.2,5.1,1.9,6.2,4.4
		l5.2,12.7C330.5,427.6,329.4,429.6,327,429.6z"></path><path class="st0" d="M327,430.9h-64.3c-3.2-0.2-6.1-2.2-7.4-5.2l-5.2-12.7c-0.7-1.4-0.6-3.1,0.2-4.4c0.8-1.2,2.2-1.8,3.6-1.7h64.3
		c3.2,0.2,6.1,2.2,7.4,5.2l5.2,12.7c0.7,1.4,0.6,3.1-0.2,4.4C329.7,430.3,328.4,430.9,327,430.9z M253.9,409.4
		c-0.5,0-1.1,0.2-1.4,0.6c-0.3,0.6-0.3,1.4,0,2l5.2,12.7c0.9,2,2.8,3.4,5,3.6H327c0.5,0,1.1-0.2,1.4-0.6c0.3-0.6,0.3-1.4,0-2
		l-5.3-12.7c-0.9-2-2.8-3.4-5-3.6L253.9,409.4z"></path><path class="st0" d="M239.6,399.7c-0.5,0-1-0.3-1.2-0.8l-34.7-84.5c-0.3-0.7,0-1.4,0.7-1.7s1.4,0,1.7,0.7l34.7,84.5
		c0.3,0.7,0,1.4-0.7,1.7C240,399.6,239.8,399.7,239.6,399.7z"></path><path class="st0" d="M209.5,399.7c-0.5,0-1-0.3-1.2-0.8l-34.7-84.5c-0.3-0.7,0-1.4,0.7-1.7s1.4,0,1.7,0.7l34.7,84.5
		c0.3,0.7-0.1,1.4-0.7,1.7C209.8,399.6,209.7,399.7,209.5,399.7z"></path><path class="st0" d="M179.4,399.7c-0.5,0-1-0.3-1.2-0.8l-34.7-84.5c-0.3-0.7,0-1.4,0.7-1.7c0.7-0.3,1.4,0,1.7,0.7c0,0,0,0.1,0,0.1
		l34.7,84.5c0.3,0.7,0,1.4-0.7,1.7C179.7,399.6,179.6,399.7,179.4,399.7z"></path><path class="st0" d="M267.5,399.7c-0.5,0-1-0.3-1.2-0.8l-34.7-84.5c-0.3-0.7,0-1.4,0.7-1.7s1.4,0,1.7,0.7l34.7,84.5
		c0.3,0.7,0,1.4-0.7,1.7C267.9,399.6,267.7,399.7,267.5,399.7z"></path><path class="st0" d="M327.3,399.7c-0.5,0-1-0.3-1.2-0.8l-34.7-84.5c-0.3-0.7,0-1.4,0.7-1.7c0.7-0.3,1.4,0,1.7,0.7c0,0,0,0.1,0,0.1
		l34.7,84.5c0.3,0.7,0,1.4-0.7,1.7C327.6,399.6,327.4,399.7,327.3,399.7z"></path><path class="st0" d="M357.4,399.7c-0.5,0-1-0.3-1.2-0.8l-34.7-84.5c-0.3-0.7,0-1.4,0.7-1.7s1.4,0,1.7,0.7l34.7,84.5
		c0.3,0.7-0.1,1.4-0.7,1.7C357.7,399.6,357.5,399.7,357.4,399.7z"></path><path class="st0" d="M387.5,399.7c-0.5,0-1-0.3-1.2-0.8l-34.7-84.5c-0.3-0.7,0-1.4,0.7-1.7c0.7-0.3,1.4,0,1.7,0.7c0,0,0,0.1,0,0.1
		l34.7,84.5c0.3,0.7,0,1.4-0.7,1.7C387.8,399.6,387.6,399.7,387.5,399.7z"></path><path class="st0" d="M299.3,399.7c-0.5,0-1-0.3-1.2-0.8l-34.7-84.5c-0.3-0.7,0-1.4,0.7-1.7c0.7-0.3,1.4,0,1.7,0.7c0,0,0,0.1,0,0.1
		l34.7,84.5c0.3,0.7,0,1.4-0.7,1.7C299.7,399.6,299.5,399.7,299.3,399.7z"></path><path class="st0" d="M396.7,358.3H133.4c-0.7,0-1.3-0.6-1.3-1.3c0-0.7,0.6-1.3,1.3-1.3h263.3c0.7,0,1.3,0.6,1.3,1.3
		S397.4,358.3,396.7,358.3C396.7,358.3,396.7,358.3,396.7,358.3z"></path><path class="st0" d="M387.7,336.4H124.4c-0.7,0-1.3-0.6-1.3-1.3c0-0.7,0.6-1.3,1.3-1.3h263.3c0.7,0,1.3,0.6,1.3,1.3
		C389,335.8,388.4,336.4,387.7,336.4z"></path><path class="st0" d="M405.6,380.1H142.3c-0.7,0-1.3-0.6-1.3-1.3c0-0.7,0.6-1.3,1.3-1.3c0,0,0,0,0,0h263.3c0.7,0,1.3,0.6,1.3,1.3
		C406.9,379.5,406.4,380.1,405.6,380.1z"></path><path class="st0" d="M111.6,281.1h251.6c3.6,0,6.6,3,6.6,6.6v0c0,3.6-3,6.6-6.6,6.6H111.6c-3.6,0-6.6-3-6.6-6.6v0
		C105,284.1,108,281.1,111.6,281.1z"></path><path class="st0" d="M363.2,295.7H111.6c-4.4-0.2-7.8-3.8-7.6-8.2c0.1-4.2,3.5-7.5,7.6-7.6h251.6c4.4,0.2,7.8,3.8,7.6,8.2
		C370.7,292.2,367.4,295.5,363.2,295.7z M111.6,282.5c-2.9,0-5.3,2.4-5.3,5.3c0,2.9,2.4,5.3,5.3,5.3c0,0,0,0,0,0h251.6
		c2.9,0,5.3-2.4,5.3-5.3c0-2.9-2.4-5.3-5.3-5.3c0,0,0,0,0,0H111.6z"></path><path class="st0" d="M373,132.3H94.2c-0.7-0.1-1.3-0.7-1.2-1.4c0.1-0.6,0.6-1.1,1.2-1.2H373c0.7,0.1,1.3,0.7,1.2,1.4
		C374.1,131.8,373.6,132.3,373,132.3z"></path><circle class="st1" cx="108.6" cy="121.8" r="4.1"></circle><path class="st0" d="M108.6,126.5c-2.6,0-4.7-2.1-4.7-4.7c0-2.6,2.1-4.7,4.7-4.7c2.6,0,4.7,2.1,4.7,4.7c0,0,0,0,0,0
		C113.3,124.4,111.2,126.5,108.6,126.5z M108.6,118.3c-1.9,0-3.4,1.5-3.4,3.4c0,1.9,1.5,3.4,3.4,3.4c1.9,0,3.4-1.5,3.4-3.4
		c0,0,0,0,0,0C112,119.9,110.4,118.3,108.6,118.3z"></path><circle class="st1" cx="121.3" cy="121.8" r="4.1"></circle><path class="st0" d="M121.3,126.5c-2.6,0-4.7-2.1-4.7-4.7c0-2.6,2.1-4.7,4.7-4.7c2.6,0,4.7,2.1,4.7,4.7c0,0,0,0,0,0
		C126.1,124.4,124,126.5,121.3,126.5z M121.3,118.3c-1.9,0-3.4,1.5-3.4,3.4c0,1.9,1.5,3.4,3.4,3.4c1.9,0,3.4-1.5,3.4-3.4
		c0,0,0,0,0,0C124.8,119.9,123.2,118.4,121.3,118.3z"></path><circle class="st1" cx="134.1" cy="121.8" r="4.1"></circle><path class="st0" d="M134.1,126.5c-2.6,0-4.7-2.1-4.7-4.7c0-2.6,2.1-4.7,4.7-4.7c2.6,0,4.7,2.1,4.7,4.7c0,0,0,0,0,0
		C138.9,124.4,136.8,126.5,134.1,126.5z M134.1,118.3c-1.9,0-3.4,1.5-3.4,3.4c0,1.9,1.5,3.4,3.4,3.4c1.9,0,3.4-1.5,3.4-3.4
		c0,0,0,0,0,0C137.6,119.9,136,118.4,134.1,118.3z"></path><path class="st1" d="M186.7,266.9h-83.1c-0.7,0-1.3-0.6-1.3-1.3V142.9c0-0.4,0.1-0.7,0.4-0.9c0.2-0.2,0.6-0.4,0.9-0.4l83.1,0.4
		c0.7,0,1.3,0.6,1.3,1.3v122.2C188,266.3,187.4,266.9,186.7,266.9C186.7,266.9,186.7,266.9,186.7,266.9z M104.9,264.3h80.5V144.6
		l-80.5-0.4V264.3z"></path><path class="st1" d="M358.5,145.1H197.1c-0.7-0.1-1.3-0.7-1.2-1.4c0.1-0.6,0.6-1.1,1.2-1.2h161.4c0.7,0.1,1.3,0.7,1.2,1.4
		C359.6,144.6,359.1,145.1,358.5,145.1z"></path><path class="st1" d="M358.5,157.2H197.1c-0.7,0-1.3-0.6-1.3-1.3c0-0.7,0.6-1.3,1.3-1.3h161.4c0.7,0,1.3,0.6,1.3,1.3
		C359.8,156.6,359.2,157.2,358.5,157.2z"></path><path class="st1" d="M358.5,169.2H197.1c-0.7,0-1.3-0.6-1.3-1.3c0-0.7,0.6-1.3,1.3-1.3h161.4c0.7,0,1.3,0.6,1.3,1.3
		C359.8,168.6,359.2,169.2,358.5,169.2z"></path><path class="st1" d="M261.1,181.2h-64c-0.7,0-1.3-0.6-1.3-1.3c0-0.7,0.6-1.3,1.3-1.3h64c0.7,0,1.3,0.6,1.3,1.3
		S261.9,181.2,261.1,181.2C261.1,181.2,261.1,181.2,261.1,181.2z"></path><path class="st1" d="M261.1,193.2h-64c-0.7,0-1.3-0.6-1.3-1.3c0-0.7,0.6-1.3,1.3-1.3h64c0.7,0,1.3,0.6,1.3,1.3
		S261.9,193.2,261.1,193.2C261.1,193.2,261.1,193.2,261.1,193.2z"></path><path class="st1" d="M261.1,205.2h-64c-0.7,0-1.3-0.6-1.3-1.3c0-0.7,0.6-1.3,1.3-1.3h64c0.7,0,1.3,0.6,1.3,1.3
		S261.9,205.2,261.1,205.2C261.1,205.2,261.1,205.2,261.1,205.2z"></path><path class="st1" d="M261.1,217.2h-64c-0.7,0-1.3-0.6-1.3-1.3c0-0.7,0.6-1.3,1.3-1.3h64c0.7,0,1.3,0.6,1.3,1.3
		S261.9,217.2,261.1,217.2C261.1,217.2,261.1,217.2,261.1,217.2z"></path></g><g id="bubble_text_2"><path class="st1" d="M163.3,153.1H30.8c-10.8,0-19.5,8.7-19.5,19.5l0,0l0,0c0,10.8,8.7,19.5,19.5,19.5c0,0,0,0,0,0h98.8l18.3,18.4
		v-18.4h15.3c10.8,0,19.5-8.7,19.5-19.5l0,0l0,0C182.8,161.8,174.1,153.1,163.3,153.1z"></path><path class="st0" d="M148,211.8c-0.3,0-0.7-0.1-0.9-0.4l-18-18H30.8c-11.5,0-20.8-9.3-20.8-20.8s9.3-20.8,20.8-20.8h132.5
		c11.5,0,20.8,9.3,20.8,20.8s-9.3,20.8-20.8,20.8h-13.9v17.1C149.3,211.2,148.8,211.8,148,211.8L148,211.8z M30.8,154.4
		c-10.1,0-18.2,8.2-18.2,18.2c0,10.1,8.2,18.2,18.2,18.2h98.8c0.3,0,0.7,0.1,0.9,0.4l16.1,16.1v-15.2c0-0.7,0.6-1.3,1.3-1.3
		c0,0,0,0,0,0h15.3c10.1,0,18.2-8.2,18.2-18.2c0-10.1-8.2-18.2-18.2-18.2l0,0H30.8z"></path><path class="st0" d="M59.2,186.6c-5.5,0-9.9-4.2-9.9-9.3s4.5-9.3,9.9-9.3s9.9,4.2,9.9,9.3S64.7,186.6,59.2,186.6z M59.2,170.7
		c-4,0-7.3,3-7.3,6.6s3.3,6.7,7.3,6.7s7.3-3,7.3-6.6S63.3,170.7,59.2,170.7z"></path><path class="st0" d="M59.2,170.6c-4-0.3-7-3.7-6.8-7.7c0.3-4,3.7-7,7.7-6.8c3.8,0.3,6.8,3.4,6.8,7.2
		C66.9,167.5,63.4,170.8,59.2,170.6z M59.2,158.8c-2.6,0.3-4.4,2.5-4.2,5.1c0.3,2.6,2.5,4.4,5.1,4.2c2.4-0.2,4.2-2.2,4.2-4.6
		C64.2,160.7,61.9,158.6,59.2,158.8z"></path><path class="st0" d="M123.7,186.6c-5.5,0-9.9-4.2-9.9-9.3s4.4-9.3,9.9-9.3s9.9,4.2,9.9,9.3S129.1,186.6,123.7,186.6z M123.7,170.7
		c-4,0-7.3,3-7.3,6.6s3.3,6.6,7.3,6.6s7.3-3,7.3-6.6S127.7,170.7,123.7,170.7z"></path><path class="st0" d="M123.7,170.6c-4-0.3-7-3.7-6.8-7.7s3.7-7,7.7-6.8c3.8,0.2,6.8,3.4,6.8,7.2
		C131.3,167.5,127.8,170.8,123.7,170.6z M123.7,158.8c-2.6,0.3-4.4,2.5-4.2,5.1c0.3,2.6,2.5,4.4,5.1,4.2c2.4-0.2,4.2-2.2,4.2-4.6
		C128.7,160.7,126.4,158.6,123.7,158.8z"></path><path class="st0" d="M37.1,186.6c-5.5,0-9.9-6.6-9.9-15s4.4-15,9.9-15s9.9,6.6,9.9,15S42.6,186.6,37.1,186.6z M37.1,159.1
		c-4,0-7.3,5.7-7.3,12.4s3.3,12.5,7.3,12.5s7.3-5.7,7.3-12.4S41,159.1,37.1,159.1z"></path><path class="st0" d="M31.2,182.1c-0.2,0-0.5-0.1-0.7-0.2c-0.6-0.4-0.8-1.2-0.4-1.8c0,0,0,0,0,0L42,161.2c0.4-0.6,1.2-0.8,1.8-0.4
		s0.8,1.2,0.4,1.8l-11.9,18.8C32.1,181.8,31.7,182.1,31.2,182.1z"></path><path class="st0" d="M100.2,183.7c-0.3,0-0.7-0.1-0.9-0.4c-0.5-0.5-0.5-1.3,0-1.9c0,0,0,0,0,0l7.9-8.1l-7.9-7.9
		c-0.5-0.6-0.4-1.4,0.2-1.9c0.5-0.4,1.2-0.4,1.7,0l8.8,8.8c0.5,0.5,0.5,1.3,0,1.9l-8.8,9C100.9,183.6,100.6,183.7,100.2,183.7z"></path><path class="st0" d="M84.9,183.7c-0.4,0-0.7-0.1-0.9-0.4l-8.8-9c-0.5-0.5-0.5-1.3,0-1.9l8.9-8.8c0.5-0.5,1.3-0.5,1.9,0
		c0.5,0.5,0.5,1.3,0,1.9l0,0l-7.9,7.9l7.9,8.1c0.5,0.5,0.5,1.3,0,1.9C85.6,183.6,85.3,183.7,84.9,183.7L84.9,183.7z"></path><path class="st0" d="M88.8,188.2c-0.1,0-0.2,0-0.4,0c-0.7-0.2-1.1-0.9-0.9-1.6l8.3-28.3c0.2-0.7,0.9-1.1,1.6-1
		c0.7,0.2,1.1,0.9,1,1.6c0,0,0,0.1,0,0.1l-8.3,28.3C89.9,187.8,89.4,188.2,88.8,188.2z"></path><path class="st0" d="M165.8,172.2h-25.3c-0.7,0-1.3-0.6-1.3-1.3c0-0.7,0.6-1.3,1.3-1.3c0,0,0,0,0,0h25.3c0.7,0,1.3,0.6,1.3,1.3
		C167.1,171.6,166.6,172.2,165.8,172.2z"></path></g><g id="bubble_text_1"><path class="st3" d="M290.4,183.3h132.5c10.8,0,19.5,8.7,19.5,19.5l0,0c0,10.8-8.7,19.5-19.5,19.5H324l-18.4,18.4v-18.4h-15.2
		c-10.8,0-19.5-8.7-19.5-19.5l0,0C270.9,192,279.6,183.3,290.4,183.3z"></path><path class="st0" d="M318.8,216.8c-5.5,0-9.9-4.1-9.9-9.3s4.4-9.3,9.9-9.3s9.9,4.2,9.9,9.3S324.3,216.8,318.8,216.8z M318.8,200.8
		c-4,0-7.3,3-7.3,6.6s3.3,6.6,7.3,6.6s7.3-3,7.3-6.6S322.9,200.9,318.8,200.8L318.8,200.8z"></path><path class="st0" d="M318.8,200.8c-4-0.3-7-3.7-6.8-7.7c0.3-4,3.7-7,7.7-6.8c3.8,0.2,6.8,3.4,6.8,7.2
		C326.4,197.7,323,201,318.8,200.8z M318.8,188.9c-2.6,0.3-4.4,2.5-4.2,5.1c0.3,2.6,2.5,4.4,5.1,4.2c2.4-0.2,4.2-2.2,4.2-4.6
		C323.8,190.9,321.5,188.8,318.8,188.9z"></path><path class="st0" d="M383.3,216.8c-5.5,0-9.9-4.1-9.9-9.3s4.5-9.3,9.9-9.3s9.9,4.2,9.9,9.3S388.7,216.8,383.3,216.8z M383.3,200.8
		c-4,0-7.3,3-7.3,6.6s3.3,6.6,7.3,6.6s7.3-3,7.3-6.6S387.3,200.9,383.3,200.8L383.3,200.8z"></path><path class="st0" d="M383.3,200.8c-4-0.3-7-3.7-6.8-7.7c0.3-4,3.7-7,7.7-6.8c3.8,0.2,6.8,3.4,6.8,7.2
		C390.9,197.7,387.4,201,383.3,200.8z M383.3,188.9c-2.6,0.3-4.4,2.5-4.2,5.1c0.3,2.6,2.5,4.4,5.1,4.2c2.4-0.2,4.2-2.2,4.2-4.6
		C388.2,190.9,386,188.8,383.3,188.9z"></path><path class="st0" d="M296.6,216.8c-5.6,0-9.9-6.6-9.9-15s4.4-15,9.9-15s9.9,6.6,9.9,15S302.2,216.8,296.6,216.8z M296.6,189.3
		c-4,0-7.3,5.7-7.3,12.4s3.3,12.4,7.3,12.4s7.3-5.7,7.3-12.4S300.6,189.3,296.6,189.3L296.6,189.3z"></path><path class="st0" d="M290.8,212.3c-0.2,0-0.5-0.1-0.7-0.2c-0.6-0.4-0.8-1.2-0.4-1.8c0,0,0,0,0,0l11.8-18.9c0.4-0.6,1.2-0.8,1.8-0.4
		s0.8,1.2,0.4,1.8l0,0l-11.8,18.9C291.7,212,291.3,212.3,290.8,212.3z"></path><path class="st0" d="M404.4,216.8c-5.6,0-9.9-6.6-9.9-15s4.4-15,9.9-15s9.9,6.6,9.9,15S410,216.8,404.4,216.8z M404.4,189.3
		c-4,0-7.3,5.7-7.3,12.4s3.3,12.4,7.3,12.4s7.3-5.7,7.3-12.4S408.4,189.3,404.4,189.3L404.4,189.3z"></path><path class="st0" d="M398.6,212.3c-0.2,0-0.5-0.1-0.7-0.2c-0.6-0.4-0.8-1.2-0.4-1.8l11.8-18.9c0.4-0.6,1.2-0.8,1.8-0.4
		s0.8,1.2,0.4,1.8l0,0l-11.8,18.9C399.5,212,399,212.3,398.6,212.3z"></path><path class="st0" d="M359.8,213.9c-0.3,0-0.7-0.1-0.9-0.4c-0.5-0.5-0.5-1.3,0-1.8c0,0,0,0,0,0l7.9-8.1l-7.9-7.9
		c-0.5-0.5-0.5-1.3,0-1.9c0.5-0.5,1.3-0.5,1.9,0l8.8,8.8c0.5,0.5,0.5,1.3,0,1.8c0,0,0,0,0,0l-8.8,9
		C360.5,213.7,360.2,213.9,359.8,213.9z"></path><path class="st0" d="M344.5,213.9c-0.4,0-0.7-0.1-0.9-0.4l-8.8-9c-0.5-0.5-0.5-1.3,0-1.8l8.8-8.8c0.5-0.5,1.3-0.6,1.9-0.1
		s0.6,1.3,0.1,1.9c0,0-0.1,0.1-0.1,0.1l-7.9,7.9l7.9,8.1c0.5,0.5,0.5,1.3,0,1.8C345.1,213.7,344.8,213.9,344.5,213.9L344.5,213.9z"></path><path class="st0" d="M348.4,218.3c-0.1,0-0.3,0-0.4-0.1c-0.7-0.2-1.1-0.9-0.9-1.6c0,0,0,0,0,0l8.3-28.3c0.2-0.7,1-1,1.7-0.8
		c0.6,0.2,1,0.9,0.8,1.5l-8.3,28.3C349.5,218,349,218.3,348.4,218.3z"></path><path class="st0" d="M425.6,199.7h-2.9c-0.7,0-1.3-0.6-1.3-1.3s0.6-1.3,1.3-1.3c0,0,0,0,0,0h2.9c0.7,0,1.3,0.6,1.3,1.3
		S426.4,199.7,425.6,199.7C425.6,199.7,425.6,199.7,425.6,199.7z"></path><path class="st0" d="M425.6,207.6h-2.9c-0.7,0-1.3-0.6-1.3-1.3c0-0.7,0.6-1.3,1.3-1.3h2.9c0.7,0,1.3,0.6,1.3,1.3
		C426.9,207,426.4,207.6,425.6,207.6z"></path></g><g id="paper"><rect class="st1" x="405" y="69.7" transform="matrix(0.9809 -0.1944 0.1944 0.9809 -12.3272 86.1304)" width="55.2" height="72.3"></rect><path class="st0" d="M412.6,148.1c-0.6,0-1.2-0.4-1.3-1.1l-14-70.9c-0.1-0.7,0.3-1.4,1-1.5l54.2-10.7c0.7-0.1,1.4,0.3,1.5,1
		l14,70.9c0.2,0.7-0.3,1.4-1,1.5c0,0,0,0,0,0L412.8,148L412.6,148.1z M400.1,76.8l13.5,68.4l51.6-10.2l-13.6-68.4L400.1,76.8z"></path><rect class="st1" x="398.4" y="64.6" width="55.2" height="72.3"></rect><path class="st0" d="M453.7,138.3h-55.2c-0.7,0-1.3-0.6-1.3-1.3V64.6c0-0.7,0.6-1.3,1.3-1.3h55.2c0.7,0,1.3,0.6,1.3,1.3v72.3
		C455,137.7,454.4,138.3,453.7,138.3z M399.8,135.6h52.6V65.9h-52.6V135.6z"></path><linearGradient id="SVGID_00000080910815797235222930000017491529821406154431_-q09yFlPPdW" gradientUnits="userSpaceOnUse" x1="387.2163" y1="470.2114" x2="404.2763" y2="430.7114" gradientTransform="matrix(1 0 0 -1 0 502)"><stop offset="0" style="stop-color: rgb(243, 131, 116);"></stop><stop offset="1" style="stop-color: rgb(198, 66, 52);"></stop></linearGradient><path d="M384.5,69.9c0.7-0.5,27-19.3,27-19.3
		l8.5,8.9l-32.1,22L384.5,69.9z" style="fill: url(&quot;#SVGID_00000080910815797235222930000017491529821406154431_-q09yFlPPdW&quot;);"></path><path class="st0" d="M442.4,86H408c-0.7,0-1.3-0.6-1.3-1.3c0-0.7,0.6-1.3,1.3-1.3l0,0h34.4c0.7,0,1.3,0.6,1.3,1.3
		C443.7,85.4,443.1,86,442.4,86z"></path><path class="st0" d="M441.5,99.8H408c-0.7,0-1.3-0.6-1.3-1.3c0-0.7,0.6-1.3,1.3-1.3l0,0h33.4c0.7,0,1.3,0.6,1.3,1.3
		C442.8,99.3,442.2,99.8,441.5,99.8L441.5,99.8z"></path><path class="st0" d="M440,118.5h-32.3c-0.7,0-1.3-0.6-1.3-1.3c0-0.7,0.6-1.3,1.3-1.3H440c0.7,0,1.3,0.6,1.3,1.3
		C441.3,117.9,440.7,118.5,440,118.5z"></path></g><g id="light"><path class="st3" d="M476.2,174.3c-10.4,0.8-18.7,8.9-19.7,19.2c-1-10.4-9.4-18.5-19.8-19.2c10.4-0.8,18.7-8.9,19.7-19.2
		C457.5,165.5,465.8,173.5,476.2,174.3z"></path><path class="st3" d="M490,150.6c-5.6,0.4-10,4.8-10.6,10.3c-0.6-5.5-5-9.9-10.6-10.3c5.6-0.4,10-4.7,10.6-10.3
		C480,145.8,484.4,150.2,490,150.6z"></path></g></svg>