<svg transform="scale(1)" version="1.1" id="JI2bEgcjLB" xmlns="http://www.w3.org/2000/svg" xmlns:xlink="http://www.w3.org/1999/xlink" x="0px" y="0px" viewBox="0 0 500 500" xml:space="preserve" class="pbimage_pbimage__wrapper__image__0LEis false"><title>Database 1</title><style type="text/css"> .st0{fill:#FED490;} .st1{fill:#000111;} .st2{fill:url(#SVGID_1_-JI2bEgcjLB);} .st3{fill:#FFFFFF;} .st4{fill:url(#SVGID_00000072240949186482032300000012972117723612664456_-JI2bEgcjLB);} .st5{fill:#FFC2A7;} .st6{fill:url(#SVGID_00000140722400095690598030000003526240359047030940_-JI2bEgcjLB);} .st7{fill:#D88260;} .st8{fill:#005045;} .st9{fill:url(#SVGID_00000101069246064486521050000006739947943872869808_-JI2bEgcjLB);} .st10{fill:url(#SVGID_00000138535905464202445510000002238458848921451187_-JI2bEgcjLB);}
 .st8{fill:#005045;}
 .st7{fill:#D88260;}
 .st5{fill:#FFC2A7;}
 .st3{fill:#FFFFFF;}
 .st1{fill:#000111;}
 .st0{fill:#FED490;}</style><g id="light"><path class="st0" d="M142.7,150c-9.9,0.7-17.8,8.5-18.8,18.4c-1-9.9-8.9-17.6-18.8-18.3c9.9-0.7,17.8-8.5,18.8-18.4
		C124.9,141.5,132.8,149.3,142.7,150z" fill="#FED490"></path><path class="st0" d="M112.2,130.1c-5.3,0.4-9.5,4.6-10.1,9.9c-0.6-5.3-4.8-9.4-10.1-9.8c5.3-0.4,9.5-4.5,10.1-9.8
		C102.7,125.7,106.9,129.8,112.2,130.1L112.2,130.1z" fill="#FED490"></path></g><g id="line"><path class="st1" d="M228.3,417.7H27.8c-0.7,0-1.2-0.6-1.2-1.2s0.6-1.2,1.2-1.2h200.5c0.7,0,1.2,0.6,1.2,1.2S229,417.7,228.3,417.7
		z"></path></g><g id="folder"><path class="st1" d="M448.9,446.7c-2.1,0-4.2-0.3-6.2-0.9l-0.2-0.1l-170-74.8c-0.6-0.3-1-1-0.7-1.6s1-1,1.6-0.7c0,0,0,0,0.1,0
		l169.9,74.8c10.2,2.9,20.9-3,23.9-13.2c0.5-1.7,0.7-3.5,0.7-5.3V144c0-8.7-5.8-16.3-14.2-18.6L175.6,29.5
		c-10.3-2.7-20.9,3.4-23.6,13.7c-0.4,1.6-0.6,3.3-0.6,4.9v112.6c0,0.7-0.6,1.2-1.2,1.2s-1.2-0.6-1.2-1.2V48.2
		c0-12,9.8-21.8,21.8-21.8c1.9,0,3.8,0.3,5.7,0.8L454.6,123c9.4,2.6,16,11.2,16,21v280.9C470.6,436.9,460.9,446.6,448.9,446.7
		L448.9,446.7z"></path><path class="st1" d="M243.5,151.9c-0.7,0-1.2-0.6-1.2-1.2V88.6c0-0.7,0.6-1.2,1.2-1.2s1.2,0.6,1.2,1.2v62.1
		C244.7,151.4,244.2,151.9,243.5,151.9z"></path><path class="st1" d="M384.9,204.7c-0.7,0-1.3-0.5-1.3-1.2c0,0,0,0,0,0v-68.6c0.1-0.7,0.7-1.2,1.4-1.1c0.6,0.1,1.1,0.5,1.1,1.1v68.6
		C386.2,204.2,385.6,204.7,384.9,204.7C384.9,204.7,384.9,204.7,384.9,204.7z"></path><path class="st1" d="M382.1,390.8c-0.7,0-1.2-0.6-1.2-1.2v-87l-27.2-7.6c-0.7-0.2-1.1-0.9-0.9-1.5c0.2-0.7,0.9-1.1,1.5-0.9
		c0,0,0,0,0,0l28.1,7.8c0.5,0.1,0.9,0.6,0.9,1.2v87.9C383.3,390.2,382.8,390.8,382.1,390.8z"></path><path class="st1" d="M435,223.1c-0.1,0-0.3,0-0.4-0.1l-261.5-96.3c-0.6-0.2-1-1-0.7-1.6c0.2-0.6,1-1,1.6-0.7l0,0l261.4,96.3
		c0.6,0.2,1,1,0.7,1.6C435.9,222.8,435.5,223.1,435,223.1L435,223.1z"></path><path class="st1" d="M335,140.3c-0.7,0-1.2-0.5-1.2-1.2c0,0,0,0,0,0l-0.1-13c-0.1-1.1-0.8-2.1-1.9-2.6l-38.4-15.2
		c-0.2-0.1-0.5-0.1-0.8-0.1c-0.1,0.1-0.2,0.3-0.2,0.5v2.9c0,0.7-0.6,1.3-1.2,1.3l0,0c-0.7,0-1.2-0.6-1.3-1.2v-2.9c0-1,0.4-2,1.2-2.6
		c0.9-0.6,2.1-0.7,3.1-0.2l38.4,15.2c2,0.8,3.3,2.7,3.5,4.9l0.1,13.1C336.2,139.8,335.7,140.3,335,140.3L335,140.3z"></path><path class="st0" d="M335.9,164.4l-47.9-19l-0.1-31.8c0-1.9,1.5-2.8,3.4-2.1l16.8,6.7c1.1,0.5,2.1,1.3,2.7,2.4l3,5.1
		c0.7,1.1,1.7,2,2.9,2.5l15.5,6.1c2.1,0.9,3.5,2.8,3.6,5.1L335.9,164.4z"></path><path class="st1" d="M337.1,166.2l-50.4-20l-0.1-32.6c0-1.2,0.5-2.3,1.5-3c1.1-0.7,2.5-0.8,3.7-0.2l16.8,6.7
		c1.4,0.6,2.6,1.6,3.3,2.9l3,5.1c0.5,0.9,1.3,1.6,2.2,2l15.5,6.1c2.5,1.1,4.3,3.5,4.4,6.2L337.1,166.2z M289.2,144.5l45.4,18
		l-0.1-23.2c-0.2-1.7-1.3-3.2-2.9-3.9l-15.5-6.1c-1.4-0.6-2.7-1.7-3.5-3l-3-5.1c-0.5-0.8-1.2-1.5-2.1-1.9l-16.8-6.7
		c-0.4-0.2-0.9-0.2-1.3,0c-0.3,0.3-0.4,0.6-0.4,1L289.2,144.5z"></path><path class="st1" d="M226.1,101.1c-0.7,0-1.2-0.6-1.2-1.2l-0.1-13.1c-0.1-1.1-0.9-2.1-1.9-2.6l-38.4-15.2c-0.4-0.2-0.7-0.1-0.8-0.1
		s-0.2,0.4-0.2,0.5v2.9c0,0.7-0.6,1.2-1.2,1.2l0,0c-0.7,0-1.2-0.5-1.2-1.2c0,0,0,0,0,0v-2.9c0-1,0.4-2,1.3-2.6
		c0.9-0.6,2.1-0.7,3.1-0.2l38.4,15.2c2,0.8,3.3,2.7,3.5,4.9l0.1,13.1C227.4,100.5,226.8,101,226.1,101.1L226.1,101.1z"></path><path class="st0" d="M227,125.1l-47.9-19l-0.1-31.8c0-1.9,1.5-2.8,3.4-2.1l16.8,6.7c1.1,0.5,2.1,1.3,2.7,2.4l3,5.1
		c0.7,1.1,1.7,2,2.9,2.5l15.5,6.1c2.1,0.9,3.5,2.8,3.6,5.1L227,125.1z"></path><path class="st1" d="M228.2,127l-50.4-20l-0.1-32.6c0-1.2,0.5-2.3,1.5-3c1.1-0.7,2.5-0.8,3.7-0.2l16.8,6.6c1.4,0.6,2.6,1.6,3.3,2.9
		l3.1,5.1c0.5,0.9,1.3,1.6,2.2,2l15.5,6.1c2.5,1.1,4.2,3.5,4.4,6.2L228.2,127z M180.3,105.3l45.4,18l-0.1-23.2
		c-0.2-1.7-1.3-3.2-2.8-3.9l-15.5-6.1c-1.4-0.6-2.7-1.7-3.5-3l-3-5.1c-0.5-0.8-1.2-1.5-2.1-1.9l-16.8-6.6c-0.4-0.2-0.9-0.2-1.4,0
		c-0.3,0.2-0.4,0.6-0.4,0.9L180.3,105.3z"></path><path class="st1" d="M451.1,184.8c-0.7,0-1.2-0.5-1.2-1.2c0,0,0,0,0,0l-0.1-13.1c-0.1-1.1-0.8-2.1-1.9-2.6l-38.4-15.2
		c-0.3-0.1-0.5-0.1-0.8,0c-0.1,0.1-0.2,0.4-0.2,0.5v2.8c0,0.7-0.6,1.2-1.2,1.3l0,0c-0.7,0-1.2-0.6-1.2-1.3c0,0,0,0,0,0v-2.9
		c0-1,0.4-2,1.3-2.6c0.9-0.6,2.1-0.7,3.1-0.2l38.4,15.2c2,0.8,3.3,2.7,3.5,4.9l0.1,13.1C452.4,184.2,451.9,184.8,451.1,184.8
		C451.2,184.8,451.2,184.8,451.1,184.8L451.1,184.8z"></path><path class="st0" d="M452,208.9l-47.9-19l-0.1-31.8c0-1.9,1.5-2.8,3.4-2.1l16.8,6.6c1.1,0.5,2.1,1.3,2.7,2.4l3,5.1
		c0.7,1.1,1.7,2,2.9,2.5l15.5,6.1c2.1,0.9,3.5,2.8,3.6,5.1L452,208.9z"></path><path class="st1" d="M453.2,210.7l-50.4-20l-0.1-32.6c0-1.2,0.5-2.3,1.5-3c1.1-0.7,2.5-0.8,3.7-0.2l16.8,6.6
		c1.4,0.6,2.6,1.6,3.3,2.9l3,5.1c0.5,0.9,1.3,1.6,2.2,2l15.5,6.1c2.5,1.1,4.2,3.5,4.4,6.2L453.2,210.7z M405.3,189l45.4,18
		l-0.1-23.2c-0.2-1.7-1.3-3.2-2.8-3.9l-15.5-6.1c-1.4-0.6-2.7-1.7-3.5-3l-3-5.1c-0.5-0.8-1.2-1.5-2.1-1.9l-16.8-6.6
		c-0.4-0.2-0.9-0.2-1.4,0c-0.3,0.2-0.4,0.6-0.4,0.9L405.3,189z"></path><path class="st1" d="M440,277.6c-0.7,0-1.2-0.5-1.2-1.2c0,0,0,0,0,0l-0.1-13.1c-0.1-1.1-0.9-2.1-1.9-2.6l-38.4-15.2
		c-0.2-0.1-0.5-0.2-0.8-0.1c-0.1,0.1-0.2,0.4-0.2,0.5v2.9c0,0.7-0.6,1.3-1.2,1.3l0,0c-0.7,0-1.2-0.6-1.2-1.2v-2.9c0-1,0.4-2,1.3-2.6
		c0.9-0.6,2.1-0.7,3.1-0.2l38.4,15.2c2,0.8,3.3,2.7,3.5,4.9l0.1,13.1C441.3,277,440.7,277.6,440,277.6
		C440,277.6,440,277.6,440,277.6L440,277.6z"></path><path class="st0" d="M440.8,301.7l-47.9-19l-0.1-31.8c0-1.9,1.5-2.8,3.4-2.1l16.8,6.6c1.1,0.5,2.1,1.3,2.7,2.4l3,5.1
		c0.7,1.1,1.7,2,2.9,2.5l15.5,6.1c2.1,0.9,3.5,2.8,3.6,5.1L440.8,301.7z"></path><path class="st1" d="M442.1,303.5l-50.4-20l-0.1-32.6c0-1.2,0.5-2.3,1.5-3c1.1-0.7,2.5-0.8,3.7-0.2l16.8,6.6
		c1.4,0.6,2.6,1.6,3.3,2.9l3,5.1c0.5,0.9,1.3,1.6,2.2,2l15.5,6.1c2.5,1.1,4.2,3.5,4.4,6.2L442.1,303.5z M394.1,281.8l45.4,18
		l-0.1-23.2c-0.2-1.7-1.3-3.2-2.8-3.9l-15.5-6.1c-1.4-0.6-2.7-1.7-3.5-3l-3-5.1c-0.5-0.8-1.2-1.5-2.1-1.9l-16.8-6.7
		c-0.4-0.2-0.9-0.2-1.4,0c-0.3,0.2-0.4,0.6-0.4,0.9L394.1,281.8z"></path><path class="st1" d="M443,380.9c-0.7,0-1.2-0.6-1.2-1.2l-0.1-13.1c-0.1-1.1-0.8-2.1-1.9-2.6l-38.4-15.2c-0.2-0.1-0.5-0.2-0.8,0
		c-0.1,0.1-0.2,0.4-0.2,0.5v2.9c0,0.7-0.5,1.2-1.2,1.2c0,0,0,0,0,0c-0.7,0-1.2-0.5-1.3-1.2c0,0,0,0,0-0.1v-2.9c0-1,0.4-2,1.3-2.6
		c0.9-0.6,2.1-0.7,3.1-0.2l38.4,15.2c2,0.8,3.3,2.7,3.5,4.9l0.1,13.1C444.3,380.3,443.8,380.8,443,380.9
		C443.1,380.9,443.1,380.9,443,380.9L443,380.9z"></path><path class="st0" d="M443.9,404.9l-47.9-19l-0.1-31.8c0-1.9,1.5-2.8,3.4-2.1l16.7,6.7c1.1,0.5,2.1,1.3,2.7,2.4l3,5.1
		c0.7,1.1,1.7,2,2.9,2.5l15.5,6.1c2.1,0.9,3.5,2.8,3.6,5.1L443.9,404.9z"></path><path class="st1" d="M445.2,406.8l-50.4-20l-0.2-32.6c0-1.2,0.5-2.3,1.5-3c1.1-0.7,2.5-0.8,3.7-0.2l16.8,6.6
		c1.4,0.6,2.6,1.6,3.3,2.9l3,5.1c0.5,0.9,1.3,1.6,2.2,2l15.5,6.1c2.5,1.1,4.2,3.5,4.4,6.2L445.2,406.8z M397.2,385.1l45.4,18
		l-0.1-23.2c-0.2-1.7-1.3-3.2-2.8-3.9l-15.5-6.1c-1.4-0.6-2.7-1.7-3.5-3l-3-5.1c-0.5-0.8-1.2-1.5-2.1-1.9l-16.8-6.6
		c-0.4-0.2-0.9-0.2-1.4,0c-0.3,0.2-0.4,0.6-0.4,0.9L397.2,385.1z"></path><path class="st1" d="M353,352.2c-0.7,0-1.2-0.5-1.2-1.2c0,0,0,0,0,0l-0.1-13.1c-0.1-1.1-0.8-2.1-1.9-2.6L311.4,320
		c-0.3-0.1-0.5-0.1-0.8,0c-0.1,0.1-0.2,0.4-0.2,0.5v2.9c0,0.7-0.6,1.2-1.2,1.3l0,0c-0.7,0-1.2-0.6-1.2-1.2v-2.9c0-1,0.4-2,1.3-2.6
		c0.9-0.6,2.1-0.7,3.1-0.2l38.4,15.2c2,0.8,3.3,2.7,3.5,4.9l0.1,13.1C354.3,351.6,353.7,352.2,353,352.2
		C353,352.2,353,352.2,353,352.2L353,352.2z"></path><path class="st0" d="M353.9,376.2l-47.9-19l-0.1-31.8c0-1.9,1.5-2.8,3.4-2.1L326,330c1.1,0.5,2.1,1.3,2.7,2.4l3,5.1
		c0.7,1.1,1.7,2,2.9,2.5l15.5,6.1c2.1,0.9,3.5,2.8,3.6,5.1L353.9,376.2z"></path><path class="st1" d="M355.1,378.1l-50.4-20l-0.1-32.6c0-1.2,0.5-2.3,1.5-3c1.1-0.7,2.5-0.8,3.7-0.2l16.8,6.6
		c1.4,0.6,2.6,1.6,3.3,2.9l3,5.1c0.5,0.9,1.3,1.6,2.2,2l15.5,6.1c2.5,1.1,4.2,3.5,4.4,6.2L355.1,378.1z M307.2,356.4l45.4,18
		l-0.1-23.2c-0.2-1.7-1.3-3.2-2.8-3.9l-15.5-6.1c-1.4-0.6-2.7-1.7-3.5-3l-3-5.1c-0.5-0.8-1.2-1.5-2.1-1.9l-16.8-6.6
		c-0.4-0.2-0.9-0.2-1.4,0c-0.3,0.2-0.4,0.6-0.4,1L307.2,356.4z"></path><path class="st1" d="M325.8,317.5c-0.2,0-0.4,0-0.5-0.1L188.9,251c-0.4-0.2-0.7-0.7-0.7-1.1v-55.2c0-0.7,0.6-1.2,1.2-1.2
		s1.2,0.6,1.2,1.2V249l133.8,65.2v-64.3c0-0.7,0.6-1.2,1.2-1.2s1.2,0.6,1.2,1.2v66.4c0,0.4-0.2,0.8-0.6,1.1
		C326.3,317.4,326,317.5,325.8,317.5z"></path><polygon class="st1" points="242.4,160.9 191,188.2 325.8,249.9 376.3,212.4 	"></polygon><path class="st1" d="M325.8,251.1c-0.2,0-0.4,0-0.5-0.1l-134.8-61.6c-0.4-0.2-0.7-0.6-0.7-1.1c0-0.5,0.2-0.9,0.7-1.1l51.3-27.4
		c0.3-0.2,0.7-0.2,1-0.1l134,51.6c0.6,0.2,1,1,0.7,1.6c-0.1,0.2-0.2,0.4-0.4,0.6l-50.5,37.4C326.3,251,326,251.1,325.8,251.1z
		 M193.9,188.1l131.8,60.3l48.1-35.6l-131.3-50.5L193.9,188.1z"></path><path class="st1" d="M325.8,317.5c-0.7,0-1.3-0.5-1.3-1.2c0-0.4,0.2-0.7,0.5-1l50.4-41.5v-48.5c0-0.7,0.6-1.2,1.2-1.2
		s1.2,0.6,1.2,1.2v49.1c0,0.4-0.2,0.8-0.5,1l-50.8,41.9C326.4,317.4,326.1,317.5,325.8,317.5z"></path><linearGradient id="SVGID_1_-JI2bEgcjLB" gradientUnits="userSpaceOnUse" x1="316.8879" y1="378.1911" x2="271.5579" y2="288.1611" gradientTransform="matrix(1 0 0 -1 0 502)"><stop offset="0" style="stop-color: rgb(243, 131, 116);"></stop><stop offset="1" style="stop-color: rgb(198, 66, 52);"></stop></linearGradient><path class="st2" d="M225.3,177.4c-10-14.8-3.1-38.9-3.1-38.9l139.7,49.2c0,0-12.8,26.7-12.8,45.7l-19.6,11.9
		C329.5,245.3,242.6,203.2,225.3,177.4z"></path><path class="st3" d="M215.7,199.3c0,0,0.8-32-22.5-43.4L328,206.7c8.5,9,12.5,21.4,10.8,33.6L326,252.1L215.7,199.3z"></path><path class="st1" d="M326,253.4c-0.2,0-0.4,0-0.5-0.1l-110.3-52.9c-0.4-0.2-0.7-0.7-0.7-1.2c0-5.8-0.9-11.5-2.5-17.1
		c-3.5-12.1-10-20.6-19.3-25.1c-0.6-0.3-0.8-1.1-0.5-1.7c0.3-0.5,0.9-0.8,1.5-0.6l134.8,50.9c0.2,0.1,0.3,0.1,0.4,0.2
		c8.8,9.3,12.9,22,11.1,34.7c0,0.3-0.2,0.6-0.4,0.8L326.9,253C326.6,253.2,326.3,253.4,326,253.4z M217,198.5l108.8,52.1l11.8-10.9
		c1.4-11.6-2.3-23.3-10.3-31.9l-125-47.2C215.8,173.3,216.9,194.1,217,198.5z"></path><path class="st1" d="M466.8,473.6c-3,0-6-0.6-8.8-1.7l-182.8-74.7c-0.6-0.3-0.9-1-0.7-1.6c0,0,0,0,0,0c0.3-0.6,1-0.9,1.6-0.7
		c0,0,0,0,0,0L459,469.6c10.6,4.3,22.6-0.7,26.9-11.3c1-2.5,1.5-5.1,1.5-7.8V192.8c0-8-4.6-15.2-11.8-18.7l-6.8-3.2
		c-0.6-0.3-0.9-1-0.6-1.7c0.3-0.6,1-0.9,1.7-0.6l6.8,3.2c8.1,3.8,13.2,12,13.3,20.9v257.7C490,463.3,479.6,473.6,466.8,473.6z"></path></g><g id="character"><path class="st1" d="M46.8,416.4h155.4l-40-72.4c-10.8-18.6-77.1-44.2-98.1,10.2L46.8,416.4z"></path><linearGradient id="SVGID_00000169542574926789575020000008725726408730216382_-JI2bEgcjLB" gradientUnits="userSpaceOnUse" x1="109.2263" y1="368.4183" x2="87.3463" y2="288.1983" gradientTransform="matrix(1 0 0 -1 0 502)"><stop offset="0" style="stop-color: rgb(10, 107, 91);"></stop><stop offset="0.78" style="stop-color: rgb(0, 81, 70);"></stop><stop offset="0.91" style="stop-color: rgb(0, 80, 69);"></stop></linearGradient><path d="M124.6,173.4c0,0-9.2,21.9-27.8,20
		c-24.5-2.6-76.6,0.6-85.5,43.2C1,286.5,52,321.9,113.1,293.8C148.4,277.5,180.5,174.7,124.6,173.4z" style="fill: url(&quot;#SVGID_00000169542574926789575020000008725726408730216382_-JI2bEgcjLB&quot;);"></path><path class="st5" d="M120,186.4c-0.6,7.7,2,15.3,7.2,21l0,0c10.4,11.4,28.1,12.2,39.6,1.8c11.4-10.4,12.2-28.1,1.8-39.6
		s-28.1-12.2-39.6-1.8C123.8,172.7,120.5,179.3,120,186.4L120,186.4z"></path><path class="st1" d="M178.7,203.3L178.7,203.3c-1.6,0-2.8-1.5-3.6-4.5c-0.7-2.9-1-5.9-0.9-8.9l0,0c0-3,0.4-6,1.3-8.8
		c0.9-2.9,2.2-4.3,3.8-4.3h0.1c1.6,0,2.8,1.5,3.6,4.5c1.4,5.8,1.2,11.9-0.4,17.7C181.6,201.8,180.3,203.3,178.7,203.3z M176.6,190
		L176.6,190c-0.1,7,1.5,10.6,2.2,10.8c0.6-0.2,2.4-3.7,2.5-10.7s-1.5-10.6-2.1-10.8C178.5,179.5,176.7,183,176.6,190z"></path><ellipse class="st5" transform="matrix(0.3401 -0.9404 0.9404 0.3401 -70.6751 296.8791)" cx="176.2" cy="198.8" rx="3.9" ry="8.7"></ellipse><linearGradient id="SVGID_00000159460558059060933870000006985852228091530136_-JI2bEgcjLB" gradientUnits="userSpaceOnUse" x1="156.2716" y1="355.585" x2="134.3916" y2="275.365" gradientTransform="matrix(1 0 0 -1 0 502)"><stop offset="0" style="stop-color: rgb(10, 107, 91);"></stop><stop offset="0.78" style="stop-color: rgb(0, 81, 70);"></stop><stop offset="0.91" style="stop-color: rgb(0, 80, 69);"></stop></linearGradient><path d="M120,186.4c-0.6,7.7,2,15.3,7.2,21l0,0
		c6-2.3,1.9-13.1,1.9-13.1c-7.3-1.2-6.2-16.3,1.6-16.3s7.7,9,7.7,9c22.8,9.1,35-9.1,35.2-9.3c-6-14.2-22.5-20.9-36.7-14.9
		C127.4,166.8,120.8,175.9,120,186.4L120,186.4z" style="fill: url(&quot;#SVGID_00000159460558059060933870000006985852228091530136_-JI2bEgcjLB&quot;);"></path><path class="st7" d="M132,189.7C132.1,189.7,132,189.7,132,189.7l-0.4-0.1c-0.2-0.1,0.1,0.1-0.1,0l-0.2-0.1
		c-0.1-0.1-0.2-0.1-0.3-0.2l-0.2-0.2c0,0-0.1-0.1-0.1-0.1c-0.2-0.2-0.4-0.5-0.4-0.9c-0.1-0.3-0.1-0.6,0-0.9c0.1-0.6,0.5-1.1,1-1.4
		c0.1-0.1,0.2-0.1,0.3-0.1l0.3-0.1h0.1c0.2,0,0.4,0,0.6,0c-0.2,0,0.1,0,0.1,0c0.1,0,0.2,0.1,0.3,0.1c0.7,0.2,1.4-0.2,1.5-0.9
		c0-0.1,0-0.2,0-0.3c0.1-1.9-1.1-3.6-2.9-4.1c-1.8-0.5-3.6,0.3-4.6,1.8c-0.3,0.6,0,1.4,0.6,1.7c0.6,0.3,1.2,0.1,1.6-0.4
		c0.1-0.2,0.2-0.3,0.4-0.4c-0.1,0.1,0.2-0.1,0.2-0.1s0.4-0.2,0.2-0.1c0.1-0.1,0.2-0.1,0.4-0.1h0.1h0.4l0.2,0.1
		c0.2,0,0.3,0.1,0.5,0.2c-0.1-0.1,0.1,0.1,0.1,0.1c0.2,0.2,0-0.1,0.1,0.2c0.1,0.1,0.1,0.2,0.2,0.4c-0.1-0.2,0.1,0.2,0.1,0.2
		c0,0.1,0,0.2,0,0.2c0-0.1,0,0.3,0,0.4l1.6-1.2c-2.4-0.8-5,0.4-5.8,2.8c-0.8,2.4,0.4,5,2.8,5.8c0.4,0.1,0.8,0.2,1.2,0.2
		c0.7,0,1.2-0.6,1.2-1.2C133.2,190.3,132.7,189.7,132,189.7L132,189.7z"></path><ellipse class="st3" transform="matrix(0.991 -0.1338 0.1338 0.991 -24.0785 23.9195)" cx="165.9" cy="191.1" rx="3.5" ry="4.1"></ellipse><ellipse class="st8" transform="matrix(0.991 -0.1338 0.1338 0.991 -24.0573 24.0577)" cx="166.9" cy="191" rx="2.3" ry="2.7"></ellipse><path class="st7" d="M153,210.3c-0.2,0-0.4-0.1-0.6-0.1c-2-0.9-3.5-2.7-4.1-4.8c-1-4,2-8.1,2.1-8.3c0.5-0.5,1.3-0.5,1.8,0
		c0.4,0.4,0.5,1,0.2,1.5l0,0c0,0-2.4,3.4-1.7,6.3c0.4,1.4,1.4,2.6,2.8,3.2c0.6,0.3,0.9,1.1,0.5,1.7
		C153.9,210.1,153.5,210.3,153,210.3z"></path><path class="st7" d="M152.6,199.1c-0.7,0-1.3-0.1-1.9-0.4c-1.4-0.6-2.4-1.8-2.8-3.2c-0.2-0.7,0.1-1.4,0.8-1.6
		c0.7-0.2,1.4,0.1,1.6,0.8c0.2,0.8,0.7,1.4,1.4,1.7c0.9,0.3,1.8,0.2,2.6-0.2c0.6-0.3,1.4,0,1.7,0.6c0.3,0.6,0,1.4-0.6,1.7
		C154.5,198.9,153.6,199.1,152.6,199.1z"></path><path class="st1" d="M164.9,205.3h-0.1c-4.5-0.1-8-6.2-7.8-14c0-3.3,0.8-6.5,2.4-9.5c1.6-2.7,3.6-4.2,5.9-4.2h0.1
		c2.3,0,4.4,1.6,5.8,4.5c1.4,3,2.1,6.3,2,9.6C173,199.3,169.4,205.3,164.9,205.3z M158.2,191.3h1.3c-0.1,6.7,2.7,11.4,5.4,11.5l0,0
		c2.6,0,5.6-4.6,5.8-11.2c0.1-2.9-0.4-5.8-1.7-8.4c-1-1.9-2.3-3.1-3.7-3.1s-2.7,1-3.8,3c-1.3,2.6-2,5.4-2,8.3L158.2,191.3z"></path><linearGradient id="SVGID_00000026130137190774946700000016099634906332037792_-JI2bEgcjLB" gradientUnits="userSpaceOnUse" x1="280.9682" y1="276.1735" x2="199.8283" y2="173.8634" gradientTransform="matrix(1 0 0 -1 0 502)"><stop offset="0" style="stop-color: rgb(243, 131, 116);"></stop><stop offset="1" style="stop-color: rgb(198, 66, 52);"></stop></linearGradient><path d="M164.4,236.2h5.1c0,0,15,0.7,24.9,19.7
		l18.7,35l-1.5-28.2l66.1-0.8l4,84.1c-0.8,38.1-60,85.5-104.7,28.8l-40.7-69.9L164.4,236.2z" style="fill: url(&quot;#SVGID_00000026130137190774946700000016099634906332037792_-JI2bEgcjLB&quot;);"></path><linearGradient id="SVGID_00000103955581333883162390000013217182939714555828_-JI2bEgcjLB" gradientUnits="userSpaceOnUse" x1="213.5554" y1="329.6378" x2="132.4154" y2="227.3278" gradientTransform="matrix(1 0 0 -1 0 502)"><stop offset="0" style="stop-color: rgb(243, 131, 116);"></stop><stop offset="1" style="stop-color: rgb(198, 66, 52);"></stop></linearGradient><path d="M140.8,318.7H113c-12,0-22-9.1-23.1-21
		l7.1-42.1c0,0,1.1-17.7,23.4-19.4h44c0,0,14.9,4.1,13.1,21.2l-14.6,45.2C159.8,312.2,150.9,318.7,140.8,318.7z" style="fill: url(&quot;#SVGID_00000103955581333883162390000013217182939714555828_-JI2bEgcjLB&quot;);"></path><path class="st0" d="M119.7,275.8c-5.3,0-9.9-0.5-13.2-1.7c-3.9-1.4-6.1-3.7-6.5-6.8c-0.7-4.9,3.2-11.5,11.5-19.7
		c3.9-3.8,8.1-7.4,12.4-10.7c0.5-0.5,1.3-0.4,1.8,0.1s0.4,1.3-0.1,1.8c-0.1,0.1-0.1,0.1-0.2,0.1c-6.8,5-24.1,19.8-22.9,28
		c0.3,2.1,1.9,3.7,4.9,4.8c19.2,7.1,86.3-11.7,87-11.9c0.7-0.2,1.4,0.2,1.5,0.9c0.2,0.7-0.2,1.4-0.9,1.5l0,0
		C192.7,262.9,146.6,275.8,119.7,275.8z"></path><path class="st0" d="M210.8,392.6c-2,0-4-0.9-5.4-2.4c-2.3-2.2-3-5.6-1.8-8.5c2.5-7.5,13.9-15.5,26.8-19.4
		c0.9-3.8,1.1-7.7,0.6-11.5c-1.2-6.6-5.4-10.3-12.3-11.1c-27.8-3.1-48.7,21.9-48.9,22.1c-0.4,0.5-1.2,0.6-1.8,0.2
		c-0.5-0.4-0.6-1.2-0.2-1.8l0,0c0.2-0.3,22-26.3,51.1-23c8,0.9,13,5.4,14.4,13.1c0.6,3.7,0.5,7.5-0.2,11.2c1.7-0.4,3.5-0.8,5.2-1.1
		c15.2-2.4,27.6,1.9,35,12c0.5,0.5,0.4,1.3-0.1,1.8c-0.5,0.5-1.3,0.4-1.8-0.1c-0.1-0.1-0.1-0.1-0.1-0.2c-9.2-12.6-24.4-12.3-32.6-11
		c-2.1,0.3-4.2,0.8-6.2,1.3c-0.8,3.4-2,6.8-3.5,10c-3.8,8.2-8.9,14.6-13.8,17.2C213.9,392.1,212.4,392.5,210.8,392.6z M229.7,365.1
		c-12.2,4-21.8,11.5-23.7,17.4c-0.9,2.1-0.4,4.5,1.3,6c1.9,1.9,4.1,2.1,6.9,0.7C221,385.6,226.9,375.1,229.7,365.1L229.7,365.1z"></path><circle class="st0" cx="209.9" cy="338.2" r="7.9"></circle><path class="st1" d="M145.1,319.6c-0.5,0-0.9-0.3-1.1-0.7L130.1,291c0-0.1-0.1-0.1-0.1-0.2c-0.1-0.3-8.6-29.4,13.3-38.8
		c0.6-0.3,1.4,0,1.6,0.7c0.3,0.6,0,1.4-0.7,1.6c0,0,0,0,0,0c-19.3,8.3-12.4,34-11.9,35.7l13.8,27.8c0.3,0.6,0,1.4-0.6,1.7
		C145.4,319.5,145.3,319.6,145.1,319.6z"></path><path class="st1" d="M213.1,317.5c-0.7,0-1.2-0.6-1.2-1.2v-25.4c0-0.7,0.6-1.2,1.2-1.2s1.2,0.6,1.2,1.2v25.4
		C214.3,316.9,213.8,317.5,213.1,317.5z"></path><path class="st1" d="M276.4,282h-62.6c-0.7,0-1.2-0.6-1.2-1.2s0.6-1.2,1.2-1.2h62.6c0.7,0,1.2,0.6,1.2,1.2S277.1,282,276.4,282z"></path><path class="st3" d="M92.6,416.4h-0.2c-0.7-0.1-1.1-0.8-1-1.4l7.9-50.8L81.5,355c-0.6-0.3-0.9-1.1-0.6-1.7c0.3-0.6,1.1-0.9,1.7-0.5
		l18.7,9.5c0.5,0.2,0.8,0.8,0.7,1.3l-8.1,51.7C93.8,415.9,93.3,416.4,92.6,416.4z"></path><path class="st5" d="M277.8,261.8c0,0-1.7-10.2-2.8-17.2c-1-6.2-1.9-15.8-3.1-21.5s-8.9-6.6-10.9,0c0,0-1.7,6.4-2.9,7.4
		s-3.9-8.2-4.4-12.3s7.9-12.7,8.8-16.9s-2-8.5-5.2-8c0,0,0-6.7-5.6-9.2c-3-1.6-6.7-0.9-9,1.7l-10.4,13.6l-3.8-8.3
		c0,0-3.6-3.8-7.6,1.5c0,0-0.6,7.8-1.1,10.3s-7.1,14.2-8,23.2s-0.3,36.3-0.3,36.3L277.8,261.8z"></path><path class="st7" d="M217.1,218c-0.2,0-0.4-0.1-0.6-0.2c-0.6-0.4-0.8-1.1-0.4-1.7c4.9-8.4,14-16.6,14.4-16.9
		c0.5-0.5,1.3-0.4,1.8,0.1c0.5,0.5,0.4,1.3-0.1,1.8c-0.1,0.1-9.2,8.3-13.9,16.3C218,217.8,217.5,218,217.1,218z"></path><path class="st7" d="M235.5,224.9h-0.2c-0.7-0.1-1.2-0.7-1.1-1.4c0,0,0,0,0,0c0.1-0.4,1.4-9.6,4.7-14.9s17-15.6,17.6-16
		c0.6-0.4,1.3-0.3,1.8,0.2s0.3,1.3-0.2,1.8l0,0c-0.1,0.1-13.9,10.5-17,15.3s-4.3,13.8-4.4,13.9C236.7,224.4,236.1,224.9,235.5,224.9
		z"></path><path class="st7" d="M254.9,242.6c-0.7,0-1.2-0.6-1.2-1.3c0-0.4,0.2-0.7,0.4-0.9c3.4-3.1,2.8-9.6,2.8-9.7c-0.1-0.7,0.4-1.3,1.1-1.4
		s1.3,0.4,1.4,1.1c0,0.3,0.8,7.8-3.6,11.8C255.5,242.5,255.2,242.6,254.9,242.6z"></path></g></svg>