<svg transform="scale(1)" version="1.1" id="xm9IjkcPt5" xmlns="http://www.w3.org/2000/svg" xmlns:xlink="http://www.w3.org/1999/xlink" x="0px" y="0px" viewBox="0 0 500 500" xml:space="preserve" class="pbimage_pbimage__wrapper__image__0LEis false"><title>Data Maintenance</title><style type="text/css"> .st0{fill:#000111;} .st1{fill:#FED490;} .st2{fill:url(#SVGID_1_-xm9IjkcPt5);} .st3{fill:#FFFFFF;} .st4{fill:url(#SVGID_00000144314264427141503490000011854018176192513706_-xm9IjkcPt5);} .st5{fill:url(#SVGID_00000106131673349991659480000004808277773442837923_-xm9IjkcPt5);} .st6{fill:url(#SVGID_00000168829105234363789530000005329378013122706567_-xm9IjkcPt5);} .st7{fill:url(#SVGID_00000139275435787522275270000009600605197779321532_-xm9IjkcPt5);} .st8{fill:url(#SVGID_00000052074183242738602050000014527385378189458564_-xm9IjkcPt5);} .st9{fill:url(#SVGID_00000155124643066027521460000008808320140414037392_-xm9IjkcPt5);} .st10{fill:#FFC2A7;} .st11{fill:#D88260;} .st12{fill:#005045;} .st13{fill:url(#SVGID_00000089538405914234303070000004201113719054267520_-xm9IjkcPt5);} .st14{fill:url(#SVGID_00000096060631267039118210000015169055469559234701_-xm9IjkcPt5);} .st15{fill:url(#SVGID_00000148643652545516778270000010645303954050203523_-xm9IjkcPt5);} .st16{fill:url(#SVGID_00000043457418347507170080000018308542818524905346_-xm9IjkcPt5);} .st17{fill:url(#SVGID_00000043440937518466401250000012067928655284328586_-xm9IjkcPt5);} .st18{fill:#FEF1E0;} .st19{fill:url(#SVGID_00000104703269278365404530000009791778028621374142_-xm9IjkcPt5);}
 .st18{fill:#FEF1E0;}
 .st12{fill:#005045;}
 .st11{fill:#D88260;}
 .st10{fill:#FFC2A7;}
 .st3{fill:#FFFFFF;}
 .st1{fill:#FED490;}
 .st0{fill:#000111;}</style><g id="box"><rect class="st0" x="293.4" y="177" width="5.3" height="14.7" fill="#000111"></rect><rect class="st0" x="302.1" y="177" width="5.3" height="14.7" fill="#000111"></rect><rect class="st0" x="310.7" y="177" width="5.3" height="14.7" fill="#000111"></rect><rect class="st0" x="425" y="177" width="5.3" height="14.7" fill="#000111"></rect><rect class="st0" x="433.6" y="177" width="5.3" height="14.7" fill="#000111"></rect><rect class="st0" x="442.3" y="177" width="5.3" height="14.7" fill="#000111"></rect><rect class="st1" x="293.4" y="177" width="5.3" height="5.6" fill="#FED490"></rect><rect class="st1" x="302.1" y="177" width="5.3" height="5.6" fill="#FED490"></rect><rect class="st1" x="310.7" y="177" width="5.3" height="5.6" fill="#FED490"></rect><rect class="st1" x="425" y="177" width="5.3" height="5.6" fill="#FED490"></rect><rect class="st1" x="433.6" y="177" width="5.3" height="5.6" fill="#FED490"></rect><rect class="st1" x="442.3" y="177" width="5.3" height="5.6" fill="#FED490"></rect><polygon class="st0" points="456.9,187.9 423.6,197.1 293.3,197.1 293.3,233.1 284.9,235.4 293.3,244.5 465.2,244.5 465.2,197.1 	
		" fill="#000111"></polygon><linearGradient id="SVGID_1_-xm9IjkcPt5" gradientUnits="userSpaceOnUse" x1="229.7282" y1="338.9848" x2="527.5682" y2="236.4148" gradientTransform="matrix(1 0 0 -1 0 502)"><stop offset="0" style="stop-color: rgb(243, 131, 116);"></stop><stop offset="1" style="stop-color: rgb(198, 66, 52);"></stop></linearGradient><rect class="st2" x="284.9" y="187.9" width="171.9" height="47.5"></rect><circle class="st3" cx="296.9" cy="198.6" r="4.4" fill="#FFFFFF"></circle><circle class="st1" cx="309" cy="198.6" r="4.4" fill="#FED490"></circle><circle class="st3" cx="321.1" cy="198.6" r="4.4" fill="#FFFFFF"></circle><path class="st3" d="M448.2,201.6H335.7c-0.6-0.1-1-0.6-1-1.2c0-0.5,0.5-0.9,1-1h112.5c0.6-0.1,1.1,0.4,1.2,1s-0.4,1.1-1,1.2
		C448.4,201.7,448.3,201.7,448.2,201.6z" fill="#FFFFFF"></path><path class="st3" d="M448.2,212.5H335.7c-0.6,0-1.1-0.5-1.1-1.1c0-0.6,0.5-1.1,1.1-1.1h112.5c0.6,0,1.1,0.5,1.1,1.1
		C449.3,212,448.8,212.5,448.2,212.5C448.3,212.5,448.3,212.5,448.2,212.5z" fill="#FFFFFF"></path><path class="st3" d="M448.2,223.4H335.7c-0.6-0.1-1-0.6-1-1.2c0-0.5,0.5-0.9,1-1h112.5c0.6-0.1,1.1,0.4,1.2,1s-0.4,1.1-1,1.2
		C448.4,223.4,448.3,223.4,448.2,223.4z" fill="#FFFFFF"></path><rect class="st0" x="293.4" y="240" width="5.3" height="14.7" fill="#000111"></rect><rect class="st0" x="302.1" y="240" width="5.3" height="14.7" fill="#000111"></rect><rect class="st0" x="310.7" y="240" width="5.3" height="14.7" fill="#000111"></rect><rect class="st0" x="425" y="240" width="5.3" height="14.7" fill="#000111"></rect><rect class="st0" x="433.6" y="240" width="5.3" height="14.7" fill="#000111"></rect><rect class="st0" x="442.3" y="240" width="5.3" height="14.7" fill="#000111"></rect><rect class="st1" x="293.4" y="240" width="5.3" height="5.6" fill="#FED490"></rect><rect class="st1" x="302.1" y="240" width="5.3" height="5.6" fill="#FED490"></rect><rect class="st1" x="310.7" y="240" width="5.3" height="5.6" fill="#FED490"></rect><rect class="st1" x="425" y="240" width="5.3" height="5.6" fill="#FED490"></rect><rect class="st1" x="433.6" y="240" width="5.3" height="5.6" fill="#FED490"></rect><rect class="st1" x="442.3" y="240" width="5.3" height="5.6" fill="#FED490"></rect><polygon class="st0" points="456.9,250.8 423.6,260 293.3,260 293.3,296 284.9,298.3 293.3,307.5 465.2,307.5 465.2,260 	" fill="#000111"></polygon><rect class="st1" x="284.9" y="250.8" width="171.9" height="47.5" fill="#FED490"></rect><circle class="st3" cx="296.9" cy="261.6" r="4.4" fill="#FFFFFF"></circle><linearGradient id="SVGID_00000013892061075156361650000009789474247384719544_-xm9IjkcPt5" gradientUnits="userSpaceOnUse" x1="291.3438" y1="262.4131" x2="317.0438" y2="230.3531" gradientTransform="matrix(1 0 0 -1 0 502)"><stop offset="0" style="stop-color: rgb(243, 131, 116);"></stop><stop offset="1" style="stop-color: rgb(198, 66, 52);"></stop></linearGradient><circle cx="309" cy="261.6" r="4.4" style="fill: url(&quot;#SVGID_00000013892061075156361650000009789474247384719544_-xm9IjkcPt5&quot;);"></circle><circle class="st3" cx="321.1" cy="261.6" r="4.4" fill="#FFFFFF"></circle><path class="st3" d="M448.2,264.6H335.7c-0.6-0.1-1-0.6-1-1.2c0-0.5,0.5-0.9,1-1h112.5c0.6-0.1,1.1,0.4,1.2,1
		c0.1,0.6-0.4,1.1-1,1.2C448.4,264.6,448.3,264.6,448.2,264.6z" fill="#FFFFFF"></path><path class="st3" d="M448.2,275.5H335.7c-0.6-0.1-1-0.6-1-1.2c0-0.5,0.5-0.9,1-1h112.5c0.6-0.1,1.1,0.4,1.2,1
		c0.1,0.6-0.4,1.1-1,1.2C448.4,275.5,448.3,275.5,448.2,275.5z" fill="#FFFFFF"></path><path class="st3" d="M448.2,286.3H335.7c-0.6,0-1.1-0.5-1.1-1.1s0.5-1.1,1.1-1.1h112.5c0.6,0,1.1,0.5,1.1,1.1
		S448.8,286.3,448.2,286.3z" fill="#FFFFFF"></path><rect class="st0" x="293.4" y="302.9" width="5.3" height="14.7" fill="#000111"></rect><rect class="st0" x="302.1" y="302.9" width="5.3" height="14.7" fill="#000111"></rect><rect class="st0" x="310.7" y="302.9" width="5.3" height="14.7" fill="#000111"></rect><rect class="st0" x="425" y="302.9" width="5.3" height="14.7" fill="#000111"></rect><rect class="st0" x="433.6" y="302.9" width="5.3" height="14.7" fill="#000111"></rect><rect class="st0" x="442.3" y="302.9" width="5.3" height="14.7" fill="#000111"></rect><rect class="st1" x="293.4" y="302.9" width="5.3" height="5.6" fill="#FED490"></rect><rect class="st1" x="302.1" y="302.9" width="5.3" height="5.6" fill="#FED490"></rect><rect class="st1" x="310.7" y="302.9" width="5.3" height="5.6" fill="#FED490"></rect><rect class="st1" x="425" y="302.9" width="5.3" height="5.6" fill="#FED490"></rect><rect class="st1" x="433.6" y="302.9" width="5.3" height="5.6" fill="#FED490"></rect><rect class="st1" x="442.3" y="302.9" width="5.3" height="5.6" fill="#FED490"></rect><polygon class="st0" points="456.9,313.8 423.6,323 293.3,323 293.3,359 284.9,361.3 293.3,370.5 465.2,370.5 465.2,323 	" fill="#000111"></polygon><linearGradient id="SVGID_00000022541119482200731560000012924034919449701248_-xm9IjkcPt5" gradientUnits="userSpaceOnUse" x1="229.7282" y1="213.0748" x2="527.5682" y2="110.5048" gradientTransform="matrix(1 0 0 -1 0 502)"><stop offset="0" style="stop-color: rgb(243, 131, 116);"></stop><stop offset="1" style="stop-color: rgb(198, 66, 52);"></stop></linearGradient><rect x="284.9" y="313.8" width="171.9" height="47.5" style="fill: url(&quot;#SVGID_00000022541119482200731560000012924034919449701248_-xm9IjkcPt5&quot;);"></rect><circle class="st3" cx="296.9" cy="324.6" r="4.4" fill="#FFFFFF"></circle><circle class="st1" cx="309" cy="324.6" r="4.4" fill="#FED490"></circle><circle class="st3" cx="321.1" cy="324.6" r="4.4" fill="#FFFFFF"></circle><path class="st3" d="M448.2,327.6H335.7c-0.6-0.1-1-0.6-1-1.2c0-0.5,0.5-0.9,1-1h112.5c0.6-0.1,1.1,0.4,1.2,1
		c0.1,0.6-0.4,1.1-1,1.2C448.4,327.6,448.3,327.6,448.2,327.6z" fill="#FFFFFF"></path><path class="st3" d="M448.2,338.4H335.7c-0.6-0.1-1-0.6-1-1.2c0-0.5,0.5-0.9,1-1h112.5c0.6-0.1,1.1,0.4,1.2,1
		c0.1,0.6-0.4,1.1-1,1.2C448.4,338.4,448.3,338.4,448.2,338.4z" fill="#FFFFFF"></path><path class="st3" d="M448.2,349.3H335.7c-0.6-0.1-1-0.6-1-1.2c0-0.5,0.5-0.9,1-1h112.5c0.6-0.1,1.1,0.4,1.2,1
		c0.1,0.6-0.4,1.1-1,1.2C448.4,349.3,448.3,349.3,448.2,349.3z" fill="#FFFFFF"></path></g><g id="character"><g id="character-2"><linearGradient id="SVGID_00000019680249132073146350000012006013472681672595_-xm9IjkcPt5" gradientUnits="userSpaceOnUse" x1="40.3971" y1="322.1958" x2="171.3671" y2="161.4558" gradientTransform="matrix(1 0 0 -1 0 502)"><stop offset="0" style="stop-color: rgb(10, 107, 91);"></stop><stop offset="0.78" style="stop-color: rgb(0, 81, 70);"></stop><stop offset="0.91" style="stop-color: rgb(0, 80, 69);"></stop></linearGradient><polygon points="164.6,341.1 232.1,353.9 
			232.1,378.1 156.8,383.8 		" style="fill: url(&quot;#SVGID_00000019680249132073146350000012006013472681672595_-xm9IjkcPt5&quot;);"></polygon><linearGradient id="SVGID_00000114060141196032538910000001577354016345143970_-xm9IjkcPt5" gradientUnits="userSpaceOnUse" x1="261.539" y1="272.5474" x2="231.859" y2="169.2374" gradientTransform="matrix(1 0 0 -1 0 502)"><stop offset="0" style="stop-color: rgb(243, 131, 116);"></stop><stop offset="1" style="stop-color: rgb(198, 66, 52);"></stop></linearGradient><path d="M228.5,316.7l33.6,2l-11.3-36.9
			c-2.2-7.2-8.6-12.3-16.2-12.8c-3.6-0.2-7.3,0-10.9,0.5L228.5,316.7z" style="fill: url(&quot;#SVGID_00000114060141196032538910000001577354016345143970_-xm9IjkcPt5&quot;);"></path><linearGradient id="SVGID_00000129190770413274962150000000131711577029680289_-xm9IjkcPt5" gradientUnits="userSpaceOnUse" x1="218.9627" y1="284.7721" x2="189.2927" y2="181.4721" gradientTransform="matrix(1 0 0 -1 0 502)"><stop offset="0" style="stop-color: rgb(243, 131, 116);"></stop><stop offset="1" style="stop-color: rgb(198, 66, 52);"></stop></linearGradient><path d="M176.4,336.2l38.3-1.9
			c6.1-0.3,11.2-4.7,12.5-10.6l8.1-38c0,0,3.7-16.4-13.7-16.4l-45.9,0.6c0,0-15.1,1.6-15.2,19.4c-0.1,9.5-0.8,16.8-1.1,35.3
			C159.3,331.9,169.1,336.6,176.4,336.2z" style="fill: url(&quot;#SVGID_00000129190770413274962150000000131711577029680289_-xm9IjkcPt5&quot;);"></path><linearGradient id="SVGID_00000039815589293636094410000011553363791420071343_-xm9IjkcPt5" gradientUnits="userSpaceOnUse" x1="185.9473" y1="294.2636" x2="156.2673" y2="190.9537" gradientTransform="matrix(1 0 0 -1 0 502)"><stop offset="0" style="stop-color: rgb(243, 131, 116);"></stop><stop offset="1" style="stop-color: rgb(198, 66, 52);"></stop></linearGradient><path d="M160.4,314.8l-11.6-1.9l8.1-30.6
			c0,0,6.1-11.6,18.6-12.3L160.4,314.8z" style="fill: url(&quot;#SVGID_00000039815589293636094410000011553363791420071343_-xm9IjkcPt5&quot;);"></path><path class="st0" d="M214.6,225.8c0,0,17.4-9.4,2.9-16.4c-20.7-10.1-17.1,2.7-17.1,2.7s-4.3,1.4-11.2,3.8
			c-13.4,4.7-19.1,17-13.2,27.4L214.6,225.8z"></path><path class="st10" d="M176.2,246.2c1.5,6,5.4,11.1,10.9,14.1l0,0c10.8,6,24.4,2,30.4-8.8c6-10.8,2-24.4-8.8-30.4
			c-10.8-6-24.4-2-30.4,8.8C175.6,234.9,174.8,240.7,176.2,246.2L176.2,246.2z"></path><path class="st0" d="M224.4,244c-2.7,0-5.2-5.6-6.4-9.1l0,0c-1.2-3.8-2.4-10.4,0.5-11.4c1.3-0.4,2.6,0.4,4,2.5
			c1.3,2,2.3,4.2,3,6.5c1.2,3.8,2.4,10.4-0.5,11.4C224.8,244,224.6,244,224.4,244z M220,234.3c1.6,5,3.6,7.4,4.3,7.6
			c0.4-0.5,0.7-3.6-0.9-8.6s-3.6-7.4-4.3-7.6C218.7,226.2,218.4,229.3,220,234.3z"></path><ellipse class="st10" transform="matrix(1.902288e-02 -0.9998 0.9998 1.902288e-02 -23.3262 458.3979)" cx="221.9" cy="241.1" rx="3.1" ry="6.9"></ellipse><path class="st0" d="M176.2,246.2c1.5,6,5.4,11.1,10.9,14.1l0,0c3.9-3.3-1.9-10.4-1.9-10.4c-5.8,1-8.9-10.7-3-12.8
			s8.1,4.8,8.1,4.8c0.7-4.7,0.8-8.1,4.2-10.5c9,0,19.9-5.4,20-5.6c-8.2-9.2-22.3-10-31.6-1.8C176.8,229.5,174.2,238.1,176.2,246.2
			L176.2,246.2z"></path><path class="st11" d="M186.2,245.5C186,245.5,186.3,245.5,186.2,245.5h-0.5c0.2,0,0,0-0.1,0c-0.1,0-0.3-0.1-0.4-0.1
			c0.2,0.1,0,0-0.1,0l-0.2-0.1c-0.2-0.1,0,0-0.1,0l-0.1-0.1c-0.1-0.1-0.1-0.2-0.1-0.1c-0.1-0.1-0.1-0.1-0.1-0.2l-0.1-0.2
			c0.1,0.1,0,0,0,0l-0.1-0.2c0,0,0-0.3,0-0.1c0-0.2,0-0.3,0-0.5c0-0.2-0.1,0.2,0-0.1l0.1-0.2c0.1-0.3-0.1,0.1,0-0.1
			c0-0.1,0.1-0.2,0.1-0.2l0.1-0.2c-0.1,0.1,0,0,0.1-0.1l0.2-0.2c0.1-0.1,0,0,0.1,0s0.2-0.2,0.4-0.2c-0.1,0.1,0,0,0.1,0l0.2-0.1
			c0.1,0,0.1,0,0,0h0.3c0.6,0,1.1-0.5,1-1.1c0-0.1,0-0.2,0-0.2c-0.4-1.7-2.2-2.8-3.9-2.4c-1.2,0.3-2.2,1.3-2.4,2.5
			c-0.2,0.6,0.2,1.2,0.8,1.3s1.2-0.2,1.3-0.8c0,0,0.1-0.4,0.1-0.2s0.1-0.1,0.1-0.2c0,0,0-0.1,0.1-0.1c-0.1,0.1-0.1,0.1,0,0l0.2-0.2
			c-0.1,0.1,0.1,0,0.1-0.1l0.2-0.1c-0.2,0.1,0.1,0,0.1,0h0.2c-0.1,0-0.1,0,0,0s0.3,0,0.2,0s0.2,0.1,0.2,0.1c0.2,0.1-0.1-0.1,0.1,0
			l0.2,0.2c-0.2-0.1,0.1,0.1,0.1,0.1s0.2,0.2,0.1,0.1c0.1,0.1,0.1,0.2,0.1,0.2c0.1,0.1,0.1,0.1,0,0c0,0.1,0,0.1,0,0.2l1-1.4
			c-2.1,0-3.8,1.6-3.8,3.7c0,2.1,1.6,3.8,3.7,3.8c0.3,0,0.7,0,1-0.1c0.6-0.2,0.9-0.7,0.8-1.3c-0.2-0.6-0.8-0.9-1.3-0.8L186.2,245.5z
			"></path><ellipse class="st3" transform="matrix(0.8951 -0.4459 0.4459 0.8951 -83.8176 119.5667)" cx="212.2" cy="237.9" rx="2.8" ry="3.2"></ellipse><ellipse class="st12" transform="matrix(0.8951 -0.4459 0.4459 0.8951 -83.6342 119.9454)" cx="213.1" cy="237.7" rx="1.8" ry="2.1"></ellipse><path class="st0" d="M213.8,249.2c-1.7-0.1-3.2-0.8-4.4-2.1c-1.9-1.9-3.2-4.2-4-6.8c-1.9-6-0.6-11.5,2.9-12.6
			c1.8-0.6,3.8,0.1,5.6,1.9c3.7,3.9,5.4,9.2,4.6,14.5c-0.5,2.5-1.7,4.2-3.5,4.8C214.6,249.1,214.2,249.2,213.8,249.2z M209.5,229.7
			c-0.2,0-0.4,0-0.6,0.1c-2,0.6-3.1,4.8-1.4,9.9c0.6,2.2,1.8,4.2,3.4,5.9c1.2,1.2,2.5,1.7,3.5,1.4s1.7-1.5,2.1-3.2
			c0.6-4.6-0.9-9.2-4-12.6C211.7,230.4,210.6,229.9,209.5,229.7z"></path><path class="st11" d="M197.4,251.2c-0.3,0-0.5-0.1-0.7-0.3c-0.4-0.4-0.5-1.1-0.1-1.5c0,0,0,0,0,0c1.4-1.7,5.2-4.1,8.9-1.2
			c0.5,0.4,0.5,1,0.2,1.5s-1,0.5-1.5,0.2c-3-2.3-5.7,0.6-6,0.9C198,251.1,197.7,251.2,197.4,251.2z"></path><path class="st10" d="M143.3,393.5c1.3,5.1,1.6,10.3,0.9,15.5c0,0-91.1,32.2-76.6,8.3c4.4-5.4,8.4-11.5,9.8-24.8
			C100,392.9,126.6,393.1,143.3,393.5z"></path><path class="st0" d="M144,408.6l0.7,34.9l-95.6-1.3l18.7-25.4c0,0,11.4,10.5,32,3.2C125.9,410.8,140.2,400.5,144,408.6z"></path><linearGradient id="SVGID_00000012434838704511968700000010144262187025709995_-xm9IjkcPt5" gradientUnits="userSpaceOnUse" x1="-11467.5293" y1="4878.7583" x2="-11492.3291" y2="4802.3579" gradientTransform="matrix(-0.29 -0.96 0.96 -0.29 -1009.99 -14036.2002)"><stop offset="0" style="stop-color: rgb(10, 107, 91);"></stop><stop offset="0.78" style="stop-color: rgb(0, 81, 70);"></stop><stop offset="0.91" style="stop-color: rgb(0, 80, 69);"></stop></linearGradient><path d="M160.2,398.6l8.8-75.8
			c18.5-76.1-90.6-95.2-92.1-12.6l0.4,84L160.2,398.6z" style="fill: url(&quot;#SVGID_00000012434838704511968700000010144262187025709995_-xm9IjkcPt5&quot;);"></path><path class="st3" d="M135.3,383.1L135.3,383.1c-0.6,0-1-0.5-1-1.1l4.4-122.5c0-0.6,0.4-1.1,1-1.1c0.6,0,1.1,0.4,1.1,1
			c0,0.1,0,0.1,0,0.2l-4.4,122.5C136.4,382.7,135.9,383.1,135.3,383.1C135.3,383.1,135.3,383.1,135.3,383.1z"></path><linearGradient id="SVGID_00000147180184527125974830000012352977423513452928_-xm9IjkcPt5" gradientUnits="userSpaceOnUse" x1="50.1051" y1="330.1104" x2="181.0851" y2="169.3704" gradientTransform="matrix(1 0 0 -1 0 502)"><stop offset="0" style="stop-color: rgb(10, 107, 91);"></stop><stop offset="0.78" style="stop-color: rgb(0, 81, 70);"></stop><stop offset="0.91" style="stop-color: rgb(0, 80, 69);"></stop></linearGradient><path d="M146.4,376.8L262,344.5
			c79.5-29.1,113.2,85.7,24.7,97.3l-140.5,1.5L146.4,376.8z" style="fill: url(&quot;#SVGID_00000147180184527125974830000012352977423513452928_-xm9IjkcPt5&quot;);"></path><path class="st10" d="M146.1,443.3c-5.3,0.2-10.7,0.1-15.9-0.5c0,0-32.2-91.1-8.3-76.6c5.4,4.5,11.5,8.4,24.8,9.8
			C146.3,398.6,146.5,426.6,146.1,443.3z"></path><path class="st0" d="M130.5,442.7l-35.6-0.3l2-94.6l25.4,18.6c0,0-10.4,11.4-3.2,32C128.3,424.5,138.6,438.9,130.5,442.7z"></path><path class="st3" d="M167.4,442.2c-0.6,0-1.1-0.5-1.1-1.1c0,0,0,0,0,0v-67.6c0-0.6,0.5-1.1,1.1-1.1c0.6,0,1.1,0.5,1.1,1.1
			c0,0,0,0,0,0v67.6C168.5,441.7,168,442.2,167.4,442.2C167.4,442.2,167.4,442.2,167.4,442.2z"></path><path class="st3" d="M167.8,414.2c-0.6-0.1-1-0.6-1-1.2c0-0.5,0.5-0.9,1-1h135c5.5-0.2,10.9-1.2,16.1-2.9
			c10.8-3.6,17-9.8,18.5-18.3c0.1-0.6,0.6-1,1.2-0.9c0,0,0,0,0,0c0.6,0.1,1,0.7,0.9,1.2c-3.9,22.3-36.4,23-36.7,23L167.8,414.2z"></path><path class="st0" d="M146.6,377.1c-0.6,0-1.1-0.5-1.1-1.1c0-0.5,0.3-0.9,0.8-1l80.6-21.1c0.6-0.1,1.2,0.2,1.3,0.8
			c0.2,0.6-0.2,1.2-0.8,1.3c0,0,0,0,0,0l-80.6,21.1C146.8,377.1,146.7,377.1,146.6,377.1z"></path><path class="st0" d="M163.5,372.7h-0.1c-0.6-0.1-1-0.6-0.9-1.2c0,0,0,0,0,0l3.7-29.3c0.1-0.6,0.7-1,1.3-0.9
			c0.5,0.1,0.9,0.6,0.9,1.1l-3.8,29.3C164.5,372.3,164,372.7,163.5,372.7z"></path><linearGradient id="SVGID_00000029737066786460749090000010521933121952618383_-xm9IjkcPt5" gradientUnits="userSpaceOnUse" x1="253.6277" y1="274.8135" x2="223.9577" y2="171.5135" gradientTransform="matrix(1 0 0 -1 0 502)"><stop offset="0" style="stop-color: rgb(243, 131, 116);"></stop><stop offset="1" style="stop-color: rgb(198, 66, 52);"></stop></linearGradient><path d="M159.6,352.1l51,48.9
			c11.6,11.9,78,27.6,65.4-37.5l-13.9-44.8l-100.2-13.8L159.6,352.1z" style="fill: url(&quot;#SVGID_00000029737066786460749090000010521933121952618383_-xm9IjkcPt5&quot;);"></path><path class="st1" d="M253.3,345.3c-12.7,0-30.8-2.6-45.2-15c-9.9-8.4-9.5-16.5-7.4-21.8c-5.1-0.6-9.5-2-12.1-4.5
			c-2.1-1.7-3.1-4.4-2.7-7c2-12.7,36.1-28,37.5-28.6c0.6-0.2,1.2,0,1.4,0.6s0,1.2-0.6,1.4l0,0c-6,2.8-11.9,5.9-17.6,9.3
			c-11.4,6.9-17.9,13.1-18.6,17.7c-0.3,1.9,0.5,3.8,2,5c2.4,2.2,6.6,3.5,11.6,4c0.2-0.4,0.4-0.8,0.7-1.2c8-12.8,31.1-20.7,44.1-15
			c3,1.3,4.5,2.9,4.5,4.8c0,2.4-2.6,4.8-7.7,7.1c-9.2,4.1-27,7.6-40.3,6.6c-3,6.8-0.8,13.6,6.6,19.9c24.1,20.6,58.8,13.2,59.1,13.1
			c0.6-0.1,1.1,0.3,1.2,0.9c0.1,0.5-0.2,1-0.7,1.2C263.9,344.8,258.6,345.3,253.3,345.3z M204,306.7c12.4,0.8,28.9-2.3,38.4-6.5
			c6-2.6,6.4-4.6,6.4-5.1c0-0.9-1.2-1.9-3.2-2.8c-12.2-5.3-33.9,2.2-41.4,14.2L204,306.7z"></path><path class="st0" d="M217.5,313.9h-0.2l-46.9-6.9c-0.6-0.1-0.9-0.7-0.8-1.3c0.1-0.5,0.6-0.9,1.1-0.8l45.4,6.7l-3.6-23.4
			c-0.1-0.6,0.3-1.1,0.9-1.2c0.6-0.1,1.1,0.3,1.2,0.9l3.8,24.9c0.1,0.6-0.3,1.1-0.9,1.2C217.6,313.9,217.6,313.9,217.5,313.9z"></path><path class="st0" d="M238.2,319.2c-0.2,0-0.4-0.1-0.6-0.2c-0.1-0.1-10.6-6.9-19.9-5.1c-0.6,0.1-1.1-0.3-1.3-0.8
			c-0.1-0.6,0.3-1.1,0.8-1.3c10.2-2,21.1,5.1,21.5,5.5c0.5,0.3,0.6,1,0.3,1.5c0,0,0,0,0,0C238.9,319.1,238.6,319.2,238.2,319.2z"></path><path class="st0" d="M167.6,287.9h-0.2c-0.6-0.1-1-0.6-0.9-1.2l1.7-11.2c0.1-0.6,0.6-1,1.2-0.9c0.6,0.1,1,0.6,0.9,1.2l-1.7,11.3
			C168.6,287.5,168.2,287.9,167.6,287.9z"></path></g><g id="laptop"><path class="st0" d="M154.9,341.5H32.1l-12.1-68.2c-0.7-4,1.9-7.8,5.9-8.5c0.4-0.1,0.9-0.1,1.3-0.1h107.9c3.5,0,6.6,2.5,7.2,6
			L154.9,341.5z"></path><path class="st0" d="M154.9,342.6H32.1c-0.5,0-1-0.4-1-0.9l-12.1-68.2c-0.8-4.6,2.2-8.9,6.8-9.8c0.5-0.1,1-0.1,1.5-0.1h107.9
			c4.1,0,7.6,2.9,8.3,6.9l12.6,70.8c0.1,0.6-0.3,1.1-0.9,1.3C155,342.6,154.9,342.6,154.9,342.6z M33,340.5h120.6L141.2,271
			c-0.5-3-3.1-5.2-6.2-5.2H27.2c-3.5,0-6.3,2.8-6.3,6.3c0,0.3,0,0.7,0.1,1L33,340.5z"></path><path class="st3" d="M146.1,341.5H23.3l-12.1-68.2c-0.7-4,2-7.8,5.9-8.5c0.4-0.1,0.9-0.1,1.3-0.1h107.9c3.5,0,6.6,2.5,7.2,6
			L146.1,341.5z"></path><path class="st0" d="M146.1,342.6H23.3c-0.5,0-1-0.4-1.1-0.9l-12.1-68.2c-0.8-4.6,2.2-8.9,6.8-9.8c0.5-0.1,1-0.1,1.5-0.1h107.9
			c4.1,0,7.6,2.9,8.3,6.9l12.6,70.8c0.1,0.3,0,0.6-0.2,0.9C146.8,342.5,146.5,342.6,146.1,342.6z M24.2,340.5h120.6L132.5,271
			c-0.5-3-3.1-5.2-6.2-5.2H18.4c-3.5,0-6.3,2.8-6.3,6.2c0,0.4,0,0.8,0.1,1.1L24.2,340.5z"></path><linearGradient id="SVGID_00000018929185966688646550000007333547766092695225_-xm9IjkcPt5" gradientUnits="userSpaceOnUse" x1="-1913.3213" y1="243.8398" x2="-1896.8813" y2="185.4398" gradientTransform="matrix(-1.0045 -3.219528e-03 3.219528e-03 -1.0045 -1838.3726 504.5612)"><stop offset="0" style="stop-color: rgb(243, 131, 116);"></stop><stop offset="1" style="stop-color: rgb(198, 66, 52);"></stop></linearGradient><path d="M70.8,294.3c5.5-0.9,10.9,3.7,12,10.3
			s-2.5,12.7-8,13.7s-10.9-3.7-12-10.3C61.6,301.4,65.2,295.3,70.8,294.3z" style="fill: url(&quot;#SVGID_00000018929185966688646550000007333547766092695225_-xm9IjkcPt5&quot;);"></path><linearGradient id="SVGID_00000045603569075334348090000014847459791926826661_-xm9IjkcPt5" gradientUnits="userSpaceOnUse" x1="56.995" y1="235.8642" x2="65.095" y2="207.0942" gradientTransform="matrix(1 0 0 -1 0 502)"><stop offset="0" style="stop-color: rgb(243, 131, 116);"></stop><stop offset="1" style="stop-color: rgb(198, 66, 52);"></stop></linearGradient><path d="M69.8,290.5c0,0-9.1-11.5-13-5.9
			C53.5,289.2,73.3,295.5,69.8,290.5z" style="fill: url(&quot;#SVGID_00000045603569075334348090000014847459791926826661_-xm9IjkcPt5&quot;);"></path><path class="st0" d="M143.7,341.5l-10.4-66.7c-1.6-9.7-6.6-9.1-6.8-9.1l-0.4-2.1c1.6-0.2,3.1,0.3,4.4,1.2c2.4,1.7,4.1,5,4.9,9.6
			l10.4,66.7L143.7,341.5z"></path></g><path class="st10" d="M161.9,304.9c0,0-15.8-6.2-21.2-5.4s-12.5,1.5-17.3,2.9s-5,8.1,0.8,9.3c0,0,5.6,1,6.6,1.9s-6.7,3.9-10.2,4.6
		s-11.5-5.8-15.1-6.3s-7.2,2.3-6.4,5c0,0-5.7,0.5-7.5,5.4c-1.1,2.7-0.3,5.8,2.1,7.6l12.4,7.9l-6.8,3.8c-4.5,2.4-3.2,6.8,1.9,6.4
		c0,0,6.7,0,8.9,0.2s12.7,5,20.4,5.2s29.1-1.3,29.1-1.3L161.9,304.9z"></path><path class="st11" d="M122,350.8c-0.2,0-0.3,0-0.5-0.1c-7.5-3.6-15.2-10.7-15.5-11c-0.4-0.4-0.4-1.1,0.1-1.5c0.4-0.3,1-0.4,1.4,0
		c0.1,0.1,7.8,7.2,15,10.7c0.5,0.3,0.8,0.9,0.5,1.4C122.8,350.6,122.4,350.8,122,350.8L122,350.8z"></path><path class="st11" d="M126.5,334.5L126.5,334.5c-0.3,0-8.3-0.5-13.1-2.9s-14.6-13.4-15-13.9c-0.4-0.4-0.3-1.1,0.1-1.5
		c0.4-0.4,1.1-0.4,1.5,0.1c0.1,0.1,10,11.1,14.4,13.4s12.1,2.7,12.2,2.7c0.6,0.1,1,0.6,0.9,1.2C127.4,334.1,127,334.5,126.5,334.5
		L126.5,334.5z"></path><path class="st11" d="M140.2,316.7c-0.3,0-0.5-0.1-0.7-0.3c-2.9-2.7-8.4-1.7-8.5-1.7c-0.6,0.1-1.1-0.3-1.3-0.9
		c-0.1-0.6,0.3-1.1,0.9-1.3c0.3,0,6.6-1.2,10.3,2.2c0.4,0.4,0.5,1.1,0.1,1.5C140.8,316.5,140.5,316.7,140.2,316.7z"></path></g><g id="cloud_2"><path class="st18" d="M451,136.3H325.4h-36.5c0-31.6,26.7-31.9,26.7-31.9s9.8-52.3,47.4-47.7c6.1,0.6,11.9,2.6,17.1,5.7
		c2.4,1.5,4.7,3.3,6.7,5.3c0.4,0.4,0.7,0.7,1,1.1s0.8,0.9,1.1,1.3l0,0c0.7,0.8,1.3,1.7,1.9,2.6s1,1.5,1.4,2.2
		c2.4,4.2,4.2,8.8,5.2,13.5v0.1c1,4.1,1.4,8.3,1.4,12.6c1.9-1.7,3.9-3.3,6-4.8c2.2-1.6,4.5-3,6.9-4.3c5.7-3,12.8-5.5,19.7-4.6
		c3.9,0.5,7.5,2,10.6,4.4C460.4,106.4,451,136.3,451,136.3z"></path><path class="st0" d="M461.1,137.2H279.5c-0.6,0-1.1-0.5-1.1-1.1c0-0.6,0.5-1.1,1.1-1.1c0,0,0,0,0,0h181.6c0.6,0,1.1,0.5,1.1,1.1
		C462.1,136.8,461.7,137.2,461.1,137.2C461.1,137.2,461.1,137.2,461.1,137.2z"></path><polygon class="st3" points="350.7,136.2 360.5,136.2 360.5,154.6 370.8,154.6 370.8,154.6 371.2,154.6 371.5,154.6 371.5,154.6 
		381.8,154.6 381.8,136.2 391.6,136.2 371.2,119.4 	"></polygon><path class="st0" d="M370.8,155.7h-10.3c-0.6,0-1.1-0.5-1.1-1.1v0v-17.4h-8.7c-0.6,0-1.1-0.5-1.1-1.1c0-0.3,0.1-0.6,0.4-0.8
		l20.5-16.8c0.4-0.3,1-0.3,1.4,0l20.5,16.8c0.5,0.4,0.5,1,0.2,1.5c-0.2,0.3-0.5,0.4-0.8,0.4h-8.7v17.3c0,0.6-0.5,1.1-1,1.1
		c0,0,0,0,0,0L370.8,155.7z M361.6,153.5h9.9h9.2v-17.3c0-0.6,0.5-1.1,1.1-1.1l0,0h6.8l-17.5-14.3l-17.4,14.3h6.8
		c0.6,0,1.1,0.5,1.1,1.1c0,0,0,0,0,0L361.6,153.5z"></path><path class="st0" d="M405.3,163.6c-0.3,0-0.5-0.1-0.7-0.3c-2.2-1.9-13.4-11.7-12.3-16.6c0.3-1.2,1.3-2.2,2.5-2.4
		c7.9-2.2,16.4,5.1,16.8,5.4c0.4,0.4,0.5,1.1,0.1,1.5c0,0,0,0,0,0c-0.4,0.4-1.1,0.5-1.5,0.1c-0.1-0.1-8-6.9-14.8-5
		c-0.9,0.3-1,0.6-1,0.8c-0.6,2.7,6.4,10.1,11.6,14.5c0.5,0.4,0.5,1.1,0.1,1.5c0,0,0,0,0,0C405.9,163.4,405.6,163.6,405.3,163.6z"></path><path class="st0" d="M394.7,166.5c-0.5,0-1-0.4-1.1-0.9l-1.3-7.8c-0.1-0.6,0.3-1.1,0.9-1.2c0.6-0.1,1.1,0.3,1.2,0.9l0,0l1.3,7.8
		c0.1,0.6-0.3,1.1-0.9,1.2c0,0,0,0,0,0L394.7,166.5z"></path><path class="st0" d="M345.3,156.6c-0.6,0-1.1-0.5-1.1-1.1c0-0.3,0.1-0.5,0.3-0.7c2-2.2,5.1-6.3,4.9-8.2c0-0.2-0.1-0.4-0.3-0.5
		c-2-1.4-6.9,0.7-8.4,1.6c-0.5,0.3-1.2,0.1-1.5-0.4c-0.3-0.5-0.1-1.2,0.4-1.5c0,0,0,0,0,0c0.7-0.4,7.2-4,10.7-1.5
		c0.7,0.5,1.1,1.2,1.2,2c0.4,3.5-4.9,9.3-5.5,9.9C345.9,156.4,345.6,156.6,345.3,156.6z"></path></g><g id="cloud_1"><path class="st3" d="M240.5,177.6H128.8H96.3c0-28.1,23.8-28.4,23.8-28.4s8.7-46.5,42.2-42.4c5.4,0.6,10.6,2.3,15.2,5.1
		c2.2,1.3,4.2,2.9,5.9,4.8c0.3,0.3,0.6,0.7,0.9,1s0.7,0.8,1,1.2l0,0c0.6,0.8,1.2,1.5,1.7,2.3s0.9,1.3,1.2,2c2.1,3.7,3.7,7.8,4.6,12
		c0,0,0,0.1,0,0.1c0.9,3.7,1.3,7.4,1.2,11.2c1.7-1.5,3.4-3,5.3-4.3c2-1.4,4-2.7,6.1-3.8c5.1-2.7,11.4-4.9,17.5-4.1
		c3.4,0.5,6.7,1.8,9.4,4C248.8,151,240.5,177.6,240.5,177.6z"></path><path class="st0" d="M240.5,178.7L240.5,178.7H96.3c-0.6,0-1.1-0.5-1.1-1.1l0,0c0-22.3,15.2-28.9,24-29.4
		c1.4-6.4,11.6-46.3,43.2-42.4c5.5,0.6,10.9,2.4,15.6,5.2c2.2,1.4,4.3,3,6.1,4.9c0.3,0.3,0.6,0.7,0.9,1s0.7,0.8,1,1.2l0.1,0.1
		c0.6,0.7,1.2,1.5,1.7,2.3c0.4,0.7,0.9,1.3,1.3,2c2.2,3.8,3.8,8,4.8,12.3v0.1c0.7,3,1.1,6,1.2,9.1c0.9-0.8,2.1-1.7,3.6-2.8
		c2-1.4,4.1-2.7,6.3-3.9c6.6-3.5,12.7-4.9,18.2-4.2c3.6,0.5,7,1.9,9.9,4.2c16.8,13.1,8.7,39.4,8.4,40.6
		C241.4,178.4,241,178.7,240.5,178.7z M97.3,176.5h142.3c1.2-4.4,6.2-26.5-7.9-37.5c-2.5-2-5.6-3.3-8.8-3.7
		c-5-0.7-10.7,0.7-16.9,3.9c-2.1,1.1-4.1,2.4-6,3.8c-1.8,1.3-3.5,2.7-5.2,4.2c-0.4,0.4-1.1,0.4-1.5,0c-0.2-0.2-0.3-0.5-0.3-0.8
		c0-3.7-0.4-7.3-1.2-10.9c-0.9-4.2-2.4-8.1-4.6-11.8c-0.4-0.7-0.8-1.3-1.2-1.9c-0.5-0.8-1.1-1.5-1.6-2.2l0,0c-0.3-0.4-0.6-0.8-1-1.2
		s-0.6-0.6-0.9-0.9c-1.7-1.8-3.6-3.3-5.7-4.6c-4.5-2.7-9.6-4.4-14.8-4.9c-32.1-3.9-40.9,41.1-41,41.6c-0.1,0.5-0.5,0.8-1,0.9
		C119.1,150.3,97.9,150.9,97.3,176.5z"></path><linearGradient id="SVGID_00000094607552544879961570000008947865788128179646_-xm9IjkcPt5" gradientUnits="userSpaceOnUse" x1="135.5832" y1="348.1332" x2="169.5332" y2="313.3932" gradientTransform="matrix(1 0 0 -1 0 502)"><stop offset="0" style="stop-color: rgb(243, 131, 116);"></stop><stop offset="1" style="stop-color: rgb(198, 66, 52);"></stop></linearGradient><polygon points="184,186.7 174.2,186.7 
		174.2,168.2 163.9,168.2 163.9,168.2 163.5,168.2 163.2,168.2 163.2,168.2 152.9,168.2 152.9,186.7 143.1,186.7 163.5,203.4 	" style="fill: url(&quot;#SVGID_00000094607552544879961570000008947865788128179646_-xm9IjkcPt5&quot;);"></polygon><path class="st0" d="M181,169.3h-34.9c-0.6-0.1-1-0.6-1-1.2c0-0.5,0.5-0.9,1-1H181c0.6,0.1,1,0.6,1,1.2
		C181.9,168.9,181.5,169.3,181,169.3z"></path><path class="st0" d="M183.3,197.7c-0.6,0-1.1-0.5-1.1-1c0-0.4,0.3-0.8,0.7-1l8.7-3.8c0.6-0.2,1.2,0,1.4,0.6c0.2,0.6,0,1.2-0.6,1.4
		l0,0l-8.7,3.8C183.6,197.7,183.5,197.7,183.3,197.7z"></path><path class="st0" d="M190.1,203h-0.1l-5.5-0.5c-0.6-0.1-1-0.7-0.9-1.3c0.1-0.5,0.6-0.9,1.1-0.9l5.5,0.6c0.6,0,1,0.5,1,1.1
		S190.6,203,190.1,203L190.1,203z"></path><path class="st0" d="M143.4,197.5c-0.1,0-0.1,0-0.2,0l-6-1.3c-0.6-0.1-1-0.7-0.8-1.3c0,0,0,0,0,0c0.1-0.6,0.7-0.9,1.3-0.8l6,1.3
		c0.6,0.1,0.9,0.7,0.8,1.3C144.4,197.2,143.9,197.6,143.4,197.5L143.4,197.5z"></path></g><g id="light"><path class="st1" d="M478.7,160.8c-8.5,0.6-15.3,7.3-16.1,15.8c-0.9-8.5-7.7-15.1-16.2-15.7c8.5-0.6,15.3-7.3,16.1-15.8
		C463.4,153.5,470.2,160.2,478.7,160.8z"></path><path class="st1" d="M490,141.4c-4.5,0.3-8.2,3.9-8.6,8.4c-0.5-4.5-4.1-8.1-8.7-8.4c4.5-0.3,8.2-3.9,8.7-8.4
		C481.8,137.5,485.5,141,490,141.4z"></path><path class="st1" d="M155.9,218.2c-4.5,0.3-8.2,3.9-8.6,8.4c-0.5-4.5-4.1-8.1-8.7-8.4c4.5-0.3,8.2-3.9,8.7-8.4
		C147.7,214.3,151.4,217.9,155.9,218.2L155.9,218.2z"></path></g></svg>