<svg transform="scale(1)" version="1.1" id="EHiB82ksWp" xmlns="http://www.w3.org/2000/svg" xmlns:xlink="http://www.w3.org/1999/xlink" x="0px" y="0px" viewBox="0 0 500 500" xml:space="preserve" class="pbimage_pbimage__wrapper__image__0LEis false"><title>Web Development 2</title><style type="text/css"> .st0{fill:#000111;} .st1{fill:#FED490;} .st2{fill:#FFFFFF;} .st3{fill:#FFC2A7;} .st4{fill:url(#SVGID_1_-EHiB82ksWp);} .st5{fill:url(#SVGID_00000108291636523735057690000014357885239365156504_-EHiB82ksWp);} .st6{fill:url(#SVGID_00000153671266802618471200000010616522761473286297_-EHiB82ksWp);} .st7{fill:url(#SVGID_00000069383554583128307580000017745196503152078234_-EHiB82ksWp);} .st8{fill:url(#SVGID_00000072254403342665985210000005232488737739315130_-EHiB82ksWp);} .st9{fill:url(#SVGID_00000120521484235799031930000008258868938951085202_-EHiB82ksWp);} .st10{fill:url(#SVGID_00000075134803894051860550000018234833295758296759_-EHiB82ksWp);} .st11{fill:url(#SVGID_00000067931575233129454060000005404822965790911904_-EHiB82ksWp);} .st12{fill:#D88260;} .st13{fill:#005045;} .st14{fill:url(#SVGID_00000132779641783950429820000002914533005990871441_-EHiB82ksWp);} .st15{fill:url(#SVGID_00000015343238219622070860000003511945982366013079_-EHiB82ksWp);} .st16{fill:url(#SVGID_00000180368671541201113840000017817133996036198281_-EHiB82ksWp);} .st17{fill:url(#SVGID_00000054255768103232190610000015251485999148134280_-EHiB82ksWp);} .st18{fill:url(#SVGID_00000075877868345876405780000010390435437440102304_-EHiB82ksWp);} .st19{fill:url(#SVGID_00000008860401579640496350000009535017747699586201_-EHiB82ksWp);}
 .st13{fill:#005045;}
 .st12{fill:#D88260;}
 .st3{fill:#FFC2A7;}
 .st2{fill:#FFFFFF;}
 .st1{fill:#FED490;}
 .st0{fill:#000111;}</style><g id="pop_up"><path class="st0" d="M368.2,277.6H368c-0.5-0.1-0.9-0.6-0.8-1.1l16-100.9c0,0,0-0.1,0-0.1c1.2-8-4.2-15.4-12.2-16.7l-213-32.6
		c-7.8-1.2-15.2,4.1-16.6,11.8l-18.6,101.3c-0.1,0.5-0.6,0.9-1.1,0.8c-0.5-0.1-0.9-0.6-0.8-1.1l18.6-101.3
		c1.6-8.8,9.9-14.8,18.8-13.4l212.9,32.5c9,1.4,15.3,9.8,13.9,18.8c0,0.1,0,0.1,0,0.2l-16,101C369.1,277.3,368.7,277.6,368.2,277.6z
		" fill="#000111"></path><path class="st0" d="M383.2,182.6h-0.2L139.7,144c-0.5-0.2-0.8-0.8-0.6-1.3c0.1-0.4,0.5-0.6,0.9-0.6l243.3,38.6
		c0.5,0.2,0.8,0.7,0.6,1.3C383.9,182.3,383.6,182.6,383.2,182.6L383.2,182.6z" fill="#000111"></path><path class="st0" d="M226.2,190.3H226l-79-13c-0.5-0.1-0.9-0.6-0.8-1.1l3-17.9c0-0.3,0.2-0.5,0.4-0.6c0.2-0.1,0.5-0.2,0.7-0.2
		l79,13c0.5,0.1,0.9,0.6,0.8,1.1l-3,17.9c0,0.3-0.2,0.5-0.4,0.6C226.6,190.3,226.4,190.3,226.2,190.3z M148.3,175.6l77.1,12.7
		l2.6-16l-77-12.7L148.3,175.6z" fill="#000111"></path><path class="st0" d="M221.3,218.7h-0.2l-79-13c-0.5-0.1-0.9-0.6-0.8-1.1l3-17.9c0-0.3,0.2-0.5,0.4-0.6c0.2-0.1,0.5-0.2,0.7-0.2
		l79,13c0.5,0.1,0.9,0.6,0.8,1.1l-2.9,17.9c0,0.3-0.2,0.5-0.4,0.6C221.7,218.6,221.5,218.7,221.3,218.7z M143.4,203.9l77.1,12.7
		l2.6-16l-77.1-12.7L143.4,203.9z" fill="#000111"></path><path class="st0" d="M216.5,247h-0.2l-79-13c-0.3,0-0.5-0.2-0.6-0.4c-0.1-0.2-0.2-0.5-0.2-0.7l2.9-17.9c0.1-0.5,0.6-0.9,1.1-0.8
		l79,13c0.3,0,0.5,0.2,0.6,0.4c0.1,0.2,0.2,0.5,0.2,0.7l-2.9,17.9C217.4,246.7,217,247,216.5,247z M138.6,232.2l77.1,12.6l2.6-16
		l-77.1-12.7L138.6,232.2z" fill="#000111"></path><polygon class="st1" points="244.7,172.8 367.8,192.3 341.2,338.4 221.6,312.3 	" fill="#FED490"></polygon><path class="st0" d="M157.8,140.6c-2.7,0-4.9-2.2-4.9-4.9c0-2.7,2.2-4.9,4.9-4.9c2.7,0,4.9,2.2,4.9,4.9c0,0,0,0,0,0
		C162.7,138.4,160.5,140.5,157.8,140.6z M157.8,132.7c-1.6,0-2.9,1.3-2.9,2.9s1.3,2.9,2.9,2.9s2.9-1.3,2.9-2.9
		S159.4,132.7,157.8,132.7L157.8,132.7z" fill="#000111"></path><path class="st0" d="M170.8,142.9c-2.7,0-4.9-2.2-4.9-4.9c0-2.7,2.2-4.9,4.9-4.9c2.7,0,4.9,2.2,4.9,4.9c0,0,0,0,0,0
		C175.7,140.7,173.5,142.9,170.8,142.9z M170.8,135.1c-1.6,0-2.9,1.3-2.9,2.9s1.3,2.9,2.9,2.9s2.9-1.3,2.9-2.9v0
		C173.7,136.4,172.4,135.1,170.8,135.1L170.8,135.1z" fill="#000111"></path><path class="st0" d="M183.8,145.3c-2.7,0-4.9-2.2-4.9-4.9s2.2-4.9,4.9-4.9s4.9,2.2,4.9,4.9l0,0
		C188.7,143.2,186.5,145.3,183.8,145.3z M183.8,137.5c-1.6,0-2.9,1.3-2.9,2.9c0,1.6,1.3,2.9,2.9,2.9c1.6,0,2.9-1.3,2.9-2.9
		c0,0,0,0,0,0C186.7,138.8,185.4,137.5,183.8,137.5L183.8,137.5z" fill="#000111"></path><path class="st2" d="M320.3,332.5c-0.6,0-1-0.5-1-1c0-0.1,0-0.2,0.1-0.3c9.2-21.9,11.2-36.4,6.3-47.1
		c-6.9-15.3-27.3-22.1-58.2-32.5l-4.6-1.5c-10.2-3.4-21.9-9.7-19.2-19.8c0.2-0.6,0.4-1.2,0.6-1.8c-2.1-1.2-3.5-3.5-3.6-6
		c-0.2-15.1,48.4-41.5,50.5-42.6c0.5-0.2,1.1-0.1,1.3,0.4c0.2,0.5,0.1,1.1-0.4,1.3c-0.1,0.1-12.6,6.8-25,15.3
		c-16.1,11-24.6,19.9-24.5,25.6c0,1.8,1,3.4,2.5,4.3c4-7,14.1-14.4,28.3-20.3c15.5-6.5,31.5-9.6,40.8-7.9c3.8,0.7,6,2.1,6.5,4.1
		c0.6,2.4-1.2,5.3-5.4,8.7c-7.3,5.9-20.8,12.2-34.2,16.2c-9,2.7-25.5,6.5-35.1,1.9c-0.2,0.4-0.3,0.9-0.4,1.3
		c-2.2,8.7,8.5,14.3,18,17.5l4.6,1.5c31.4,10.5,52.1,17.5,59.4,33.6c5.1,11.3,3.1,26.3-6.3,48.7C321,332.2,320.7,332.5,320.3,332.5z
		 M246.8,227.5c6.6,3.2,18.8,2.4,33.7-2c13-3.9,26.5-10.3,33.5-15.9c3.4-2.7,5.1-5.1,4.8-6.6c-0.3-1.2-2-2.1-5-2.7
		C295.7,197,255.2,212.4,246.8,227.5L246.8,227.5z" fill="#FFFFFF"></path><circle class="st2" cx="302.7" cy="216.1" r="6.6" fill="#FFFFFF"></circle><path class="st0" d="M366.2,244.2H366l-55-9.7c-0.5-0.2-0.8-0.8-0.6-1.3c0.1-0.4,0.5-0.6,0.9-0.6l55,9.7c0.5,0.1,0.9,0.6,0.8,1.1
		C367.1,243.8,366.7,244.2,366.2,244.2z" fill="#000111"></path><path class="st0" d="M364.3,253.6h-0.2l-54.9-9.7c-0.6,0-1-0.4-1-0.9s0.4-1,0.9-1c0.2,0,0.3,0,0.4,0.1l54.9,9.7
		c0.5,0.2,0.8,0.7,0.6,1.3C364.9,253.3,364.6,253.5,364.3,253.6L364.3,253.6z" fill="#000111"></path><path class="st0" d="M362.3,263h-0.2l-55-9.7c-0.6,0-1-0.4-1-0.9s0.4-1,0.9-1c0.2,0,0.3,0,0.4,0.1l55,9.7c0.5,0.1,0.9,0.6,0.8,1.1
		C363.2,262.7,362.8,263,362.3,263z" fill="#000111"></path></g><g id="character_2"><path class="st3" d="M145.3,331.9L183,384c7.9,11.2,71.4,15.5,64.9-34.8l-13.7-37.9L145.3,331.9z"></path><linearGradient id="SVGID_1_-EHiB82ksWp" gradientUnits="userSpaceOnUse" x1="160.8133" y1="-249.6703" x2="153.8833" y2="-328.9603" gradientTransform="matrix(1 0 0 -1 0 2)"><stop offset="0" style="stop-color: rgb(10, 107, 91);"></stop><stop offset="0.78" style="stop-color: rgb(0, 81, 70);"></stop><stop offset="0.91" style="stop-color: rgb(0, 80, 69);"></stop></linearGradient><polygon class="st4" points="149.4,284.2 172.2,303.7 159.2,346.4 137.4,336.1 	"></polygon><linearGradient id="SVGID_00000002380833319515635600000011935423973048788612_-EHiB82ksWp" gradientUnits="userSpaceOnUse" x1="121.602" y1="-246.251" x2="114.682" y2="-325.5311" gradientTransform="matrix(1 0 0 -1 0 2)"><stop offset="0" style="stop-color: rgb(10, 107, 91);"></stop><stop offset="0.78" style="stop-color: rgb(0, 81, 70);"></stop><stop offset="0.91" style="stop-color: rgb(0, 80, 69);"></stop></linearGradient><path d="M101.7,277.7h32.1
		c3.2-0.1,6.4,0.5,9.3,1.8c7.9,3.2,12.8,12,12.1,21.3c-1.2,14.3-2.2,27.1-3.8,40.6c-0.7,5.9-5.2,10.2-10.6,10.2h-19.1
		c-15.9,0-29.9-11.8-34-28.7l-7.9-32.9C79.8,289.9,84.6,276.6,101.7,277.7z" style="fill: url(&quot;#SVGID_00000002380833319515635600000011935423973048788612_-EHiB82ksWp&quot;);"></path><linearGradient id="SVGID_00000053543488414507142670000008754492403233405864_-EHiB82ksWp" gradientUnits="userSpaceOnUse" x1="93.6174" y1="-233.4898" x2="85.9874" y2="-320.8798" gradientTransform="matrix(1 0 0 -1 0 2)"><stop offset="0" style="stop-color: rgb(10, 107, 91);"></stop><stop offset="0.78" style="stop-color: rgb(0, 81, 70);"></stop><stop offset="0.91" style="stop-color: rgb(0, 80, 69);"></stop></linearGradient><polygon points="83.3,284.6 63,305.6 96.2,346.9 
		109.9,329.2 	" style="fill: url(&quot;#SVGID_00000053543488414507142670000008754492403233405864_-EHiB82ksWp&quot;);"></polygon><path class="st1" d="M128.4,322.9c-4.9,0-9.8-0.6-14.5-1.7c-8-1.9-12.5-5.2-13.3-10c-0.2-1.4-0.2-2.8,0.2-4.1
		c-4.4,0.7-8.9,0.4-13.1-1c-3.9-1.5-6-3.7-6.3-6.5c-0.4-4,3.2-9.2,10.5-15.3c3.5-2.8,7.1-5.4,10.9-7.8c0.5-0.3,1.1-0.1,1.3,0.3
		c0.3,0.5,0.1,1.1-0.3,1.3c-5.9,3.6-21.1,14.4-20.4,21.2c0.2,2,1.9,3.7,5,4.9c3.7,1.4,8.3,1.5,13.1,0.8c2.6-6.5,10-13.1,16.9-17.5
		c6.3-4,14.8-7.9,18.3-5.5c0.8,0.5,2.5,2.2,0.8,5.3c-3.6,6.8-19.8,16.8-34.6,19.4c-0.4,1.3-0.6,2.7-0.3,4.1
		c0.7,3.9,4.6,6.7,11.8,8.4c34.5,8.1,56.9-16,57.1-16.2c0.4-0.3,1.1-0.2,1.4,0.2c0.2,0.3,0.3,0.8,0.1,1.1
		C172.7,304.6,155.7,322.9,128.4,322.9z M133.7,283.3c-2.8,0-8,1.8-14.3,5.9c-6.6,4.2-13,10-15.7,15.5c13.8-2.8,28.8-12,32-18.1
		c1-2,0.2-2.6-0.2-2.8C135,283.4,134.3,283.2,133.7,283.3z"></path><circle class="st1" cx="133.3" cy="320.3" r="6.2"></circle><path class="st0" d="M101.2,341.8c-0.6,0-1-0.5-0.9-1c0-0.2,0.1-0.4,0.3-0.6c0.1-0.1,8.9-8.8,9.1-17l-1.4-37.5c0-0.5,0.4-1,0.9-1
		c0.5,0,1,0.3,1,0.9c0,0,0,0.1,0,0.1l1.4,37.5c-0.2,9.1-9.3,18-9.7,18.4C101.7,341.6,101.4,341.7,101.2,341.8z"></path><path class="st0" d="M151,339.4h-0.2c-0.5-0.1-0.9-0.6-0.8-1.1c0-0.2,3.6-20.5-3-26.5c-0.2-0.2-0.4-0.5-0.3-0.9l2.4-19.7
		c0.1-0.5,0.6-0.9,1.1-0.9c0.5,0.1,0.9,0.6,0.9,1.1l-2.4,19.3c7,7.1,3.4,27,3.3,27.9C151.9,339.1,151.5,339.4,151,339.4z"></path><linearGradient id="SVGID_00000065072731256629134490000001730132430186246579_-EHiB82ksWp" gradientUnits="userSpaceOnUse" x1="-1809.1499" y1="-389.9544" x2="-1692.9" y2="-389.9544" gradientTransform="matrix(-1 0 0 -1 -1635.72 2)"><stop offset="0" style="stop-color: rgb(243, 131, 116);"></stop><stop offset="1" style="stop-color: rgb(198, 66, 52);"></stop></linearGradient><path d="M173.4,429.5H57.2c0,0,25-61.3,38.8-69.1
		s34.9-8.3,51.2,1.5C160.4,369.7,173.4,429.5,173.4,429.5z" style="fill: url(&quot;#SVGID_00000065072731256629134490000001730132430186246579_-EHiB82ksWp&quot;);"></path><linearGradient id="SVGID_00000160157151498165107780000001190993582253089920_-EHiB82ksWp" gradientUnits="userSpaceOnUse" x1="841.7719" y1="-1239.7809" x2="814.4019" y2="-1307.5309" gradientTransform="matrix(-0.99 0.13 -0.13 -0.99 736.21 -1164.5701)"><stop offset="0" style="stop-color: rgb(243, 131, 116);"></stop><stop offset="1" style="stop-color: rgb(198, 66, 52);"></stop></linearGradient><path d="M85.4,224c5.9-9.4,16.1-13.6,22.8-9.4
		s7.4,15.2,1.6,24.6s-16.1,13.6-22.8,9.4S79.6,233.4,85.4,224z" style="fill: url(&quot;#SVGID_00000160157151498165107780000001190993582253089920_-EHiB82ksWp&quot;);"></path><linearGradient id="SVGID_00000000901308634745105390000008042167087989911979_-EHiB82ksWp" gradientUnits="userSpaceOnUse" x1="851.4311" y1="-1243.3656" x2="824.0611" y2="-1311.1056" gradientTransform="matrix(-0.99 0.13 -0.13 -0.99 735.98 -1164.53)"><stop offset="0" style="stop-color: rgb(243, 131, 116);"></stop><stop offset="1" style="stop-color: rgb(198, 66, 52);"></stop></linearGradient><path d="M66.1,213.2c3.9-10.4,12.1-16.9,18.5-14.5
		s8.3,12.7,4.4,23.1s-12.1,16.8-18.5,14.4S62.2,223.6,66.1,213.2z" style="fill: url(&quot;#SVGID_00000000901308634745105390000008042167087989911979_-EHiB82ksWp&quot;);"></path><linearGradient id="SVGID_00000171686691208325814030000015311128874469727163_-EHiB82ksWp" gradientUnits="userSpaceOnUse" x1="865.2422" y1="-1249.0161" x2="837.8722" y2="-1316.7561" gradientTransform="matrix(-0.99 0.13 -0.13 -0.99 736.33 -1164.4401)"><stop offset="0" style="stop-color: rgb(243, 131, 116);"></stop><stop offset="1" style="stop-color: rgb(198, 66, 52);"></stop></linearGradient><path d="M46.9,208.8c2-8.2,8.2-13.8,13.9-12.4
		s8.7,9.2,6.8,17.4s-8.2,13.8-13.9,12.4S44.9,217,46.9,208.8z" style="fill: url(&quot;#SVGID_00000171686691208325814030000015311128874469727163_-EHiB82ksWp&quot;);"></path><path class="st3" d="M100,253.8c-0.5,5.3,1.3,10.6,4.8,14.6l0,0c7.1,7.9,19.3,8.6,27.3,1.5c7.9-7.1,8.6-19.3,1.5-27.3
		c-7.1-7.9-19.3-8.6-27.3-1.5c0,0,0,0,0,0C102.7,244.4,100.4,248.9,100,253.8z"></path><path class="st0" d="M140.5,265.9L140.5,265.9c-2.8-0.1-3.3-5.9-3.2-9.4c0-2.1,0.3-4.1,0.9-6.1c0.7-2,1.6-3.1,2.7-3.1h0.1
		c2.7,0.1,3.2,5.9,3.1,9.4c0,2.1-0.3,4.1-0.9,6.1C142.5,264.8,141.6,265.9,140.5,265.9z M140.9,249.3c-0.5,0.4-1.6,2.8-1.7,7.2l0,0
		c-0.1,4.4,0.8,6.9,1.2,7.3c0.5-0.4,1.6-2.8,1.7-7.2S141.4,249.8,140.9,249.3L140.9,249.3z"></path><ellipse class="st3" transform="matrix(0.3489 -0.9372 0.9372 0.3489 -155.7435 301.0793)" cx="138.8" cy="262.6" rx="2.7" ry="6.1"></ellipse><linearGradient id="SVGID_00000162315563498051222030000009463887347028172218_-EHiB82ksWp" gradientUnits="userSpaceOnUse" x1="835.0763" y1="-1236.8026" x2="807.7063" y2="-1304.5526" gradientTransform="matrix(-0.99 0.13 -0.13 -0.99 736.0699 -1164.53)"><stop offset="0" style="stop-color: rgb(243, 131, 116);"></stop><stop offset="1" style="stop-color: rgb(198, 66, 52);"></stop></linearGradient><path d="M100,253.8c-0.5,5.3,1.3,10.6,4.8,14.6
		l0,0c4.2-1.6,1.5-9.1,1.5-9.1c-5-0.9-4.2-11.3,1.3-11.2s5.3,6.2,5.3,6.2c15.7,6.5,24.2-6.1,24.4-6.2c-4.1-9.9-15.4-14.6-25.2-10.5
		C105.2,240.2,100.6,246.5,100,253.8z" style="fill: url(&quot;#SVGID_00000162315563498051222030000009463887347028172218_-EHiB82ksWp&quot;);"></path><path class="st12" d="M108.3,256L108.3,256c-0.1,0-0.1,0-0.2-0.1c-0.1,0,0.1,0.1,0,0s-0.1-0.1-0.2-0.1s-0.1-0.1-0.2-0.1l0,0
		c0,0-0.2-0.3-0.2-0.2c0-0.1-0.1-0.1-0.1-0.2s-0.1-0.2-0.1-0.1v-0.1c0-0.1,0-0.1-0.1-0.2v-0.6c0-0.1,0-0.1,0.1-0.2s0.1-0.2,0-0.1
		s0.1-0.1,0.1-0.1s0.1-0.1,0.1-0.2l0,0l0.1-0.1l0,0c0.1,0,0.1-0.1,0.2-0.1s0.2-0.1,0.1-0.1h0.1c0.1,0,0.2,0,0.2-0.1h0.5
		c0.1,0,0.2,0,0.2,0.1c0.5,0.1,1-0.2,1.2-0.7v-0.2c0.1-1.6-1.1-2.9-2.6-3c-1.1-0.1-2.1,0.4-2.6,1.4c-0.3,0.5-0.1,1.1,0.4,1.4
		c0,0,0,0,0,0c0.5,0.3,1.1,0.1,1.4-0.4c0,0,0,0,0,0l0,0c0.1-0.2-0.1,0.1,0.1-0.1l0.2-0.2c-0.2,0.1,0.1,0,0.1,0s0.3-0.1,0.1,0
		c0.1,0,0.2-0.1,0.3-0.1h0.4c0.1,0-0.1-0.1,0.1,0c0.1,0,0.1,0,0.2,0.1c-0.2-0.1,0.1,0.1,0.1,0.1c0.2,0.2,0-0.1,0.1,0.1
		c0,0.1,0,0.1,0.1,0.2c-0.1-0.2,0,0.1,0,0.1c0.1,0.2,0,0,0,0.1v0.3l1.3-1c-1.7-0.6-3.6,0.3-4.2,2c0,0.1-0.1,0.2-0.1,0.3
		c-0.2,0.9,0,1.8,0.5,2.5c0.6,0.8,1.5,1.3,2.4,1.4c0.5,0,1-0.3,1-0.8c0-0.1,0-0.1,0-0.2C109.3,256.3,108.8,255.9,108.3,256
		L108.3,256z"></path><ellipse class="st2" transform="matrix(0.9922 -0.1245 0.1245 0.9922 -30.9978 18.3916)" cx="131.7" cy="257.3" rx="2.4" ry="2.8"></ellipse><ellipse class="st13" transform="matrix(0.9922 -0.1245 0.1245 0.9922 -31.0943 18.4097)" cx="131.8" cy="258.1" rx="1.6" ry="1.9"></ellipse><path class="st12" d="M122.6,270.6c-0.2,0-0.3,0-0.5-0.1c-1.4-0.6-2.4-1.9-2.8-3.4c-0.7-2.8,1.4-5.7,1.5-5.9
		c0.2-0.5,0.8-0.7,1.3-0.5c0.5,0.2,0.7,0.8,0.5,1.3c-0.1,0.1-0.1,0.3-0.3,0.4c0,0-1.6,2.3-1.2,4.3c0.3,0.9,0.9,1.7,1.8,2.1
		c0.5,0.3,0.6,0.8,0.4,1.3C123.3,270.4,122.9,270.6,122.6,270.6z"></path><path class="st12" d="M122.5,262.9c-0.5,0-1-0.1-1.4-0.3c-1-0.4-1.7-1.3-2-2.4c-0.2-0.5,0.1-1.1,0.6-1.2c0.5-0.2,1.1,0.1,1.2,0.6
		c0.1,0.5,0.4,0.9,0.9,1.2c0.6,0.2,1.1,0.1,1.7-0.1c0.4-0.3,1.1-0.3,1.4,0.2c0.3,0.4,0.3,1.1-0.2,1.4c-0.1,0.1-0.2,0.1-0.4,0.2
		C123.8,262.7,123.1,262.9,122.5,262.9z"></path><path class="st0" d="M130.9,267.2h-0.1c-3.2-0.1-5.5-4.4-5.4-9.8c0-2.3,0.6-4.5,1.7-6.6c1.1-1.9,2.6-3,4.3-2.9
		c3.2,0.1,5.5,4.4,5.4,9.8c0,2.3-0.6,4.5-1.7,6.6C134,266.1,132.5,267.2,130.9,267.2z M131.3,249.8c-0.9,0-1.8,0.7-2.5,2
		c-0.9,1.7-1.4,3.7-1.4,5.6l0,0c-0.1,4.5,1.7,7.8,3.5,7.8l0,0c0.9,0,1.8-0.7,2.5-2c0.9-1.7,1.4-3.7,1.4-5.6
		C134.9,253,133.1,249.8,131.3,249.8L131.3,249.8z"></path><path class="st0" d="M102,248.4c-0.1,0-0.2,0-0.2,0c-0.5-0.2-0.8-0.7-0.7-1.2c2.5-9.2,9.3-10.1,9.6-10.1c0.6,0,1,0.5,0.9,1.1
		c0,0.4-0.3,0.7-0.7,0.9c-0.2,0-5.8,0.8-8,8.7C102.8,248.1,102.4,248.4,102,248.4z"></path><path class="st0" d="M82.5,231.4c-0.1,0-0.2,0-0.3,0c-0.5-0.2-0.8-0.7-0.7-1.2c2.5-9.2,9.3-10.1,9.6-10.1c0.5,0,1,0.3,1.1,0.9
		c0,0.5-0.3,1-0.9,1.1c-0.2,0-5.8,0.8-8,8.7C83.3,231.1,82.9,231.4,82.5,231.4z"></path><path class="st0" d="M63.2,222.4c-0.5,0-0.9-0.4-1-0.9c-0.6-5.8,4.3-13,4.5-13.3c0.4-0.4,1-0.4,1.4,0.1c0.3,0.3,0.3,0.7,0.2,1
		c0,0.1-4.7,6.9-4.1,12C64.2,221.9,63.9,222.4,63.2,222.4L63.2,222.4z"></path><path class="st0" d="M40.5,210.2c-0.6,0-1-0.5-1-1c0-0.1,0-0.3,0.1-0.4c0.8-1.5,3.7-2.1,5.8-2.4c-1.8-2.4-3.4-5.1-2.7-6.5
		c0.3-0.6,1.1-1,1.8-0.9c3.9,0.2,5.2,6.2,5.2,6.5c0,0.6-0.5,1-1,1c-0.4,0-0.7-0.2-0.9-0.6c-0.3-1.3-1.3-4.6-3.3-4.9
		c0.9,2.1,2.1,4,3.6,5.6c0.2,0.3,0.3,0.7,0.1,1c-0.2,0.3-0.5,0.6-0.9,0.6c-2.8,0.1-5.7,0.8-6,1.4C41.2,209.9,40.8,210.1,40.5,210.2z
		"></path><path class="st0" d="M119.6,430.4L119.6,430.4c-0.6-0.1-1-0.5-1-1.1l4.7-46.6c0-0.3,0.2-0.5,0.4-0.7l8.7-6.8c0.4-0.4,1-0.5,1.4-0.1
		c0.4,0.4,0.5,1,0.1,1.4c-0.1,0.1-0.2,0.2-0.3,0.3l-8.4,6.6l-4.7,46.2C120.5,430,120.1,430.4,119.6,430.4z"></path><path class="st2" d="M73.3,429.1c-0.1,0-0.2,0-0.3,0c-0.5-0.2-0.8-0.7-0.6-1.2l22.7-67.8c0.3-0.5,0.9-0.6,1.4-0.3
		c0.3,0.2,0.5,0.6,0.5,1l-22.7,67.7C74.1,428.9,73.7,429.1,73.3,429.1z"></path><g id="phone"><path class="st0" d="M189.9,349.4l-31.5-2.5c-4.3-0.3-7.5-4.1-7.1-8.4c0,0,0,0,0,0c0.1-0.7,0.2-1.5,0.5-2.1l22.3-59.5
			c1.3-3.2,4.5-5.3,7.9-5.1l31.5,2.5c4.3,0.3,7.5,4.1,7.1,8.4c0,0,0,0,0,0c-0.1,0.7-0.2,1.5-0.5,2.2l-22.3,59.5
			C196.6,347.6,193.3,349.6,189.9,349.4z"></path><path class="st0" d="M190.5,350.4h-0.8l-31.5-2.5c-4.8-0.4-8.4-4.6-8-9.5v-0.2c0.1-0.8,0.3-1.5,0.5-2.3l22.3-59.5
			c1.4-3.6,5-5.9,8.9-5.7l31.5,2.5c2.3,0.2,4.5,1.3,6,3.1c1.5,1.8,2.2,4.1,2,6.4v0.2c-0.1,0.8-0.3,1.5-0.5,2.3l-22.3,59.5
			C197.4,348.1,194.2,350.4,190.5,350.4z M181.5,272.6c-2.9,0-5.5,1.8-6.6,4.5l-22.3,59.5c-0.2,0.6-0.4,1.2-0.4,1.8v0.1
			c-0.3,3.7,2.5,7,6.3,7.3l31.5,2.5l0,0c3.1,0.2,5.9-1.6,6.9-4.5l22.3-59.5c0.2-0.6,0.4-1.2,0.4-1.8v-0.1c0.2-1.8-0.4-3.5-1.6-4.9
			c-1.2-1.4-2.9-2.2-4.7-2.4l-31.5-2.5L181.5,272.6z"></path><path class="st2" d="M195,349.8l-31.5-2.5c-4.3-0.3-7.5-4.1-7.1-8.4c0,0,0,0,0,0c0.1-0.7,0.2-1.5,0.5-2.1l22.3-59.5
			c1.3-3.2,4.5-5.3,7.9-5.1l31.5,2.5c4.3,0.3,7.5,4.1,7.1,8.4c0,0,0,0,0,0c-0.1,0.7-0.2,1.5-0.5,2.1L203,344.7
			C201.8,348,198.5,350.1,195,349.8z"></path><path class="st0" d="M195.7,350.8h-0.7l-31.5-2.5c-2.3-0.2-4.5-1.3-6-3.1c-1.5-1.8-2.2-4.1-2-6.4v-0.2c0.1-0.8,0.3-1.5,0.5-2.3
			l22.3-59.5c1.4-3.6,5-5.9,8.9-5.7l31.5,2.5c4.8,0.4,8.4,4.7,8,9.5v0.2c-0.1,0.8-0.3,1.5-0.5,2.3L203.9,345
			C202.6,348.4,199.3,350.7,195.7,350.8z M186.7,273c-2.9,0-5.5,1.8-6.6,4.5L157.8,337c-0.2,0.6-0.4,1.2-0.4,1.8v0.1
			c-0.2,1.8,0.4,3.5,1.6,4.9c1.2,1.4,2.9,2.2,4.7,2.4l31.5,2.5l0,0c3,0.2,5.9-1.6,6.9-4.5l22.3-59.5c0.2-0.6,0.4-1.2,0.4-1.8v-0.1
			c0.3-3.7-2.5-7-6.3-7.3L187,273L186.7,273z"></path><path class="st0" d="M199.7,285.7l-10.5-0.9c-2-0.1-3.5-1.9-3.3-3.9c0,0,0,0,0-0.1c0-0.4,0.1-0.8,0.3-1.2l0,0
			c0.6-1.5,2.1-2.4,3.7-2.2l10.5,0.9c2,0.2,3.5,1.9,3.3,3.9c0,0,0,0,0,0c0,0.4-0.1,0.8-0.3,1.2l0,0
			C202.9,285,201.3,285.9,199.7,285.7z"></path><path class="st2" d="M189.9,285l-0.6-0.1c-2-0.1-3.5-1.9-3.3-3.9c0,0,0,0,0-0.1c0-0.4,0.1-0.8,0.3-1.2l0,0
			c0.6-1.5,2.1-2.4,3.7-2.2l0.6,0.1c2,0.1,3.5,1.9,3.3,3.9c0,0,0,0,0,0c0,0.4-0.1,0.8-0.3,1.2l0,0
			C192.9,284.2,191.4,285.1,189.9,285z"></path><path class="st0" d="M190.2,286c-0.2,0-0.3,0-0.5,0l0,0l-0.6-0.1c-1.2-0.1-2.4-0.7-3.1-1.7c-0.8-0.9-1.1-2.1-1-3.3
			c0-0.5,0.1-1,0.4-1.5c0.8-1.8,2.6-3,4.6-2.8h0.1l0.6,0.1c1.2,0.1,2.3,0.7,3.1,1.7c0.8,0.9,1.1,2.1,1,3.3c0,0.5-0.1,1-0.4,1.5
			C193.7,284.9,192.1,286,190.2,286z M190,284c1.2,0.1,2.2-0.6,2.7-1.7c0.1-0.2,0.2-0.5,0.2-0.8c0.1-0.7-0.1-1.4-0.6-2
			c-0.5-0.6-1.1-0.9-1.9-1l-0.6-0.1c-1.2-0.1-2.3,0.6-2.7,1.6c-0.1,0.2-0.2,0.5-0.2,0.8c-0.1,0.7,0.1,1.4,0.6,2
			c0.5,0.6,1.1,0.9,1.9,1L190,284z"></path></g><g id="hand"><path class="st3" d="M238.8,308.2c0,0-0.5-8.8-5.6-13.3c-3.8-3.4-11.3-5.6-21.2-3.9c-7.5,1.3-21.3,4.6-25.7,8.5s-4.1,9.9,1,11.1
			c0,0-9.6,8.5-2.9,16.2c0,0-4.6,6,0.2,11.3s10.2,4.6,17,11.4c3.8,3.3,12.8,4,23-6.4S238.8,308.2,238.8,308.2z"></path><path class="st3" d="M238.5,306.4c0,0,4.3-19.8-3.4-25.9s-12.6,1.3-13.9,4.3s-2.1,7.2,2.1,10.5S238.5,306.4,238.5,306.4z"></path><path class="st12" d="M238.8,309.2c-0.5,0-0.9-0.3-1-0.8c0-0.1-1.9-7.5-6.5-12.3s-8.9-4.7-9-4.7c-0.5-0.1-0.9-0.7-0.8-1.2
			c0.1-0.4,0.4-0.7,0.8-0.8c0.2,0,5.3,0.1,10.4,5.3s6.9,12.8,7,13.2c0.1,0.5-0.2,1-0.7,1.2L238.8,309.2z"></path><path class="st12" d="M187.2,311.6c-0.4,0-0.7-0.2-0.9-0.5c-0.2-0.5-0.1-1.1,0.4-1.3c0.4-0.2,9.5-5.2,14.9-7.6
			c3.6-1.5,7.6-1.9,11.4-1c0.6,0,1,0.4,1,1c0,0.6-0.4,1-1,1c-0.1,0-0.3,0-0.4-0.1c-3.4-0.8-7-0.4-10.3,0.9
			c-5.4,2.3-14.7,7.4-14.8,7.5C187.5,311.6,187.4,311.7,187.2,311.6z"></path><path class="st12" d="M184.3,327.8c-0.4,0-0.7-0.2-0.9-0.5c-0.2-0.5-0.1-1.1,0.4-1.3c0.4-0.2,9.3-5,16.7-5.5s11.5,1.3,11.7,1.4
			c0.4,0.3,0.5,1,0.2,1.4c-0.2,0.3-0.6,0.5-1,0.4c0,0-3.8-1.7-10.8-1.2s-15.8,5.2-15.9,5.3C184.6,327.7,184.4,327.8,184.3,327.8z"></path><path class="st12" d="M206.2,344.3c-0.2,0-0.4-0.1-0.6-0.2c-3-2.3-9.3-2.3-9.4-2.3c-0.5-0.1-0.9-0.7-0.8-1.2
			c0.1-0.4,0.4-0.7,0.8-0.8c0.3,0,7,0,10.6,2.7c0.4,0.4,0.5,1,0.1,1.4C206.7,344.1,206.4,344.3,206.2,344.3L206.2,344.3z"></path></g><path class="st3" d="M93.7,290.3c0,0,19.2-17.6,26.8-13.6c5.5,2.8-1.9,13.5-1.9,13.5s28.1-3.3,31.6-3.3s6,8.5,0,10.4
		s-12.5,3.8-12.5,3.8s4.4,7.3-1.6,12.5c0,0,3.5,7.1-2.1,11.5c0,0-6.8,11.6-13.3,14.7s-10.1-3.5-10.1-3.5s-17.4,8.4-31.4,3.5
		c-6.1-2.1-10.6-11-11.9-17.5C66.7,319,76.2,307.1,93.7,290.3z"></path><path class="st12" d="M111.5,293.6c-0.5-0.1-1-0.5-0.9-1.1c0-0.3,0.2-0.6,0.5-0.8l9-3.4c0.5-0.3,1.1-0.2,1.4,0.3
		c0.3,0.5,0.2,1.1-0.3,1.4c-0.1,0.1-0.3,0.1-0.4,0.1l-9,3.4C111.8,293.6,111.7,293.6,111.5,293.6z"></path><path class="st12" d="M128.8,302.7c-0.5-0.1-0.9-0.6-0.8-1.2c0.1-0.4,0.4-0.7,0.7-0.8l8.8-0.6c0.5,0,1,0.4,1,0.9c0,0.5-0.4,1-0.9,1
		L128.8,302.7L128.8,302.7z"></path><path class="st12" d="M126.2,316.1c-0.5-0.1-0.9-0.6-0.8-1.1c0.1-0.4,0.3-0.7,0.7-0.8l9.9-1.5c0.5-0.2,1.1,0.1,1.3,0.6
		c0.2,0.5-0.1,1.1-0.6,1.3c-0.1,0.1-0.3,0.1-0.4,0.1l-9.9,1.5L126.2,316.1z"></path><path class="st12" d="M110.7,337.4c-0.6,0-1-0.4-1.1-0.9c0-0.6,0.4-1,0.9-1.1c2.7-0.3,10.1-1.8,12.6-4.3c0.3-0.5,0.9-0.6,1.4-0.3
		c0.5,0.3,0.6,0.9,0.3,1.4c-0.1,0.1-0.2,0.2-0.3,0.3c-3.5,3.5-13.3,4.8-13.8,4.9L110.7,337.4z"></path><path class="st3" d="M63,305.6l-44.6,42.6c-26.8,30.3,15,78.3,55.7,35l21.9-36.3L63,305.6z"></path><path class="st12" d="M35.2,341.4c-0.3,0-0.6-0.2-0.8-0.4c-0.3-0.4-0.2-1,0.2-1.4l36.2-25.3c0.5-0.2,1.1,0,1.3,0.5
		c0.1,0.4,0.1,0.8-0.2,1.1l-36.2,25.3C35.6,341.3,35.4,341.4,35.2,341.4z"></path><path class="st12" d="M76.5,370.8c-0.2,0-0.3,0-0.4-0.1c-0.5-0.3-0.7-0.8-0.4-1.3l14-27.4c-1.9-0.1-3.7-0.6-5.4-1.5
		c-0.4-0.4-0.5-1-0.1-1.4c0.3-0.3,0.7-0.4,1.1-0.3c1.8,1,3.9,1.4,6,1.2c0.5-0.1,1,0.4,1.1,0.9c0,0.2,0,0.4-0.1,0.5l-14.8,28.9
		C77.2,370.6,76.9,370.8,76.5,370.8z"></path><path class="st12" d="M201.2,361.2L201.2,361.2c-0.6,0-1-0.5-1-1l0.5-7.9c0-0.3,0.2-0.5,0.4-0.7c0.2-0.2,0.5-0.2,0.8-0.2
		c8.3,1.5,15.1,0.1,20.2-4.1c10-8.2,10.5-24.4,10.5-24.6c0-0.6,0.4-1,1-1l0,0c0.5,0,1,0.5,0.9,1c0,0.7-0.6,17.3-11.2,26
		c-5.4,4.4-12.3,6-20.7,4.7l-0.4,6.8C202.1,360.8,201.7,361.2,201.2,361.2z"></path></g><g id="character_1"><path class="st3" d="M299,299.6c0,0-8.4-24.7-17.9-23.7c-6.8,0.8-3.4,14.8-3.4,14.8s-27.7-14.5-31.4-15.8s-9.5,6.5-4.1,10.8
		s11.5,8.8,11.5,8.8s-7.4,5.9-3.3,13.6c0,0-6.4,6.1-2.4,12.7c0,0,2.4,14.7,7.9,20.3c5.5,5.7,11.8,0.3,11.8,0.3s7.6,5.8,12.3,8
		c6.5,2.9,23.9-5,27.8-11.1C310.1,335.2,310.5,323.9,299,299.6z"></path><path class="st12" d="M274.3,323.7c-2.5,0-4.9-1.6-6.8-3c-0.4-0.3-0.9-0.6-1.3-0.8c-3.2-2-14.2-9.2-14.3-9.3c-0.4-0.4-0.4-1,0-1.4
		c0.3-0.3,0.7-0.4,1.1-0.2c0.1,0.1,11.1,7.3,14.3,9.3c0.4,0.3,0.9,0.6,1.3,0.9c2,1.4,4.2,2.9,6.4,2.5c1.4-0.4,2.6-1.3,3.3-2.6
		c2-2.9,2.1-7.9-8.5-15.2c-5.1-3.5-16.2-8.5-16.4-8.5c-0.4-0.3-0.5-0.9-0.2-1.4c0.2-0.3,0.6-0.5,1-0.4c0.5,0.2,11.4,5.1,16.7,8.7
		c11.9,8.1,11.4,14.2,9,17.9c-1,1.7-2.7,2.9-4.6,3.4C275,323.6,274.7,323.7,274.3,323.7z"></path><path class="st12" d="M269.4,338c-1.8-0.1-3.4-1-4.3-2.5c-2.9-4.2-14.4-11.2-14.6-11.2c-0.4-0.4-0.4-1-0.1-1.4
		c0.3-0.3,0.7-0.4,1.1-0.3c0.5,0.3,12,7.3,15.2,11.8c0.9,1.3,1.9,1.9,3,1.7c1.8-0.3,3.7-2.4,4.5-5.1c0.9-2.5,0.5-5.3-1-7.5
		c-0.4-0.4-0.4-1-0.1-1.4c0.4-0.4,1-0.4,1.4-0.1c0.1,0.1,0.2,0.2,0.3,0.4c1.9,2.7,2.3,6.1,1.3,9.2c-1.1,3.5-3.5,6-6.1,6.4
		C269.8,338,269.6,338,269.4,338z"></path><path class="st12" d="M267.1,342.9c-0.6,0-1-0.5-0.9-1.1c0-0.3,0.2-0.6,0.5-0.8c0.4-0.2,1-2,1.1-3.7c0-0.6,0.5-1,1.1-0.9
		c0.6,0,1,0.5,0.9,1.1c-0.1,1-0.5,4.4-2.2,5.3C267.4,342.9,267.3,342.9,267.1,342.9z"></path><path class="st12" d="M277.1,309.7c-0.4,0-0.8-0.2-0.9-0.6c-2.1-5.3,0.8-10.4,1.6-11.7l-1.1-6.5c0-0.6,0.5-1,1.1-0.9
		c0.4,0,0.7,0.3,0.9,0.6l1.2,6.9c0,0.3,0,0.5-0.2,0.7c0,0-3.6,5.1-1.6,10.2c0.2,0.5-0.1,1.1-0.5,1.3
		C277.4,309.7,277.3,309.7,277.1,309.7z"></path><linearGradient id="SVGID_00000026860242101947366450000013364385248942079400_-EHiB82ksWp" gradientUnits="userSpaceOnUse" x1="301.4712" y1="-253.217" x2="364.3812" y2="-355.557" gradientTransform="matrix(1 0 0 -1 0 2)"><stop offset="0" style="stop-color: rgb(243, 131, 116);"></stop><stop offset="1" style="stop-color: rgb(198, 66, 52);"></stop></linearGradient><path d="M391,271.4c0,0-15.6-0.3-23.1,13
		l-28.4,43.5l-35.9-14.6l-26.8,31.4l45.1,41.3c0,0,33,22.4,60.1-5.6l34-57.7L391,271.4z" style="fill: url(&quot;#SVGID_00000026860242101947366450000013364385248942079400_-EHiB82ksWp&quot;);"></path><linearGradient id="SVGID_00000057859288224824109700000006141122134923578266_-EHiB82ksWp" gradientUnits="userSpaceOnUse" x1="354.2007" y1="-325.2721" x2="390.6407" y2="-383.4321" gradientTransform="matrix(1 0 0 -1 0 2)"><stop offset="0" style="stop-color: rgb(10, 107, 91);"></stop><stop offset="0.78" style="stop-color: rgb(0, 81, 70);"></stop><stop offset="0.91" style="stop-color: rgb(0, 80, 69);"></stop></linearGradient><path d="M346.1,430.3l116.5,0.4l-19-76.1
		c-6.2-13.9-20-22.8-35.2-22.9h-6.5c-18.3,0-31.4,11.3-36.6,33.7L346.1,430.3z" style="fill: url(&quot;#SVGID_00000057859288224824109700000006141122134923578266_-EHiB82ksWp&quot;);"></path><linearGradient id="SVGID_00000018198237701764043200000007112449887409114244_-EHiB82ksWp" gradientUnits="userSpaceOnUse" x1="362.7988" y1="-205.4684" x2="429.1488" y2="-313.4084" gradientTransform="matrix(1 0 0 -1 0 2)"><stop offset="0" style="stop-color: rgb(243, 131, 116);"></stop><stop offset="1" style="stop-color: rgb(198, 66, 52);"></stop></linearGradient><path d="M427.9,324.1h-29c-8.9,0-16.3-6.9-17-15.7
		l-1.9-23.7c-0.6-6.8,4.5-12.7,11.2-13.3c0,0,0.1,0,0.1,0h48.9c6.9,0,12.4,5.6,12.4,12.4c0,1.3-0.2,2.5-0.6,3.7l-7.8,24.6
		C441.9,319.2,435.4,324,427.9,324.1z" style="fill: url(&quot;#SVGID_00000018198237701764043200000007112449887409114244_-EHiB82ksWp&quot;);"></path><linearGradient id="SVGID_00000179647592607281827260000001043548626983747227_-EHiB82ksWp" gradientUnits="userSpaceOnUse" x1="378.9216" y1="-195.599" x2="445.2716" y2="-303.549" gradientTransform="matrix(1 0 0 -1 0 2)"><stop offset="0" style="stop-color: rgb(243, 131, 116);"></stop><stop offset="1" style="stop-color: rgb(198, 66, 52);"></stop></linearGradient><path d="M441.1,271.4c0,0,35.5,4.2,40.4,27.7
		l3.3,18.4l-77.9-6.1L441.1,271.4z" style="fill: url(&quot;#SVGID_00000179647592607281827260000001043548626983747227_-EHiB82ksWp&quot;);"></path><path class="st1" d="M451.8,304c-30.4,0-76-17-78.1-17.8c-0.5-0.3-0.6-0.9-0.3-1.4c0.2-0.3,0.6-0.5,1-0.4
		c0.6,0.2,56.8,21.2,85.8,17.1c5.7-0.8,8.9-2.3,9.2-4.4c0.8-5.2-14.7-15-24.7-19.9c-0.5-0.1-0.9-0.7-0.7-1.2
		c0.1-0.5,0.7-0.9,1.2-0.7c0.1,0,0.3,0.1,0.4,0.2c4.5,2.3,8.9,4.8,13.2,7.5c9,5.9,13.2,10.6,12.5,14.4c-0.5,3.1-4,5.1-10.9,6
		C457.6,303.8,454.7,304,451.8,304z"></path><path class="st0" d="M415.9,325L415.9,325l-17.1-0.1c-7,0-11.9-1.6-14.4-4.8c-1.4-1.7-2-4-1.7-6.2l3.4-32c0.2-0.5,0.7-0.8,1.3-0.6
		c0.4,0.1,0.6,0.4,0.7,0.8l-3.4,32.1c0,0,0,0.1,0,0.1c-0.2,1.7,0.3,3.4,1.4,4.7c2.1,2.6,6.6,4,12.9,4l17.1,0.1
		c0.5-0.1,1.1,0.2,1.2,0.8c0.1,0.5-0.2,1.1-0.8,1.2C416.2,325,416.1,325,415.9,325L415.9,325z"></path><path class="st3" d="M425.3,221.1c-11.2-1.3-21.4,6.7-22.7,17.9c-1.3,11.2,6.7,21.4,17.9,22.7c5.1,0.6,10.3-0.8,14.5-3.8l0,0
		c4.5-3.4,7.5-8.5,8.1-14.1c1.5-11-6.3-21.2-17.4-22.6C425.6,221.1,425.4,221.1,425.3,221.1L425.3,221.1z"></path><ellipse class="st3" transform="matrix(0.9885 -0.1511 0.1511 0.9885 -32.3582 63.4279)" cx="401.2" cy="244.7" rx="6.4" ry="2.8"></ellipse><path class="st0" d="M419.7,216.5c0,0,17.1,1.5,23.8,9.9c5.6,7,8.5,21.1-8.5,31.5l0,0c-3.9-2.5,0.5-9.7,0.5-9.7
		c0.7,0,1.4-0.1,2-0.5c3.7-2,4.1-10.5-0.8-11.4c-5.8-1.2-6.8,5.4-6.8,5.4c-11.2,3.2-12.1-17.6-17.2-12.7
		C402.9,234.9,395.9,215.2,419.7,216.5z"></path><path class="st12" d="M433.9,246.2c1.9,0.1,3.5-1.4,3.6-3.2v-0.3c0-1-0.5-1.9-1.3-2.4c-0.8-0.6-1.8-0.9-2.8-0.7l1.3,1v-0.1
		c0-0.2-0.1,0.1,0-0.1c0-0.1,0.1-0.2,0.2-0.2l0.1-0.1l0.1-0.1c0.1,0,0.1-0.1,0.2-0.1h0.1c0,0,0.3-0.1,0.2,0h0.3
		c0.1,0,0.2,0.1,0.3,0.1c-0.2-0.1,0.1,0.1,0.1,0.1l0.1,0.1l0.2,0.2c-0.1-0.1,0,0,0,0.1s0.1,0.3,0.1,0.1c0,0.6,0.4,1,1,1
		c0.6,0,1-0.4,1-1c0-0.2,0-0.4-0.1-0.6c-0.5-1.6-2.1-2.5-3.6-2c-1.2,0.4-2.1,1.4-2.1,2.7c0,0.3,0.1,0.6,0.4,0.8
		c0.2,0.2,0.6,0.3,0.9,0.2h0.4c0.1,0,0.2,0,0.2,0.1l0,0c0.1,0.1,0.1,0.1,0.2,0.1c0.2,0.1,0-0.1,0.1,0.1l0.3,0.3
		c-0.1-0.1,0.1,0.2,0.1,0.2l0,0c0,0.1,0,0.1,0.1,0.2v0.5l0,0c0,0.1,0,0.2-0.1,0.3c0,0-0.1,0.2,0,0.1s-0.1,0.1-0.1,0.1
		s-0.1,0.1-0.1,0.2l0,0l-0.1,0.1l-0.1,0.1l0,0c-0.1,0-0.1,0.1-0.2,0.1s-0.1,0.1-0.2,0.1h-0.1c-0.1,0-0.3,0.1-0.4,0.1h-0.3
		c-0.5,0-1,0.3-1,0.8c0,0.1,0,0.1,0,0.2C432.9,245.9,433.3,246.2,433.9,246.2L433.9,246.2z"></path><ellipse class="st2" transform="matrix(0.3236 -0.9462 0.9462 0.3236 49.3712 550.3666)" cx="409.6" cy="240.7" rx="2.9" ry="2.5"></ellipse><ellipse class="st13" transform="matrix(0.3239 -0.9461 0.9461 0.3239 48.8838 549.9253)" cx="409.2" cy="240.8" rx="2" ry="1.7"></ellipse><path class="st12" d="M404.3,248.3c1.3-0.4,2.4-1.2,3.1-2.4c0.3-0.5,0.1-1.1-0.4-1.4c0,0,0,0,0,0c-0.5-0.3-1.1-0.1-1.4,0.4
		c0,0,0,0,0,0c-0.1,0.1-0.1,0.2-0.2,0.3l0.2-0.2c-0.2,0.3-0.5,0.6-0.8,0.8l0.2-0.2c-0.3,0.3-0.7,0.5-1.1,0.6l0.2-0.1
		c-0.2,0.1-0.4,0.1-0.5,0.2c-0.5,0.2-0.8,0.7-0.7,1.2c0.1,0.5,0.6,0.9,1.2,0.8C404.3,248.3,404.3,248.3,404.3,248.3L404.3,248.3z"></path><path class="st12" d="M415,253c-0.9,0-1.9-0.2-2.7-0.6c-0.4-0.3-0.5-1-0.2-1.4c0.2-0.3,0.6-0.5,1-0.4c1.1,0.5,2.4,0.5,3.6,0
		c1.5-0.7,2.5-2.3,3.2-4.8c0.1-0.5,0.7-0.8,1.2-0.7c0.5,0.1,0.8,0.7,0.7,1.2c-0.8,3.1-2.2,5.2-4.2,6.1
		C416.8,252.8,415.9,253,415,253z"></path><path class="st0" d="M386,429.7L386,429.7c-0.5,0-0.9-0.5-0.9-1l2.4-64.9l-5.9-7.9c-0.2-0.5,0-1.1,0.5-1.3c0.4-0.2,0.8-0.1,1.1,0.2
		l6.1,8.1c0.1,0.2,0.2,0.4,0.2,0.6l-2.4,65.2C386.9,429.3,386.5,429.7,386,429.7z"></path><path class="st0" d="M354.6,340.7c-0.4,0-0.7-0.2-0.9-0.5c-4.2-7.9-14.5-11.3-14.6-11.4c-0.5-0.2-0.8-0.8-0.5-1.3
		c0.1-0.2,0.3-0.4,0.5-0.5c3.6-1.3,12.1-4.5,13.8-4.2c0.5,0.1,0.9,0.6,0.8,1.1c-0.1,0.5-0.6,0.9-1.1,0.9l0,0
		c-0.9,0-5.6,1.5-10.4,3.3c3.5,1.6,10,5.2,13.3,11.3c0.2,0.5,0.1,1.1-0.4,1.3C355,340.7,354.8,340.7,354.6,340.7z"></path><path class="st1" d="M339.6,393.4c-0.6,0-1-0.5-1-1c0-0.2,0.1-0.4,0.2-0.5c0.1-0.1,10.6-13.5,8.6-24.2c-0.8-3.9-3.1-7-7.1-9.3
		c-17.7-10.1-43.7,4-43.9,4.1c-0.5,0.2-1.1-0.1-1.3-0.7c-0.1-0.4,0-0.8,0.3-1.1c5-2.6,10.3-4.6,15.8-6.1c11.9-3.1,22.3-2.4,30.1,2
		c4.5,2.6,7.2,6.1,8.1,10.6c2.2,11.6-8.5,25.2-9,25.8C340.2,393.2,339.9,393.4,339.6,393.4z"></path><circle class="st1" cx="319.2" cy="355.4" r="6.5"></circle><path class="st2" d="M424.1,431c-0.5,0-0.9-0.4-1-0.9l-10.8-96.9c0.1-0.5,0.6-0.9,1.1-0.9c0.4,0,0.7,0.3,0.8,0.7l10.8,96.9
		C425.1,430.4,424.7,430.9,424.1,431L424.1,431z"></path><linearGradient id="SVGID_00000005986627969266679860000012908367326931457178_-EHiB82ksWp" gradientUnits="userSpaceOnUse" x1="359.9748" y1="-207.2432" x2="426.3348" y2="-315.1832" gradientTransform="matrix(1 0 0 -1 0 2)"><stop offset="0" style="stop-color: rgb(243, 131, 116);"></stop><stop offset="1" style="stop-color: rgb(198, 66, 52);"></stop></linearGradient><path d="M484.7,317.4l5.2,66.6
		c1.6,20-13.4,37.5-33.4,39.1c0,0,0,0,0,0c-0.8,0.1-1.6,0.1-2.4,0.1l0,0c-20.1,0.2-36.5-15.9-36.8-36c0,0,0,0,0,0
		c0-1.5,0.1-2.9,0.2-4.4l7.9-71.1L484.7,317.4z" style="fill: url(&quot;#SVGID_00000005986627969266679860000012908367326931457178_-EHiB82ksWp&quot;);"></path><path class="st0" d="M470.7,368.8c-0.4,0-0.8-0.3-0.9-0.7l-12.5-47.6c-0.3-0.5-0.1-1.1,0.4-1.3c0.5-0.3,1.1-0.1,1.3,0.4
		c0.1,0.1,0.1,0.3,0.1,0.4l12.5,47.6c0.1,0.5-0.2,1-0.7,1.2C470.9,368.8,470.8,368.8,470.7,368.8z"></path><path class="st0" d="M474,356c-0.1,0-0.3,0-0.4-0.1l-7.4-3.2c-0.5-0.1-0.9-0.6-0.8-1.2c0.1-0.5,0.6-0.9,1.2-0.8
		c0.1,0,0.2,0.1,0.4,0.2l7.4,3.2c0.5,0.2,0.7,0.8,0.5,1.3C474.8,355.8,474.4,356,474,356z"></path><path class="st3" d="M452.7,279.7c0,0-7.8-22.9-16.5-21.8c-6.4,0.8-3.1,13.6-3.1,13.6s-25.6-13.4-29-14.7s-8.8,6-3.7,10
		S411,275,411,275s-6.8,5.4-3,12.5c0,0-6,5.6-2.2,11.8c0,0,2.2,13.6,7.3,18.9s10.9,0.3,10.9,0.3s7,5.4,11.4,7.4
		c6,2.7,22.1-4.6,25.7-10.4C462.9,312.5,463.3,302.1,452.7,279.7z"></path><path class="st12" d="M439,277.2c-0.2,0-0.5-0.1-0.6-0.2l-7.4-6.5c-0.3-0.4-0.2-1.1,0.2-1.4c0.3-0.2,0.7-0.3,1.1-0.1l7.4,6.5
		c0.4,0.4,0.4,1,0.1,1.4C439.6,277.1,439.3,277.2,439,277.2z"></path><path class="st12" d="M419.1,279.7c-0.1,0-0.3,0-0.4-0.1l-8.2-3.7c-0.5-0.1-0.9-0.7-0.8-1.2s0.7-0.9,1.2-0.8c0.1,0,0.3,0.1,0.4,0.2
		l8.2,3.7c0.5,0.2,0.7,0.8,0.5,1.3C419.8,279.4,419.5,279.7,419.1,279.7z"></path><path class="st12" d="M416.9,293.5c-0.2,0-0.3,0-0.5-0.1l-9-5c-0.5-0.2-0.8-0.7-0.7-1.2c0.2-0.5,0.7-0.8,1.2-0.7
		c0.1,0,0.3,0.1,0.4,0.2l9,5c0.5,0.3,0.6,0.9,0.3,1.4C417.5,293.3,417.2,293.4,416.9,293.5z"></path><path class="st12" d="M423.9,319.5c-0.2,0-0.3,0-0.5-0.1c-0.4-0.2-9.3-5-11.4-9.7c-0.2-0.5,0-1.1,0.5-1.3c0.5-0.2,1.1,0,1.3,0.5
		c1.8,4,10.4,8.7,10.5,8.7c0.5,0.3,0.6,0.9,0.3,1.4C424.5,319.3,424.2,319.4,423.9,319.5z"></path></g><g id="line"><path class="st0" d="M219.6,430.8h-175c-0.5,0.1-1.1-0.2-1.2-0.8c-0.1-0.5,0.2-1.1,0.8-1.2c0.1,0,0.3,0,0.4,0h175
		c0.5-0.1,1.1,0.2,1.2,0.8c0.1,0.5-0.2,1.1-0.8,1.2C219.9,430.8,219.7,430.8,219.6,430.8z"></path><path class="st0" d="M471,430.8H296c-0.5,0.1-1.1-0.2-1.2-0.8c-0.1-0.5,0.2-1.1,0.8-1.2c0.1,0,0.3,0,0.4,0h175
		c0.5-0.1,1.1,0.2,1.2,0.8c0.1,0.5-0.2,1.1-0.8,1.2C471.3,430.8,471.1,430.8,471,430.8z"></path></g><g id="document"><path class="st0" d="M448.7,176.5h-0.2c-0.5-0.1-0.9-0.6-0.8-1.1l2.5-12c0-0.1,0-0.2,0.1-0.2V163c0-0.6-0.4-1-0.9-1.1
		c-0.1,0-0.1,0-0.2,0l-35.5-1.2c-0.9,0-1.7,0.7-2,1.6l-0.5,2.6c0,0.6-0.4,1-1,1c-0.6,0-1-0.4-1-1c0-0.1,0-0.3,0.1-0.4l0.5-2.6
		c0.4-1.8,2-3.1,3.9-3.1l35.5,1.2l0,0c1.7,0,3,1.3,3,3c0,0.3,0,0.5-0.1,0.8l-2.4,11.9C449.6,176.2,449.2,176.5,448.7,176.5z"></path><path class="st1" d="M445,198.5l-44.3-1.5l5.9-29.1c0.4-1.8,2-3,3.8-3l15.5,0.5c0.9,0,1.8,0.5,2.2,1.3l2,3.6
		c0.5,0.9,1.4,1.4,2.4,1.4l14.4,0.5c1.5,0,2.7,1.2,2.7,2.7c0,0.2,0,0.5-0.1,0.7L445,198.5z"></path><path class="st0" d="M445.8,199.5l-46.3-1.5l6.1-30.3c0.5-2.2,2.5-3.8,4.8-3.8l15.6,0.5l0,0c1.2,0,2.4,0.7,3,1.7l2.1,3.6
		c0.3,0.5,0.9,0.9,1.5,0.9l14.4,0.5l0,0c2,0,3.7,1.7,3.7,3.7c0,0.3,0,0.7-0.1,1L445.8,199.5z M401.9,196.1l42.3,1.4l4.5-22.4v-0.2
		c0-1-0.8-1.8-1.8-1.8l0,0l-14.4-0.5l0,0c-1.3,0-2.5-0.7-3.2-1.9l-2-3.6c-0.3-0.5-0.8-0.8-1.4-0.8l-15.6-0.5c-1.4,0-2.5,0.9-2.8,2.3
		L401.9,196.1z"></path><path class="st0" d="M432.3,217.3c-0.1,0-0.3,0-0.4-0.1c-0.4-0.2-0.6-0.5-0.6-0.9V209h-43.7c-0.6,0-1-0.4-1-1s0.4-1,1-1h44.7
		c0.6,0,1,0.4,1,1v6l6.9-6.9c0.2-0.2,0.4-0.3,0.7-0.3h25c3.1,0,5.7-2.5,5.7-5.7v-54c0-3.1-2.5-5.7-5.7-5.7h-72
		c-3.1,0-5.7,2.5-5.7,5.7v10.3c0.1,0.5-0.2,1.1-0.8,1.2c-0.5,0.1-1.1-0.2-1.2-0.8c0-0.1,0-0.3,0-0.4v-10.3c0-4.2,3.4-7.6,7.6-7.6
		h72.1c4.2,0,7.6,3.4,7.6,7.6v54c0,4.2-3.4,7.6-7.6,7.6h-24.6L433,217C432.8,217.2,432.6,217.3,432.3,217.3z"></path></g><g id="wheel"><linearGradient id="SVGID_00000098216398552018646880000003008119013323728535_-EHiB82ksWp" gradientUnits="userSpaceOnUse" x1="424.3793" y1="-68.8123" x2="418.8593" y2="-115.1923" gradientTransform="matrix(1 0 0 -1 0 2)"><stop offset="0" style="stop-color: rgb(243, 131, 116);"></stop><stop offset="1" style="stop-color: rgb(198, 66, 52);"></stop></linearGradient><path d="M433.6,110.7c-0.4-1.8-1.1-3.5-2.1-5.1
		l2.1-2.1l-4.2-4.2l-2,2.1c-1.5-1-3.3-1.7-5.1-2.1v-2.9h-6v2.9c-1.8,0.4-3.5,1.1-5.1,2.1l-2.1-2.1l-4.2,4.2l2,2.1
		c-1,1.5-1.7,3.3-2,5.1H402v6h2.9c0.4,1.8,1.1,3.5,2,5.1l-2,2.1l4.2,4.2l2.1-2c1.5,1,3.3,1.7,5.1,2v2.9h6v-3c1.8-0.4,3.5-1.1,5.1-2
		l2,2l4.2-4.2l-2.1-2.1c1-1.5,1.7-3.3,2.1-5.1h2.9v-6L433.6,110.7z M419.2,119.9c-3.5,0-6.3-2.8-6.3-6.3s2.8-6.3,6.3-6.3
		c3.5,0,6.3,2.8,6.3,6.3c0,0,0,0,0,0l0,0C425.5,117.1,422.7,119.9,419.2,119.9C419.2,119.9,419.2,119.9,419.2,119.9z" style="fill: url(&quot;#SVGID_00000098216398552018646880000003008119013323728535_-EHiB82ksWp&quot;);"></path><path class="st0" d="M360.5,152.7h-14.1c-0.6,0-1-0.4-1-1v-6.2c-3.8-0.9-7.5-2.4-10.8-4.5l-4.3,4.3c-0.4,0.4-1,0.4-1.4,0l-10-10
		c-0.4-0.4-0.4-1,0-1.4l4.3-4.3c-2.1-3.3-3.6-7-4.5-10.8h-6.1c-0.6,0-1-0.4-1-1v-14c0-0.6,0.4-1,1-1h6.2c0.9-3.8,2.5-7.5,4.5-10.8
		l-4.3-4.3c-0.4-0.4-0.4-1,0-1.4l10-10c0.4-0.4,1-0.4,1.4,0l4.3,4.3c3.3-2.1,7-3.7,10.8-4.5V70c0-0.6,0.4-1,1-1h14.1
		c0.6,0,1,0.4,1,1v6.2c3.8,0.9,7.5,2.5,10.8,4.5l4.3-4.3c0.4-0.4,1-0.4,1.4,0l10,10c0.4,0.4,0.4,1,0,1.4l-4.4,4.3
		c2.1,3.3,3.7,7,4.5,10.8h6.1c0.6,0,1,0.4,1,1v14.1c0,0.6-0.4,1-1,1h-6.2c-0.9,3.8-2.4,7.5-4.5,10.8l4.3,4.3c0.4,0.4,0.4,1,0,1.4
		l-10,10c-0.4,0.4-1,0.4-1.4,0l-4.3-4.4c-3.3,2.1-7,3.7-10.8,4.5v6.1C361.5,152.2,361.1,152.7,360.5,152.7z M347.4,150.7h12.1v-6
		c0-0.5,0.3-0.9,0.8-1c4.1-0.8,8.1-2.4,11.6-4.7c0.4-0.2,0.9-0.2,1.2,0.1l4.2,4.2l8.6-8.6l-4.2-4.2c-0.3-0.3-0.4-0.8-0.1-1.2
		c2.3-3.5,4-7.5,4.9-11.6c0.1-0.5,0.5-0.8,1-0.8h6v-12.2h-6c-0.5,0-0.9-0.3-1-0.8c-0.8-4.1-2.5-8.1-4.8-11.6
		c-0.3-0.4-0.2-0.9,0.1-1.2L386,87l-8.6-8.6l-4.2,4.2c-0.3,0.3-0.8,0.4-1.2,0.1c-3.5-2.3-7.5-4-11.6-4.8c-0.5-0.1-0.8-0.5-0.8-1V71
		h-12.2v6c0,0.5-0.3,0.9-0.8,1c-4.1,0.8-8.1,2.5-11.6,4.8c-0.4,0.3-0.9,0.2-1.2-0.1l-4.2-4.2l-8.6,8.5l4.2,4.2
		c0.3,0.3,0.4,0.8,0.1,1.2c-2.3,3.5-4,7.5-4.9,11.6c-0.1,0.5-0.5,0.8-1,0.8h-6v12.1h6c0.5,0,0.9,0.3,1,0.8c0.8,4.1,2.5,8.1,4.8,11.6
		c0.3,0.4,0.2,0.9-0.1,1.2l-4.2,4.2l8.6,8.6l4.2-4.2c0.3-0.3,0.8-0.4,1.2-0.1c3.5,2.3,7.5,4,11.6,4.9c0.5,0.1,0.8,0.5,0.8,1
		L347.4,150.7z M353.5,130c-10.6,0-19.2-8.6-19.2-19.2s8.6-19.2,19.2-19.2c10.6,0,19.2,8.6,19.2,19.2
		C372.7,121.4,364.1,130,353.5,130z M353.5,93.6c-9.5,0-17.2,7.7-17.2,17.2c0,9.5,7.7,17.2,17.2,17.2c9.5,0,17.2-7.7,17.2-17.2
		c0,0,0,0,0,0C370.7,101.3,363,93.6,353.5,93.6L353.5,93.6z"></path></g><g id="light"><path class="st1" d="M304.8,120c-7.7,0.6-13.9,6.6-14.7,14.4c-0.8-7.7-7-13.8-14.8-14.3c7.7-0.6,13.9-6.6,14.7-14.4
		C290.9,113.4,297.1,119.4,304.8,120z"></path><path class="st1" d="M279.3,107.4c-4.1,0.3-7.4,3.5-7.9,7.6c-0.4-4.1-3.8-7.4-7.9-7.6c4.1-0.3,7.4-3.5,7.9-7.6
		C271.9,103.9,275.2,107.1,279.3,107.4z"></path></g></svg>