<svg transform="scale(1)" version="1.1" id="cB1XUrrnIf" xmlns="http://www.w3.org/2000/svg" xmlns:xlink="http://www.w3.org/1999/xlink" x="0px" y="0px" viewBox="0 0 500 500" xml:space="preserve" class="pbimage_pbimage__wrapper__image__0LEis false"><title>Creativity 1</title><style type="text/css"> .st0{fill:#FED490;} .st1{fill:url(#SVGID_1_-cB1XUrrnIf);} .st2{fill:url(#SVGID_00000049928559360757128390000013799254396585977273_-cB1XUrrnIf);} .st3{fill:#000111;} .st4{fill:#FEF1E0;} .st5{fill:url(#SVGID_00000019668966409750671210000000477883466347501721_-cB1XUrrnIf);} .st6{fill:url(#SVGID_00000041273298451706813940000000464927651317537920_-cB1XUrrnIf);} .st7{fill:url(#SVGID_00000026858858702996578240000013337010009570108326_-cB1XUrrnIf);} .st8{fill:url(#SVGID_00000067914447749446106260000001489832401079288221_-cB1XUrrnIf);} .st9{fill:#FFC2A7;} .st10{fill:#D88260;} .st11{fill:#FFFFFF;} .st12{fill:#005045;} .st13{fill:url(#SVGID_00000043457748242285497070000003685748896853739691_-cB1XUrrnIf);} .st14{fill:url(#SVGID_00000023970227106684152430000015716612935754386359_-cB1XUrrnIf);} .st15{fill:url(#SVGID_00000178206102826261471470000011439984599665255305_-cB1XUrrnIf);} .st16{fill:url(#SVGID_00000155134530781958424730000012727399616036970669_-cB1XUrrnIf);} .st17{fill:url(#SVGID_00000116920272821556147120000008557535272582174866_-cB1XUrrnIf);}
 .st12{fill:#005045;}
 .st11{fill:#FFFFFF;}
 .st10{fill:#D88260;}
 .st9{fill:#FFC2A7;}
 .st4{fill:#FEF1E0;}
 .st3{fill:#000111;}
 .st0{fill:#FED490;}</style><g id="brush"><path class="st0" d="M41.4,199.7c0,0-34.5,3.6-31.2-24c1.3-11.2,9.7-17.6,16.5-24.2c7.2-6.9,12.7-14.1,6.4-27.3
		c0,0,18.6-0.2,31,22.1c1,1.8,2,3.6,2.8,5.5C76.8,173.5,75.1,198.1,41.4,199.7z" fill="#FED490"></path><linearGradient id="SVGID_1_-cB1XUrrnIf" gradientUnits="userSpaceOnUse" x1="-944.2329" y1="2246.343" x2="-941.8929" y2="2061.8232" gradientTransform="matrix(-1 2.000000e-02 2.000000e-02 1 -919.98 -1852.98)"><stop offset="0" style="stop-color: rgb(10, 107, 91);"></stop><stop offset="0.78" style="stop-color: rgb(0, 81, 70);"></stop><stop offset="0.91" style="stop-color: rgb(0, 80, 69);"></stop></linearGradient><path class="st1" d="M53.8,318.2c6.4,15.1,22.1,11.5,25,10.7s18.8-6.8,15.8-22.9c-3.2-17.3-23.8-71.4-33.2-95.5
		c-2.5-6.5-9.8-9.9-16.4-7.7l0,0c-5.9,2-9.5,7.8-8.8,14C39.1,241.4,46.7,301.5,53.8,318.2z"></path><linearGradient id="SVGID_00000177444780751237970170000002670128886348689559_-cB1XUrrnIf" gradientUnits="userSpaceOnUse" x1="-927.381" y1="2246.3813" x2="-925.031" y2="2061.8516" gradientTransform="matrix(-0.9998 1.902303e-02 1.902303e-02 0.9998 -919.2052 -1853.089)"><stop offset="0" style="stop-color: rgb(10, 107, 91);"></stop><stop offset="0.78" style="stop-color: rgb(0, 81, 70);"></stop><stop offset="0.91" style="stop-color: rgb(0, 80, 69);"></stop></linearGradient><path d="M41.9,184.1c11.2-2.3,21.8,3.1,23.6,12
		c1.8,8.9-5.8,18-17,20.3s-21.8-3.1-23.6-12C23.1,195.5,30.7,186.4,41.9,184.1z" style="fill: url(&quot;#SVGID_00000177444780751237970170000002670128886348689559_-cB1XUrrnIf&quot;);"></path><path class="st3" d="M66.9,151.8c-2.1,0.4-4.3,0.5-6.4,0.1c-9.8-1.6-5.6,9-22.7,6.8c-7-0.9-10-3.9-11.1-7.2
		c7.2-6.9,12.7-14.1,6.4-27.3c0,0,18.6-0.2,31,22.1C65.1,148.1,66.1,149.9,66.9,151.8z" fill="#000111"></path><path class="st3" d="M43.6,217.1c-1.7,0-3.5-0.1-5.4-0.2c-0.3,0-0.6-0.1-0.7-0.1c-1,0.1-1.8-0.6-2-1.6c-0.1-0.8,0.4-1.6,1.2-1.9
		c0.6-0.1,1.2-0.1,1.7,0c10.9,0.9,18.4-0.9,22.3-5.4c0.7-0.7,1.8-0.7,2.5,0c0.6,0.6,0.7,1.6,0.2,2.3
		C59.6,214.9,52.9,217.1,43.6,217.1z" fill="#000111"></path></g><g id="wheel"><path class="st4" d="M472.3,169.8c-0.9-4.3-2.6-8.3-5-12l5-5l-10.1-10.1l-5,5c-3.6-2.4-7.7-4.1-12-5v-7h-14.3v7
		c-4.3,0.9-8.3,2.6-12,5l-5-5l-10.1,10.1l5,5c-2.4,3.7-4.1,7.7-5,12h-7V184h7c0.9,4.3,2.6,8.4,5,12l-5,5l10.1,10.1l5-5
		c3.7,2.4,7.7,4.1,12,5v7h14.2v-7c4.3-0.9,8.3-2.6,12-5l5,5l10.1-10.1l-5-5c2.4-3.7,4.1-7.7,5-12h7v-14.2H472.3z M438.1,199.5
		c-12.5,0-22.6-10.1-22.6-22.6s10.1-22.6,22.6-22.6s22.6,10.1,22.6,22.6S450.5,199.5,438.1,199.5
		C438.1,199.5,438.1,199.5,438.1,199.5L438.1,199.5z"></path><linearGradient id="SVGID_00000114770575366025914750000006250609410248086660_-cB1XUrrnIf" gradientUnits="userSpaceOnUse" x1="272.1057" y1="383.1332" x2="296.8657" y2="339.1032" gradientTransform="matrix(1 0 0 -1 0 502)"><stop offset="0" style="stop-color: rgb(243, 131, 116);"></stop><stop offset="1" style="stop-color: rgb(198, 66, 52);"></stop></linearGradient><path d="M297.5,131.7c-0.4-2-1.2-4-2.4-5.7
		l2.4-2.4l-4.8-4.8l-2.4,2.4c-1.7-1.1-3.7-1.9-5.7-2.4v-3.3h-6.8v3.3c-2,0.4-4,1.2-5.7,2.4l-2.4-2.4l-4.8,4.8l2.4,2.4
		c-1.1,1.7-1.9,3.7-2.4,5.7h-3.3v6.8h3.4c0.4,2,1.2,4,2.4,5.7l-2.4,2.4l4.8,4.8l2.4-2.4c1.7,1.2,3.7,2,5.7,2.4v3.3h6.8v-3.3
		c2-0.4,4-1.2,5.7-2.4l2.4,2.4l4.8-4.8l-2.4-2.4c1.1-1.7,1.9-3.7,2.4-5.7h3.3v-6.8H297.5z M281.2,145.9c-5.9,0-10.7-4.8-10.7-10.8
		c0-5.9,4.8-10.7,10.8-10.7c5.9,0,10.7,4.8,10.7,10.7C292,141,287.2,145.9,281.2,145.9C281.2,145.9,281.2,145.9,281.2,145.9
		L281.2,145.9z" style="fill: url(&quot;#SVGID_00000114770575366025914750000006250609410248086660_-cB1XUrrnIf&quot;);"></path><linearGradient id="SVGID_00000008124361601504646910000012793591298512800160_-cB1XUrrnIf" gradientUnits="userSpaceOnUse" x1="272.0981" y1="383.1289" x2="296.8581" y2="339.099" gradientTransform="matrix(1 0 0 -1 0 502)"><stop offset="0" style="stop-color: rgb(243, 131, 116);"></stop><stop offset="1" style="stop-color: rgb(198, 66, 52);"></stop></linearGradient><circle cx="281.2" cy="135.1" r="5.5" style="fill: url(&quot;#SVGID_00000008124361601504646910000012793591298512800160_-cB1XUrrnIf&quot;);"></circle><linearGradient id="SVGID_00000065040670128138006020000015724956689289552554_-cB1XUrrnIf" gradientUnits="userSpaceOnUse" x1="455.2252" y1="405.0914" x2="496.8852" y2="256.4615" gradientTransform="matrix(1 0 0 -1 0 502)"><stop offset="0" style="stop-color: rgb(10, 107, 91);"></stop><stop offset="0.78" style="stop-color: rgb(0, 81, 70);"></stop><stop offset="0.91" style="stop-color: rgb(0, 80, 69);"></stop></linearGradient><path d="M476.9,112.7c-0.4-2-1.2-4-2.4-5.7
		l2.4-2.4l-4.8-4.8l-2.4,2.4c-1.7-1.1-3.7-1.9-5.7-2.4v-3.3h-6.8v3.3c-2,0.4-4,1.2-5.7,2.4l-2.4-2.4l-4.8,4.8l2.4,2.4
		c-1.1,1.7-2,3.7-2.4,5.7H441v6.8h3.3c0.4,2,1.2,4,2.4,5.7l-2.4,2.4l4.8,4.8l2.4-2.4c1.7,1.1,3.7,2,5.7,2.4v3.3h6.8v-3.3
		c2-0.4,4-1.2,5.7-2.4l2.4,2.4l4.8-4.8l-2.4-2.4c1.1-1.7,1.9-3.7,2.4-5.7h3.3v-6.8H476.9z M460.6,126.9c-5.9,0-10.8-4.8-10.8-10.8
		s4.8-10.8,10.8-10.8s10.8,4.8,10.8,10.8C471.4,122.1,466.5,126.9,460.6,126.9L460.6,126.9z" style="fill: url(&quot;#SVGID_00000065040670128138006020000015724956689289552554_-cB1XUrrnIf&quot;);"></path></g><g id="light"><path class="st0" d="M490,83c-8.6,0.6-15.6,7.4-16.4,16c-0.9-8.6-7.8-15.4-16.4-16c8.6-0.6,15.6-7.4,16.4-16
		C474.4,75.6,481.4,82.4,490,83z"></path><path class="st0" d="M456.9,69.3c-4.6,0.3-8.3,3.9-8.8,8.6c-0.5-4.6-4.2-8.2-8.8-8.6c4.6-0.3,8.3-3.9,8.8-8.6
		C448.5,65.3,452.2,68.9,456.9,69.3z"></path><path class="st0" d="M271.4,56.8c-4.6,0.3-8.3,3.9-8.8,8.6c-0.5-4.6-4.2-8.2-8.8-8.6c4.6-0.3,8.3-3.9,8.8-8.6
		C263,52.9,266.7,56.5,271.4,56.8z"></path></g><g id="line"><path class="st3" d="M289.5,483.1c-4.5,0-9-0.1-13.5-0.2c-0.7-0.1-1.1-0.7-1-1.3c0.1-0.6,0.5-1,1.1-1c8.8,0.3,18.2,0.3,26,0
		c0.7-0.1,1.2,0.4,1.3,1c0.1,0.7-0.4,1.2-1,1.3c-0.1,0-0.1,0-0.2,0C298.4,483,294,483.1,289.5,483.1z"></path><path class="st3" d="M147.2,483.1c-37.3,0-74.5-0.1-111.4-0.2c-0.7-0.1-1.1-0.6-1.1-1.3c0.1-0.6,0.5-1,1.1-1.1l0,0
		c73.8,0.3,148.9,0.3,223.1,0l0,0c0.7,0.1,1.1,0.6,1.1,1.3c-0.1,0.6-0.5,1-1.1,1.1C221.8,483,184.4,483.1,147.2,483.1z"></path></g><g id="character"><linearGradient id="SVGID_00000060720987686993943780000010252547965704774017_-cB1XUrrnIf" gradientUnits="userSpaceOnUse" x1="113.6782" y1="108.359" x2="172.7882" y2="1.449" gradientTransform="matrix(1 0 0 -1 0 502)"><stop offset="0" style="stop-color: rgb(10, 107, 91);"></stop><stop offset="0.78" style="stop-color: rgb(0, 81, 70);"></stop><stop offset="0.91" style="stop-color: rgb(0, 80, 69);"></stop></linearGradient><path d="M78.6,481.6c0,0,13.5-64.1,60.2-75.9
		c90-22.7,95,75.1,95,75.1L78.6,481.6z" style="fill: url(&quot;#SVGID_00000060720987686993943780000010252547965704774017_-cB1XUrrnIf&quot;);"></path><path class="st9" d="M21,266.3c0,0-6,155.1,58.4,115.9c34.3-16.2-21.4-116.9-21.4-116.9S33.5,240.2,21,266.3z"></path><path class="st3" d="M118.3,290.3c-0.6,0-1.3,0-1.9-0.1c-1-0.1-1.7-1-1.5-2c0.1-1,1-1.7,2-1.5c9.6,1.2,13.2-9.8,17.1-21.3
		c0.3-0.9,0.6-1.8,0.9-2.7c5.5-16.2,12.4-18.2,13.2-18.4c1-0.2,1.9,0.4,2.1,1.3c0.2,1-0.4,1.9-1.3,2.1c-0.2,0.1-5.8,1.9-10.6,16
		c-0.3,0.9-0.6,1.8-0.9,2.6C133.5,277.7,129.3,290.3,118.3,290.3z"></path><path class="st3" d="M195.1,249c0.2-0.2,0.3-0.5,0.4-0.8l7.3-7.2c0,0-9.6-9-30.2-8.4c-46.9,1.3-31.5,59.5-51.5,60.7
		c0,0,11.1,24,44.3,18.6s49.1-27.4,49.1-27.4S184.7,268.6,195.1,249z"></path><path class="st9" d="M178.2,292.8c-7,1.3-14.2-0.2-20.1-4.1c5.2-3.8-1.4-13.2-1.4-13.2c-7.3,0.7-10.1-14.2-2.5-16.2
		c7.7-2,9.7,6.8,9.7,6.8c3.2,3.9,8.5-15.5,10.9-17.5c1.1-0.9,2.9-1.1,4.8,8.9c5.7,0.8,15.5-7,16-9.3c9.4,12.2,7.1,29.8-5.2,39.2
		C186.8,290.1,182.6,292,178.2,292.8L178.2,292.8z"></path><ellipse class="st9" transform="matrix(9.289197e-02 -0.9957 0.9957 9.289197e-02 -82.4579 445.3873)" cx="203.2" cy="267.9" rx="3.9" ry="8.7"></ellipse><path class="st10" d="M158.6,270.2c-0.6,0.1-1.3,0-1.8-0.4c-0.5-0.4-0.8-1-0.8-1.6c0-0.6,0.2-1.2,0.7-1.6c0.2-0.2,0.5-0.3,0.8-0.4
		l0.2-0.1c0,0,0.3-0.1,0.1,0c0.2,0,0.4,0,0.6,0c0.7,0,1.2-0.5,1.2-1.2c0-0.1,0-0.2,0-0.3c-0.4-2.1-2.5-3.5-4.6-3.1
		c-1.5,0.3-2.6,1.4-3,2.8c-0.2,0.6,0.2,1.3,0.8,1.5c0.6,0.2,1.3-0.2,1.5-0.8c0.1-0.3,0.3-0.6,0.6-0.8c0.1-0.1,0.2-0.2,0.4-0.2
		c-0.2,0.1,0.2-0.1,0.2-0.1s0.4-0.1,0.2,0c0.1,0,0.2,0,0.4,0c0.3,0,0.6,0.2,0.8,0.4c0.3,0.3,0.5,0.6,0.6,1.1l1.1-1.5
		c-2.5-0.2-4.6,1.7-4.8,4.2c-0.2,2.5,1.7,4.6,4.2,4.8c0.3,0,0.6,0,0.8,0c0.6,0,1.2-0.5,1.2-1.2C159.8,270.9,159.2,270.2,158.6,270.2
		L158.6,270.2z"></path><ellipse class="st11" transform="matrix(0.9256 -0.3785 0.3785 0.9256 -85.3342 91.9987)" cx="191.4" cy="263.1" rx="3.5" ry="4.1"></ellipse><ellipse class="st12" transform="matrix(0.9147 -0.4042 0.4042 0.9147 -89.786 100.122)" cx="192.3" cy="262.7" rx="2.3" ry="2.7"></ellipse><path class="st10" d="M183.8,282.4c-0.6,0-1.1-0.1-1.7-0.2c-2.4-0.6-4.4-2.3-5.6-4.5c-0.3-0.6-0.1-1.3,0.4-1.6
		c0.6-0.3,1.3-0.1,1.6,0.4c0,0.1,0.1,0.1,0.1,0.2l0,0c0.8,1.6,2.3,2.7,4,3.2c2.2,0.5,4.9-0.5,7.9-2.9c0.5-0.4,1.2-0.3,1.7,0.2
		c0.4,0.5,0.3,1.2-0.2,1.7c0,0,0,0,0,0C189,281.2,186.3,282.4,183.8,282.4z"></path><path class="st10" d="M173.2,279.8c-0.7,0-1.2-0.5-1.2-1.1c0-0.7,0.5-1.2,1.1-1.2c2.8-0.2,5.2-2.1,6-4.8c0.2-0.6,0.8-1,1.5-0.8
		c0.6,0.2,1,0.8,0.8,1.5C180.2,277,177,279.6,173.2,279.8L173.2,279.8z"></path><path class="st10" d="M199.9,272.1h-0.1c-1.2-0.2-2.2-0.7-3-1.6c-0.4-0.5-0.3-1.3,0.2-1.7c0.5-0.4,1.1-0.3,1.5,0.1
		c0.4,0.4,0.9,0.7,1.4,0.8c0.7,0,1.2,0.6,1.1,1.2C201.1,271.7,200.5,272.2,199.9,272.1L199.9,272.1z"></path><linearGradient id="SVGID_00000109013723806740876010000017239734910198115239_-cB1XUrrnIf" gradientUnits="userSpaceOnUse" x1="137.9092" y1="242.9397" x2="206.1492" y2="73.9197" gradientTransform="matrix(1 0 0 -1 0 502)"><stop offset="0" style="stop-color: rgb(243, 131, 116);"></stop><stop offset="1" style="stop-color: rgb(198, 66, 52);"></stop></linearGradient><path d="M196.1,303.6c0,0-53.7-6.2-71.7,6.8
		c-13.5,9.8-4.5,51.8,0.8,72.1c1.7,6.6,7.7,11.1,14.5,11.1h48.6c5.8,0,11-3.3,13.5-8.5c8-16.8,24.7-53.2,23.9-62.3
		C224.1,305.4,196.1,303.6,196.1,303.6z" style="fill: url(&quot;#SVGID_00000109013723806740876010000017239734910198115239_-cB1XUrrnIf&quot;);"></path><linearGradient id="SVGID_00000135662086462342348480000016732151116633960330_-cB1XUrrnIf" gradientUnits="userSpaceOnUse" x1="95.0373" y1="197.9982" x2="157.4373" y2="105.0382" gradientTransform="matrix(1 0 0 -1 0 502)"><stop offset="0" style="stop-color: rgb(243, 131, 116);"></stop><stop offset="1" style="stop-color: rgb(198, 66, 52);"></stop></linearGradient><path d="M133.6,306.1c-9.9,3.1-19,8.3-26.7,15.3
		c-11.9,11.1-16.6,30.8-16.6,30.8l37.3,7L133.6,306.1z" style="fill: url(&quot;#SVGID_00000135662086462342348480000016732151116633960330_-cB1XUrrnIf&quot;);"></path><linearGradient id="SVGID_00000140703257395014997500000017954978453651671728_-cB1XUrrnIf" gradientUnits="userSpaceOnUse" x1="91.2328" y1="224.1011" x2="159.4728" y2="55.0811" gradientTransform="matrix(1 0 0 -1 0 502)"><stop offset="0" style="stop-color: rgb(243, 131, 116);"></stop><stop offset="1" style="stop-color: rgb(198, 66, 52);"></stop></linearGradient><path d="M133.6,306.1c-9.9,3.1-19,8.3-26.7,15.3
		c-11.9,11.1-16.6,30.8-16.6,30.8l37.3,7L133.6,306.1z" style="fill: url(&quot;#SVGID_00000140703257395014997500000017954978453651671728_-cB1XUrrnIf&quot;);"></path><linearGradient id="SVGID_00000046303111554182118930000008276124722852362137_-cB1XUrrnIf" gradientUnits="userSpaceOnUse" x1="185.5113" y1="262.1605" x2="253.7413" y2="93.1305" gradientTransform="matrix(1 0 0 -1 0 502)"><stop offset="0" style="stop-color: rgb(243, 131, 116);"></stop><stop offset="1" style="stop-color: rgb(198, 66, 52);"></stop></linearGradient><path d="M207.3,306.1c9.9,3.1,19,8.3,26.7,15.3
		c11.9,11.1,16.6,30.8,16.6,30.8l-37.3,7L207.3,306.1z" style="fill: url(&quot;#SVGID_00000046303111554182118930000008276124722852362137_-cB1XUrrnIf&quot;);"></path><path class="st9" d="M29.6,353.3c1,0.7,12,61.9,48,71.9c52,14.4,50.1-66,50.1-66l-37.3-7L29.6,353.3z"></path><path class="st9" d="M24.8,241.1c0,0,6.6-14.8,12.3-19.4s18.8-0.1,23.5,3.8s0.7,9.5,0.7,9.5s5.2-0.5,7.9,6.4s0,10.5,0,10.5
		s6.4,7.5,4.2,14.1c0.5-0.1,3.3,9-8.6,16.1c-12.5,7.5-23,13.6-29.1,12.4S13,271.2,24.8,241.1z"></path><path class="st9" d="M249.4,349.1l4,9.4l49-79.4c3-7.4,8.8-13.3,16-16.6c13.4-6.3,18.7-8.3,24.5-8.3c8,0,4.3,6.1,4.3,6.1
		s6.6,3.1,16.3-1.7s12.1-7.8,16.7-8.2s6.5,1.7,6.5,1.7s3.9-1.9,10.4,0.2s4.9,9.9,4.9,9.9s3.9,2.2,1,8.3s-17.1,12.2-19.3,13.9
		s8.9-0.8,12.5,1.9s2.9,8.7-6.7,9.8s-24.9,5.7-37,10.3c-7.5,2.9-14.6,6.5-21.3,11c0,0-10.3,76.6-38.5,111
		c-23.7,28.8-60.4,19.3-75.3,2.4c-7.8-8.9-12-27.8-16.8-44c9-20.4,13.7-31.2,13.7-31.2L249.4,349.1z"></path><path class="st3" d="M144,481.1c-0.2,0-0.5-0.1-0.7-0.2c-0.5-0.3-0.7-1-0.4-1.5c0.7-2,4.1-26.1,6.4-42.7c-3.2-1.1-7.7-5.7-9.2-7.2
		c-0.4-0.5-0.4-1.2,0.1-1.7c0.5-0.4,1.2-0.4,1.7,0.1c3,3.2,7.1,6.7,8.6,6.7h0.1c0.4,0,0.7,0.1,0.9,0.4c0.3,0.3,0.4,0.6,0.3,1
		c-2.7,19.7-6.1,43.5-6.9,44.7C144.8,480.9,144.4,481.1,144,481.1z"></path><path class="st11" d="M213,481.1h-0.2c-0.6-0.1-1-0.6-0.9-1.2c-0.1-2.3-7.5-34.9-12.4-56.3c-0.2-0.6,0.1-1.3,0.8-1.5
		s1.3,0.1,1.5,0.8c0,0.1,0,0.1,0,0.2c5.8,25.4,12.6,55.9,12.4,57.2C214,480.7,213.6,481.1,213,481.1z M213,479.9L213,479.9z"></path><path class="st0" d="M187.7,351.7c-3.9,0-8.1-1.2-9.5-6c-0.7-3-0.5-6.1,0.6-9c-4.6,1.4-9.2,2-13.3,1.3c-3.8-0.7-6.1-2.3-6.7-4.9
		c-2.4-9.5,20.7-28.1,23.3-30.1c0.5-0.4,1.3-0.3,1.7,0.2s0.3,1.3-0.2,1.7l0,0c-4.3,3.4-8.3,7.1-12.2,11
		c-7.4,7.6-11.1,13.5-10.3,16.7c0.4,1.6,2,2.6,4.9,3.1s8,0.1,14-1.8c4.1-8.4,11.3-14.9,20.1-18.2c4.3-1.5,6.6-1.6,7.6-0.4
		c0.5,0.6,0.8,1.6-0.2,3.2c-2.4,4.1-13.9,12.9-25.8,17.3c-1.5,3.5-2,6.8-1.3,9.3c1.2,4,5.6,5.2,12.6,3.6c24.3-5.9,44.9-21.8,45.1-22
		c0.5-0.4,1.2-0.4,1.7,0.1c0.4,0.5,0.4,1.2-0.1,1.7c0,0,0,0-0.1,0.1c-0.2,0.2-21.2,16.4-46,22.4
		C191.6,351.4,189.7,351.7,187.7,351.7z M205.5,316.8c-1.6,0.1-3.1,0.5-4.6,1.1c-6.6,2.5-12.2,6.9-16.2,12.7
		c-0.5,0.7-0.9,1.4-1.4,2.1c6.5-2.6,12.6-6.3,17.9-10.8c3.2-2.7,4.3-4.4,4.5-5L205.5,316.8z"></path><path class="st0" d="M139.6,394.9c-0.7,0-1.2-0.5-1.2-1.1c0-0.3,0.1-0.5,0.2-0.7c0.2-0.2,16.5-23.3,12.6-36.7
		c-1-3.6-3.7-6.5-7.3-7.8c-20.7-8.5-29.3,6.9-29.7,7.6c-0.3,0.6-1,0.8-1.6,0.5s-0.8-1-0.5-1.6c0.1-0.2,10.1-17.9,32.7-8.6
		c4.2,1.5,7.4,5,8.7,9.3c4.2,14.6-12.3,37.8-13,38.8C140.3,394.7,140,394.8,139.6,394.9z"></path><path class="st3" d="M127.6,360.4h-0.2c-0.6-0.1-1-0.8-0.9-1.4c0-0.2,4.5-21.5-2-32.3c-0.3-0.6-0.1-1.3,0.4-1.6
		c0.6-0.3,1.3-0.2,1.6,0.4c7,11.6,2.4,33.1,2.3,34C128.6,360,128.1,360.4,127.6,360.4z"></path><path class="st3" d="M214.4,356.7c-0.2,0-0.4,0-0.6-0.1c-0.6-0.3-0.8-1-0.5-1.6c0.1-0.1,6.2-12.3,1-21.9c-0.1-0.2-0.2-0.5-0.1-0.8
		c0.1-0.4,1.7-9,6.8-11.2c0.6-0.3,1.3,0,1.6,0.6c0.3,0.6,0,1.3-0.6,1.6l0,0c-3.1,1.3-4.8,6.6-5.3,9c5.5,10.6-0.9,23.2-1.2,23.7
		C215.2,356.4,214.8,356.7,214.4,356.7z"></path><path class="st10" d="M346.8,290.5c-0.1,0-0.2,0-0.3,0c-0.6-0.2-1-0.8-0.9-1.4c3.7-14.8-8-20.4-8.5-20.6c-0.6-0.3-0.9-1-0.6-1.6
		c0.1-0.3,0.4-0.6,0.8-0.6c0.9-0.3,5.5-3.7,9.1-6.7c0.5-0.4,1.2-0.3,1.7,0.2s0.3,1.2-0.2,1.7c-1.4,1.2-5.3,4.4-8,6.1
		c3.7,2.5,11.2,9.4,7.9,22.2C347.8,290.1,347.3,290.5,346.8,290.5z"></path><path class="st10" d="M365.4,290.2c-0.7,0-1.2-0.5-1.2-1.2c0-0.6,0.4-1.1,1-1.2l18-3.6c0.6-0.1,1.3,0.3,1.4,0.9c0,0,0,0,0,0
		c0.1,0.6-0.3,1.3-0.9,1.4l-18,3.6L365.4,290.2z"></path><path class="st10" d="M367.4,277.3c-0.7,0-1.2-0.5-1.2-1.1c0-0.6,0.4-1.2,1-1.2c13.3-2.3,34.2-13.6,34.4-13.7
		c0.6-0.3,1.3-0.1,1.6,0.5c0.3,0.6,0.1,1.2-0.5,1.5c-0.9,0.5-21.5,11.7-35.1,14L367.4,277.3z"></path><path class="st10" d="M363.5,266.7c-0.7,0-1.2-0.6-1.2-1.2c0-0.5,0.4-1,0.9-1.1c10.7-2.5,22.7-13,22.8-13.1
		c0.5-0.4,1.2-0.4,1.7,0.1s0.4,1.2-0.1,1.7c0,0,0,0,0,0c-0.5,0.4-12.5,11-23.8,13.6C363.7,266.6,363.6,266.7,363.5,266.7z"></path><path class="st10" d="M364.6,292.5c-0.1,0-0.3,0-0.4-0.1c-0.6-0.2-0.9-0.9-0.7-1.5c0,0,0,0,0,0c6.6-17.1-4.1-27.7-4.5-28.1
		c-0.5-0.5-0.5-1.2,0-1.7s1.2-0.5,1.7,0c2.3,2.4,4.1,5.2,5.3,8.3c2,4.8,3.5,12.6-0.2,22.4C365.6,292.2,365.1,292.5,364.6,292.5z"></path><path class="st10" d="M324,320.1c-0.7,0-1.4,0-2.1-0.1c-0.7-0.1-1.1-0.6-1.1-1.3c0.1-0.7,0.6-1.1,1.3-1.1c5.6,0.5,8.7-1.3,8.7-1.3
		c0.6-0.3,1.3,0,1.6,0.6c0.2,0.5,0.1,1-0.3,1.4C329.5,319.6,326.8,320.2,324,320.1z"></path><path class="st10" d="M247.8,389.6c-0.5,0-1-0.4-1.1-0.9c-3.2-12.7,5.4-30,5.7-30.8c0.3-0.6,1-0.8,1.6-0.5c0.6,0.3,0.8,1,0.5,1.6
		c-0.1,0.2-8.6,17.2-5.6,29.1c0.2,0.6-0.2,1.3-0.9,1.4C248,389.6,247.9,389.6,247.8,389.6z"></path><path class="st10" d="M93.8,378.8h-0.2c-0.6-0.1-1.1-0.7-1-1.4c0,0,0,0,0,0c1.4-8.4,0.2-17-3.4-24.6c-0.3-0.6,0-1.3,0.6-1.6
		c0.5-0.2,1.2,0,1.5,0.4c3.9,8.1,5.2,17.3,3.6,26.2C94.9,378.4,94.4,378.8,93.8,378.8z"></path><path class="st10" d="M33.8,238.1c-0.7,0-1.2-0.6-1.2-1.2c0-0.4,0.2-0.7,0.5-1c3.5-2.2,7.3-3.7,11.2-4.5c6.9-1.5,16.9,2.3,17.4,2.5
		c0.6,0.2,0.9,0.9,0.7,1.5s-0.9,0.9-1.5,0.7c-0.1,0-9.8-3.7-16-2.4c-3.7,0.8-7.2,2.2-10.4,4.1C34.3,238,34.1,238.1,33.8,238.1z"></path><path class="st10" d="M52.2,257.5c-0.7,0-1.2-0.5-1.2-1.1c0-0.6,0.4-1.1,1-1.2c5.7-0.9,11.4-2.4,16.8-4.3c0.6-0.2,1.3,0.2,1.5,0.8
		c0.2,0.6-0.1,1.1-0.6,1.4c-5.6,2-11.4,3.4-17.3,4.4L52.2,257.5z"></path><path class="st10" d="M47.8,278.5h-0.4c-0.7,0-1.1-0.6-1.1-1.2c0-0.7,0.6-1.1,1.2-1.1c0,0,4.8,0.2,13-3.2c4-1.6,7.7-3.9,10.9-6.9
		c0.8-0.7,1.1-1,1.7-1.1c0.6-0.1,1.3,0.3,1.4,0.9c0.1,0.6-0.2,1.1-0.7,1.3c-0.1,0.1-0.4,0.4-0.7,0.6c-3.4,3.1-7.3,5.6-11.6,7.3
		C54,278.3,49.2,278.5,47.8,278.5z"></path><path class="st10" d="M53.2,304.4c-0.3,0-0.5-0.1-0.7-0.2c-0.5-0.4-0.6-1.1-0.2-1.7c0,0,0,0,0,0c3.8-4.9,0.5-11.8,0.5-11.9
		c-0.3-0.6,0-1.3,0.6-1.6c0.1,0,0.2-0.1,0.3-0.1c3.7-0.7,10.3-6.2,12.6-8.3c0.5-0.4,1.2-0.4,1.7,0.1c0.4,0.5,0.4,1.2-0.1,1.7
		c-0.3,0.3-7.2,6.7-12.4,8.5c0.9,2.6,2.3,8.4-1.3,13.1C53.9,304.2,53.6,304.4,53.2,304.4z"></path></g><g id="lamp"><linearGradient id="SVGID_00000158742030016322827540000015159533771970839450_-cB1XUrrnIf" gradientUnits="userSpaceOnUse" x1="332.6823" y1="323.8738" x2="416.0323" y2="220.2438" gradientTransform="matrix(1 0 0 -1 0 502)"><stop offset="0" style="stop-color: rgb(243, 131, 116);"></stop><stop offset="1" style="stop-color: rgb(198, 66, 52);"></stop></linearGradient><path d="M325,195.8c0,0-16.7,13.3-9.3,22.5
		s7.8,11.5,14,16.1s61.1,4.9,68.5-1.7s-7.8-11.8-2.8-17s6.8-14.1,1.9-19s-23.2-7.2-40.9-4.7S325,195.8,325,195.8z" style="fill: url(&quot;#SVGID_00000158742030016322827540000015159533771970839450_-cB1XUrrnIf&quot;);"></path><path class="st0" d="M323.2,52.7c-2.7,1.8-26.4,12.8-22.3,41.9s10.5,73.7,37.8,76s39.1-20.9,62.4-37.8s41.9-48.7,11.4-76
		S323.2,52.7,323.2,52.7z"></path><path class="st3" d="M312.3,244.5c-1.8,0-3.7-0.1-5.5-0.3c-11.6-1.3-21.4-9.1-25.1-20.1c-1.9-5.7-3.4-11.6-4.8-17.2
		c-4-15.6-7.8-30.3-19.5-41.2c-0.8-0.8-1.6-1.5-2.4-2.1c-1.5-1.1-2.7-2.4-3.7-4c-13.4-11.1-29.3-18.3-48.6-21.9
		c-16.9-2.4-30.7-3.5-46.8-1.2l-0.4,0.1c-1.5,14.9-8.3,30-19.9,43.1l-0.1,0.1c-6,6-13.5,9.4-20,9c-4.9-0.3-9.3-2.8-12.2-6.7
		c-4.2-4.3-5.6-11-4-19.3c0,0,0-0.1,0-0.1c2.6-9.2,11.6-15.3,18.7-18.9l0.1-0.1c10.9-4.4,22.3-7.8,33.8-10.1
		c0.6-9.5-1.1-18.9-5.1-27.6c-9.1-18.2-29.6-29.6-54.8-30.6c-1,0-1.7-0.9-1.7-1.8c0,0,0,0,0,0c0-1,0.8-1.7,1.8-1.7c0,0,0,0,0.1,0
		c26.6,1,48.2,13.2,57.9,32.6c4.2,8.9,6.2,18.7,5.7,28.6c16.3-2.3,30.3-1.2,47.4,1.2c20.1,3.8,36.6,11.2,50.6,22.9
		c0.2,0.2,0.3,0.4,0.5,0.6c0.8,1.3,1.8,2.3,3,3.2c0.8,0.7,1.7,1.4,2.6,2.3c12.5,11.6,16.4,26.8,20.5,42.9c1.4,5.6,2.9,11.3,4.8,16.9
		c3.3,9.7,12,16.6,22.2,17.7c9.2,1.1,19.8-1.2,29-3.5h0.2c10.7-1.3,21.1-0.8,31.1-0.3c7.8,0.6,15.6,0.7,23.4,0.3
		c6.4-0.9,16-5.7,15-14.5c-0.6-2.3-2.3-4-4.6-5.4c-3.1,2.9-7.2,4.5-11.4,4.5c-16.8,0-34,1.9-54.1,5.9c-0.1,0-0.2,0-0.4,0
		c-1.4,0-3,0.1-4.6,0.3c-6.3,0.6-14.9,1.4-17.2-7.4c-0.9-2.1-0.8-4.5,0.2-6.6c2.2-4.2,7.7-5.9,9.3-6.3h0.1
		c27.9-5.3,52.1-4.1,74.3,3.6l0.2,0.1c0.9,0.5,1.8,0.9,2.7,1.4c1.8-2.9,2.4-6.5,1.5-9.9c-0.8-3.1-2.9-5.8-5.8-7.3
		c-16.6-7.7-36.3-3.8-56.7,1.3c-5.6,1.9-13.4,2.9-18.5,0.1c-2.4-1.2-4.2-3.4-5-6.1c-1.8-6.3,1.3-12,4-17c1.2-2,2.2-4.1,3-6.3
		c0-1.2,0.2-2.4,0.3-3.5c0.2-1.9,0.4-3.8-0.1-4.8c-3.1-6.7-6.9-13.3-10.6-19.7c-4.8-8.2-9.7-16.7-13.1-25.4l-3.6-10.7
		c-7.5-21.3-0.3-43.9,18.4-57.6c18.2-13.3,35.8-20.9,52.4-22.6c14.3-1.5,27.6,1.4,39.3,8.5c10.5,6.5,19,15.8,24.6,26.8
		c5.2,10.1,7.4,20.7,6.1,29.2l-0.3,1.9c-1.9,12.3-3.7,24-11.8,35.5c-3.1,4.6-7.1,7.8-11.1,10.9c-2.4,1.8-4.7,3.8-6.9,5.9
		c-1.4,1.3-2.9,2.3-4.5,3.2c-1.4,0.7-2.6,1.6-3.8,2.7L398,148c-2.9,2-5.9,3.9-9,5.5c-7.8,4.3-15.9,8.8-17.5,18.2
		c-0.3,3.6-2.6,6.7-5.8,8.1c-4.8,2.2-11.8,1.3-17-2.2l-0.1-0.1c-15.9-12.5-21.6-34.5-14.8-57.5c4.9-17,12.7-19.7,18.5-19
		c4.2,0.2,8,2.4,10.3,5.8c3.3-2.1,7.2-2.9,11-2.3c0.4,0.1,0.7,0.3,1,0.5c13,13.9,1.9,28.5-8,41.3c-3.7,4.8-7.2,9.4-9.4,13.8
		c-0.9,2.8-1.2,5.7-0.7,8.6c0,1-0.7,1.8-1.7,1.8c-0.9,0-1.7-0.6-1.8-1.5c-0.5-3.4-0.2-6.9,1-10.2c0-0.1,0.1-0.2,0.1-0.2
		c2.4-4.7,6-9.5,9.9-14.5c9.7-12.7,18.9-24.7,8.6-36.3c-2.9-0.3-5.9,0.4-8.3,2.1c2.5,6.9,0.8,16.2-2.2,23c-0.8,1.5-1.5,3.2-2.2,5
		c-2.7,6.7-6.1,15.1-14.6,16.2c-0.5,0.1-1.1-0.1-1.5-0.5c-3.6-3.6-1.6-8.1-0.2-11.3c0.3-0.8,0.7-1.5,0.9-2.1
		c1.2-9.4,4.7-17.9,10.9-26.7c1.3-1.7,2.7-3.3,4.4-4.6c-1.7-2.7-4.6-4.3-7.8-4.4c-6.4-0.8-11.4,4.7-14.7,16.5
		c-7.6,25.7,2,44.6,13.5,53.7c4.2,2.8,9.9,3.6,13.5,1.9c2.2-1,3.6-3.1,3.8-5.4c1.9-11.2,11.1-16.3,19.3-20.8
		c2.9-1.5,5.8-3.3,8.5-5.2c1.3-1.2,2.8-2.3,4.4-3.1c1.4-0.7,2.6-1.6,3.8-2.7c2.3-2.2,4.7-4.2,7.2-6.2c3.9-3.1,7.5-6,10.3-10.1
		c7.7-11,9.4-22.2,11.3-34.1l0.3-1.9c2.4-15.2-8-39.6-29-52.3c-24.1-14.7-55.3-9.8-87.6,13.8c-17.4,12.7-24.1,33.8-17.1,53.6
		l3.6,10.7c3.2,8.4,8.1,16.8,12.8,24.9c3.8,6.4,7.6,13.1,10.8,19.9c1,2,0.7,4.3,0.4,6.8c-0.2,1.1-0.2,2.3-0.3,3.4
		c0,0.2,0,0.4-0.1,0.6c-0.9,2.5-2,4.8-3.4,7.1c-2.6,4.8-5.1,9.4-3.7,14.3c0.5,1.7,1.6,3.1,3.2,3.9c4.2,2.2,11.1,1.2,15.8-0.4h0.1
		c21.1-5.3,41.5-9.3,59.1-1.1c3.8,1.9,6.6,5.4,7.7,9.5c1.1,4.3,0.5,8.8-1.9,12.6c2.7,1.8,5,4.1,5.8,7.4c0,0.1,0,0.1,0,0.2
		c1.3,10.2-8.4,17.1-18.1,18.5h-0.1c-7.9,0.4-15.9,0.3-23.8-0.3c-9.8-0.5-20-1-30.4,0.3C329.2,242.6,320.5,244.5,312.3,244.5z
		 M324,211c-2.6,0.7-5.8,2.2-7,4.5c-0.6,1.2-0.6,2.6,0,3.8c0,0.1,0.1,0.2,0.1,0.2c1.4,5.6,6,5.6,13.4,4.9c1.7-0.2,3.3-0.3,4.8-0.3
		c20.2-4,37.6-5.9,54.6-5.9c3,0,5.8-1,8.2-2.8l-1.8-0.9C374.8,207,351.2,205.9,324,211z M102.9,163.6c-1.4,7.2-0.4,12.6,3.1,16.1
		c0.1,0,0.1,0.1,0.1,0.2c2.3,3.2,5.8,5.2,9.7,5.4c5.4,0.4,11.9-2.6,17.2-7.9c11.8-13.4,17.3-27.3,18.8-40c-11,2.2-21.7,5.5-32.2,9.7
		C114.4,149.7,105.3,155.3,102.9,163.6z M134.3,178.6L134.3,178.6z M361.1,112.4c-1.1,1-2.1,2.1-2.9,3.3
		c-5.9,8.3-9.2,16.3-10.3,25.2c0,0.1,0,0.2-0.1,0.3c-0.3,0.9-0.7,1.7-1.1,2.6c-1.3,3-2.1,5.1-1.1,6.7c5.8-1.3,8.3-7.6,10.8-13.8
		c0.8-1.9,1.5-3.6,2.3-5.2C361.2,126,362.6,118.2,361.1,112.4z"></path><path class="st3" d="M28.6,121.1c-1,0-1.8-0.9-1.7-1.9c0-0.2,0.1-0.4,0.1-0.6c9.1-22,29.5-39.8,52-45.5c0.9-0.2,1.9,0.3,2.2,1.3
		s-0.3,1.9-1.3,2.2c-21.1,5.3-41,22.8-49.5,43.4C30,120.7,29.3,121.1,28.6,121.1z"></path><path class="st3" d="M461,54.1c-14.1,0-22.3-3.3-24.3-9.8c-0.2-0.7-0.3-1.4-0.4-2.1c-3.8,0.6-6.5-0.2-8-2.4c-4.1-6,4-19.9,5.6-22.6
		c0.5-0.9,1.6-1.2,2.5-0.7s1.2,1.6,0.7,2.5l0,0c-3.6,6-7.8,15.7-5.7,18.8c0.7,1,2.2,1.3,4.7,0.9l0.6-0.1c1.3-5.8,6.3-11.4,10.8-14
		c2.7-1.6,4.8-1.9,6.2-0.8c0.7,0.5,1.7,1.7,1.1,4.3c-1,4.2-6.3,10.7-14.8,13.3c0,0.6,0.1,1.2,0.3,1.8c1.7,5.6,11.5,8.1,27.4,7.1
		c1,0,1.8,0.7,1.8,1.7c0.1,1-0.7,1.8-1.7,1.9c0,0,0,0,0,0C465.4,54,463.1,54.1,461,54.1z M451.2,26.7c-0.8,0.2-1.5,0.5-2.1,0.9
		c-3.7,2.3-6.7,5.7-8.5,9.7c3.9-1.6,7.2-4.3,9.5-7.8C450.7,28.7,451.1,27.7,451.2,26.7L451.2,26.7z"></path><path class="st3" d="M282.8,97.7c-1,0-1.8-0.8-1.7-1.8c0-0.3,0.1-0.6,0.3-0.9c2.5-3.8,2.9-6.9,1.3-9.3c-5.8,3.8-14.6,2.9-19.1,0.8
		c-3-1.4-3.7-3-3.7-4.2s0.5-2.5,3-3.6c6.3-2.8,14.9-1.2,19.7,2.1c0.5-0.8,0.8-1.7,0.7-2.6c-0.1-4.8-6.6-11-9.1-13
		c-0.7-0.7-0.8-1.8-0.1-2.5c0.6-0.7,1.6-0.8,2.3-0.3c0.4,0.3,10.3,8.2,10.5,15.7c0.1,1.9-0.5,3.7-1.6,5.1c2,2.7,3.3,7.1-1,13.7
		C284,97.4,283.4,97.7,282.8,97.7z M263.6,82.4c1.4,1,3.1,1.7,4.8,1.9c3.3,0.7,8,0.7,11.4-1.1c-4.4-2.5-11.5-2.9-15.5-1.2
		C264.1,82.1,263.9,82.2,263.6,82.4z"></path></g></svg>