<svg transform="scale(1)" version="1.1" id="LpWA8BXhev" xmlns="http://www.w3.org/2000/svg" xmlns:xlink="http://www.w3.org/1999/xlink" x="0px" y="0px" viewBox="0 0 500 500" xml:space="preserve" class="pbimage_pbimage__wrapper__image__0LEis false"><title>Handshake 2</title><style type="text/css"> .st0{fill:#FED490;} .st1{fill:#000111;} .st2{fill:#FFC2A7;} .st3{fill:#FEF1E0;} .st4{fill:url(#SVGID_1_-LpWA8BXhev);} .st5{fill:url(#SVGID_00000176746821444512396820000011216738714674956162_-LpWA8BXhev);} .st6{fill:#D88260;}
 .st6{fill:#D88260;}
 .st3{fill:#FEF1E0;}
 .st2{fill:#FFC2A7;}
 .st1{fill:#000111;}
 .st0{fill:#FED490;}</style><g id="light"><path class="st0" d="M377.6,178.4c-10.7,0.8-19.4,9.2-20.5,19.9c-1.1-10.7-9.7-19.1-20.4-19.9c10.7-0.8,19.4-9.2,20.4-19.9
		C358.2,169.2,366.9,177.6,377.6,178.4z" fill="#FED490"></path><path class="st0" d="M392.8,150.9c-5.7,0.4-10.4,4.9-10.9,10.6c-0.6-5.7-5.2-10.2-11-10.6c5.8-0.4,10.4-4.9,11-10.7
		C382.5,146,387.1,150.4,392.8,150.9z" fill="#FED490"></path><path class="st0" d="M191.9,102.6c-5.7,0.4-10.4,4.9-10.9,10.7c-0.6-5.8-5.2-10.2-11-10.7c5.8-0.4,10.4-4.9,11-10.7
		C181.5,97.6,186.1,102.1,191.9,102.6z" fill="#FED490"></path></g><g id="line"><path class="st1" d="M214.6,405.7c-0.8,0-1.4-0.6-1.4-1.4c0-0.8,0.6-1.4,1.4-1.4c47.5-0.3,70.8-0.3,118.8,0c0.8,0,1.4,0.6,1.4,1.4
		c0,0,0,0,0,0c0,0.7-0.6,1.3-1.4,1.4C285.5,405.4,262.2,405.4,214.6,405.7L214.6,405.7z"></path><path class="st1" d="M198.1,405.7L198.1,405.7c-7.7-0.3-17.2-0.3-25.5,0c-0.7,0-1.4-0.6-1.4-1.3c0-0.8,0.6-1.4,1.3-1.4c0,0,0,0,0,0
		c8.3-0.3,17.9-0.3,25.6,0c0.8,0,1.3,0.6,1.3,1.4C199.5,405.2,198.9,405.7,198.1,405.7L198.1,405.7z"></path></g><g id="hand"><path class="st1" d="M319.6,338.3c0,0-4.6-8.2,3.3-20.9l13.4,9.8C336.3,327.1,332.8,341,319.6,338.3z"></path><path class="st1" d="M302.5,307.8c-0.3-7.3,2.3-14.5,7.1-20l12.7,8C322.3,295.8,311.4,309.7,302.5,307.8z"></path><path class="st2" d="M359.1,220.5l-18.3-10.1c-14-7.8-23.9-21.3-27.3-37c-2-8.9-5.4-18.1-11.5-22.9c-8.8-7,1.8-2-12-10.5
		c-6-3.8-11.1-8.8-14.9-14.8c-1.4-2.1-4.4-4.6-10.5-7.1c-15.2-6.2-84.7,53.7-66.2,98.5c4.8,11.5,10.5,31.6,30.1,36.4
		s31.6,11.1,40.2,16.6s45.6,29,50.9,29.6S359.2,239.3,359.1,220.5z"></path><path class="st3" d="M359.1,220.5c0,0-28.6,75.6-56.6,87.2l30.2,19.5c0,0,31.6-33.6,49.4-95.3L359.1,220.5z"></path><linearGradient id="SVGID_1_-LpWA8BXhev" gradientUnits="userSpaceOnUse" x1="343.5005" y1="343.7802" x2="453.9405" y2="63.0702" gradientTransform="matrix(1 0 0 -1 0 502)"><stop offset="0" style="stop-color: rgb(10, 107, 91);"></stop><stop offset="0.78" style="stop-color: rgb(0, 81, 70);"></stop><stop offset="0.91" style="stop-color: rgb(0, 80, 69);"></stop></linearGradient><path class="st4" d="M382.1,232c0,0-18.9,67.3-62.5,106.3L438,408.1c0,0,29-60.9,52-118.3L382.1,232z"></path><path class="st0" d="M404.5,389.1c-0.3,0-0.6-0.1-0.9-0.3c-0.6-0.5-0.6-1.3-0.2-1.9c15.9-18.8,22.5-33.9,18.6-42.6
		c-2.8-6.2-10.1-7.6-14.5-7.8c-13.6,17.1-28.1,27.8-35.6,28.4c-2.5,0.2-3.8-0.8-4.4-1.7c-1.4-2.1-0.8-5.7,2-10.8
		c6.2-11.7,23.4-18.6,36.3-18.6h0.4c7.6-9.7,13.9-20.2,19-31.4c4.5-10,4.9-16.8,1.2-20.4c-5.1-5-18.5-4.4-38.7,2
		c-10.1,3.3-20.1,7.1-29.8,11.5c-0.7,0.3-1.5,0-1.8-0.6s0-1.5,0.6-1.8c0,0,0,0,0,0c2.4-1.1,57.5-26.8,71.5-13
		c4.6,4.5,4.3,12.4-0.7,23.5c-4.9,10.8-11,21-18.2,30.5c7.4,0.8,12.7,4,15,9.3c3,6.9,2.2,20.3-19,45.5
		C405.2,388.9,404.9,389.1,404.5,389.1z M404,336.5c-14.6,0.6-27.8,9-32.1,17.1c-3.1,5.8-2.4,7.6-2.1,8.1s0.9,0.6,1.9,0.5
		C377.8,361.7,391,352.3,404,336.5z"></path><circle class="st0" cx="420.4" cy="366" r="6"></circle><path class="st1" d="M335.5,349.5c-0.7,0-1.4-0.6-1.4-1.3c0-0.6,0.3-1.1,0.9-1.3c53.4-21.5,66.5-103.4,66.6-104.3
		c0.1-0.7,0.8-1.3,1.5-1.1c0.7,0.1,1.3,0.8,1.1,1.6c-2.8,15.4-7.2,30.4-13.3,44.7c-9.3,21.8-26.3,50.1-55,61.6
		C335.8,349.4,335.6,349.5,335.5,349.5z"></path><path class="st1" d="M180.4,338.3c0,0,4.6-8.2-3.3-20.9l-13.4,9.8C163.7,327.1,167.2,341,180.4,338.3z"></path><path class="st1" d="M197.5,307.8c0.3-7.3-2.3-14.5-7.1-20l-12.7,8C177.7,295.8,188.6,309.7,197.5,307.8z"></path><path class="st2" d="M140.9,220.5l18.3-10.1c14-7.8,23.9-21.3,27.3-37c2-8.9,5.4-18.1,11.5-22.9c8.8-7,28.4-19.4,42.1-27.8
		c6-3.7,8.2-11.8,14.3-14.3c15.2-6.2,39,1.8,39,15.9c0,0,15.1,1.4,14.2,23.3c0,0,15.8,2.1,14.8,24.6l-0.7,9.4
		c6.1,3.9,9.8,10.5,9.9,17.7c0.5,12.5-40.7,48.9-60.2,53.8s-31.6,11.1-40.2,16.6s-45.6,29-50.9,29.6S140.8,239.3,140.9,220.5z"></path><path class="st3" d="M140.9,220.5c0,0,28.6,75.6,56.6,87.2l-30.2,19.5c0,0-31.6-33.6-49.4-95.3L140.9,220.5z"></path><linearGradient id="SVGID_00000050649250726264274690000000319193518185102254_-LpWA8BXhev" gradientUnits="userSpaceOnUse" x1="-28.9829" y1="167.8388" x2="134.0045" y2="167.8388" gradientTransform="matrix(0.9921 -0.1252 -0.1252 -0.9921 64.7672 492.3897)"><stop offset="0" style="stop-color: rgb(243, 131, 116);"></stop><stop offset="1" style="stop-color: rgb(198, 66, 52);"></stop></linearGradient><path d="M117.9,232c0,0,18.9,67.3,62.5,106.3
		L62,408.1c0,0-28.9-60.9-52-118.3L117.9,232z" style="fill: url(&quot;#SVGID_00000050649250726264274690000000319193518185102254_-LpWA8BXhev&quot;);"></path><path class="st1" d="M164.5,349.5c-0.2,0-0.3,0-0.5-0.1c-15.8-6.4-38.2-22.2-55-61.6c-6.1-14.4-10.6-29.4-13.3-44.7
		c-0.1-0.7,0.4-1.4,1.1-1.6s1.4,0.4,1.6,1.1c0.1,0.8,13.3,82.8,66.7,104.3c0.7,0.3,1,1,0.8,1.7C165.6,349.1,165.1,349.5,164.5,349.5
		L164.5,349.5z"></path><path class="st0" d="M71.1,344c-10.3,0-22.8-7.6-37.4-22.6c-9.1-9.6-17.4-19.9-24.8-30.8c-0.5-0.6-0.4-1.4,0.2-1.9
		c0.6-0.5,1.4-0.4,1.9,0.2c0,0.1,0.1,0.1,0.1,0.2c0.4,0.6,34.8,52.2,60,52.2c2.6,0,5.2-0.6,7.5-1.8c3.8-2,6.6-5.5,7.6-9.7
		c6-21.8-20.7-65.1-20.9-65.6c-0.4-0.6-0.3-1.5,0.3-1.9c0.6-0.4,1.5-0.3,1.9,0.3c0,0,0,0.1,0.1,0.1c4.9,8,9.2,16.4,13,25
		c8.2,18.6,10.9,33,8.3,42.7c-1.2,4.9-4.5,9.1-9,11.4C77.2,343.3,74.2,344,71.1,344z"></path><circle class="st0" cx="84.1" cy="301.8" r="6"></circle><path class="st2" d="M247.1,118.5c0,0-18.1-6.6-29.7-7.4s-17.9,16.4-17.9,16.4s-19.9,4.4-16.1,22c0,0-16.9,9.7-13.6,23.5
		s10.2,31.4,7.4,39.6s9.5,14.1,17.4,9.2s12.3-21.5,12.3-21.5s11,10.7,21,1.3s3.8-17.9,3.8-17.9s21.7,10.3,21.4-13.6
		s-15.9-38.8-13.6-43.2S247.1,118.5,247.1,118.5z"></path><path class="st6" d="M186.1,225.5c-4.1,0-6.7-0.7-8.4-2.3c-2.4-2.3-2.4-5.8-2.4-10.6c0-7.8-0.9-17.3-0.9-17.4
		c-0.1-1.1,0.7-2.1,1.8-2.2s2.1,0.7,2.2,1.8c0,0.4,1,9.8,1,17.8c0,3.8,0,6.5,1.2,7.6s3.5,1.4,7.6,1.1c6.2-0.3,10.9-3.9,13.9-10.7
		c1.5-3.3,2.5-6.9,2.9-10.5c0.1-1,0.8-1.8,1.8-1.9c1-0.1,1.9,0.5,2.2,1.4c0.2,0.7,2.8,7,14,3.5c11.5-3.6,7.1-18.3,6.9-18.9
		c-0.2-0.8,0-1.7,0.7-2.2c0.7-0.5,1.6-0.6,2.3-0.1c0.1,0,6.6,4,11.7,2.1c2.5-1,4.3-3.3,5.4-7c2.9-10-3-24.8-6.9-34.5
		c-2.5-6.3-3.5-8.9-3-10.7c0.3-1.1,1.4-1.8,2.5-1.5c1.1,0.3,1.8,1.4,1.5,2.5l0,0c0,1,1.5,4.8,2.9,8.2c4.1,10.3,10.4,25.9,7.1,37.2
		c-1.5,5-4.1,8.2-7.9,9.7c-4,1.5-8.4,0.6-11.4-0.6c0.5,3.5,0.6,8.5-1.7,12.8c-1.8,3.4-5,6-8.8,7c-7.8,2.4-12.9,0.8-15.9-1.7
		c-2,8.4-7.7,19.4-19.8,20C187.6,225.5,186.8,225.5,186.1,225.5z"></path><path class="st6" d="M207,202.4c-0.9,0-1.7-0.5-2-1.4c-0.1-0.3-9.7-29.1-17.5-40.2c-0.6-0.9-0.4-2.2,0.5-2.8s2.2-0.4,2.8,0.5
		c8.1,11.6,17.6,40.1,18,41.3c0.3,1.1-0.3,2.2-1.3,2.6c-0.2,0.1-0.4,0.1-0.6,0.1L207,202.4z"></path><path class="st6" d="M230.2,183.1c-0.9,0-1.6-0.5-1.9-1.3c-0.1-0.3-12.3-32-23.4-44.2c-0.8-0.8-0.7-2.1,0.1-2.9
		c0.8-0.8,2.1-0.7,2.9,0.1c11.6,12.8,23.7,44.2,24.2,45.5c0.4,1.1-0.1,2.2-1.2,2.6C230.7,183,230.5,183.1,230.2,183.1L230.2,183.1z"></path><path class="st6" d="M249.8,262.5c-1.1,0-2.1-0.9-2.1-2c0-1.1,0.9-2.1,2-2.1c0.1,0,8-0.6,25.9-10.9c18.3-10.5,51.8-43.1,52.1-43.4
		c0.8-0.8,2.1-0.8,2.9,0c0.8,0.8,0.8,2.1,0,2.9l0,0c-1.4,1.4-34.1,33.3-53,44C258.6,261.9,250.2,262.4,249.8,262.5L249.8,262.5z"></path><path class="st6" d="M294.7,207.2c-0.7,0-1.4-0.4-1.7-1c-0.6-0.9-0.3-2.2,0.6-2.8c0,0,0,0,0.1,0c11.9-7.4,26.5-23.1,26.7-23.3
		c0.8-0.8,2.1-0.9,2.9-0.1c0.8,0.8,0.9,2.1,0.1,2.9c-0.6,0.7-15.1,16.2-27.5,23.9C295.4,207.1,295,207.2,294.7,207.2z"></path><path class="st6" d="M290.1,170.4c-1.1,0.1-2-0.8-2.1-1.9c0-0.6,0.2-1.2,0.7-1.6c6.4-6.3,12.2-13.2,17.4-20.4
		c0.6-0.9,1.9-1.2,2.8-0.5c0.9,0.6,1.2,1.9,0.5,2.8l0,0c-5.3,7.5-11.3,14.6-17.9,21.1C291.1,170.2,290.6,170.4,290.1,170.4z"></path><path class="st6" d="M269.4,145.1c-1.1,0.1-2.1-0.8-2.1-1.9c-0.1-0.8,0.3-1.5,1-1.9c8.3-5.6,23.8-18.5,23.9-18.7
		c0.9-0.7,2.1-0.6,2.9,0.3c0.7,0.9,0.6,2.1-0.3,2.9l0,0c-0.6,0.5-15.8,13.2-24.2,18.9C270.2,145,269.8,145.1,269.4,145.1z"></path><path class="st2" d="M241.9,132.4c0,0,18.4-5.8,23.2-17.6S243.5,93.6,235,94.4s-24-2.9-30.3,2.5s-4.4,16.9,5.8,22.2
		S240.2,127.2,241.9,132.4z"></path><path class="st6" d="M244.6,134.5c-1,0-2,0-3-0.2c-0.7-0.1-1.3-0.5-1.6-1.1c-1.8-3.5-8.4-10.1-15.4-10.6
		c-5.7-0.5-11.4-1.7-16.8-3.6c-1.1-0.4-1.6-1.5-1.2-2.6s1.5-1.6,2.6-1.2l0,0c5.1,1.7,10.4,2.8,15.8,3.3c8.3,0.6,15.5,7.5,18.2,11.8
		c2.7,0.1,10.3,0.1,15.3-4.6c3.6-3.4,5.2-8.6,4.8-15.6c-0.1-1.1,0.8-2.1,1.9-2.2c1.1-0.1,2.1,0.8,2.2,1.9c0.5,8.2-1.6,14.6-6.1,18.8
		C255.9,133.8,248.6,134.5,244.6,134.5z"></path><path class="st6" d="M315.9,272.2c-0.4,0-0.8-0.1-1.1-0.3l-19.4-12.3c-0.9-0.6-1.2-1.9-0.6-2.8c0.6-0.9,1.9-1.2,2.8-0.6l19.5,12.3
		c1,0.5,1.3,1.7,0.8,2.7C317.5,271.8,316.7,272.2,315.9,272.2L315.9,272.2z"></path><path class="st6" d="M326.6,251c-0.3,0-0.6-0.1-0.9-0.2l-6.1-3.1c-1-0.5-1.4-1.7-0.9-2.7c0.5-1,1.7-1.4,2.7-0.9l0,0l6.1,3.1
		c1,0.4,1.6,1.5,1.2,2.6C328.4,250.6,327.5,251.1,326.6,251z"></path></g></svg>